<svg width="16" height="16" viewBox="0 0 16 16" fill="none" xmlns="http://www.w3.org/2000/svg">
<path d="M13.5 5C14.8807 5 16 3.88071 16 2.5C16 1.11929 14.8807 0 13.5 0C12.1193 0 11 1.11929 11 2.5C11 3.88071 12.1193 5 13.5 5Z" fill="#52A8FF"/>
<path fill-rule="evenodd" clip-rule="evenodd" d="M10.035 4.5H2V6H4.671C4.95934 5.99972 5.24433 6.06179 5.50644 6.18196C5.76854 6.30212 6.00157 6.47754 6.18954 6.69619C6.37751 6.91484 6.51598 7.17155 6.59545 7.44872C6.67493 7.72589 6.69354 8.01697 6.65 8.302L6.43 9.733C6.338 10.216 6.19 10.687 6 11.14L4.33 15.2L5.922 15.888L7.594 11.916C7.727 11.601 8.274 11.601 8.406 11.916L10.078 15.888L11.67 15.2L10 11.14C9.80775 10.6874 9.66362 10.2158 9.57 9.733L9.283 8.43C9.21865 8.13769 9.22073 7.83466 9.28908 7.54326C9.35743 7.25186 9.49032 6.97952 9.67794 6.74631C9.86556 6.51311 10.1031 6.32499 10.3731 6.19582C10.6431 6.06665 10.9387 5.99973 11.238 6H11.563C10.9278 5.64719 10.4001 5.12881 10.036 4.5H10.035ZM9.5 1.5C9.5 1.89782 9.34196 2.27936 9.06066 2.56066C8.77936 2.84196 8.39782 3 8 3C7.60218 3 7.22064 2.84196 6.93934 2.56066C6.65804 2.27936 6.5 1.89782 6.5 1.5C6.5 1.10218 6.65804 0.720644 6.93934 0.43934C7.22064 0.158035 7.60218 0 8 0C8.39782 0 8.77936 0.158035 9.06066 0.43934C9.34196 0.720644 9.5 1.10218 9.5 1.5Z" fill="white"/>
</svg>
