<svg width="16" height="16" viewBox="0 0 16 16" fill="none" xmlns="http://www.w3.org/2000/svg">
<g clip-path="url(#clip0_5_2077)">
<path fill-rule="evenodd" clip-rule="evenodd" d="M0 2.5C0 1.83696 0.263392 1.20107 0.732233 0.732233C1.20107 0.263392 1.83696 0 2.5 0L13.5 0C14.163 0 14.7989 0.263392 15.2678 0.732233C15.7366 1.20107 16 1.83696 16 2.5V13.5C16 14.163 15.7366 14.7989 15.2678 15.2678C14.7989 15.7366 14.163 16 13.5 16H2.5C1.83696 16 1.20107 15.7366 0.732233 15.2678C0.263392 14.7989 0 14.163 0 13.5L0 2.5ZM12.125 9.5C12.0255 9.5 11.9302 9.53951 11.8598 9.60983C11.7895 9.68016 11.75 9.77554 11.75 9.875C11.75 9.97446 11.7895 10.0698 11.8598 10.1402C11.9302 10.2105 12.0255 10.25 12.125 10.25C12.6223 10.25 13.0992 10.4475 13.4508 10.7992C13.8025 11.1508 14 11.6277 14 12.125C14 12.6223 13.8025 13.0992 13.4508 13.4508C13.0992 13.8025 12.6223 14 12.125 14H10.5V12.5H12.125C12.2245 12.5 12.3198 12.4605 12.3902 12.3902C12.4605 12.3198 12.5 12.2245 12.5 12.125C12.5 12.0255 12.4605 11.9302 12.3902 11.8598C12.3198 11.7895 12.2245 11.75 12.125 11.75C11.6277 11.75 11.1508 11.5525 10.7992 11.2008C10.4475 10.8492 10.25 10.3723 10.25 9.875C10.25 9.37772 10.4475 8.90081 10.7992 8.54917C11.1508 8.19754 11.6277 8 12.125 8H13.5V9.5H12.125ZM5 9.5H6.25V14H7.75V9.5H9V8H5V9.5Z" fill="white"/>
</g>
<defs>
<clipPath id="clip0_5_2077">
<rect width="16" height="16" fill="white"/>
</clipPath>
</defs>
</svg>
