<svg width="16" height="16" viewBox="0 0 16 16" fill="none" xmlns="http://www.w3.org/2000/svg">
<g clip-path="url(#clip0_5_2036)">
<path fill-rule="evenodd" clip-rule="evenodd" d="M0 2.5C0 1.83696 0.263392 1.20107 0.732233 0.732233C1.20107 0.263392 1.83696 0 2.5 0L13.5 0C14.163 0 14.7989 0.263392 15.2678 0.732233C15.7366 1.20107 16 1.83696 16 2.5V13.5C16 14.163 15.7366 14.7989 15.2678 15.2678C14.7989 15.7366 14.163 16 13.5 16H2.5C1.83696 16 1.20107 15.7366 0.732233 15.2678C0.263392 14.7989 0 14.163 0 13.5L0 2.5ZM7.5 8V12.125C7.5 12.2245 7.46049 12.3198 7.39016 12.3902C7.31984 12.4605 7.22446 12.5 7.125 12.5C7.02554 12.5 6.93016 12.4605 6.85984 12.3902C6.78951 12.3198 6.75 12.2245 6.75 12.125V11.75H5.25V12.125C5.25 12.6223 5.44754 13.0992 5.79917 13.4508C6.15081 13.8025 6.62772 14 7.125 14C7.62228 14 8.09919 13.8025 8.45083 13.4508C8.80246 13.0992 9 12.6223 9 12.125V8H7.5ZM11.75 9.875C11.75 9.668 11.918 9.5 12.125 9.5H13.5V8H12.125C11.6277 8 11.1508 8.19754 10.7992 8.54917C10.4475 8.90081 10.25 9.37772 10.25 9.875C10.25 10.3723 10.4475 10.8492 10.7992 11.2008C11.1508 11.5525 11.6277 11.75 12.125 11.75C12.2245 11.75 12.3198 11.7895 12.3902 11.8598C12.4605 11.9302 12.5 12.0255 12.5 12.125C12.5 12.2245 12.4605 12.3198 12.3902 12.3902C12.3198 12.4605 12.2245 12.5 12.125 12.5H10.5V14H12.125C12.6223 14 13.0992 13.8025 13.4508 13.4508C13.8025 13.0992 14 12.6223 14 12.125C14 11.6277 13.8025 11.1508 13.4508 10.7992C13.0992 10.4475 12.6223 10.25 12.125 10.25C12.0255 10.25 11.9302 10.2105 11.8598 10.1402C11.7895 10.0698 11.75 9.97446 11.75 9.875Z" fill="white"/>
</g>
<defs>
<clipPath id="clip0_5_2036">
<rect width="16" height="16" fill="white"/>
</clipPath>
</defs>
</svg>
