<svg width="26" height="16" viewBox="0 0 26 16" fill="none" xmlns="http://www.w3.org/2000/svg">
<g clip-path="url(#clip0_5_2033)">
<path fill-rule="evenodd" clip-rule="evenodd" d="M23.5 2.25H2.5C1.81 2.25 1.25 2.81 1.25 3.5V12.5C1.25 13.19 1.81 13.75 2.5 13.75H23.5C24.19 13.75 24.75 13.19 24.75 12.5V3.5C24.75 2.81 24.19 2.25 23.5 2.25ZM2.5 1C1.83696 1 1.20107 1.26339 0.732233 1.73223C0.263392 2.20107 0 2.83696 0 3.5L0 12.5C0 13.163 0.263392 13.7989 0.732233 14.2678C1.20107 14.7366 1.83696 15 2.5 15H23.5C24.163 15 24.7989 14.7366 25.2678 14.2678C25.7366 13.7989 26 13.163 26 12.5V3.5C26 2.83696 25.7366 2.20107 25.2678 1.73223C24.7989 1.26339 24.163 1 23.5 1H2.5ZM15 6.5H13.75V5H17.75V6.5H16.5V11H15V6.5ZM8.5 6.5H9.75V11H11.25V6.5H12.5V5H8.5V6.5ZM3 11V5H4.5V7.25H5.5V5H7V11H5.5V8.75H4.5V11H3ZM20.5 11V9H21.25C21.7141 9 22.1592 8.81563 22.4874 8.48744C22.8156 8.15925 23 7.71413 23 7.25V6.75C23 6.28587 22.8156 5.84075 22.4874 5.51256C22.1592 5.18437 21.7141 5 21.25 5H19V11H20.5ZM21.25 7.5H20.5V6.5H21.25C21.3163 6.5 21.3799 6.52634 21.4268 6.57322C21.4737 6.62011 21.5 6.6837 21.5 6.75V7.25C21.5 7.3163 21.4737 7.37989 21.4268 7.42678C21.3799 7.47366 21.3163 7.5 21.25 7.5Z" fill="white"/>
</g>
<defs>
<clipPath id="clip0_5_2033">
<rect width="26" height="16" fill="white"/>
</clipPath>
</defs>
</svg>
