<svg width="20" height="16" viewBox="0 0 20 16" fill="none" xmlns="http://www.w3.org/2000/svg">
<g clip-path="url(#clip0_5_2035)">
<path fill-rule="evenodd" clip-rule="evenodd" d="M2.5 2.25H17.5C18.19 2.25 18.75 2.81 18.75 3.5V12.5C18.75 13.19 18.19 13.75 17.5 13.75H2.5C1.81 13.75 1.25 13.19 1.25 12.5V3.5C1.25 2.81 1.81 2.25 2.5 2.25ZM0 3.5C0 2.83696 0.263392 2.20107 0.732233 1.73223C1.20107 1.26339 1.83696 1 2.5 1H17.5C18.163 1 18.7989 1.26339 19.2678 1.73223C19.7366 2.20107 20 2.83696 20 3.5V12.5C20 13.163 19.7366 13.7989 19.2678 14.2678C18.7989 14.7366 18.163 15 17.5 15H2.5C1.83696 15 1.20107 14.7366 0.732233 14.2678C0.263392 13.7989 0 13.163 0 12.5L0 3.5ZM5 9.125V5H6.5V9.125C6.5 9.62228 6.30246 10.0992 5.95083 10.4508C5.59919 10.8025 5.12228 11 4.625 11C4.12772 11 3.65081 10.8025 3.29917 10.4508C2.94754 10.0992 2.75 9.62228 2.75 9.125V8.75H4.25V9.125C4.25 9.22446 4.28951 9.31984 4.35984 9.39017C4.43016 9.46049 4.52554 9.5 4.625 9.5C4.72446 9.5 4.81984 9.46049 4.89016 9.39017C4.96049 9.31984 5 9.22446 5 9.125ZM9.25 9V11H7.75V5H10C10.966 5 11.75 5.784 11.75 6.75V7.25C11.75 7.71413 11.5656 8.15925 11.2374 8.48744C10.9092 8.81563 10.4641 9 10 9H9.25ZM9.25 7.5H10C10.0663 7.5 10.1299 7.47366 10.1768 7.42678C10.2237 7.37989 10.25 7.3163 10.25 7.25V6.75C10.25 6.6837 10.2237 6.62011 10.1768 6.57322C10.1299 6.52634 10.0663 6.5 10 6.5H9.25V7.5ZM14.75 5C14.1533 5 13.581 5.23705 13.159 5.65901C12.7371 6.08097 12.5 6.65326 12.5 7.25V8.75C12.5 9.34674 12.7371 9.91903 13.159 10.341C13.581 10.7629 14.1533 11 14.75 11H16C16.69 11 17.25 10.44 17.25 9.75V9.25C17.25 8.56 16.69 8 16 8H15.25V9.5H14.75C14.5511 9.5 14.3603 9.42098 14.2197 9.28033C14.079 9.13968 14 8.94891 14 8.75V7.25C14 7.05109 14.079 6.86032 14.2197 6.71967C14.3603 6.57902 14.5511 6.5 14.75 6.5H15.25C15.3826 6.5 15.5098 6.55268 15.6036 6.64645C15.6973 6.74021 15.75 6.86739 15.75 7H17.25C17.25 6.46957 17.0393 5.96086 16.6642 5.58579C16.2891 5.21071 15.7804 5 15.25 5H14.75Z" fill="white"/>
</g>
<defs>
<clipPath id="clip0_5_2035">
<rect width="20" height="16" fill="white"/>
</clipPath>
</defs>
</svg>
