<svg width="20" height="16" viewBox="0 0 20 16" fill="none" xmlns="http://www.w3.org/2000/svg">
<g clip-path="url(#clip0_5_2075)">
<path fill-rule="evenodd" clip-rule="evenodd" d="M2.5 2.25H17.5C18.19 2.25 18.75 2.81 18.75 3.5V12.5C18.75 13.19 18.19 13.75 17.5 13.75H2.5C1.81 13.75 1.25 13.19 1.25 12.5V3.5C1.25 2.81 1.81 2.25 2.5 2.25ZM0 3.5C0 2.83696 0.263392 2.20107 0.732233 1.73223C1.20107 1.26339 1.83696 1 2.5 1H17.5C18.163 1 18.7989 1.26339 19.2678 1.73223C19.7366 2.20107 20 2.83696 20 3.5V12.5C20 13.163 19.7366 13.7989 19.2678 14.2678C18.7989 14.7366 18.163 15 17.5 15H2.5C1.83696 15 1.20107 14.7366 0.732233 14.2678C0.263392 13.7989 0 13.163 0 12.5L0 3.5ZM4.25 6.875C4.25 6.668 4.418 6.5 4.625 6.5H6V5H4.625C4.12772 5 3.65081 5.19754 3.29917 5.54917C2.94754 5.90081 2.75 6.37772 2.75 6.875C2.75 7.37228 2.94754 7.8492 3.29917 8.20083C3.65081 8.55246 4.12772 8.75 4.625 8.75C4.72446 8.75 4.81984 8.78951 4.89016 8.85983C4.96049 8.93016 5 9.02554 5 9.125C5 9.22446 4.96049 9.31984 4.89016 9.39017C4.81984 9.46049 4.72446 9.5 4.625 9.5H3V11H4.625C5.12228 11 5.59919 10.8025 5.95083 10.4508C6.30246 10.0992 6.5 9.62228 6.5 9.125C6.5 8.62772 6.30246 8.15081 5.95083 7.79917C5.59919 7.44754 5.12228 7.25 4.625 7.25C4.52554 7.25 4.43016 7.21049 4.35984 7.14016C4.28951 7.06984 4.25 6.97446 4.25 6.875ZM9 5V8.586C9 8.652 9.026 8.716 9.073 8.763L9.5 9.189L9.927 8.763C9.9502 8.73974 9.96859 8.71214 9.98112 8.68177C9.99364 8.65139 10.0001 8.61885 10 8.586V5H11.5V8.586C11.5 9.05 11.316 9.495 10.987 9.823L10.03 10.78L9.5 11.31L8.97 10.78L8.013 9.823C7.68476 9.49499 7.50023 9.05004 7.5 8.586V5H9ZM14.75 5C14.1533 5 13.581 5.23705 13.159 5.65901C12.7371 6.08097 12.5 6.65326 12.5 7.25V8.75C12.5 9.34674 12.7371 9.91903 13.159 10.341C13.581 10.7629 14.1533 11 14.75 11H16C16.69 11 17.25 10.44 17.25 9.75V9.25C17.25 8.56 16.69 8 16 8H15.25V9.5H14.75C14.5511 9.5 14.3603 9.42098 14.2197 9.28033C14.079 9.13968 14 8.94891 14 8.75V7.25C14 7.05109 14.079 6.86032 14.2197 6.71967C14.3603 6.57902 14.5511 6.5 14.75 6.5H15.25C15.3826 6.5 15.5098 6.55268 15.6036 6.64645C15.6973 6.74021 15.75 6.86739 15.75 7H17.25C17.25 6.46957 17.0393 5.96086 16.6642 5.58579C16.2891 5.21071 15.7804 5 15.25 5H14.75Z" fill="white"/>
</g>
<defs>
<clipPath id="clip0_5_2075">
<rect width="20" height="16" fill="white"/>
</clipPath>
</defs>
</svg>
