<svg width="20" height="16" viewBox="0 0 20 16" fill="none" xmlns="http://www.w3.org/2000/svg">
<g clip-path="url(#clip0_5_2032)">
<path fill-rule="evenodd" clip-rule="evenodd" d="M2.5 2.25H17.5C18.19 2.25 18.75 2.81 18.75 3.5V12.5C18.75 13.19 18.19 13.75 17.5 13.75H2.5C1.81 13.75 1.25 13.19 1.25 12.5V3.5C1.25 2.81 1.81 2.25 2.5 2.25ZM0 3.5C0 2.83696 0.263392 2.20107 0.732233 1.73223C1.20107 1.26339 1.83696 1 2.5 1H17.5C18.163 1 18.7989 1.26339 19.2678 1.73223C19.7366 2.20107 20 2.83696 20 3.5V12.5C20 13.163 19.7366 13.7989 19.2678 14.2678C18.7989 14.7366 18.163 15 17.5 15H2.5C1.83696 15 1.20107 14.7366 0.732233 14.2678C0.263392 13.7989 0 13.163 0 12.5L0 3.5ZM6 5C5.40326 5 4.83097 5.23705 4.40901 5.65901C3.98705 6.08097 3.75 6.65326 3.75 7.25V8.75C3.75 9.34674 3.98705 9.91903 4.40901 10.341C4.83097 10.7629 5.40326 11 6 11H7.25C7.94 11 8.5 10.44 8.5 9.75V9.25C8.5 8.56 7.94 8 7.25 8H6.5V9.5H6C5.80109 9.5 5.61032 9.42098 5.46967 9.28033C5.32902 9.13968 5.25 8.94891 5.25 8.75V7.25C5.25 7.05109 5.32902 6.86032 5.46967 6.71967C5.61032 6.57902 5.80109 6.5 6 6.5H6.5C6.63261 6.5 6.75979 6.55268 6.85355 6.64645C6.94732 6.74021 7 6.86739 7 7H8.5C8.5 6.46957 8.28929 5.96086 7.91421 5.58579C7.53914 5.21071 7.03043 5 6.5 5H6ZM11.25 11H9.75V5H11.25V11ZM13.25 5H12.5V11H14V9H16.5V7.5H14V6.5H16.5V5H13.25Z" fill="white"/>
</g>
<defs>
<clipPath id="clip0_5_2032">
<rect width="20" height="16" fill="white"/>
</clipPath>
</defs>
</svg>
