<svg width="20" height="16" viewBox="0 0 20 16" fill="none" xmlns="http://www.w3.org/2000/svg">
<g clip-path="url(#clip0_5_2034)">
<path fill-rule="evenodd" clip-rule="evenodd" d="M2.5 2.25H17.5C18.19 2.25 18.75 2.81 18.75 3.5V12.5C18.75 13.19 18.19 13.75 17.5 13.75H2.5C1.81 13.75 1.25 13.19 1.25 12.5V3.5C1.25 2.81 1.81 2.25 2.5 2.25ZM0 3.5C0 2.83696 0.263392 2.20107 0.732233 1.73223C1.20107 1.26339 1.83696 1 2.5 1H17.5C18.163 1 18.7989 1.26339 19.2678 1.73223C19.7366 2.20107 20 2.83696 20 3.5V12.5C20 13.163 19.7366 13.7989 19.2678 14.2678C18.7989 14.7366 18.163 15 17.5 15H2.5C1.83696 15 1.20107 14.7366 0.732233 14.2678C0.263392 13.7989 0 13.163 0 12.5L0 3.5ZM13.5 11V9.168C14.091 9.449 14.5 10.052 14.5 10.75V11H16V10.75C16 9.964 15.721 9.243 15.257 8.682C15.707 8.365 16 7.842 16 7.25V6.75C16 6.28587 15.8156 5.84075 15.4874 5.51256C15.1592 5.18437 14.7141 5 14.25 5H12V11H13.5ZM14.25 7.5H13.5V6.5H14.25C14.3163 6.5 14.3799 6.52634 14.4268 6.57322C14.4737 6.62011 14.5 6.6837 14.5 6.75V7.25C14.5 7.3163 14.4737 7.37989 14.4268 7.42678C14.3799 7.47366 14.3163 7.5 14.25 7.5ZM5.5 5V11H4V5H5.5ZM8.5 6.875C8.5 6.668 8.668 6.5 8.875 6.5H10.25V5H8.875C8.37772 5 7.90081 5.19754 7.54917 5.54917C7.19754 5.90081 7 6.37772 7 6.875C7 7.37228 7.19754 7.8492 7.54917 8.20083C7.90081 8.55246 8.37772 8.75 8.875 8.75C8.97446 8.75 9.06984 8.78951 9.14017 8.85983C9.21049 8.93016 9.25 9.02554 9.25 9.125C9.25 9.22446 9.21049 9.31984 9.14017 9.39017C9.06984 9.46049 8.97446 9.5 8.875 9.5H7.25V11H8.875C9.37228 11 9.84919 10.8025 10.2008 10.4508C10.5525 10.0992 10.75 9.62228 10.75 9.125C10.75 8.62772 10.5525 8.15081 10.2008 7.79917C9.84919 7.44754 9.37228 7.25 8.875 7.25C8.77554 7.25 8.68016 7.21049 8.60983 7.14016C8.53951 7.06984 8.5 6.97446 8.5 6.875Z" fill="white"/>
</g>
<defs>
<clipPath id="clip0_5_2034">
<rect width="20" height="16" fill="white"/>
</clipPath>
</defs>
</svg>
