<svg width="20" height="16" viewBox="0 0 20 16" fill="none" xmlns="http://www.w3.org/2000/svg">
<g clip-path="url(#clip0_5_2078)">
<path fill-rule="evenodd" clip-rule="evenodd" d="M2.5 2.25H17.5C18.19 2.25 18.75 2.81 18.75 3.5V12.5C18.75 13.19 18.19 13.75 17.5 13.75H2.5C1.81 13.75 1.25 13.19 1.25 12.5V3.5C1.25 2.81 1.81 2.25 2.5 2.25ZM0 3.5C0 2.83696 0.263392 2.20107 0.732233 1.73223C1.20107 1.26339 1.83696 1 2.5 1H17.5C18.163 1 18.7989 1.26339 19.2678 1.73223C19.7366 2.20107 20 2.83696 20 3.5V12.5C20 13.163 19.7366 13.7989 19.2678 14.2678C18.7989 14.7366 18.163 15 17.5 15H2.5C1.83696 15 1.20107 14.7366 0.732233 14.2678C0.263392 13.7989 0 13.163 0 12.5L0 3.5ZM14.5 11V9.168C15.091 9.449 15.5 10.052 15.5 10.75V11H17V10.75C17 9.964 16.721 9.243 16.257 8.682C16.707 8.365 17 7.842 17 7.25V6.75C17 6.28587 16.8156 5.84075 16.4874 5.51256C16.1592 5.18437 15.7141 5 15.25 5H13V11H14.5ZM15.25 7.5H14.5V6.5H15.25C15.3163 6.5 15.3799 6.52634 15.4268 6.57322C15.4737 6.62011 15.5 6.6837 15.5 6.75V7.25C15.5 7.3163 15.4737 7.37989 15.4268 7.42678C15.3799 7.47366 15.3163 7.5 15.25 7.5ZM4.5 9V11H3V5H5.25C6.216 5 7 5.784 7 6.75V7.25C7 7.71413 6.81563 8.15925 6.48744 8.48744C6.15925 8.81563 5.71413 9 5.25 9H4.5ZM4.5 7.5H5.25C5.3163 7.5 5.37989 7.47366 5.42678 7.42678C5.47366 7.37989 5.5 7.3163 5.5 7.25V6.75C5.5 6.6837 5.47366 6.62011 5.42678 6.57322C5.37989 6.52634 5.3163 6.5 5.25 6.5H4.5V7.5ZM9.55 11V9H10.3C10.7641 9 11.2092 8.81563 11.5374 8.48744C11.8656 8.15925 12.05 7.71413 12.05 7.25V6.75C12.05 6.28587 11.8656 5.84075 11.5374 5.51256C11.2092 5.18437 10.7641 5 10.3 5H8.05V11H9.55ZM10.3 7.5H9.55V6.5H10.3C10.3663 6.5 10.4299 6.52634 10.4768 6.57322C10.5237 6.62011 10.55 6.6837 10.55 6.75V7.25C10.55 7.3163 10.5237 7.37989 10.4768 7.42678C10.4299 7.47366 10.3663 7.5 10.3 7.5Z" fill="white"/>
</g>
<defs>
<clipPath id="clip0_5_2078">
<rect width="20" height="16" fill="white"/>
</clipPath>
</defs>
</svg>
