<svg width="20" height="16" viewBox="0 0 20 16" fill="none" xmlns="http://www.w3.org/2000/svg">
<g clip-path="url(#clip0_5_2030)">
<path fill-rule="evenodd" clip-rule="evenodd" d="M17.5 2.25H2.5C1.81 2.25 1.25 2.81 1.25 3.5V12.5C1.25 13.19 1.81 13.75 2.5 13.75H17.5C18.19 13.75 18.75 13.19 18.75 12.5V3.5C18.75 2.81 18.19 2.25 17.5 2.25ZM2.5 1C1.83696 1 1.20107 1.26339 0.732233 1.73223C0.263392 2.20107 0 2.83696 0 3.5L0 12.5C0 13.163 0.263392 13.7989 0.732233 14.2678C1.20107 14.7366 1.83696 15 2.5 15H17.5C18.163 15 18.7989 14.7366 19.2678 14.2678C19.7366 13.7989 20 13.163 20 12.5V3.5C20 2.83696 19.7366 2.20107 19.2678 1.73223C18.7989 1.26339 18.163 1 17.5 1H2.5ZM5.5 8V6.75C5.5 6.6837 5.52634 6.62011 5.57322 6.57322C5.62011 6.52634 5.6837 6.5 5.75 6.5H6.25C6.3163 6.5 6.37989 6.52634 6.42678 6.57322C6.47366 6.62011 6.5 6.6837 6.5 6.75V8H5.5ZM5.5 9.5V11H4V6.75C4 5.784 4.784 5 5.75 5H6.25C7.216 5 8 5.784 8 6.75V11H6.5V9.5H5.5ZM10.75 9V11H9.25V5H11.5C12.466 5 13.25 5.784 13.25 6.75V7.25C13.25 7.71413 13.0656 8.15925 12.7374 8.48744C12.4092 8.81563 11.9641 9 11.5 9H10.75ZM10.75 7.5H11.5C11.5663 7.5 11.6299 7.47366 11.6768 7.42678C11.7237 7.37989 11.75 7.3163 11.75 7.25V6.75C11.75 6.6837 11.7237 6.62011 11.6768 6.57322C11.6299 6.52634 11.5663 6.5 11.5 6.5H10.75V7.5ZM14.5 11H16V5H14.5V11Z" fill="white"/>
</g>
<defs>
<clipPath id="clip0_5_2030">
<rect width="20" height="16" fill="white"/>
</clipPath>
</defs>
</svg>
