<svg width="22" height="16" viewBox="0 0 22 16" fill="none" xmlns="http://www.w3.org/2000/svg">
<g clip-path="url(#clip0_5_2038)">
<path fill-rule="evenodd" clip-rule="evenodd" d="M19.5 2.25H2.5C1.81 2.25 1.25 2.81 1.25 3.5V12.5C1.25 13.19 1.81 13.75 2.5 13.75H19.5C20.19 13.75 20.75 13.19 20.75 12.5V3.5C20.75 2.81 20.19 2.25 19.5 2.25ZM2.5 1C1.83696 1 1.20107 1.26339 0.732233 1.73223C0.263392 2.20107 0 2.83696 0 3.5L0 12.5C0 13.163 0.263392 13.7989 0.732233 14.2678C1.20107 14.7366 1.83696 15 2.5 15H19.5C20.163 15 20.7989 14.7366 21.2678 14.2678C21.7366 13.7989 22 13.163 22 12.5V3.5C22 2.83696 21.7366 2.20107 21.2678 1.73223C20.7989 1.26339 20.163 1 19.5 1H2.5ZM3 4.5H4.69L4.987 4.824L7 7.02L9.013 4.824L9.31 4.5H11V11.5H9V7.798L7.737 9.176L7 9.98L6.263 9.176L5 7.798V11.5H3V4.5ZM15 8V4.5H17V8H19.5L17 10.5L16 11.5L15 10.5L12.5 8H15Z" fill="white"/>
</g>
<defs>
<clipPath id="clip0_5_2038">
<rect width="22" height="16" fill="white"/>
</clipPath>
</defs>
</svg>
