<svg width="27" height="14" viewBox="0 0 27 14" fill="none" xmlns="http://www.w3.org/2000/svg">
<g clip-path="url(#clip0_5_2076)">
<path fill-rule="evenodd" clip-rule="evenodd" d="M24 1.25H3C2.31 1.25 1.75 1.81 1.75 2.5V11.5C1.75 12.19 2.31 12.75 3 12.75H24C24.69 12.75 25.25 12.19 25.25 11.5V2.5C25.25 1.81 24.69 1.25 24 1.25ZM3 0C2.6717 0 2.34661 0.0646644 2.04329 0.190301C1.73998 0.315938 1.46438 0.500087 1.23223 0.732233C0.763392 1.20107 0.5 1.83696 0.5 2.5V11.5C0.5 12.163 0.763392 12.7989 1.23223 13.2678C1.46438 13.4999 1.73998 13.6841 2.04329 13.8097C2.34661 13.9353 2.6717 14 3 14H24C24.663 14 25.2989 13.7366 25.7678 13.2678C26.2366 12.7989 26.5 12.163 26.5 11.5V2.5C26.5 1.83696 26.2366 1.20107 25.7678 0.732233C25.2989 0.263392 24.663 0 24 0L3 0ZM19 4H20.441L20.656 4.386L22 6.806V4H23.5V10H22.059L21.844 9.614L20.5 7.194V10H19V4ZM5.5 8.125V4H7V8.125C7 8.62228 6.80246 9.09919 6.45083 9.45083C6.09919 9.80246 5.62228 10 5.125 10C4.62772 10 4.15081 9.80246 3.79917 9.45083C3.44754 9.09919 3.25 8.62228 3.25 8.125V7.75H4.75V8.125C4.75 8.22446 4.78951 8.31984 4.85984 8.39017C4.93016 8.46049 5.02554 8.5 5.125 8.5C5.22446 8.5 5.31984 8.46049 5.39016 8.39017C5.46049 8.31984 5.5 8.22446 5.5 8.125ZM13 6C13 5.46957 13.2107 4.96086 13.5858 4.58579C13.9609 4.21071 14.4696 4 15 4H15.75C16.2804 4 16.7891 4.21071 17.1642 4.58579C17.5393 4.96086 17.75 5.46957 17.75 6V8C17.75 8.53043 17.5393 9.03914 17.1642 9.41421C16.7891 9.78929 16.2804 10 15.75 10H15C14.4696 10 13.9609 9.78929 13.5858 9.41421C13.2107 9.03914 13 8.53043 13 8V6ZM15 5.5C14.8674 5.5 14.7402 5.55268 14.6464 5.64645C14.5527 5.74021 14.5 5.86739 14.5 6V8C14.5 8.13261 14.5527 8.25979 14.6464 8.35355C14.7402 8.44732 14.8674 8.5 15 8.5H15.75C15.8826 8.5 16.0098 8.44732 16.1036 8.35355C16.1973 8.25979 16.25 8.13261 16.25 8V6C16.25 5.86739 16.1973 5.74021 16.1036 5.64645C16.0098 5.55268 15.8826 5.5 15.75 5.5H15ZM9.75 5.875C9.75 5.668 9.918 5.5 10.125 5.5H11.5V4H10.125C9.62772 4 9.15081 4.19754 8.79918 4.54917C8.44754 4.90081 8.25 5.37772 8.25 5.875C8.25 6.37228 8.44754 6.84919 8.79918 7.20083C9.15081 7.55246 9.62772 7.75 10.125 7.75C10.2245 7.75 10.3198 7.78951 10.3902 7.85984C10.4605 7.93016 10.5 8.02554 10.5 8.125C10.5 8.22446 10.4605 8.31984 10.3902 8.39017C10.3198 8.46049 10.2245 8.5 10.125 8.5H8.5V10H10.125C10.6223 10 11.0992 9.80246 11.4508 9.45082C11.8025 9.09919 12 8.62228 12 8.125C12 7.62772 11.8025 7.15081 11.4508 6.79917C11.0992 6.44754 10.6223 6.25 10.125 6.25C10.0255 6.25 9.93016 6.21049 9.85983 6.14016C9.78951 6.06984 9.75 5.97446 9.75 5.875Z" fill="white"/>
</g>
<defs>
<clipPath id="clip0_5_2076">
<rect width="27" height="14" fill="white"/>
</clipPath>
</defs>
</svg>
