<svg width="28" height="16" viewBox="0 0 28 16" fill="none" xmlns="http://www.w3.org/2000/svg">
<g clip-path="url(#clip0_5_2039)">
<path fill-rule="evenodd" clip-rule="evenodd" d="M2.5 2.25H25.5C26.19 2.25 26.75 2.81 26.75 3.5V12.5C26.75 13.19 26.19 13.75 25.5 13.75H2.5C1.81 13.75 1.25 13.19 1.25 12.5V3.5C1.25 2.81 1.81 2.25 2.5 2.25ZM0 3.5C0 2.83696 0.263392 2.20107 0.732233 1.73223C1.20107 1.26339 1.83696 1 2.5 1H25.5C26.163 1 26.7989 1.26339 27.2678 1.73223C27.7366 2.20107 28 2.83696 28 3.5V12.5C28 13.163 27.7366 13.7989 27.2678 14.2678C26.7989 14.7366 26.163 15 25.5 15H2.5C1.83696 15 1.20107 14.7366 0.732233 14.2678C0.263392 13.7989 0 13.163 0 12.5L0 3.5ZM10.5 6.75V8H11.5V6.75C11.5 6.6837 11.4737 6.62011 11.4268 6.57322C11.3799 6.52634 11.3163 6.5 11.25 6.5H10.75C10.6837 6.5 10.6201 6.52634 10.5732 6.57322C10.5263 6.62011 10.5 6.6837 10.5 6.75ZM10.5 11V9.5H11.5V11H13V6.75C13 6.28587 12.8156 5.84075 12.4874 5.51256C12.1592 5.18437 11.7141 5 11.25 5H10.75C10.2859 5 9.84075 5.18437 9.51256 5.51256C9.18437 5.84075 9 6.28587 9 6.75V11H10.5ZM5.5 11V9H6.25C6.71413 9 7.15925 8.81563 7.48744 8.48744C7.81563 8.15925 8 7.71413 8 7.25V6.75C8 6.28587 7.81563 5.84075 7.48744 5.51256C7.15925 5.18437 6.71413 5 6.25 5H4V11H5.5ZM6.25 7.5H5.5V6.5H6.25C6.3163 6.5 6.37989 6.52634 6.42678 6.57322C6.47366 6.62011 6.5 6.6837 6.5 6.75V7.25C6.5 7.3163 6.47366 7.37989 6.42678 7.42678C6.37989 7.47366 6.3163 7.5 6.25 7.5ZM14 7.25C14 6.65326 14.2371 6.08097 14.659 5.65901C15.081 5.23705 15.6533 5 16.25 5H16.75C17.2804 5 17.7891 5.21071 18.1642 5.58579C18.5393 5.96086 18.75 6.46957 18.75 7H17.25C17.25 6.86739 17.1973 6.74021 17.1036 6.64645C17.0098 6.55268 16.8826 6.5 16.75 6.5H16.25C16.0511 6.5 15.8603 6.57902 15.7197 6.71967C15.579 6.86032 15.5 7.05109 15.5 7.25V8.75C15.5 9.164 15.836 9.5 16.25 9.5H16.75V8H17.5C18.19 8 18.75 8.56 18.75 9.25V9.75C18.75 10.44 18.19 11 17.5 11H16.25C15.6533 11 15.081 10.7629 14.659 10.341C14.2371 9.91903 14 9.34674 14 8.75V7.25ZM21.75 5C21.2859 5 20.8408 5.18437 20.5126 5.51256C20.1844 5.84075 20 6.28587 20 6.75V9.25C20 10.216 20.784 11 21.75 11H24V9.5H21.75C21.6837 9.5 21.6201 9.47366 21.5732 9.42678C21.5263 9.37989 21.5 9.3163 21.5 9.25V8.735H24V7.235H21.5V6.75C21.5 6.6837 21.5263 6.62011 21.5732 6.57322C21.6201 6.52634 21.6837 6.5 21.75 6.5H24V5H21.75Z" fill="white"/>
</g>
<defs>
<clipPath id="clip0_5_2039">
<rect width="28" height="16" fill="white"/>
</clipPath>
</defs>
</svg>
