<svg width="21" height="16" viewBox="0 0 21 16" fill="none" xmlns="http://www.w3.org/2000/svg">
<g clip-path="url(#clip0_5_2031)">
<path fill-rule="evenodd" clip-rule="evenodd" d="M2.5 2.25H18.5C19.19 2.25 19.75 2.81 19.75 3.5V12.5C19.75 13.19 19.19 13.75 18.5 13.75H2.5C1.81 13.75 1.25 13.19 1.25 12.5V3.5C1.25 2.81 1.81 2.25 2.5 2.25ZM0 3.5C0 2.83696 0.263392 2.20107 0.732233 1.73223C1.20107 1.26339 1.83696 1 2.5 1H18.5C19.163 1 19.7989 1.26339 20.2678 1.73223C20.7366 2.20107 21 2.83696 21 3.5V12.5C21 13.163 20.7366 13.7989 20.2678 14.2678C19.7989 14.7366 19.163 15 18.5 15H2.5C1.83696 15 1.20107 14.7366 0.732233 14.2678C0.263392 13.7989 0 13.163 0 12.5L0 3.5ZM10.25 6.875C10.25 6.668 10.418 6.5 10.625 6.5H12V5H10.625C10.1277 5 9.65081 5.19754 9.29917 5.54917C8.94754 5.90081 8.75 6.37772 8.75 6.875C8.75 7.37228 8.94754 7.8492 9.29917 8.20083C9.65081 8.55246 10.1277 8.75 10.625 8.75C10.7245 8.75 10.8198 8.78951 10.8902 8.85983C10.9605 8.93016 11 9.02554 11 9.125C11 9.22446 10.9605 9.31984 10.8902 9.39017C10.8198 9.46049 10.7245 9.5 10.625 9.5H9V11H10.625C11.1223 11 11.5992 10.8025 11.9508 10.4508C12.3025 10.0992 12.5 9.62228 12.5 9.125C12.5 8.62772 12.3025 8.15081 11.9508 7.79917C11.5992 7.44754 11.1223 7.25 10.625 7.25C10.5255 7.25 10.4302 7.21049 10.3598 7.14016C10.2895 7.06984 10.25 6.97446 10.25 6.875ZM15.5 5V8.336C15.5 8.402 15.526 8.466 15.573 8.513L16 8.939L16.427 8.513C16.4502 8.48974 16.4686 8.46214 16.4811 8.43177C16.4936 8.40139 16.5001 8.36885 16.5 8.336V5H18V8.336C18 8.8 17.816 9.245 17.487 9.573L16.53 10.53L16 11.06L15.47 10.53L14.513 9.573C14.1848 9.24499 14.0002 8.80004 14 8.336V5H15.5ZM5.375 5C4.74511 5 4.14102 5.25022 3.69562 5.69562C3.25022 6.14102 3 6.74511 3 7.375V8.625C3 9.25489 3.25022 9.85898 3.69562 10.3044C4.14102 10.7498 4.74511 11 5.375 11C6.00489 11 6.60898 10.7498 7.05438 10.3044C7.49978 9.85898 7.75 9.25489 7.75 8.625V8.5H6.25V8.625C6.25 8.85706 6.15781 9.07962 5.99372 9.24372C5.82962 9.40781 5.60706 9.5 5.375 9.5C5.14294 9.5 4.92038 9.40781 4.75628 9.24372C4.59219 9.07962 4.5 8.85706 4.5 8.625V7.375C4.5 6.892 4.892 6.5 5.375 6.5H5.5C5.69891 6.5 5.88968 6.57902 6.03033 6.71967C6.17098 6.86032 6.25 7.05109 6.25 7.25H7.75C7.75 6.65326 7.51295 6.08097 7.09099 5.65901C6.66903 5.23705 6.09674 5 5.5 5H5.375Z" fill="white"/>
</g>
<defs>
<clipPath id="clip0_5_2031">
<rect width="21" height="16" fill="white"/>
</clipPath>
</defs>
</svg>
