<svg width="16" height="16" viewBox="0 0 16 16" fill="none" xmlns="http://www.w3.org/2000/svg">
<g clip-path="url(#clip0_5_2048)">
<path fill-rule="evenodd" clip-rule="evenodd" d="M8 1.50001C7.60218 1.50001 7.22064 1.65805 6.93934 1.93935C6.65804 2.22066 6.5 2.60219 6.5 3.00001C6.5 3.39784 6.65804 3.77937 6.93934 4.06067C7.22064 4.34198 7.60218 4.50001 8 4.50001C8.39782 4.50001 8.77936 4.34198 9.06066 4.06067C9.34196 3.77937 9.5 3.39784 9.5 3.00001C9.5 2.60219 9.34196 2.22066 9.06066 1.93935C8.77936 1.65805 8.39782 1.50001 8 1.50001ZM5 3.00001C5.00005 2.43892 5.15745 1.88909 5.45432 1.41297C5.7512 0.936857 6.17564 0.553536 6.67945 0.306553C7.18326 0.0595706 7.74623 -0.0411744 8.30442 0.0157617C8.86262 0.0726978 9.39366 0.285033 9.83722 0.628648C10.2808 0.972264 10.6191 1.43339 10.8137 1.95964C11.0084 2.48589 11.0515 3.05618 10.9383 3.60572C10.825 4.15527 10.56 4.66204 10.1731 5.06848C9.78632 5.47492 9.29327 5.76474 8.75 5.90501V14.459C11.747 14.129 14.098 11.846 14.454 9.00001H13V7.50001H16V8.25001C16 12.555 12.393 16 8 16C3.607 16 0 12.555 0 8.25001V7.50001H3V9.00001H1.547C1.902 11.846 4.253 14.13 7.25 14.459V5.90501C6.60607 5.73858 6.03568 5.36294 5.62842 4.83713C5.22116 4.31131 5.00011 3.6651 5 3.00001Z" fill="white"/>
</g>
<defs>
<clipPath id="clip0_5_2048">
<rect width="16" height="16" fill="white"/>
</clipPath>
</defs>
</svg>
