<svg width="16" height="16" viewBox="0 0 16 16" fill="none" xmlns="http://www.w3.org/2000/svg">
<path fill-rule="evenodd" clip-rule="evenodd" d="M0.75 1H0V14H5.5V12.5H1.5V2.5H5C5.59674 2.5 6.16903 2.73705 6.59099 3.15901C7.01295 3.58097 7.25 4.15326 7.25 4.75V6.5H8.75V4.75C8.75 4.15326 8.98705 3.58097 9.40901 3.15901C9.83097 2.73705 10.4033 2.5 11 2.5H14.5V6.5H16V1H11C10.4177 0.999535 9.84341 1.13487 9.32263 1.39526C8.80185 1.65566 8.34898 2.03392 8 2.5C7.65102 2.03392 7.19815 1.65566 6.67737 1.39526C6.15659 1.13487 5.58225 0.999535 5 1H0.75ZM11.091 10.217C11.4919 10.0142 11.8031 9.66952 11.964 9.25H12.036C12.206 9.703 12.544 10.03 12.909 10.217C12.969 10.249 13.029 10.283 13.087 10.321C13.4639 10.5677 13.9192 10.6651 14.364 10.594L14.399 10.656C14.1156 11.0051 13.9723 11.4471 13.997 11.896C14.0006 11.9653 14.0006 12.0347 13.997 12.104C13.977 12.514 14.092 12.971 14.399 13.344L14.364 13.406C13.9192 13.3349 13.4639 13.4323 13.087 13.679C13.0295 13.7167 12.9701 13.7514 12.909 13.783C12.5081 13.9858 12.1969 14.3305 12.036 14.75H11.964C11.8031 14.3305 11.4919 13.9858 11.091 13.783C11.0299 13.7514 10.9705 13.7167 10.913 13.679C10.5361 13.4323 10.0808 13.3349 9.636 13.406L9.601 13.344C9.88435 12.9949 10.0277 12.5529 10.003 12.104C9.9994 12.0347 9.9994 11.9653 10.003 11.896C10.0277 11.4471 9.88435 11.0051 9.601 10.656L9.636 10.594C10.114 10.674 10.568 10.544 10.913 10.321C10.9705 10.2833 11.0299 10.2486 11.091 10.217ZM15.404 11.407L15.964 10.866L14.964 9.134L14.215 9.348C14.1394 9.36796 14.0604 9.37151 13.9833 9.3584C13.9062 9.34529 13.8328 9.31583 13.768 9.272C13.6743 9.21105 13.5775 9.15498 13.478 9.104C13.4075 9.06991 13.3452 9.02113 13.2952 8.96093C13.2452 8.90073 13.2086 8.83051 13.188 8.755L13 8H11L10.811 8.755C10.7907 8.83051 10.7546 8.9008 10.7049 8.96117C10.6552 9.02154 10.5932 9.07058 10.523 9.105C10.423 9.155 10.326 9.212 10.233 9.272C10.1681 9.31597 10.0945 9.34551 10.0172 9.35862C9.93996 9.37174 9.86077 9.36811 9.785 9.348L9.035 9.134L8.035 10.866L8.596 11.408C8.71 11.518 8.762 11.674 8.754 11.832C8.74829 11.9439 8.74829 12.0561 8.754 12.168C8.75944 12.2459 8.74815 12.324 8.7209 12.3971C8.69364 12.4702 8.65106 12.5367 8.596 12.592L8.036 13.134L9.036 14.866L9.785 14.652C9.86055 14.6319 9.93952 14.6282 10.0166 14.6411C10.0937 14.6541 10.1672 14.6833 10.232 14.727C10.326 14.788 10.422 14.844 10.522 14.895C10.663 14.967 10.772 15.091 10.812 15.245L11 16H13L13.189 15.245C13.2093 15.1695 13.2454 15.0992 13.2951 15.0388C13.3448 14.9785 13.4068 14.9294 13.477 14.895C13.577 14.845 13.674 14.788 13.767 14.727C13.832 14.6832 13.9056 14.6538 13.9829 14.6409C14.0601 14.628 14.1393 14.6317 14.215 14.652L14.965 14.866L15.965 13.134L15.404 12.592C15.3489 12.5367 15.3064 12.4702 15.2791 12.3971C15.2519 12.324 15.2406 12.2459 15.246 12.168C15.2518 12.0561 15.2518 11.9439 15.246 11.832C15.2406 11.7541 15.2519 11.676 15.2791 11.6029C15.3064 11.5298 15.3489 11.4633 15.404 11.408V11.407Z" fill="white"/>
</svg>
