<svg width="16" height="16" viewBox="0 0 16 16" fill="none" xmlns="http://www.w3.org/2000/svg">
<path fill-rule="evenodd" clip-rule="evenodd" d="M1.5 3.5H14.5V5.5H1.5V3.5ZM1 7H0V2H16V7H15V12.5C15 13.163 14.7366 13.7989 14.2678 14.2678C13.7989 14.7366 13.163 15 12.5 15H3.5C2.83696 15 2.20107 14.7366 1.73223 14.2678C1.26339 13.7989 1 13.163 1 12.5V7ZM2.5 7V12.5C2.5 12.7652 2.60536 13.0196 2.79289 13.2071C2.98043 13.3946 3.23478 13.5 3.5 13.5H12.5C12.7652 13.5 13.0196 13.3946 13.2071 13.2071C13.3946 13.0196 13.5 12.7652 13.5 12.5V7H2.5ZM6 9.5H10V11H6V9.5Z" fill="white"/>
</svg>
