<svg width="16" height="16" viewBox="0 0 16 16" fill="none" xmlns="http://www.w3.org/2000/svg">
<path fill-rule="evenodd" clip-rule="evenodd" d="M10.75 1H10V2.5H12.44L1.47 13.47L0.940002 14L2 15.06L2.53 14.53L13.5 3.562V6H15V2C15 1.73478 14.8946 1.48043 14.7071 1.29289C14.5196 1.10536 14.2652 1 14 1H10.75Z" fill="white"/>
<path fill-rule="evenodd" clip-rule="evenodd" d="M5.99999 7.06L5.46999 6.53L1.46999 2.53L0.937988 2L1.99899 0.940002L2.52899 1.47L6.52999 5.47L7.05999 6L5.99999 7.06ZM12.438 13.5H9.99999V15H14C14.2652 15 14.5196 14.8946 14.7071 14.7071C14.8946 14.5196 15 14.2652 15 14V10H13.5V12.44L10.53 9.47L9.99999 8.94L8.93999 10L9.46999 10.53L12.438 13.5Z" fill="white"/>
</svg>
