<svg width="16" height="16" viewBox="0 0 16 16" fill="none" xmlns="http://www.w3.org/2000/svg">
<g clip-path="url(#clip0_5_2059)">
<path d="M4.94006 3L7.29206 0.645997C7.47959 0.458526 7.73389 0.35321 7.99906 0.35321C8.26422 0.35321 8.51853 0.458526 8.70606 0.645997L11.0611 3L10.0001 4.06L8.75006 2.81V7.25H13.1901L11.9401 6L13.0001 4.94L15.3541 7.293C15.5415 7.48053 15.6468 7.73483 15.6468 8C15.6468 8.26516 15.5415 8.51947 15.3541 8.707L13.0001 11.061L11.9401 10L13.1901 8.75H8.75006V13.19L10.0001 11.94L11.0601 13L8.70706 15.354C8.51953 15.5415 8.26522 15.6468 8.00006 15.6468C7.73489 15.6468 7.48059 15.5415 7.29306 15.354L4.93906 13L6.00006 11.94L7.25006 13.19V8.75H2.81006L4.06006 10L3.00006 11.06L0.646058 8.708C0.458587 8.52047 0.353271 8.26616 0.353271 8.001C0.353271 7.73583 0.458587 7.48152 0.646058 7.294L3.00006 4.939L4.06006 6L2.81006 7.25H7.25006V2.81L6.00006 4.06L4.94006 3Z" fill="white"/>
</g>
<defs>
<clipPath id="clip0_5_2059">
<rect width="16" height="16" fill="white"/>
</clipPath>
</defs>
</svg>
