<svg width="16" height="16" viewBox="0 0 16 16" fill="none" xmlns="http://www.w3.org/2000/svg">
<g clip-path="url(#clip0_5_2053)">
<mask id="mask0_5_2053" style="mask-type:luminance" maskUnits="userSpaceOnUse" x="0" y="0" width="16" height="16">
<path d="M0 0H16V16H0V0Z" fill="white"/>
</mask>
<g mask="url(#mask0_5_2053)">
<path fill-rule="evenodd" clip-rule="evenodd" d="M9.61306 1.552L8.70706 0.645997C8.51953 0.458526 8.26522 0.35321 8.00006 0.35321C7.73489 0.35321 7.48059 0.458526 7.29306 0.645997L5.47006 2.47L4.94006 3L6.00006 4.06L6.53006 3.53L7.25006 2.81V7.25H2.81006L3.53006 6.53L4.06006 6L3.00006 4.94L2.47006 5.47L0.646058 7.293C0.458587 7.48053 0.353271 7.73483 0.353271 8C0.353271 8.26516 0.458587 8.51947 0.646058 8.707L2.47006 10.53L3.00006 11.06L4.06006 10L3.53006 9.47L2.81006 8.75H7.25006V13.19L6.53006 12.47L6.00006 11.94L4.94006 13L5.47006 13.53L7.29306 15.354C7.48059 15.5415 7.73489 15.6468 8.00006 15.6468C8.26522 15.6468 8.51953 15.5415 8.70706 15.354L10.5301 13.53L11.0601 13L10.0001 11.94L9.47006 12.47L8.75006 13.19V8.75H13.1901L12.4701 9.47L11.9401 10L13.0001 11.06L13.5301 10.53L15.3541 8.707C15.5415 8.51947 15.6468 8.26516 15.6468 8C15.6468 7.73483 15.5415 7.48053 15.3541 7.293L14.4481 6.387C13.7165 6.56503 12.9496 6.53349 12.2351 6.296L12.4701 6.53L13.1901 7.25H8.75006V2.81L9.47006 3.53L9.70406 3.765C9.46581 3.05064 9.43427 2.2835 9.61306 1.552Z" fill="white"/>
<path d="M13.5 5C14.8807 5 16 3.88071 16 2.5C16 1.11929 14.8807 0 13.5 0C12.1193 0 11 1.11929 11 2.5C11 3.88071 12.1193 5 13.5 5Z" fill="#52A8FF"/>
</g>
</g>
<defs>
<clipPath id="clip0_5_2053">
<rect width="16" height="16" fill="white"/>
</clipPath>
</defs>
</svg>
