<svg width="16" height="16" viewBox="0 0 16 16" fill="none" xmlns="http://www.w3.org/2000/svg">
<path fill-rule="evenodd" clip-rule="evenodd" d="M3.47003 11.78L4.00003 12.31L5.06003 11.25L4.53003 10.72L2.56003 8.75H13.44L11.47 10.72L10.94 11.25L12 12.31L12.53 11.78L15.604 8.707C15.7915 8.51947 15.8968 8.26517 15.8968 8C15.8968 7.73484 15.7915 7.48053 15.604 7.293L12.53 4.22L12 3.69L10.94 4.75L11.47 5.28L13.44 7.25H2.56003L4.53003 5.28L5.06003 4.75L4.00003 3.69L3.47003 4.22L0.397035 7.293C0.209563 7.48053 0.104248 7.73484 0.104248 8C0.104248 8.26517 0.209563 8.51947 0.397035 8.707L3.47003 11.78Z" fill="white"/>
</svg>
