<svg width="16" height="16" viewBox="0 0 16 16" fill="none" xmlns="http://www.w3.org/2000/svg">
<g clip-path="url(#clip0_5_2047)">
<path fill-rule="evenodd" clip-rule="evenodd" d="M10.75 8.75H11.5V7.25H6.56L8.03 5.78L8.56 5.25L7.5 4.19L6.97 4.72L4.22 7.47C4.07955 7.61063 4.00066 7.80125 4.00066 8C4.00066 8.19875 4.07955 8.38937 4.22 8.53L6.97 11.28L7.5 11.81L8.56 10.75L8.03 10.22L6.56 8.75H10.75ZM8 1.5C9.72391 1.5 11.3772 2.18482 12.5962 3.40381C13.8152 4.62279 14.5 6.27609 14.5 8C14.5 9.72391 13.8152 11.3772 12.5962 12.5962C11.3772 13.8152 9.72391 14.5 8 14.5C6.27609 14.5 4.62279 13.8152 3.40381 12.5962C2.18482 11.3772 1.5 9.72391 1.5 8C1.5 6.27609 2.18482 4.62279 3.40381 3.40381C4.62279 2.18482 6.27609 1.5 8 1.5ZM16 8C16 5.87827 15.1571 3.84344 13.6569 2.34315C12.1566 0.842855 10.1217 0 8 0C5.87827 0 3.84344 0.842855 2.34315 2.34315C0.842855 3.84344 0 5.87827 0 8C0 10.1217 0.842855 12.1566 2.34315 13.6569C3.84344 15.1571 5.87827 16 8 16C10.1217 16 12.1566 15.1571 13.6569 13.6569C15.1571 12.1566 16 10.1217 16 8Z" fill="white"/>
</g>
<defs>
<clipPath id="clip0_5_2047">
<rect width="16" height="16" fill="white"/>
</clipPath>
</defs>
</svg>
