<svg width="16" height="16" viewBox="0 0 16 16" fill="none" xmlns="http://www.w3.org/2000/svg">
<g clip-path="url(#clip0_5_2054)">
<path fill-rule="evenodd" clip-rule="evenodd" d="M13.3339 5.625C13.2883 6.50597 13.1457 7.37923 12.9089 8.229C13.3787 7.95121 13.7822 7.57431 14.0914 7.12457C14.4005 6.67483 14.6079 6.16309 14.6989 5.625H13.3339ZM11.4349 8.725C11.1459 8.75841 10.854 8.75841 10.5649 8.725C10.1976 7.72921 9.97961 6.68458 9.91794 5.625H12.0819C12.0203 6.68458 11.8023 7.72922 11.4349 8.725ZM13.3349 4.375C13.2886 3.49396 13.1454 2.6207 12.9079 1.771C13.3777 2.04879 13.7812 2.4257 14.0904 2.87543C14.3995 3.32517 14.6069 3.83691 14.6979 4.375H13.3339H13.3349ZM12.0819 4.375C12.0203 3.31542 11.8023 2.27078 11.4349 1.275C11.1459 1.24159 10.854 1.24159 10.5649 1.275C10.1976 2.27079 9.97961 3.31542 9.91794 4.375H12.0819ZM8.66594 4.375C8.71194 3.498 8.85294 2.625 9.09094 1.771C8.62119 2.04879 8.21768 2.4257 7.90853 2.87543C7.59938 3.32517 7.39203 3.83691 7.30094 4.375H8.66594ZM9.09094 8.229C8.85411 7.37923 8.71159 6.50597 8.66594 5.625H7.30194C7.39303 6.16309 7.60038 6.67483 7.90953 7.12457C8.21868 7.57431 8.62219 7.95121 9.09194 8.229H9.09094ZM10.9999 10C12.326 10 13.5978 9.47322 14.5355 8.53553C15.4732 7.59785 15.9999 6.32608 15.9999 5C15.9999 3.67392 15.4732 2.40215 14.5355 1.46447C13.5978 0.526784 12.326 0 10.9999 0C9.67386 0 8.40209 0.526784 7.46441 1.46447C6.52673 2.40215 5.99994 3.67392 5.99994 5C5.99994 6.32608 6.52673 7.59785 7.46441 8.53553C8.40209 9.47322 9.67386 10 10.9999 10ZM2.24994 9.5H1.49994V11H3.93994L0.719941 14.22L0.189941 14.75L1.24994 15.81L1.77994 15.28L4.99994 12.06V14.5H6.49994V10.5C6.49994 10.2348 6.39458 9.98043 6.20705 9.79289C6.01951 9.60536 5.76516 9.5 5.49994 9.5H2.24994Z" fill="white"/>
</g>
<defs>
<clipPath id="clip0_5_2054">
<rect width="16" height="16" fill="white"/>
</clipPath>
</defs>
</svg>
