<svg width="16" height="16" viewBox="0 0 16 16" fill="none" xmlns="http://www.w3.org/2000/svg">
<g clip-path="url(#clip0_5_2079)">
<path fill-rule="evenodd" clip-rule="evenodd" d="M7.25 10.75V11.5H8.75V6.56L10.22 8.03L10.75 8.56L11.81 7.5L11.28 6.97L8.53 4.22C8.38937 4.07955 8.19875 4.00066 8 4.00066C7.80125 4.00066 7.61063 4.07955 7.47 4.22L4.72 6.97L4.19 7.5L5.25 8.56L5.78 8.03L7.25 6.56V10.75ZM14.5 8C14.5 9.72391 13.8152 11.3772 12.5962 12.5962C11.3772 13.8152 9.72391 14.5 8 14.5C6.27609 14.5 4.62279 13.8152 3.40381 12.5962C2.18482 11.3772 1.5 9.72391 1.5 8C1.5 6.27609 2.18482 4.62279 3.40381 3.40381C4.62279 2.18482 6.27609 1.5 8 1.5C9.72391 1.5 11.3772 2.18482 12.5962 3.40381C13.8152 4.62279 14.5 6.27609 14.5 8ZM8 16C10.1217 16 12.1566 15.1571 13.6569 13.6569C15.1571 12.1566 16 10.1217 16 8C16 5.87827 15.1571 3.84344 13.6569 2.34315C12.1566 0.842855 10.1217 0 8 0C5.87827 0 3.84344 0.842855 2.34315 2.34315C0.842855 3.84344 0 5.87827 0 8C0 10.1217 0.842855 12.1566 2.34315 13.6569C3.84344 15.1571 5.87827 16 8 16Z" fill="white"/>
</g>
<defs>
<clipPath id="clip0_5_2079">
<rect width="16" height="16" fill="white"/>
</clipPath>
</defs>
</svg>
