<svg width="16" height="16" viewBox="0 0 16 16" fill="none" xmlns="http://www.w3.org/2000/svg">
<g clip-path="url(#clip0_5_2046)">
<path fill-rule="evenodd" clip-rule="evenodd" d="M8.75 5.25V4.5H7.25V9.44L5.78 7.97L5.25 7.44L4.19 8.5L4.72 9.03L7.47 11.78C7.61063 11.9205 7.80125 11.9993 8 11.9993C8.19875 11.9993 8.38937 11.9205 8.53 11.78L11.28 9.03L11.81 8.5L10.75 7.44L10.22 7.97L8.75 9.44V5.25ZM1.5 8C1.5 6.27609 2.18482 4.62279 3.40381 3.40381C4.62279 2.18482 6.27609 1.5 8 1.5C9.72391 1.5 11.3772 2.18482 12.5962 3.40381C13.8152 4.62279 14.5 6.27609 14.5 8C14.5 9.72391 13.8152 11.3772 12.5962 12.5962C11.3772 13.8152 9.72391 14.5 8 14.5C6.27609 14.5 4.62279 13.8152 3.40381 12.5962C2.18482 11.3772 1.5 9.72391 1.5 8ZM8 0C5.87827 0 3.84344 0.842855 2.34315 2.34315C0.842855 3.84344 0 5.87827 0 8C0 10.1217 0.842855 12.1566 2.34315 13.6569C3.84344 15.1571 5.87827 16 8 16C10.1217 16 12.1566 15.1571 13.6569 13.6569C15.1571 12.1566 16 10.1217 16 8C16 5.87827 15.1571 3.84344 13.6569 2.34315C12.1566 0.842855 10.1217 0 8 0Z" fill="white"/>
</g>
<defs>
<clipPath id="clip0_5_2046">
<rect width="16" height="16" fill="white"/>
</clipPath>
</defs>
</svg>
