<svg width="16" height="16" viewBox="0 0 16 16" fill="none" xmlns="http://www.w3.org/2000/svg">
<path fill-rule="evenodd" clip-rule="evenodd" d="M4.21994 3.47L3.68994 4L4.74994 5.06L5.27994 4.53L7.24994 2.56V13.44L5.27994 11.47L4.74994 10.94L3.68994 12L4.21994 12.53L7.29294 15.604C7.48047 15.7915 7.73478 15.8968 7.99994 15.8968C8.26511 15.8968 8.51941 15.7915 8.70694 15.604L11.7799 12.53L12.3099 12L11.2499 10.94L10.7199 11.47L8.74994 13.44V2.56L10.7199 4.53L11.2499 5.06L12.3099 4L11.7799 3.47L8.70694 0.397004C8.51941 0.209533 8.26511 0.104218 7.99994 0.104218C7.73478 0.104218 7.48047 0.209533 7.29294 0.397004L4.21994 3.47Z" fill="white"/>
</svg>
