<svg width="16" height="16" viewBox="0 0 16 16" fill="none" xmlns="http://www.w3.org/2000/svg">
<path d="M7.24998 13V10.165C7.24998 10.0772 7.22688 9.99101 7.18299 9.915C7.13911 9.839 7.07599 9.77588 6.99998 9.732C6.92397 9.68811 6.83775 9.66501 6.74998 9.66501C6.66221 9.66501 6.57599 9.68812 6.49998 9.732L4.04498 11.15L3.29498 9.85L5.74998 8.433C5.82599 8.38911 5.8891 8.326 5.93298 8.24999C5.97686 8.17398 5.99996 8.08776 5.99996 8C5.99996 7.91224 5.97686 7.82602 5.93298 7.75001C5.8891 7.674 5.82599 7.61089 5.74998 7.567L3.29498 6.15L4.04498 4.85L6.49998 6.268C6.57599 6.31188 6.66221 6.33499 6.74998 6.33499C6.83775 6.33499 6.92397 6.31189 6.99998 6.268C7.07599 6.22412 7.13911 6.161 7.18299 6.085C7.22688 6.00899 7.24998 5.92277 7.24998 5.835V3H8.74998V5.835C8.74999 5.92277 8.77309 6.00899 8.81697 6.085C8.86086 6.161 8.92398 6.22412 8.99999 6.268C9.076 6.31189 9.16222 6.33499 9.24999 6.33499C9.33775 6.33499 9.42397 6.31188 9.49998 6.268L11.955 4.85L12.705 6.15L10.25 7.567C10.174 7.61089 10.1109 7.674 10.067 7.75001C10.0231 7.82602 10 7.91224 10 8C10 8.08776 10.0231 8.17398 10.067 8.24999C10.1109 8.326 10.174 8.38911 10.25 8.433L12.705 9.85L11.955 11.15L9.49998 9.732C9.42397 9.68812 9.33775 9.66501 9.24999 9.66501C9.16222 9.66501 9.076 9.68811 8.99999 9.732C8.92398 9.77588 8.86086 9.839 8.81697 9.915C8.77309 9.99101 8.74999 10.0772 8.74998 10.165V13H7.24998Z" fill="white"/>
</svg>
