<svg width="16" height="16" viewBox="0 0 16 16" fill="none" xmlns="http://www.w3.org/2000/svg">
<path fill-rule="evenodd" clip-rule="evenodd" d="M7.24999 15V11.031C7.24998 10.8555 7.20377 10.683 7.116 10.531C7.02823 10.379 6.902 10.2528 6.74998 10.165C6.59796 10.0772 6.42552 10.031 6.24998 10.031C6.07445 10.031 5.90201 10.0772 5.74999 10.165L2.31299 12.15L1.56299 10.85L4.99999 8.867C5.152 8.77923 5.27822 8.65299 5.36598 8.50098C5.45374 8.34896 5.49994 8.17653 5.49994 8.001C5.49994 7.82547 5.45374 7.65304 5.36598 7.50102C5.27822 7.34901 5.152 7.22277 4.99999 7.135L1.56299 5.15L2.31299 3.85L5.74999 5.835C5.90201 5.92277 6.07445 5.96897 6.24998 5.96897C6.42552 5.96898 6.59796 5.92277 6.74998 5.83501C6.902 5.74724 7.02823 5.62101 7.116 5.46899C7.20377 5.31698 7.24998 5.14453 7.24999 4.969V1H8.74999V4.969C8.74999 5.14453 8.7962 5.31698 8.88397 5.46899C8.97174 5.62101 9.09798 5.74724 9.25 5.83501C9.40202 5.92277 9.57446 5.96898 9.75 5.96897C9.92553 5.96897 10.098 5.92277 10.25 5.835L13.687 3.85L14.437 5.15L11 7.134C10.848 7.22177 10.7218 7.34801 10.634 7.50002C10.5462 7.65204 10.5 7.82447 10.5 8C10.5 8.17553 10.5462 8.34796 10.634 8.49998C10.7218 8.65199 10.848 8.77823 11 8.866L14.437 10.851L13.687 12.149L10.25 10.165C10.098 10.0772 9.92553 10.031 9.75 10.031C9.57446 10.031 9.40202 10.0772 9.25 10.165C9.09798 10.2528 8.97174 10.379 8.88397 10.531C8.7962 10.683 8.74999 10.8555 8.74999 11.031V15H7.24999Z" fill="white"/>
</svg>
