<svg width="16" height="16" viewBox="0 0 16 16" fill="none" xmlns="http://www.w3.org/2000/svg">
<g clip-path="url(#clip0_5_2062)">
<path fill-rule="evenodd" clip-rule="evenodd" d="M4.537 3.476L11.561 10.5H12.98C12.6704 10.2064 12.4238 9.85288 12.2553 9.46089C12.0868 9.06889 11.9999 8.64667 12 8.22V5.508C12.0005 4.62814 11.7113 3.77259 11.1772 3.0734C10.6431 2.37421 9.89373 1.87025 9.04473 1.63932C8.19572 1.40838 7.29431 1.4633 6.47962 1.79561C5.66494 2.12792 4.98227 2.71913 4.537 3.478V3.476ZM13.061 12L15.281 14.22L15.811 14.75L14.75 15.81L14.22 15.28L0.720002 1.78L0.190002 1.25L1.25 0.189996L1.78 0.719996L3.451 2.39C4.11646 1.42061 5.07467 0.689614 6.18544 0.30396C7.29622 -0.081694 8.50126 -0.101767 9.62426 0.246677C10.7473 0.595122 11.7293 1.2938 12.4267 2.24048C13.124 3.18717 13.5002 4.33218 13.5 5.508V8.222C13.5 8.77 13.774 9.282 14.23 9.587L14.666 9.877L15 10.1V12H13.061ZM3.985 7.75V7H2.485V8.227C2.485 8.773 2.213 9.284 1.76 9.589L1.331 9.878L1 10.1V12H7.5V10.5H3.012C3.31943 10.2066 3.56416 9.85388 3.7314 9.46319C3.89864 9.07251 3.98491 8.65197 3.985 8.227V7.75ZM9.168 13.5H10.748L10.587 13.987C10.3961 14.5436 10.017 15.016 9.515 15.323C9.05988 15.6042 8.535 15.7522 8 15.75C7.465 15.7522 6.94012 15.6042 6.485 15.323C5.98303 15.016 5.6039 14.5436 5.413 13.987L5.251 13.5H6.832L6.837 13.513C6.904 13.716 7.055 13.91 7.279 14.05C7.477 14.173 7.724 14.25 8 14.25C8.276 14.25 8.523 14.173 8.72 14.05C8.92552 13.9278 9.08214 13.738 9.163 13.513L9.168 13.5Z" fill="white"/>
</g>
<defs>
<clipPath id="clip0_5_2062">
<rect width="16" height="16" fill="white"/>
</clipPath>
</defs>
</svg>
