<svg width="16" height="16" viewBox="0 0 16 16" fill="none" xmlns="http://www.w3.org/2000/svg">
<g clip-path="url(#clip0_5_2064)">
<path fill-rule="evenodd" clip-rule="evenodd" d="M7.992 0C7.26873 -1.19246e-08 6.55254 0.142476 5.88433 0.419291C5.21613 0.696106 4.60899 1.10184 4.09761 1.61332C3.58622 2.12479 3.1806 2.732 2.90391 3.40026C2.62721 4.06851 2.48487 4.78473 2.485 5.508V8.227C2.485 8.773 2.213 9.284 1.76 9.589L1.331 9.878L1 10.1V12H15V10.099L14.666 9.876L14.231 9.586C14.006 9.43618 13.8216 9.23308 13.694 8.99476C13.5665 8.75644 13.4998 8.4903 13.5 8.22V5.508C13.5 4.78468 13.3575 4.06844 13.0807 3.40018C12.8039 2.73192 12.3982 2.12472 11.8867 1.61326C11.3753 1.10179 10.7681 0.696074 10.0998 0.419272C9.43156 0.142469 8.71532 0 7.992 0ZM3.986 5.508C4.00262 4.45611 4.43214 3.45292 5.18189 2.71493C5.93163 1.97693 6.94148 1.56331 7.9935 1.56331C9.04552 1.56331 10.0554 1.97693 10.8051 2.71493C11.5549 3.45292 11.9844 4.45611 12.001 5.508V8.22C12.001 9.09 12.361 9.911 12.981 10.499H3.012C3.31943 10.2056 3.56416 9.85288 3.7314 9.4622C3.89864 9.07151 3.98491 8.65097 3.985 8.226V5.506L3.986 5.508ZM10.75 13.5H9.168L9.163 13.513C9.08239 13.7378 8.92614 13.9277 8.721 14.05C8.50409 14.1828 8.25431 14.2521 8 14.25C7.74603 14.2519 7.49662 14.1826 7.28 14.05C7.07449 13.9278 6.91787 13.738 6.837 13.513L6.832 13.5H5.252L5.413 13.987C5.601 14.552 5.993 15.015 6.485 15.323C6.922 15.595 7.445 15.75 8 15.75C8.535 15.7522 9.05988 15.6042 9.515 15.323C10.017 15.016 10.3961 14.5436 10.587 13.987L10.749 13.5H10.75Z" fill="white"/>
</g>
<defs>
<clipPath id="clip0_5_2064">
<rect width="16" height="16" fill="white"/>
</clipPath>
</defs>
</svg>
