<svg width="16" height="16" viewBox="0 0 16 16" fill="none" xmlns="http://www.w3.org/2000/svg">
<path fill-rule="evenodd" clip-rule="evenodd" d="M9.99199 9.99199C9.45972 10.0265 8.9262 9.94713 8.42706 9.75909C7.92791 9.57104 7.47463 9.27868 7.09746 8.90151C6.7203 8.52435 6.42793 8.07106 6.23989 7.57192C6.05184 7.07277 5.97244 6.53926 6.00699 6.00699C6.53926 5.97244 7.07277 6.05184 7.57192 6.23989C8.07106 6.42793 8.52435 6.7203 8.90151 7.09746C9.27868 7.47463 9.57104 7.92791 9.75909 8.42706C9.94713 8.9262 10.0265 9.45972 9.99199 9.99199ZM11.497 9.56899C11.4512 8.23981 10.9026 6.97756 9.96205 6.03723C9.02153 5.09689 7.75917 4.54856 6.42999 4.50299C6.81992 3.76051 7.44749 3.17016 8.21239 2.8263C8.9773 2.48243 9.8354 2.40489 10.6496 2.60607C11.4637 2.80725 12.1869 3.27553 12.7037 3.93609C13.2204 4.59664 13.5008 5.41134 13.5 6.24999C13.5003 6.93336 13.3139 7.60383 12.9609 8.18896C12.6079 8.77409 12.1017 9.25063 11.497 9.56899ZM11.275 11.275C12.1425 11.0113 12.927 10.5273 13.5519 9.87035C14.1769 9.21337 14.621 8.40573 14.8411 7.52609C15.0611 6.64646 15.0496 5.72482 14.8076 4.85096C14.5657 3.9771 14.1015 3.18081 13.4603 2.53964C12.8192 1.89848 12.0229 1.43431 11.149 1.19234C10.2752 0.950367 9.35352 0.938852 8.47388 1.15891C7.59425 1.37897 6.7866 1.82311 6.12962 2.44805C5.47264 3.073 4.98871 3.85744 4.72499 4.72499C3.85744 4.98871 3.073 5.47264 2.44805 6.12962C1.82311 6.7866 1.37897 7.59425 1.15891 8.47388C0.938852 9.35352 0.950367 10.2752 1.19234 11.149C1.43431 12.0229 1.89848 12.8192 2.53964 13.4603C3.18081 14.1015 3.9771 14.5657 4.85096 14.8076C5.72482 15.0496 6.64646 15.0611 7.52609 14.8411C8.40573 14.621 9.21337 14.1769 9.87035 13.5519C10.5273 12.927 11.0113 12.1425 11.275 11.275ZM9.56899 11.497C8.23981 11.4512 6.97756 10.9026 6.03723 9.96205C5.09689 9.02153 4.54856 7.75917 4.50299 6.42999C3.76051 6.81992 3.17016 7.44749 2.8263 8.21239C2.48243 8.9773 2.40489 9.8354 2.60607 10.6496C2.80725 11.4637 3.27553 12.1869 3.93609 12.7037C4.59664 13.2204 5.41134 13.5008 6.24999 13.5C6.93336 13.5003 7.60383 13.3139 8.18896 12.9609C8.77409 12.6079 9.25063 12.1017 9.56899 11.497Z" fill="white"/>
</svg>
