<svg width="16" height="16" viewBox="0 0 16 16" fill="none" xmlns="http://www.w3.org/2000/svg">
<g clip-path="url(#clip0_5_2065)">
<path fill-rule="evenodd" clip-rule="evenodd" d="M2.193 12.204C1.927 11.76 1.75 11.131 1.75 10.216C1.75 8.375 2.47 6.352 3.648 4.796C4.83 3.234 6.382 2.25 8 2.25C9.618 2.25 11.17 3.234 12.352 4.796C13.529 6.352 14.25 8.375 14.25 10.216C14.25 11.131 14.072 11.76 13.807 12.204C13.545 12.64 13.163 12.956 12.644 13.188C11.548 13.678 9.965 13.75 8 13.75C6.035 13.75 4.452 13.677 3.356 13.188C2.837 12.956 2.455 12.64 2.193 12.203V12.204ZM2.744 14.557C4.182 15.2 6.1 15.25 8 15.25C9.9 15.25 11.818 15.2 13.256 14.557C14.003 14.223 14.646 13.72 15.093 12.975C15.536 12.236 15.75 11.32 15.75 10.215C15.75 8.018 14.904 5.683 13.548 3.891C12.196 2.104 10.248 0.75 8 0.75C5.752 0.75 3.804 2.104 2.452 3.891C1.096 5.683 0.25 8.018 0.25 10.216C0.25 11.32 0.464 12.236 0.907 12.975C1.354 13.72 1.997 14.223 2.744 14.557Z" fill="white"/>
</g>
<defs>
<clipPath id="clip0_5_2065">
<rect width="16" height="16" fill="white"/>
</clipPath>
</defs>
</svg>
