<svg width="16" height="16" viewBox="0 0 16 16" fill="none" xmlns="http://www.w3.org/2000/svg">
<path fill-rule="evenodd" clip-rule="evenodd" d="M0 1H5C6.227 1 7.316 1.589 8 2.5C8.34898 2.03392 8.80185 1.65566 9.32263 1.39526C9.84341 1.13487 10.4177 0.999535 11 1H16V13.75H10.743C10.4475 13.75 10.1549 13.8082 9.88196 13.9213C9.60897 14.0343 9.36093 14.2001 9.152 14.409L8.53 15.03H7.47L6.848 14.409C6.42628 13.9873 5.85439 13.7503 5.258 13.75H0V1ZM7.25 4.75C7.25 4.15326 7.01295 3.58097 6.59099 3.15901C6.16903 2.73705 5.59674 2.5 5 2.5H1.5V12.25H5.257C5.967 12.25 6.657 12.452 7.25 12.823V4.75ZM8.75 12.823V4.75C8.75 4.15326 8.98705 3.58097 9.40901 3.15901C9.83097 2.73705 10.4033 2.5 11 2.5H14.5V12.25H10.743C10.033 12.25 9.343 12.452 8.75 12.823Z" fill="white"/>
</svg>
