<svg width="16" height="16" viewBox="0 0 16 16" fill="none" xmlns="http://www.w3.org/2000/svg">
<g clip-path="url(#clip0_5_2071)">
<path fill-rule="evenodd" clip-rule="evenodd" d="M11 1.5H5C4.73478 1.5 4.48043 1.60536 4.29289 1.79289C4.10536 1.98043 4 2.23478 4 2.5V13.473L7.162 11.748C7.41906 11.6078 7.70719 11.5343 8 11.5343C8.29281 11.5343 8.58094 11.6078 8.838 11.748L12 13.473V2.5C12 2.23478 11.8946 1.98043 11.7071 1.79289C11.5196 1.60536 11.2652 1.5 11 1.5ZM13.5 14.291V2.5C13.5 1.83696 13.2366 1.20107 12.7678 0.732233C12.2989 0.263392 11.663 0 11 0L5 0C4.33696 0 3.70107 0.263392 3.23223 0.732233C2.76339 1.20107 2.5 1.83696 2.5 2.5V16L4 15.182L7.88 13.065C7.91679 13.0449 7.95806 13.0343 8 13.0343C8.04194 13.0343 8.08321 13.0449 8.12 13.065L12 15.182L13.5 16V14.291Z" fill="white"/>
</g>
<defs>
<clipPath id="clip0_5_2071">
<rect width="16" height="16" fill="white"/>
</clipPath>
</defs>
</svg>
