<svg width="16" height="16" viewBox="0 0 16 16" fill="none" xmlns="http://www.w3.org/2000/svg">
<g clip-path="url(#clip0_5_2074)">
<path fill-rule="evenodd" clip-rule="evenodd" d="M10.0001 0C9.46962 0 8.96091 0.210714 8.58584 0.585786C8.21077 0.960859 8.00005 1.46957 8.00005 2V6C8.00005 6.53043 8.21077 7.03914 8.58584 7.41421C8.96091 7.78929 9.46962 8 10.0001 8H10.8541C10.5154 8.82197 9.9736 9.54449 9.27939 10.0998C8.58518 10.6552 7.76132 11.0251 6.88505 11.175C6.74075 10.6726 6.46793 10.2165 6.09352 9.85174C5.71911 9.48697 5.25605 9.22615 4.75005 9.095V1H3.25005V9.095C2.73497 9.22785 2.26445 9.49522 1.88669 9.86973C1.50893 10.2442 1.23751 10.7124 1.10021 11.2264C0.96292 11.7403 0.964694 12.2814 1.10535 12.7945C1.24601 13.3075 1.52051 13.7739 1.90071 14.1459C2.28092 14.5179 2.75318 14.7822 3.26913 14.9117C3.78507 15.0411 4.32616 15.0311 4.83697 14.8827C5.34778 14.7343 5.80996 14.4527 6.17616 14.0669C6.54237 13.6811 6.79944 13.2049 6.92105 12.687C8.19243 12.5119 9.38754 11.978 10.3663 11.1478C11.345 10.3177 12.0668 9.22576 12.4471 8H14.0001C14.5305 8 15.0392 7.78929 15.4143 7.41421C15.7893 7.03914 16.0001 6.53043 16.0001 6V2C16.0001 1.46957 15.7893 0.960859 15.4143 0.585786C15.0392 0.210714 14.5305 0 14.0001 0L10.0001 0ZM10.2501 3.375H9.62505V4.625H11.3751V6.375H12.6251V4.625H14.3751V3.375H12.6251V1.625H11.3751V3.375H10.2501ZM5.50005 12C5.50005 12.3978 5.34202 12.7794 5.06071 13.0607C4.77941 13.342 4.39788 13.5 4.00005 13.5C3.60223 13.5 3.2207 13.342 2.93939 13.0607C2.65809 12.7794 2.50005 12.3978 2.50005 12C2.50005 11.6022 2.65809 11.2206 2.93939 10.9393C3.2207 10.658 3.60223 10.5 4.00005 10.5C4.39788 10.5 4.77941 10.658 5.06071 10.9393C5.34202 11.2206 5.50005 11.6022 5.50005 12Z" fill="white"/>
</g>
<defs>
<clipPath id="clip0_5_2074">
<rect width="16" height="16" fill="white"/>
</clipPath>
</defs>
</svg>
