<svg width="16" height="16" viewBox="0 0 16 16" fill="none" xmlns="http://www.w3.org/2000/svg">
<g clip-path="url(#clip0_5_2068)">
<path fill-rule="evenodd" clip-rule="evenodd" d="M8.00005 2C8.00005 1.46957 8.21077 0.960859 8.58584 0.585786C8.96091 0.210714 9.46962 0 10.0001 0L14.0001 0C14.5305 0 15.0392 0.210714 15.4143 0.585786C15.7893 0.960859 16.0001 1.46957 16.0001 2V6C16.0001 6.53043 15.7893 7.03914 15.4143 7.41421C15.0392 7.78929 14.5305 8 14.0001 8H12.4471C12.0668 9.22576 11.345 10.3177 10.3663 11.1478C9.38754 11.978 8.19243 12.5119 6.92105 12.687C6.79944 13.2049 6.54237 13.6811 6.17616 14.0669C5.80996 14.4527 5.34778 14.7343 4.83697 14.8827C4.32616 15.0311 3.78507 15.0411 3.26913 14.9117C2.75318 14.7822 2.28092 14.5179 1.90071 14.1459C1.52051 13.7739 1.24601 13.3075 1.10535 12.7945C0.964694 12.2814 0.96292 11.7403 1.10021 11.2264C1.23751 10.7124 1.50893 10.2442 1.88669 9.86973C2.26445 9.49522 2.73497 9.22785 3.25005 9.095V1H4.75005V9.095C5.25605 9.22615 5.71911 9.48697 6.09352 9.85174C6.46793 10.2165 6.74075 10.6726 6.88505 11.175C7.7615 11.0253 8.58557 10.6554 9.27996 10.1C9.97435 9.5447 10.5163 8.8221 10.8551 8H10.0001C9.46962 8 8.96091 7.78929 8.58584 7.41421C8.21077 7.03914 8.00005 6.53043 8.00005 6V2ZM9.62505 3.375H14.3751V4.625H9.62505V3.375ZM5.50005 12C5.50005 12.3978 5.34202 12.7794 5.06071 13.0607C4.77941 13.342 4.39788 13.5 4.00005 13.5C3.60223 13.5 3.2207 13.342 2.93939 13.0607C2.65809 12.7794 2.50005 12.3978 2.50005 12C2.50005 11.6022 2.65809 11.2206 2.93939 10.9393C3.2207 10.658 3.60223 10.5 4.00005 10.5C4.39788 10.5 4.77941 10.658 5.06071 10.9393C5.34202 11.2206 5.50005 11.6022 5.50005 12Z" fill="white"/>
</g>
<defs>
<clipPath id="clip0_5_2068">
<rect width="16" height="16" fill="white"/>
</clipPath>
</defs>
</svg>
