<svg width="16" height="16" viewBox="0 0 16 16" fill="none" xmlns="http://www.w3.org/2000/svg">
<g clip-path="url(#clip0_5_2070)">
<path fill-rule="evenodd" clip-rule="evenodd" d="M6 2.5H10C10.1326 2.5 10.2598 2.55268 10.3536 2.64645C10.4473 2.74021 10.5 2.86739 10.5 3V4H5.5V3C5.5 2.86739 5.55268 2.74021 5.64645 2.64645C5.74021 2.55268 5.86739 2.5 6 2.5ZM4 4V3C4 2.46957 4.21071 1.96086 4.58579 1.58579C4.96086 1.21071 5.46957 1 6 1H10C10.5304 1 11.0391 1.21071 11.4142 1.58579C11.7893 1.96086 12 2.46957 12 3V4H16V13.5C16 14.163 15.7366 14.7989 15.2678 15.2678C14.7989 15.7366 14.163 16 13.5 16H2.5C1.83696 16 1.20107 15.7366 0.732233 15.2678C0.263392 14.7989 0 14.163 0 13.5L0 4H4ZM12 5.5H1.5V9.25H7.25V8.5H8.75V9.25H14.5V5.5H12ZM8.75 10.75H14.5V13.5C14.5 13.7652 14.3946 14.0196 14.2071 14.2071C14.0196 14.3946 13.7652 14.5 13.5 14.5H2.5C2.23478 14.5 1.98043 14.3946 1.79289 14.2071C1.60536 14.0196 1.5 13.7652 1.5 13.5V10.75H7.25V11.5H8.75V10.75Z" fill="white"/>
</g>
<defs>
<clipPath id="clip0_5_2070">
<rect width="16" height="16" fill="white"/>
</clipPath>
</defs>
</svg>
