<svg width="16" height="16" viewBox="0 0 16 16" fill="none" xmlns="http://www.w3.org/2000/svg">
<g clip-path="url(#clip0_5_2069)">
<path fill-rule="evenodd" clip-rule="evenodd" d="M6.02701 1.59399C6.21024 1.22762 6.49187 0.919499 6.84034 0.704158C7.18882 0.488816 7.59036 0.374756 8.00001 0.374756C8.40965 0.374756 8.81119 0.488816 9.15967 0.704158C9.50814 0.919499 9.78977 1.22762 9.97301 1.59399L9.97601 1.60099L9.98001 1.60799L12.2 6.33799C12.4879 5.96625 12.8967 5.70693 13.3557 5.60498C13.8146 5.50302 14.2948 5.56485 14.713 5.77976C15.1311 5.99466 15.461 6.34909 15.6452 6.78162C15.8295 7.21416 15.8567 7.69754 15.722 8.14799C15.4324 9.10912 14.9354 9.99497 14.266 10.743L15.063 12.44C15.3165 12.9629 15.3535 13.5648 15.1658 14.1149C14.9781 14.6649 14.5809 15.1186 14.0605 15.3775C13.5402 15.6363 12.9387 15.6794 12.3868 15.4973C11.8349 15.3152 11.3771 14.9227 11.113 14.405L11.109 14.396L11.104 14.386L10.507 13.082C8.91464 13.5501 7.22292 13.5622 5.62401 13.117L5.07301 14.377L5.06601 14.391L5.05901 14.405C4.78992 14.913 4.33312 15.296 3.78589 15.4722C3.23866 15.6485 2.64424 15.6042 2.12921 15.3487C1.61418 15.0932 1.21924 14.6467 1.0285 14.1044C0.837761 13.562 0.866287 12.9666 1.10801 12.445L1.83701 10.836C1.4699 10.4371 1.14949 9.99755 0.882005 9.52599C0.663467 9.13944 0.578807 8.6915 0.641195 8.25185C0.703583 7.8122 0.909521 7.4055 1.22697 7.095C1.54442 6.78451 1.95559 6.58764 2.39651 6.53501C2.83744 6.48237 3.28339 6.57694 3.66501 6.80399L6.01701 1.61599L6.02201 1.60499L6.02701 1.59499V1.59399ZM4.57201 7.82999C4.91501 8.29799 5.42301 8.71499 6.05601 9.00299L7.42701 5.86499L7.98701 4.58499L8.56801 5.85499L10.003 8.98499C10.596 8.71443 11.1077 8.29308 11.487 7.76299L8.85201 2.14699C8.77209 1.99017 8.65043 1.85846 8.50043 1.76637C8.35044 1.67428 8.17793 1.62538 8.00192 1.62507C7.82591 1.62476 7.65324 1.67305 7.50292 1.76461C7.3526 1.85617 7.23048 1.98745 7.15001 2.14399L4.57201 7.82999ZM8.79701 9.35299L8.01401 7.64499L7.26401 9.35899C7.77224 9.43625 8.28939 9.43423 8.79701 9.35299ZM2.80701 11.723L2.24201 12.97L2.23701 12.981L2.23201 12.991C2.12405 13.216 2.10837 13.4743 2.1883 13.7107C2.26824 13.9471 2.43746 14.1429 2.65981 14.2563C2.88216 14.3696 3.14002 14.3915 3.37829 14.3173C3.61657 14.243 3.81636 14.0786 3.93501 13.859L4.44501 12.693C3.8628 12.4351 3.31301 12.1095 2.80701 11.723ZM11.68 12.642L12.236 13.855C12.3553 14.0726 12.5544 14.2352 12.7914 14.3086C13.0284 14.3821 13.2847 14.3605 13.506 14.2484C13.7274 14.1364 13.8965 13.9427 13.9777 13.7082C14.0589 13.4737 14.0457 13.2169 13.941 12.992L13.937 12.985L13.934 12.978L13.309 11.645C12.8069 12.0404 12.2597 12.375 11.679 12.642H11.68ZM12.95 7.31899C13.0234 7.10346 13.1774 6.92477 13.3798 6.82044C13.5822 6.71611 13.8171 6.69428 14.0352 6.75952C14.2533 6.82477 14.4377 6.97201 14.5495 7.17032C14.6614 7.36863 14.692 7.60257 14.635 7.82299C13.843 10.473 11.113 12.307 8.00801 12.307C5.36401 12.307 3.01101 10.985 1.87001 8.96799C1.76785 8.76608 1.74741 8.53258 1.81291 8.31598C1.87841 8.09939 2.02483 7.91635 2.22176 7.80489C2.41868 7.69343 2.65098 7.66211 2.87039 7.71743C3.08981 7.77276 3.27948 7.91048 3.40001 8.10199C4.19601 9.50899 5.92601 10.549 8.00801 10.549C10.474 10.549 12.418 9.10099 12.951 7.31899H12.95Z" fill="white"/>
</g>
<defs>
<clipPath id="clip0_5_2069">
<rect width="16" height="16" fill="white"/>
</clipPath>
</defs>
</svg>
