<svg width="16" height="16" viewBox="0 0 16 16" fill="none" xmlns="http://www.w3.org/2000/svg">
<g clip-path="url(#clip0_5_2110)">
<path fill-rule="evenodd" clip-rule="evenodd" d="M10.8021 2.305C10.9455 2.47083 11.13 2.59601 11.3372 2.66797C11.5443 2.73994 11.7667 2.75616 11.9821 2.715C12.1921 2.675 12.3671 2.667 12.5121 2.684C12.5675 2.68896 12.6218 2.70245 12.6731 2.724C12.8681 2.924 13.0621 3.124 13.2531 3.326L13.1621 3.554C13.0507 3.832 13.0429 4.14073 13.1401 4.424L13.4601 5.354L12.7831 7.97C12.5361 8.91942 12.2915 9.86942 12.0491 10.82C11.8811 11.498 11.7601 11.815 11.6371 12.021C11.5341 12.194 11.3911 12.355 11.0251 12.617C10.3711 13.086 9.71505 13.533 9.04405 13.99C8.73305 14.202 8.41905 14.416 8.10105 14.635L8.00005 14.702C7.96636 14.6802 7.93302 14.6579 7.90005 14.635C7.58105 14.415 7.26705 14.202 6.95605 13.99C6.28605 13.533 5.62905 13.086 4.97505 12.617C4.60905 12.355 4.46505 12.194 4.36305 12.021C4.24005 11.815 4.11905 11.498 3.95105 10.821C3.88505 10.558 3.61905 9.524 3.22105 7.981L2.54005 5.356L2.86005 4.426C2.95741 4.14242 2.94961 3.8333 2.83805 3.555L2.74705 3.327C2.93805 3.125 3.13205 2.925 3.32705 2.726C3.37828 2.70411 3.43259 2.69028 3.48805 2.685C3.63305 2.668 3.80805 2.675 4.01805 2.715C4.23333 2.75627 4.45568 2.74021 4.66279 2.66843C4.8699 2.59664 5.05449 2.47165 5.19805 2.306L6.11005 1.25H9.89005L10.8031 2.305H10.8021ZM13.2621 11.123C13.7318 9.29834 14.2028 7.474 14.6751 5.65L14.7391 5.402C14.7557 5.33837 14.7533 5.27125 14.7321 5.209L14.3221 4.019L14.6301 3.251C14.6771 3.131 14.6531 2.996 14.5461 2.879C14.2241 2.529 13.8961 2.186 13.5631 1.847C13.3331 1.612 13.0231 1.486 12.6601 1.443C12.3553 1.41079 12.0473 1.42563 11.7471 1.487L10.5571 0.112C10.5268 0.0768754 10.4894 0.048686 10.4473 0.0293569C10.4052 0.0100277 10.3594 1.41526e-05 10.3131 0L5.68705 0C5.64072 1.41526e-05 5.59493 0.0100277 5.55282 0.0293569C5.51071 0.048686 5.47327 0.0768754 5.44305 0.112L4.25305 1.487C3.95277 1.42563 3.64484 1.41079 3.34005 1.443C2.97805 1.486 2.66805 1.613 2.43705 1.847C2.09705 2.193 1.76205 2.545 1.43305 2.902C1.39084 2.94839 1.36255 3.00573 1.35141 3.06745C1.34026 3.12917 1.34673 3.19278 1.37005 3.251L1.67805 4.018L1.26805 5.209C1.24682 5.27125 1.24439 5.33837 1.26105 5.402L1.32505 5.649L2.01005 8.295C2.41005 9.841 2.67405 10.867 2.73805 11.123C3.08405 12.514 3.35805 12.997 4.24705 13.633C4.91305 14.111 5.59005 14.572 6.26705 15.033L7.19005 15.664C7.34205 15.769 7.45005 15.836 7.56705 15.891C7.71505 15.961 7.85705 16 8.00005 16C8.14405 16 8.28505 15.961 8.43305 15.89C8.55005 15.836 8.65805 15.769 8.81005 15.664C9.11705 15.453 9.42505 15.244 9.73305 15.034C10.4101 14.572 11.0871 14.11 11.7531 13.634C12.6411 12.997 12.9151 12.514 13.2621 11.123ZM9.10505 10.883C8.65205 10.643 8.08805 10.598 8.00005 10.598C7.91205 10.598 7.34805 10.644 6.89505 10.882C6.60105 11.037 6.36005 11.065 6.19805 11.083C6.11005 11.093 6.04605 11.101 6.00905 11.124C5.90405 11.191 5.96905 11.317 6.06405 11.386C6.15905 11.455 7.44405 12.466 7.56805 12.579L7.61805 12.624C7.73805 12.734 7.89105 12.875 8.00005 12.875C8.10905 12.875 8.26205 12.735 8.38205 12.625C8.39905 12.608 8.41605 12.593 8.43205 12.579C8.92845 12.1752 9.42983 11.7775 9.93605 11.386C10.0321 11.317 10.0961 11.191 9.99105 11.124C9.95405 11.101 9.89005 11.094 9.80105 11.084C9.64005 11.064 9.39905 11.037 9.10505 10.882V10.883ZM8.64305 3.132C8.43689 3.05724 8.22098 3.01278 8.00205 3H8.00005C8.00005 3 7.74305 3.001 7.35705 3.132L7.12205 3.213C6.81205 3.322 6.51505 3.426 6.36205 3.426C6.16905 3.426 4.74205 3.332 4.74205 3.332C4.74205 3.332 3.50005 5.387 3.50005 5.832C3.50005 6.587 3.85005 6.94 4.35705 7.449C4.47705 7.571 4.60705 7.701 4.74205 7.847L4.78405 7.89C4.91105 8.02 5.09705 8.211 4.96605 8.529L4.93805 8.594C4.79405 8.937 4.61605 9.362 4.84305 9.792C5.08405 10.25 5.49805 10.555 5.76305 10.505C6.02805 10.455 6.65105 10.123 6.87905 9.972C7.10905 9.821 7.83405 9.212 7.83405 8.978C7.83405 8.804 7.38605 8.582 7.10205 8.442C7.03123 8.40887 6.96214 8.37215 6.89505 8.332C6.75605 8.237 6.00905 8.232 6.00905 8.232C6.00905 8.232 5.82305 7.437 6.00905 7.081C6.05905 6.985 6.11205 6.899 6.16105 6.82C6.29505 6.603 6.40205 6.43 6.36105 6.197C6.30505 5.88 6.00005 5.832 5.50005 5.832C4.87805 5.832 4.73505 5.277 4.66005 4.992C4.63805 4.902 4.62105 4.838 4.59905 4.827C4.50605 4.784 4.52905 4.742 4.81205 4.715C4.85741 4.71024 4.90275 4.70524 4.94805 4.7C5.29805 4.663 5.94005 4.593 6.25305 4.682L6.45605 4.738C6.80605 4.835 7.23705 4.954 7.27905 5.022C7.28538 5.03287 7.29205 5.04354 7.29905 5.054C7.33905 5.111 7.36505 5.149 7.32105 5.392L7.24905 5.781C7.15061 6.28067 7.06126 6.78208 6.98105 7.285L6.97205 7.358C6.94805 7.559 6.93205 7.694 7.16205 7.748L7.22205 7.761C7.48205 7.821 7.86205 7.911 8.00005 7.911C8.13805 7.911 8.51805 7.821 8.77805 7.761L8.83805 7.747C9.06805 7.694 9.05205 7.559 9.02805 7.357C9.02488 7.33302 9.02188 7.30902 9.01905 7.285C9.00005 7.104 8.84905 6.299 8.75205 5.783C8.72734 5.65274 8.70301 5.5224 8.67905 5.392C8.63505 5.149 8.66105 5.112 8.70005 5.054C8.70739 5.04356 8.7144 5.03289 8.72105 5.022C8.76305 4.954 9.19305 4.835 9.54405 4.738L9.74705 4.682C10.0601 4.593 10.7031 4.662 11.0521 4.7L11.1881 4.715C11.4701 4.742 11.4941 4.784 11.4011 4.827C11.3791 4.837 11.3651 4.9 11.3451 4.988C11.2801 5.273 11.1541 5.832 10.5001 5.832C9.99105 5.832 9.55605 5.832 9.50005 6.15C9.46205 6.366 9.59205 6.554 9.73705 6.765C9.80605 6.863 9.87705 6.967 9.93705 7.081C10.1231 7.437 9.93705 8.231 9.93705 8.231C9.93705 8.231 9.15705 8.237 9.01905 8.332C8.96436 8.36624 8.90832 8.39827 8.85105 8.428C8.59305 8.568 8.16605 8.798 8.16605 8.978C8.16605 9.211 8.89205 9.821 9.12105 9.972C9.34905 10.123 9.97205 10.454 10.2371 10.505C10.5021 10.555 10.9161 10.25 11.1571 9.792C11.3841 9.362 11.2061 8.937 11.0621 8.593L11.0341 8.529C10.9031 8.211 11.0891 8.02 11.2161 7.89L11.2581 7.847C11.3951 7.699 11.5281 7.567 11.6541 7.442C12.1511 6.947 12.5281 6.572 12.5281 5.832C12.5281 5.387 11.2581 3.332 11.2581 3.332C11.2581 3.332 9.83105 3.426 9.63805 3.426C9.48505 3.426 9.18805 3.322 8.87805 3.213C8.79986 3.18561 8.72152 3.15861 8.64305 3.132Z" fill="white"/>
</g>
<defs>
<clipPath id="clip0_5_2110">
<rect width="16" height="16" fill="white"/>
</clipPath>
</defs>
</svg>
