<svg width="16" height="16" viewBox="0 0 16 16" fill="none" xmlns="http://www.w3.org/2000/svg">
<g clip-path="url(#clip0_5_2080)">
<path fill-rule="evenodd" clip-rule="evenodd" d="M4.74501 1.932V0.656998L3.73701 1.437C1.57401 3.115 0.202006 5.868 0.100006 8.165V8.23C0.102934 10.1464 0.824555 11.992 2.12229 13.4021C3.42002 14.8122 5.19946 15.6843 7.10901 15.846C9.01848 16.0083 10.9195 15.4493 12.437 14.279C13.959 13.106 15.315 11.224 15.315 8.229C15.315 5.916 14.867 4.727 14.411 3.756C14.362 3.652 14.315 3.552 14.268 3.456C13.903 2.695 13.625 2.114 13.625 1.001H12.375C12.375 1.416 12.199 1.86 11.868 2.321C11.538 2.778 11.085 3.211 10.61 3.589C10.0651 4.02018 9.48435 4.40391 8.87401 4.736L8.84601 4.751H7.24501V1.41L6.23401 2.205C5.75901 2.578 5.20801 3.078 4.74501 3.515V1.932ZM11.39 4.565C11.872 4.181 12.373 3.716 12.777 3.19C12.891 3.477 13.017 3.74 13.143 4L13.279 4.285C13.669 5.115 14.065 6.124 14.065 8.228C14.065 10.777 12.939 12.313 11.674 13.288C10.7264 14.018 9.59354 14.4683 8.40341 14.5882C7.21328 14.708 6.01336 14.4926 4.93926 13.9662C3.86516 13.4398 2.95972 12.6235 2.32527 11.6094C1.69082 10.5954 1.35266 9.42414 1.34901 8.228V8.206C1.42201 6.662 2.20601 4.794 3.49501 3.366V5V6.527L4.56501 5.438L4.56901 5.435L4.58101 5.423L4.62801 5.375C4.886 5.11494 5.14769 4.85858 5.41301 4.606C5.59501 4.432 5.79301 4.246 5.99501 4.061V6H6.00001L9.00001 8L5.54601 9.727C5.79461 10.0799 6.11643 10.3749 6.48949 10.592C6.86255 10.8091 7.27807 10.9432 7.70768 10.985C8.13729 11.0269 8.57086 10.9755 8.97881 10.8345C9.38675 10.6934 9.75945 10.466 10.0715 10.1677C10.3835 9.86945 10.6275 9.50737 10.7867 9.10619C10.946 8.70502 11.0169 8.27419 10.9944 7.84314C10.972 7.41208 10.8568 6.99094 10.6567 6.60848C10.4566 6.22602 10.1763 5.89124 9.83501 5.627L9.94601 5.561C10.337 5.326 10.862 4.986 11.39 4.565Z" fill="white"/>
</g>
<defs>
<clipPath id="clip0_5_2080">
<rect width="16" height="16" fill="white"/>
</clipPath>
</defs>
</svg>
