<svg width="16" height="16" viewBox="0 0 16 16" fill="none" xmlns="http://www.w3.org/2000/svg">
<g clip-path="url(#clip0_5_2095)">
<path fill-rule="evenodd" clip-rule="evenodd" d="M0.125 8C0.125 5.91142 0.954685 3.90838 2.43153 2.43153C3.90838 0.954685 5.91142 0.125 8 0.125H8.029C9.95616 0.12975 11.8142 0.843422 13.249 2.13C14.0759 2.86796 14.7373 3.77246 15.1899 4.78412C15.6424 5.79578 15.8759 6.89172 15.875 8C15.876 9.10838 15.6424 10.2044 15.1897 11.2161C14.7369 12.2278 14.0752 13.1323 13.248 13.87C11.7095 15.2496 9.689 15.9668 7.625 15.866C5.60365 15.7696 3.69697 14.8988 2.30052 13.4342C0.904061 11.9696 0.125017 10.0236 0.125 8ZM8 1.375C6.27193 1.37744 4.61321 2.05499 3.37764 3.26313C2.14207 4.47127 1.42746 6.11436 1.38623 7.84194C1.345 9.56952 1.98043 11.2448 3.15696 12.5105C4.3335 13.7762 5.95801 14.5321 7.684 14.617C7.82423 14.6237 7.96463 14.6261 8.105 14.624C6.925 14.233 5.896 13.474 5.127 12.478C4.226 11.408 3.671 9.871 3.633 8.185V7.815C3.671 6.13 4.226 4.592 5.127 3.522C5.897 2.527 6.925 1.767 8.105 1.376H8V1.375ZM12.449 3.092C11.5852 2.5228 10.5547 2.26139 9.524 2.35C10.216 2.667 10.817 3.2 11.287 3.858C12.063 4.943 12.523 6.409 12.523 8C12.523 9.592 12.063 11.058 11.287 12.143C10.817 12.801 10.217 13.333 9.525 13.65C10.5549 13.7384 11.5846 13.4773 12.448 12.909C13.1346 12.2889 13.6833 11.5315 14.0585 10.6859C14.4336 9.8402 14.627 8.92515 14.626 8C14.6272 7.07486 14.4342 6.15977 14.0593 5.31397C13.6845 4.46816 13.1362 3.71049 12.45 3.09L12.449 3.092ZM8.077 3.281C7.362 3.281 6.666 3.639 6.09 4.318C5.395 5.138 4.916 6.391 4.882 7.837V8.164C4.916 9.609 5.395 10.861 6.091 11.682C6.666 12.362 7.363 12.72 8.077 12.72C8.878 12.72 9.662 12.267 10.271 11.416C10.878 10.566 11.273 9.361 11.273 8C11.273 6.64 10.878 5.434 10.271 4.585C9.662 3.734 8.878 3.281 8.077 3.281Z" fill="white"/>
</g>
<defs>
<clipPath id="clip0_5_2095">
<rect width="16" height="16" fill="white"/>
</clipPath>
</defs>
</svg>
