<svg width="16" height="16" viewBox="0 0 16 16" fill="none" xmlns="http://www.w3.org/2000/svg">
<g clip-path="url(#clip0_5_2072)">
<path fill-rule="evenodd" clip-rule="evenodd" d="M8.532 11.333L6.771 14.383C5.76522 14.189 4.81951 13.7601 4.01092 13.1313C3.20234 12.5025 2.55375 11.6915 2.11803 10.7645C1.6823 9.83751 1.47175 8.82066 1.50355 7.79684C1.53535 6.77302 1.80859 5.77119 2.301 4.873L5.006 9.559C5.33318 10.1873 5.84979 10.6968 6.48263 11.0152C7.11547 11.3336 7.83245 11.4448 8.532 11.333ZM10.851 9.808L8.142 14.498C9.1663 14.4759 10.1709 14.2121 11.0738 13.7279C11.9767 13.2437 12.7524 12.553 13.3375 11.712C13.9227 10.871 14.3008 9.90358 14.4409 8.88867C14.5811 7.87377 14.4793 6.8401 14.144 5.872H10.62C11.1096 6.473 11.3763 7.22481 11.375 8C11.3762 8.64028 11.1944 9.26757 10.851 9.808ZM8.131 4.628H13.558C12.9788 3.67268 12.1629 2.88289 11.1893 2.33495C10.2157 1.78701 9.11721 1.49943 8 1.5C6.038 1.5 4.278 2.37 3.086 3.745L4.846 6.794C5.09842 6.13489 5.55108 5.57146 6.14032 5.18294C6.72956 4.79442 7.42574 4.60034 8.131 4.628ZM8 16C10.1217 16 12.1566 15.1571 13.6569 13.6569C15.1571 12.1566 16 10.1217 16 8C16 5.87827 15.1571 3.84344 13.6569 2.34315C12.1566 0.842855 10.1217 0 8 0C5.87827 0 3.84344 0.842855 2.34315 2.34315C0.842855 3.84344 0 5.87827 0 8C0 10.1217 0.842855 12.1566 2.34315 13.6569C3.84344 15.1571 5.87827 16 8 16ZM5.875 8C5.875 7.43641 6.09888 6.89591 6.4974 6.4974C6.89591 6.09888 7.43641 5.875 8 5.875C8.56359 5.875 9.10409 6.09888 9.5026 6.4974C9.90112 6.89591 10.125 7.43641 10.125 8C10.125 8.56359 9.90112 9.10409 9.5026 9.5026C9.10409 9.90112 8.56359 10.125 8 10.125C7.43641 10.125 6.89591 9.90112 6.4974 9.5026C6.09888 9.10409 5.875 8.56359 5.875 8Z" fill="white"/>
</g>
<defs>
<clipPath id="clip0_5_2072">
<rect width="16" height="16" fill="white"/>
</clipPath>
</defs>
</svg>
