<svg width="16" height="16" viewBox="0 0 16 16" fill="none" xmlns="http://www.w3.org/2000/svg">
<g clip-path="url(#clip0_5_2111)">
<path fill-rule="evenodd" clip-rule="evenodd" d="M10.966 9.306C11.3608 9.37775 11.762 9.40792 12.163 9.396C12.182 9.394 12.196 9.394 12.205 9.394C12.648 9.394 13.083 9.274 13.464 9.049L13.469 9.046C13.8584 8.81826 14.1815 8.49264 14.4062 8.10145C14.6309 7.71027 14.7495 7.26713 14.75 6.816V6.802C14.764 5.798 14.425 5.128 14.214 4.71L14.179 4.641C13.101 2.551 10.73 1.25 8 1.25C6.54406 1.24927 5.12691 1.71932 3.96 2.59C4.303 2.54 4.65 2.513 4.999 2.513C5.267 2.513 6.762 2.529 8.193 3.274C9.22247 3.78856 10.0751 4.59839 10.642 5.6C11.182 6.542 11.256 7.644 11.256 8.063C11.256 8.464 11.149 8.897 10.966 9.306ZM0 7.888C0.002 7.766 0.01 7.646 0.024 7.527C0.0122857 7.64899 0.0062791 7.77145 0.006 7.894C-0.00466183 9.1024 0.253931 10.298 0.763 11.394C1.27561 12.4857 2.02839 13.4473 2.96506 14.207C3.90173 14.9667 4.99804 15.5048 6.172 15.781H6.174C6.318 15.815 6.462 15.844 6.606 15.871H6.612C7.92408 16.1025 9.2732 16.0028 10.537 15.581C10.535 15.581 10.533 15.581 10.531 15.581L10.613 15.556C11.9821 15.0828 13.1975 14.2476 14.13 13.139C14.332 12.899 14.5197 12.6472 14.692 12.385L14.695 12.38C14.722 12.3389 14.7487 12.2976 14.775 12.256C14.8032 12.2092 14.8153 12.1545 14.8094 12.1001C14.8035 12.0458 14.78 11.9949 14.7425 11.9552C14.7049 11.9155 14.6554 11.8892 14.6015 11.8803C14.5476 11.8715 14.4923 11.8805 14.444 11.906C14.4029 11.9275 14.3616 11.9485 14.32 11.969L14.308 11.975C14.1361 12.0586 13.9602 12.1337 13.781 12.2L13.738 12.216C13.5321 12.2908 13.3225 12.3549 13.11 12.408C12.596 12.5372 12.0679 12.6017 11.538 12.6C8.581 12.6 6.006 10.569 6.006 7.956C6.0097 7.60618 6.10664 7.26367 6.28681 6.9638C6.46698 6.66392 6.72388 6.41752 7.031 6.25L7.051 6.241C7.251 6.146 7.576 5.994 8.006 6C8.31842 6.00236 8.62607 6.07698 8.90485 6.21802C9.18364 6.35906 9.42601 6.5627 9.613 6.813C9.89831 7.19597 10.0367 7.66862 10.003 8.145C9.979 8.475 9.815 8.921 9.524 9.299L9.519 9.306C9.50704 9.31805 9.4947 9.32972 9.482 9.341C9.413 9.403 9.312 9.494 9.312 9.65C9.312 9.812 9.419 9.975 9.612 10.106C9.774 10.219 9.961 10.309 10.16 10.38C11.04 10.695 12.146 10.646 12.204 10.644H12.206C12.873 10.644 13.526 10.464 14.1 10.125C14.6774 9.78735 15.1565 9.30463 15.4897 8.72472C15.823 8.14481 15.9989 7.48786 16 6.819C16.018 5.503 15.56 4.601 15.334 4.155L15.294 4.075C13.962 1.487 11.106 3.84735e-08 8 3.84735e-08C5.89753 -0.000206013 3.87949 0.827257 2.38238 2.30341C0.885266 3.77956 0.0294345 5.78574 0 7.888ZM3.32 12.853C2.81221 11.402 2.85318 9.81536 3.43518 8.39254C4.01717 6.96971 5.09991 5.80916 6.479 5.13L6.501 5.12L6.531 5.105C6.748 5.002 7.279 4.75 7.984 4.751C7.92104 4.70218 7.85598 4.65613 7.789 4.613C7.243 4.26 6.342 3.939 4.86 3.888C3.963 3.895 3.074 4.386 2.366 5.218C1.646 6.065 1.256 7.101 1.256 7.895V7.906C1.24707 8.92793 1.46569 9.93904 1.896 10.866C2.248 11.616 2.732 12.288 3.32 12.854V12.853ZM4.863 9.022C5.451 11.89 8.371 13.777 11.363 13.848C11.002 14.055 10.621 14.229 10.223 14.368L10.163 14.386L10.151 14.391C9.788 14.507 9.175 14.619 8.844 14.619C8.502 14.619 7.289 14.519 6.211 13.953C5.216 13.43 4.355 12.539 4.355 10.781C4.355 10.321 4.515 9.646 4.863 9.021V9.022Z" fill="white"/>
</g>
<defs>
<clipPath id="clip0_5_2111">
<rect width="16" height="16" fill="white"/>
</clipPath>
</defs>
</svg>
