<svg width="16" height="16" viewBox="0 0 16 16" fill="none" xmlns="http://www.w3.org/2000/svg">
<path fill-rule="evenodd" clip-rule="evenodd" d="M2.72998 1.08701L2.91598 1.81301C3.13856 2.67559 3.57738 3.46718 4.19098 4.11301C5.10798 2.82001 6.47398 2.00001 7.99998 2.00001C9.52598 2.00001 10.892 2.82001 11.81 4.11401C12.4241 3.46801 12.8633 2.67605 13.086 1.81301L13.273 1.08701L14.725 1.46101L14.538 2.18701C14.2092 3.45928 13.5162 4.60792 12.544 5.49201C12.837 6.25501 13 7.10501 13 8.00001H14.5V9.50001H12.842C12.6891 10.225 12.4146 10.9188 12.03 11.552L13.585 12.329L14 12.536V15H12.5V13.463L11.061 12.744C10.216 13.531 9.15298 14 7.99998 14C6.84698 14 5.78498 13.531 4.93898 12.744L3.49998 13.464V15H1.99998V12.536L2.41498 12.329L3.96998 11.552C3.58534 10.9188 3.31079 10.225 3.15798 9.50001H1.49998V8.00001H2.99998C2.99998 7.10401 3.16398 6.25401 3.45698 5.49101C2.48526 4.6071 1.79262 3.45882 1.46398 2.18701L1.27698 1.46101L2.72998 1.08701ZM4.49998 8.00001C4.49998 7.42001 4.57998 6.88501 4.72298 6.40201C5.50316 6.83661 6.36231 7.11098 7.24998 7.20901V12.388C5.81598 11.962 4.49998 10.346 4.49998 8.00001ZM8.74998 12.388C10.184 11.962 11.5 10.346 11.5 8.00001C11.5 7.42001 11.42 6.88601 11.277 6.40301C10.4967 6.83726 9.63758 7.11129 8.74998 7.20901V12.388ZM8.00098 5.75001C8.96098 5.75001 9.85898 5.49301 10.634 5.04301C9.94998 4.06001 8.95498 3.50001 7.99998 3.50001C7.04498 3.50001 6.04998 4.05901 5.36698 5.04201C6.14098 5.49201 7.04098 5.75001 8.00098 5.75001Z" fill="white"/>
</svg>
