<svg width="16" height="16" viewBox="0 0 16 16" fill="none" xmlns="http://www.w3.org/2000/svg">
<path fill-rule="evenodd" clip-rule="evenodd" d="M2.5 2.25C2.5 2.05109 2.57902 1.86032 2.71967 1.71967C2.86032 1.57902 3.05109 1.5 3.25 1.5H6.75C6.94891 1.5 7.13968 1.57902 7.28033 1.71967C7.42098 1.86032 7.5 2.05109 7.5 2.25V14.5H2.5V2.25ZM7.5 16H1V2.25C1 1.65326 1.23705 1.08097 1.65901 0.65901C2.08097 0.237053 2.65326 0 3.25 0L6.75 0C7.34674 0 7.91903 0.237053 8.34099 0.65901C8.76295 1.08097 9 1.65326 9 2.25V6.5H12.25C12.8467 6.5 13.419 6.73705 13.841 7.15901C14.2629 7.58097 14.5 8.15326 14.5 8.75V16H7.5ZM9 14.5H13V8.75C13 8.55109 12.921 8.36032 12.7803 8.21967C12.6397 8.07902 12.4489 8 12.25 8H9V14.5ZM4.75 3.5H4V5H6V3.5H4.75ZM4 6.5H6V8H4V6.5ZM10.75 9.5H10V11H12V9.5H10.75ZM4 9.5H6V11H4V9.5Z" fill="white"/>
</svg>
