<svg width="16" height="16" viewBox="0 0 16 16" fill="none" xmlns="http://www.w3.org/2000/svg">
<path fill-rule="evenodd" clip-rule="evenodd" d="M13 1.5H3V4H13V1.5ZM3 13.5V5.25H13V13.5C13 13.7652 12.8946 14.0196 12.7071 14.2071C12.5196 14.3946 12.2652 14.5 12 14.5H4C3.73478 14.5 3.48043 14.3946 3.29289 14.2071C3.10536 14.0196 3 13.7652 3 13.5ZM3 0H1.5V13.5C1.5 14.163 1.76339 14.7989 2.23223 15.2678C2.70107 15.7366 3.33696 16 4 16H12C12.663 16 13.2989 15.7366 13.7678 15.2678C14.2366 14.7989 14.5 14.163 14.5 13.5V0H3ZM5.25 8C5.44891 8 5.63968 7.92098 5.78033 7.78033C5.92098 7.63968 6 7.44891 6 7.25C6 7.05109 5.92098 6.86032 5.78033 6.71967C5.63968 6.57902 5.44891 6.5 5.25 6.5C5.05109 6.5 4.86032 6.57902 4.71967 6.71967C4.57902 6.86032 4.5 7.05109 4.5 7.25C4.5 7.44891 4.57902 7.63968 4.71967 7.78033C4.86032 7.92098 5.05109 8 5.25 8ZM5.25 10.5C5.44891 10.5 5.63968 10.421 5.78033 10.2803C5.92098 10.1397 6 9.94891 6 9.75C6 9.55109 5.92098 9.36032 5.78033 9.21967C5.63968 9.07902 5.44891 9 5.25 9C5.05109 9 4.86032 9.07902 4.71967 9.21967C4.57902 9.36032 4.5 9.55109 4.5 9.75C4.5 9.94891 4.57902 10.1397 4.71967 10.2803C4.86032 10.421 5.05109 10.5 5.25 10.5ZM6 12.5C6 12.6989 5.92098 12.8897 5.78033 13.0303C5.63968 13.171 5.44891 13.25 5.25 13.25C5.05109 13.25 4.86032 13.171 4.71967 13.0303C4.57902 12.8897 4.5 12.6989 4.5 12.5C4.5 12.3011 4.57902 12.1103 4.71967 11.9697C4.86032 11.829 5.05109 11.75 5.25 11.75C5.44891 11.75 5.63968 11.829 5.78033 11.9697C5.92098 12.1103 6 12.3011 6 12.5ZM8 8C8.19891 8 8.38968 7.92098 8.53033 7.78033C8.67098 7.63968 8.75 7.44891 8.75 7.25C8.75 7.05109 8.67098 6.86032 8.53033 6.71967C8.38968 6.57902 8.19891 6.5 8 6.5C7.80109 6.5 7.61032 6.57902 7.46967 6.71967C7.32902 6.86032 7.25 7.05109 7.25 7.25C7.25 7.44891 7.32902 7.63968 7.46967 7.78033C7.61032 7.92098 7.80109 8 8 8ZM8.75 9.75C8.75 9.94891 8.67098 10.1397 8.53033 10.2803C8.38968 10.421 8.19891 10.5 8 10.5C7.80109 10.5 7.61032 10.421 7.46967 10.2803C7.32902 10.1397 7.25 9.94891 7.25 9.75C7.25 9.55109 7.32902 9.36032 7.46967 9.21967C7.61032 9.07902 7.80109 9 8 9C8.19891 9 8.38968 9.07902 8.53033 9.21967C8.67098 9.36032 8.75 9.55109 8.75 9.75ZM8 13.25C8.09849 13.25 8.19602 13.2306 8.28701 13.1929C8.37801 13.1552 8.46069 13.1 8.53033 13.0303C8.59997 12.9607 8.65522 12.878 8.69291 12.787C8.7306 12.696 8.75 12.5985 8.75 12.5C8.75 12.4015 8.7306 12.304 8.69291 12.213C8.65522 12.122 8.59997 12.0393 8.53033 11.9697C8.46069 11.9 8.37801 11.8448 8.28701 11.8071C8.19602 11.7694 8.09849 11.75 8 11.75C7.80109 11.75 7.61032 11.829 7.46967 11.9697C7.32902 12.1103 7.25 12.3011 7.25 12.5C7.25 12.6989 7.32902 12.8897 7.46967 13.0303C7.61032 13.171 7.80109 13.25 8 13.25ZM11.5 7.25C11.5 7.44891 11.421 7.63968 11.2803 7.78033C11.1397 7.92098 10.9489 8 10.75 8C10.5511 8 10.3603 7.92098 10.2197 7.78033C10.079 7.63968 10 7.44891 10 7.25C10 7.05109 10.079 6.86032 10.2197 6.71967C10.3603 6.57902 10.5511 6.5 10.75 6.5C10.9489 6.5 11.1397 6.57902 11.2803 6.71967C11.421 6.86032 11.5 7.05109 11.5 7.25ZM10.75 10.5C10.9489 10.5 11.1397 10.421 11.2803 10.2803C11.421 10.1397 11.5 9.94891 11.5 9.75C11.5 9.55109 11.421 9.36032 11.2803 9.21967C11.1397 9.07902 10.9489 9 10.75 9C10.5511 9 10.3603 9.07902 10.2197 9.21967C10.079 9.36032 10 9.55109 10 9.75C10 9.94891 10.079 10.1397 10.2197 10.2803C10.3603 10.421 10.5511 10.5 10.75 10.5ZM11.5 12.5C11.5 12.6989 11.421 12.8897 11.2803 13.0303C11.1397 13.171 10.9489 13.25 10.75 13.25C10.5511 13.25 10.3603 13.171 10.2197 13.0303C10.079 12.8897 10 12.6989 10 12.5C10 12.3011 10.079 12.1103 10.2197 11.9697C10.3603 11.829 10.5511 11.75 10.75 11.75C10.9489 11.75 11.1397 11.829 11.2803 11.9697C11.421 12.1103 11.5 12.3011 11.5 12.5Z" fill="white"/>
</svg>
