<svg width="16" height="16" viewBox="0 0 16 16" fill="none" xmlns="http://www.w3.org/2000/svg">
<g clip-path="url(#clip0_5_2083)">
<path fill-rule="evenodd" clip-rule="evenodd" d="M5.5 0.5V2H10.5V0.5H12V2H15.5V13.5C15.5 14.163 15.2366 14.7989 14.7678 15.2678C14.2989 15.7366 13.663 16 13 16H3C2.6717 16 2.34661 15.9353 2.04329 15.8097C1.73998 15.6841 1.46438 15.4999 1.23223 15.2678C0.763392 14.7989 0.5 14.163 0.5 13.5V2H4V0.5H5.5ZM2 3.5H14V6H2V3.5ZM2 7.5V13.5C2 13.7652 2.10536 14.0196 2.29289 14.2071C2.48043 14.3946 2.73478 14.5 3 14.5H13C13.2652 14.5 13.5196 14.3946 13.7071 14.2071C13.8946 14.0196 14 13.7652 14 13.5V7.5H2Z" fill="white"/>
</g>
<defs>
<clipPath id="clip0_5_2083">
<rect width="16" height="16" fill="white"/>
</clipPath>
</defs>
</svg>
