<svg width="16" height="16" viewBox="0 0 16 16" fill="none" xmlns="http://www.w3.org/2000/svg">
<g clip-path="url(#clip0_5_2081)">
<path fill-rule="evenodd" clip-rule="evenodd" d="M1.5 3.5H3.5L5 1H11L12.5 3.5H16V12.5C16 13.163 15.7366 13.7989 15.2678 14.2678C14.7989 14.7366 14.163 15 13.5 15H2.5C1.83696 15 1.20107 14.7366 0.732233 14.2678C0.263392 13.7989 0 13.163 0 12.5L0 3.5H1.5ZM4.786 4.272L5.85 2.5H10.152L11.215 4.272L11.652 5H14.5V12.5C14.5 12.7652 14.3946 13.0196 14.2071 13.2071C14.0196 13.3946 13.7652 13.5 13.5 13.5H2.5C2.23478 13.5 1.98043 13.3946 1.79289 13.2071C1.60536 13.0196 1.5 12.7652 1.5 12.5V5H4.35L4.786 4.272ZM9.75 8.5C9.75 8.96413 9.56563 9.40925 9.23744 9.73744C8.90925 10.0656 8.46413 10.25 8 10.25C7.53587 10.25 7.09075 10.0656 6.76256 9.73744C6.43437 9.40925 6.25 8.96413 6.25 8.5C6.25 8.03587 6.43437 7.59075 6.76256 7.26256C7.09075 6.93437 7.53587 6.75 8 6.75C8.46413 6.75 8.90925 6.93437 9.23744 7.26256C9.56563 7.59075 9.75 8.03587 9.75 8.5ZM11.25 8.5C11.25 9.36195 10.9076 10.1886 10.2981 10.7981C9.6886 11.4076 8.86195 11.75 8 11.75C7.13805 11.75 6.3114 11.4076 5.7019 10.7981C5.09241 10.1886 4.75 9.36195 4.75 8.5C4.75 7.63805 5.09241 6.8114 5.7019 6.2019C6.3114 5.59241 7.13805 5.25 8 5.25C8.86195 5.25 9.6886 5.59241 10.2981 6.2019C10.9076 6.8114 11.25 7.63805 11.25 8.5Z" fill="white"/>
</g>
<defs>
<clipPath id="clip0_5_2081">
<rect width="16" height="16" fill="white"/>
</clipPath>
</defs>
</svg>
