<svg width="16" height="16" viewBox="0 0 16 16" fill="none" xmlns="http://www.w3.org/2000/svg">
<path fill-rule="evenodd" clip-rule="evenodd" d="M0 2.5H0.958C1.41 2.5 1.822 2.743 2.043 3.128L2.5 4.5L3.93 8.79C4.09585 9.28793 4.41419 9.72105 4.83992 10.028C5.26565 10.3349 5.77717 10.5 6.302 10.5H12.451C13.0287 10.4997 13.5885 10.2992 14.0352 9.93278C14.4818 9.56635 14.7878 9.05653 14.901 8.49L15.7 4.5L16 3H3.623L3.503 2.707C3.29603 2.20207 2.94351 1.77013 2.49031 1.46615C2.0371 1.16217 1.50371 0.999907 0.958 1H0V2.5ZM4.081 4.5L5.353 8.316C5.41935 8.51521 5.54672 8.68847 5.71705 8.81124C5.88738 8.93401 6.09204 9.00005 6.302 9H12.451C12.6821 8.99986 12.906 8.91969 13.0847 8.77311C13.2633 8.62654 13.3857 8.42261 13.431 8.196L14.171 4.5H4.081ZM12.5 15C12.1022 15 11.7206 14.842 11.4393 14.5607C11.158 14.2794 11 13.8978 11 13.5C11 13.1022 11.158 12.7206 11.4393 12.4393C11.7206 12.158 12.1022 12 12.5 12C12.8978 12 13.2794 12.158 13.5607 12.4393C13.842 12.7206 14 13.1022 14 13.5C14 13.8978 13.842 14.2794 13.5607 14.5607C13.2794 14.842 12.8978 15 12.5 15ZM4.5 13.5C4.5 13.8978 4.65804 14.2794 4.93934 14.5607C5.22064 14.842 5.60218 15 6 15C6.39782 15 6.77936 14.842 7.06066 14.5607C7.34196 14.2794 7.5 13.8978 7.5 13.5C7.5 13.1022 7.34196 12.7206 7.06066 12.4393C6.77936 12.158 6.39782 12 6 12C5.60218 12 5.22064 12.158 4.93934 12.4393C4.65804 12.7206 4.5 13.1022 4.5 13.5Z" fill="white"/>
</svg>
