<svg width="16" height="16" viewBox="0 0 16 16" fill="none" xmlns="http://www.w3.org/2000/svg">
<g clip-path="url(#clip0_5_2099)">
<path fill-rule="evenodd" clip-rule="evenodd" d="M13.4379 11.5H10.0739V13H14.9999C15.2652 13 15.5195 12.8946 15.707 12.7071C15.8946 12.5196 15.9999 12.2652 15.9999 12V7.075H14.4999V10.439L9.20694 5.148C9.01941 4.96053 8.76511 4.85522 8.49994 4.85522C8.23478 4.85522 7.98047 4.96053 7.79294 5.148L5.49994 7.438L1.77994 3.72L1.24994 3.19L0.189941 4.25L0.719941 4.78L4.79294 8.854C4.98047 9.04147 5.23478 9.14679 5.49994 9.14679C5.76511 9.14679 6.01941 9.04147 6.20694 8.854L8.49994 6.562L13.4379 11.5Z" fill="white"/>
</g>
<defs>
<clipPath id="clip0_5_2099">
<rect width="16" height="16" fill="white"/>
</clipPath>
</defs>
</svg>
