<svg width="16" height="16" viewBox="0 0 16 16" fill="none" xmlns="http://www.w3.org/2000/svg">
<g clip-path="url(#clip0_5_2096)">
<path fill-rule="evenodd" clip-rule="evenodd" d="M14.457 8.75C14.3162 9.96374 13.8361 11.1132 13.0719 12.0666C12.3077 13.02 11.2903 13.7388 10.1363 14.1404C8.9823 14.5421 7.73848 14.6104 6.54746 14.3375C5.35644 14.0646 4.26643 13.4616 3.40243 12.5976C2.53843 11.7336 1.93541 10.6436 1.66253 9.45254C1.38964 8.26152 1.45794 7.0177 1.85959 5.86372C2.26123 4.70973 2.97997 3.6923 3.93338 2.92809C4.88678 2.16389 6.03626 1.68384 7.25 1.543V7.75C7.25 8.01522 7.35536 8.26957 7.54289 8.45711C7.73043 8.64464 7.98478 8.75 8.25 8.75H14.457ZM14.457 7.25H8.75V1.543C10.205 1.71247 11.5602 2.36822 12.596 3.40402C13.6318 4.43982 14.2875 5.79499 14.457 7.25ZM16 8C16 10.1217 15.1571 12.1566 13.6569 13.6569C12.1566 15.1571 10.1217 16 8 16C5.87827 16 3.84344 15.1571 2.34315 13.6569C0.842855 12.1566 0 10.1217 0 8C0 5.87827 0.842855 3.84344 2.34315 2.34315C3.84344 0.842855 5.87827 0 8 0C10.1217 0 12.1566 0.842855 13.6569 2.34315C15.1571 3.84344 16 5.87827 16 8Z" fill="white"/>
</g>
<defs>
<clipPath id="clip0_5_2096">
<rect width="16" height="16" fill="white"/>
</clipPath>
</defs>
</svg>
