<svg width="16" height="16" viewBox="0 0 16 16" fill="none" xmlns="http://www.w3.org/2000/svg">
<g clip-path="url(#clip0_5_2098)">
<path fill-rule="evenodd" clip-rule="evenodd" d="M10.8239 3H10.0739V4.5H13.4379L8.49994 9.438L6.20694 7.146C6.01941 6.95853 5.76511 6.85321 5.49994 6.85321C5.23478 6.85321 4.98047 6.95853 4.79294 7.146L0.719941 11.22L0.189941 11.75L1.24994 12.81L1.77994 12.28L5.49994 8.56L7.79294 10.853C7.98047 11.0405 8.23478 11.1458 8.49994 11.1458C8.76511 11.1458 9.01941 11.0405 9.20694 10.853L14.4999 5.56V8.924H15.9999V4C15.9999 3.73478 15.8946 3.48043 15.707 3.29289C15.5195 3.10536 15.2652 3 14.9999 3H10.8239Z" fill="white"/>
</g>
<defs>
<clipPath id="clip0_5_2098">
<rect width="16" height="16" fill="white"/>
</clipPath>
</defs>
</svg>
