<svg width="16" height="16" viewBox="0 0 16 16" fill="none" xmlns="http://www.w3.org/2000/svg">
<g clip-path="url(#clip0_5_2102)">
<path fill-rule="evenodd" clip-rule="evenodd" d="M16 8C16 10.1217 15.1571 12.1566 13.6569 13.6569C12.1566 15.1571 10.1217 16 8 16C5.87827 16 3.84344 15.1571 2.34315 13.6569C0.842855 12.1566 0 10.1217 0 8C0 5.87827 0.842855 3.84344 2.34315 2.34315C3.84344 0.842855 5.87827 0 8 0C10.1217 0 12.1566 0.842855 13.6569 2.34315C15.1571 3.84344 16 5.87827 16 8ZM11.53 6.53L12.06 6L11 4.94L10.47 5.47L6.5 9.44L5.53 8.47L5 7.94L3.94 9L4.47 9.53L5.97 11.03C6.11063 11.1705 6.30125 11.2493 6.5 11.2493C6.69875 11.2493 6.88937 11.1705 7.03 11.03L11.53 6.53Z" fill="white"/>
</g>
<defs>
<clipPath id="clip0_5_2102">
<rect width="16" height="16" fill="white"/>
</clipPath>
</defs>
</svg>
