<svg width="16" height="16" viewBox="0 0 16 16" fill="none" xmlns="http://www.w3.org/2000/svg">
<path fill-rule="evenodd" clip-rule="evenodd" d="M15.5599 4L15.0299 4.53L6.23694 13.323C5.90879 13.6509 5.46386 13.8351 4.99994 13.8351C4.53603 13.8351 4.09109 13.6509 3.76294 13.323L0.969941 10.53L0.439941 10L1.49994 8.94L2.02994 9.47L4.82294 12.263C4.84616 12.2863 4.87375 12.3048 4.90412 12.3174C4.9345 12.33 4.96706 12.3364 4.99994 12.3364C5.03282 12.3364 5.06539 12.33 5.09576 12.3174C5.12613 12.3048 5.15372 12.2863 5.17694 12.263L13.9699 3.47L14.4999 2.94L15.5599 4Z" fill="white"/>
</svg>
