<svg width="16" height="16" viewBox="0 0 16 16" fill="none" xmlns="http://www.w3.org/2000/svg">
<g clip-path="url(#clip0_5_2103)">
<path fill-rule="evenodd" clip-rule="evenodd" d="M15 16H1C0.734784 16 0.48043 15.8946 0.292893 15.7071C0.105357 15.5196 0 15.2652 0 15V1C0 0.734784 0.105357 0.48043 0.292893 0.292893C0.48043 0.105357 0.734784 0 1 0L15 0C15.2652 0 15.5196 0.105357 15.7071 0.292893C15.8946 0.48043 16 0.734784 16 1V15C16 15.2652 15.8946 15.5196 15.7071 15.7071C15.5196 15.8946 15.2652 16 15 16ZM11.78 6.28L12.31 5.75L11.25 4.69L10.72 5.22L6.5 9.44L5.28 8.22L4.75 7.69L3.69 8.75L4.22 9.28L5.97 11.03C6.11063 11.1705 6.30125 11.2493 6.5 11.2493C6.69875 11.2493 6.88937 11.1705 7.03 11.03L11.78 6.28Z" fill="white"/>
</g>
<defs>
<clipPath id="clip0_5_2103">
<rect width="16" height="16" fill="white"/>
</clipPath>
</defs>
</svg>
