<svg width="16" height="16" viewBox="0 0 16 16" fill="none" xmlns="http://www.w3.org/2000/svg">
<path fill-rule="evenodd" clip-rule="evenodd" d="M12.854 8.707C13.0415 8.51947 13.1468 8.26517 13.1468 8C13.1468 7.73484 13.0415 7.48053 12.854 7.293L9.03 3.47L8.5 2.94L7.44 4L7.97 4.53L11.44 8L7.97 11.47L7.44 12L8.5 13.06L9.03 12.53L12.854 8.707ZM7.854 8.707C8.04147 8.51947 8.14679 8.26517 8.14679 8C8.14679 7.73484 8.04147 7.48053 7.854 7.293L4.03 3.47L3.5 2.94L2.44 4L2.97 4.53L6.44 8L2.97 11.47L2.44 12L3.5 13.06L4.03 12.53L7.854 8.707Z" fill="white"/>
</svg>
