<svg width="16" height="16" viewBox="0 0 16 16" fill="none" xmlns="http://www.w3.org/2000/svg">
<path fill-rule="evenodd" clip-rule="evenodd" d="M3.146 7.293C2.95853 7.48053 2.85321 7.73484 2.85321 8C2.85321 8.26517 2.95853 8.51947 3.146 8.707L6.97 12.53L7.5 13.06L8.56 12L8.03 11.47L4.56 8L8.03 4.53L8.56 4L7.5 2.94L6.97 3.47L3.146 7.293ZM8.146 7.293C7.95853 7.48053 7.85321 7.73484 7.85321 8C7.85321 8.26517 7.95853 8.51947 8.146 8.707L11.97 12.53L12.5 13.06L13.56 12L13.03 11.47L9.56 8L13.03 4.53L13.56 4L12.5 2.94L11.97 3.47L8.146 7.293Z" fill="white"/>
</svg>
