<svg width="16" height="16" viewBox="0 0 16 16" fill="none" xmlns="http://www.w3.org/2000/svg">
<path fill-rule="evenodd" clip-rule="evenodd" d="M4.53 2.97L4 2.44L2.94 3.5L3.47 4.03L7.293 7.854C7.48053 8.04147 7.73484 8.14679 8 8.14679C8.26517 8.14679 8.51947 8.04147 8.707 7.854L12.53 4.03L13.06 3.5L12 2.44L11.47 2.97L8 6.44L4.53 2.97ZM4.53 7.97L4 7.44L2.94 8.5L3.47 9.03L7.293 12.854C7.48053 13.0415 7.73484 13.1468 8 13.1468C8.26517 13.1468 8.51947 13.0415 8.707 12.854L12.53 9.03L13.06 8.5L12 7.44L11.47 7.97L8 11.44L4.53 7.97Z" fill="white"/>
</svg>
