<svg width="16" height="16" viewBox="0 0 16 16" fill="none" xmlns="http://www.w3.org/2000/svg">
<g clip-path="url(#clip0_5_2106)">
<path fill-rule="evenodd" clip-rule="evenodd" d="M8 16C10.1217 16 12.1566 15.1571 13.6569 13.6569C15.1571 12.1566 16 10.1217 16 8C16 5.87827 15.1571 3.84344 13.6569 2.34315C12.1566 0.842855 10.1217 0 8 0C5.87827 0 3.84344 0.842855 2.34315 2.34315C0.842855 3.84344 0 5.87827 0 8C0 10.1217 0.842855 12.1566 2.34315 13.6569C3.84344 15.1571 5.87827 16 8 16ZM11.28 7.53L11.81 7L10.75 5.94L10.22 6.47L8 8.69L5.78 6.47L5.25 5.94L4.19 7L4.72 7.53L7.293 10.104C7.48053 10.2915 7.73484 10.3968 8 10.3968C8.26516 10.3968 8.51947 10.2915 8.707 10.104L11.28 7.53Z" fill="white"/>
</g>
<defs>
<clipPath id="clip0_5_2106">
<rect width="16" height="16" fill="white"/>
</clipPath>
</defs>
</svg>
