<svg width="16" height="16" viewBox="0 0 16 16" fill="none" xmlns="http://www.w3.org/2000/svg">
<path fill-rule="evenodd" clip-rule="evenodd" d="M8.70694 3.146C8.51941 2.95853 8.26511 2.85321 7.99994 2.85321C7.73478 2.85321 7.48047 2.95853 7.29294 3.146L3.46994 6.97L2.93994 7.5L3.99994 8.56L4.52994 8.03L7.99994 4.56L11.4699 8.03L11.9999 8.56L13.0599 7.5L12.5299 6.97L8.70694 3.146ZM8.70694 8.146C8.51941 7.95853 8.26511 7.85321 7.99994 7.85321C7.73478 7.85321 7.48047 7.95853 7.29294 8.146L3.46994 11.97L2.93994 12.5L3.99994 13.56L4.52994 13.03L7.99994 9.56L11.4699 13.03L11.9999 13.56L13.0599 12.5L12.5299 11.97L8.70694 8.146Z" fill="white"/>
</svg>
