<svg width="16" height="16" viewBox="0 0 16 16" fill="none" xmlns="http://www.w3.org/2000/svg">
<g clip-path="url(#clip0_5_2104)">
<path fill-rule="evenodd" clip-rule="evenodd" d="M8 16C10.1217 16 12.1566 15.1571 13.6569 13.6569C15.1571 12.1566 16 10.1217 16 8C16 5.87827 15.1571 3.84344 13.6569 2.34315C12.1566 0.842855 10.1217 0 8 0C5.87827 0 3.84344 0.842855 2.34315 2.34315C0.842855 3.84344 0 5.87827 0 8C0 10.1217 0.842855 12.1566 2.34315 13.6569C3.84344 15.1571 5.87827 16 8 16ZM4.72 8.47L4.19 9L5.25 10.06L5.78 9.53L8 7.31L10.22 9.53L10.75 10.06L11.81 9L11.28 8.47L8.707 5.896C8.51947 5.70853 8.26516 5.60321 8 5.60321C7.73484 5.60321 7.48053 5.70853 7.293 5.896L4.72 8.47Z" fill="white"/>
</g>
<defs>
<clipPath id="clip0_5_2104">
<rect width="16" height="16" fill="white"/>
</clipPath>
</defs>
</svg>
