<svg width="16" height="16" viewBox="0 0 16 16" fill="none" xmlns="http://www.w3.org/2000/svg">
<g clip-path="url(#clip0_5_2114)">
<path fill-rule="evenodd" clip-rule="evenodd" d="M8 16C10.1217 16 12.1566 15.1571 13.6569 13.6569C15.1571 12.1566 16 10.1217 16 8C16 5.87827 15.1571 3.84344 13.6569 2.34315C12.1566 0.842855 10.1217 0 8 0C5.87827 0 3.84344 0.842855 2.34315 2.34315C0.842855 3.84344 0 5.87827 0 8C0 10.1217 0.842855 12.1566 2.34315 13.6569C3.84344 15.1571 5.87827 16 8 16ZM7.53 4.72L7 4.19L5.94 5.25L6.47 5.78L8.69 8L6.47 10.22L5.94 10.75L7 11.81L7.53 11.28L10.104 8.707C10.2915 8.51947 10.3968 8.26516 10.3968 8C10.3968 7.73484 10.2915 7.48053 10.104 7.293L7.53 4.72Z" fill="white"/>
</g>
<defs>
<clipPath id="clip0_5_2114">
<rect width="16" height="16" fill="white"/>
</clipPath>
</defs>
</svg>
