<svg width="16" height="16" viewBox="0 0 16 16" fill="none" xmlns="http://www.w3.org/2000/svg">
<g clip-path="url(#clip0_5_2131)">
<path fill-rule="evenodd" clip-rule="evenodd" d="M6.75 1.5H9.25C9.38261 1.5 9.50979 1.55268 9.60355 1.64645C9.69732 1.74021 9.75 1.86739 9.75 2C9.75 2.13261 9.69732 2.25979 9.60355 2.35355C9.50979 2.44732 9.38261 2.5 9.25 2.5H6.75C6.61739 2.5 6.49021 2.44732 6.39645 2.35355C6.30268 2.25979 6.25 2.13261 6.25 2C6.25 1.86739 6.30268 1.74021 6.39645 1.64645C6.49021 1.55268 6.61739 1.5 6.75 1.5ZM4.813 1.5C4.92387 1.0706 5.17431 0.690235 5.52495 0.418706C5.87558 0.147176 6.30652 -0.000112648 6.75 6.46415e-08H9.25C9.69348 -0.000112648 10.1244 0.147176 10.4751 0.418706C10.8257 0.690235 11.0761 1.0706 11.187 1.5H14V12.75C14 13.1768 13.9159 13.5994 13.7526 13.9937C13.5893 14.388 13.3499 14.7463 13.0481 15.0481C12.7463 15.3499 12.388 15.5893 11.9937 15.7526C11.5994 15.9159 11.1768 16 10.75 16H5.25C4.38805 16 3.5614 15.6576 2.9519 15.0481C2.34241 14.4386 2 13.612 2 12.75V1.5H4.813ZM5.018 3H3.5V12.75C3.5 13.716 4.284 14.5 5.25 14.5H10.75C11.2141 14.5 11.6592 14.3156 11.9874 13.9874C12.3156 13.6592 12.5 13.2141 12.5 12.75V3H10.982C10.8065 3.30403 10.554 3.5565 10.25 3.73204C9.94594 3.90757 9.60106 3.99999 9.25 4H6.75C6.39894 3.99999 6.05406 3.90757 5.75003 3.73204C5.446 3.5565 5.19353 3.30403 5.018 3Z" fill="white"/>
</g>
<defs>
<clipPath id="clip0_5_2131">
<rect width="16" height="16" fill="white"/>
</clipPath>
</defs>
</svg>
