<svg width="16" height="16" viewBox="0 0 16 16" fill="none" xmlns="http://www.w3.org/2000/svg">
<path fill-rule="evenodd" clip-rule="evenodd" d="M13.014 8C13.014 9.19347 12.5399 10.3381 11.696 11.182C10.852 12.0259 9.70745 12.5 8.51398 12.5C7.3205 12.5 6.17591 12.0259 5.332 11.182C4.48808 10.3381 4.01398 9.19347 4.01398 8C4.01398 6.80653 4.48808 5.66193 5.332 4.81802C6.17591 3.97411 7.3205 3.5 8.51398 3.5C9.70745 3.5 10.852 3.97411 11.696 4.81802C12.5399 5.66193 13.014 6.80653 13.014 8ZM14.514 8C14.514 8.78793 14.3588 9.56815 14.0573 10.2961C13.7557 11.0241 13.3138 11.6855 12.7566 12.2426C12.1995 12.7998 11.538 13.2417 10.8101 13.5433C10.0821 13.8448 9.30191 14 8.51398 14C7.72605 14 6.94583 13.8448 6.21788 13.5433C5.48992 13.2417 4.82849 12.7998 4.27134 12.2426C3.71418 11.6855 3.27223 11.0241 2.9707 10.2961C2.66917 9.56815 2.51398 8.78793 2.51398 8C2.51398 6.4087 3.14612 4.88258 4.27134 3.75736C5.39655 2.63214 6.92268 2 8.51398 2C10.1053 2 11.6314 2.63214 12.7566 3.75736C13.8818 4.88258 14.514 6.4087 14.514 8ZM9.26398 5.75V5H7.76398V8.75H9.26398V5.75Z" fill="white"/>
</svg>
