<svg width="16" height="16" viewBox="0 0 16 16" fill="none" xmlns="http://www.w3.org/2000/svg">
<path fill-rule="evenodd" clip-rule="evenodd" d="M7.965 2.5C11.025 2.5 13.5 4.966 13.5 8C13.5 11.034 11.026 13.5 7.965 13.5C7.09144 13.5015 6.22991 13.2964 5.45078 12.9014C4.67165 12.5063 3.99702 11.9326 3.482 11.227L3.039 10.622L1.828 11.507L2.27 12.112C2.92436 13.0083 3.78139 13.7371 4.77113 14.239C5.76087 14.7409 6.85527 15.0017 7.965 15C11.846 15 15 11.87 15 8C15 4.13 11.846 1 7.965 1C6.59195 0.998025 5.24831 1.39772 4.09958 2.14986C2.95086 2.90199 2.04723 3.97371 1.5 5.233V3H0V7.25C0 7.664 0.336 8 0.75 8H4.5V6.5H2.637C2.97005 5.345 3.67017 4.32988 4.63147 3.60818C5.59277 2.88649 6.76295 2.49748 7.965 2.5ZM8.75 5.25V4.5H7.25V7.866C7.24998 8.03059 7.29058 8.19265 7.36821 8.33778C7.44583 8.48292 7.55808 8.60665 7.695 8.698L9.084 9.624L9.708 10.04L10.54 8.792L9.916 8.376L8.75 7.599V5.25Z" fill="white"/>
</svg>
