<svg width="16" height="16" viewBox="0 0 16 16" fill="none" xmlns="http://www.w3.org/2000/svg">
<g clip-path="url(#clip0_5_2133)">
<path fill-rule="evenodd" clip-rule="evenodd" d="M5.35 2.062C5.97584 1.78262 6.64219 1.60472 7.324 1.535L7.169 0.0429993C6.32965 0.129387 5.50939 0.348797 4.739 0.692999L5.351 2.063L5.35 2.062ZM8.677 1.535C9.89847 1.66276 11.0588 2.1339 12.0235 2.89386C12.9883 3.65382 13.718 4.67152 14.1283 5.8291C14.5385 6.98668 14.6125 8.2368 14.3416 9.43468C14.0707 10.6326 13.466 11.7292 12.5976 12.5976C11.7292 13.466 10.6326 14.0707 9.43468 14.3416C8.2368 14.6125 6.98668 14.5385 5.8291 14.1283C4.67152 13.718 3.65382 12.9883 2.89386 12.0235C2.1339 11.0588 1.66276 9.89847 1.535 8.677L0.0429993 8.831C0.199837 10.3346 0.779435 11.7629 1.71466 12.9507C2.64988 14.1384 3.90245 15.0369 5.32729 15.542C6.75212 16.0472 8.29092 16.1383 9.76542 15.8049C11.2399 15.4715 12.5898 14.7272 13.6587 13.6582C14.7276 12.5891 15.4718 11.2392 15.805 9.76463C16.1383 8.29009 16.0469 6.7513 15.5416 5.32652C15.0363 3.90174 14.1377 2.64927 12.9499 1.71419C11.762 0.779101 10.3336 0.199666 8.83 0.0429993L8.676 1.535H8.677ZM2.74 4.18C3.14189 3.62777 3.62777 3.14189 4.18 2.74L3.298 1.526C2.6188 2.02022 2.02122 2.6178 1.527 3.297L2.74 4.18ZM1.535 7.323C1.607 6.627 1.789 5.963 2.062 5.351L0.692999 4.739C0.348797 5.50939 0.129387 6.32965 0.0429993 7.169L1.535 7.323ZM8.75 4.75V4H7.25V7.875C7.25 8.03024 7.28614 8.18336 7.35557 8.32221C7.425 8.46107 7.5258 8.58185 7.65 8.675L9.55 10.1L10.15 10.55L11.05 9.35L10.45 8.9L8.75 7.625V4.75Z" fill="white"/>
</g>
<defs>
<clipPath id="clip0_5_2133">
<rect width="16" height="16" fill="white"/>
</clipPath>
</defs>
</svg>
