<svg width="16" height="16" viewBox="0 0 16 16" fill="none" xmlns="http://www.w3.org/2000/svg">
<g clip-path="url(#clip0_5_2132)">
<path fill-rule="evenodd" clip-rule="evenodd" d="M14.5 8C14.5 9.72391 13.8152 11.3772 12.5962 12.5962C11.3772 13.8152 9.72391 14.5 8 14.5C6.27609 14.5 4.62279 13.8152 3.40381 12.5962C2.18482 11.3772 1.5 9.72391 1.5 8C1.5 6.27609 2.18482 4.62279 3.40381 3.40381C4.62279 2.18482 6.27609 1.5 8 1.5C9.72391 1.5 11.3772 2.18482 12.5962 3.40381C13.8152 4.62279 14.5 6.27609 14.5 8ZM16 8C16 10.1217 15.1571 12.1566 13.6569 13.6569C12.1566 15.1571 10.1217 16 8 16C5.87827 16 3.84344 15.1571 2.34315 13.6569C0.842855 12.1566 0 10.1217 0 8C0 5.87827 0.842855 3.84344 2.34315 2.34315C3.84344 0.842855 5.87827 0 8 0C10.1217 0 12.1566 0.842855 13.6569 2.34315C15.1571 3.84344 16 5.87827 16 8ZM8.75 4.75V4H7.25V7.875C7.25 8.03024 7.28615 8.18336 7.35557 8.32221C7.425 8.46107 7.5258 8.58185 7.65 8.675L9.55 10.1L10.15 10.55L11.05 9.35L10.45 8.9L8.75 7.625V4.75Z" fill="white"/>
</g>
<defs>
<clipPath id="clip0_5_2132">
<rect width="16" height="16" fill="white"/>
</clipPath>
</defs>
</svg>
