<svg width="16" height="16" viewBox="0 0 16 16" fill="none" xmlns="http://www.w3.org/2000/svg">
<g clip-path="url(#clip0_5_2136)">
<path fill-rule="evenodd" clip-rule="evenodd" d="M0 3.5C0 2.83696 0.263392 2.20107 0.732233 1.73223C1.20107 1.26339 1.83696 1 2.5 1H13.5C14.163 1 14.7989 1.26339 15.2678 1.73223C15.7366 2.20107 16 2.83696 16 3.5V12.5C16 13.163 15.7366 13.7989 15.2678 14.2678C14.7989 14.7366 14.163 15 13.5 15H2.5C1.83696 15 1.20107 14.7366 0.732233 14.2678C0.263392 13.7989 0 13.163 0 12.5L0 3.5ZM2 7C2 6.40326 2.23705 5.83097 2.65901 5.40901C3.08097 4.98705 3.65326 4.75 4.25 4.75H5.25C5.84674 4.75 6.41903 4.98705 6.84099 5.40901C7.26295 5.83097 7.5 6.40326 7.5 7H6C6 6.80109 5.92098 6.61032 5.78033 6.46967C5.63968 6.32902 5.44891 6.25 5.25 6.25H4.25C4.05109 6.25 3.86032 6.32902 3.71967 6.46967C3.57902 6.61032 3.5 6.80109 3.5 7V9C3.5 9.414 3.836 9.75 4.25 9.75H5.25C5.44891 9.75 5.63968 9.67098 5.78033 9.53033C5.92098 9.38968 6 9.19891 6 9H7.5C7.5 9.59674 7.26295 10.169 6.84099 10.591C6.41903 11.0129 5.84674 11.25 5.25 11.25H4.25C3.65326 11.25 3.08097 11.0129 2.65901 10.591C2.23705 10.169 2 9.59674 2 9V7ZM10.75 4.75C10.1533 4.75 9.58097 4.98705 9.15901 5.40901C8.73705 5.83097 8.5 6.40326 8.5 7V9C8.5 9.59674 8.73705 10.169 9.15901 10.591C9.58097 11.0129 10.1533 11.25 10.75 11.25H11.75C12.3467 11.25 12.919 11.0129 13.341 10.591C13.7629 10.169 14 9.59674 14 9H12.5C12.5 9.19891 12.421 9.38968 12.2803 9.53033C12.1397 9.67098 11.9489 9.75 11.75 9.75H10.75C10.5511 9.75 10.3603 9.67098 10.2197 9.53033C10.079 9.38968 10 9.19891 10 9V7C10 6.80109 10.079 6.61032 10.2197 6.46967C10.3603 6.32902 10.5511 6.25 10.75 6.25H11.75C11.9489 6.25 12.1397 6.32902 12.2803 6.46967C12.421 6.61032 12.5 6.80109 12.5 7H14C14 6.40326 13.7629 5.83097 13.341 5.40901C12.919 4.98705 12.3467 4.75 11.75 4.75H10.75Z" fill="white"/>
</g>
<defs>
<clipPath id="clip0_5_2136">
<rect width="16" height="16" fill="white"/>
</clipPath>
</defs>
</svg>
