<svg width="16" height="16" viewBox="0 0 16 16" fill="none" xmlns="http://www.w3.org/2000/svg">
<g clip-path="url(#clip0_5_2138)">
<path fill-rule="evenodd" clip-rule="evenodd" d="M4.875 1.5C3.9799 1.5 3.12145 1.85558 2.48852 2.48852C1.85558 3.12145 1.5 3.9799 1.5 4.875V6.404C1.5 7.222 1.877 7.951 2.47 8.428L3.054 8.898L2.114 10.067L1.53 9.597C1.05205 9.21341 0.666408 8.72731 0.401582 8.17464C0.136756 7.62197 -0.000485653 7.01685 1.29127e-06 6.404V4.875C-0.000512793 3.77476 0.371173 2.70669 1.05463 1.84446C1.73808 0.982238 2.6931 0.37656 3.76442 0.125911C4.83573 -0.124738 5.96033 -0.00561902 6.95536 0.463901C7.9504 0.933421 8.75734 1.72573 9.245 2.712C9.353 2.93 9.512 3 9.601 3H12.25C13.0137 2.99994 13.7593 3.23308 14.3869 3.66823C15.0146 4.10338 15.4944 4.7198 15.7622 5.43504C16.03 6.15029 16.073 6.93025 15.8855 7.67061C15.698 8.41097 15.289 9.07644 14.713 9.578L14.148 10.07L13.162 8.94L13.728 8.447C14.0737 8.14607 14.3192 7.74676 14.4317 7.30248C14.5443 6.85821 14.5184 6.39017 14.3577 5.96097C14.197 5.53177 13.909 5.16188 13.5324 4.9008C13.1557 4.63971 12.7083 4.49988 12.25 4.5H9.601C8.795 4.5 8.191 3.962 7.901 3.378C7.62186 2.81398 7.19059 2.33923 6.65588 2.00738C6.12117 1.67552 5.50432 1.49978 4.875 1.5ZM8.75 13.44L10.72 11.47L11.25 10.94L12.31 12L11.78 12.53L8.707 15.604C8.51947 15.7915 8.26517 15.8968 8 15.8968C7.73484 15.8968 7.48053 15.7915 7.293 15.604L4.22 12.53L3.69 12L4.75 10.94L5.28 11.47L7.25 13.44V7H8.75V13.44Z" fill="white"/>
</g>
<defs>
<clipPath id="clip0_5_2138">
<rect width="16" height="16" fill="white"/>
</clipPath>
</defs>
</svg>
