<svg width="16" height="16" viewBox="0 0 16 16" fill="none" xmlns="http://www.w3.org/2000/svg">
<g clip-path="url(#clip0_5_2139)">
<path fill-rule="evenodd" clip-rule="evenodd" d="M1.5 4.875C1.49947 4.11311 1.75674 3.37345 2.22998 2.77634C2.70321 2.17924 3.36455 1.75982 4.10643 1.58632C4.84831 1.41281 5.62706 1.49543 6.31602 1.82074C7.00497 2.14604 7.56359 2.69489 7.901 3.378C8.191 3.962 8.795 4.5 9.601 4.5H12.25C12.7083 4.49988 13.1557 4.63971 13.5324 4.9008C13.909 5.16188 14.197 5.53177 14.3577 5.96097C14.5184 6.39017 14.5443 6.85821 14.4317 7.30248C14.3192 7.74676 14.0737 8.14607 13.728 8.447L13.162 8.94L14.148 10.07L14.713 9.578C15.289 9.07644 15.698 8.41097 15.8855 7.67061C16.073 6.93025 16.03 6.15029 15.7622 5.43504C15.4944 4.7198 15.0146 4.10338 14.3869 3.66823C13.7593 3.23308 13.0137 2.99994 12.25 3H9.601C9.511 3 9.353 2.93 9.245 2.712C8.75734 1.72573 7.9504 0.933421 6.95536 0.463901C5.96033 -0.00561902 4.83573 -0.124738 3.76442 0.125911C2.6931 0.37656 1.73808 0.982238 1.05463 1.84446C0.371173 2.70669 -0.000512793 3.77476 1.29127e-06 4.875V6.404C-0.000485653 7.01685 0.136756 7.62197 0.401582 8.17464C0.666408 8.72731 1.05205 9.21341 1.53 9.597L2.114 10.067L3.054 8.898L2.47 8.428C2.16686 8.18499 1.92228 7.87689 1.75437 7.52653C1.58646 7.17617 1.49952 6.79252 1.5 6.404V4.875ZM7.293 7.396C7.48053 7.20853 7.73484 7.10321 8 7.10321C8.26517 7.10321 8.51947 7.20853 8.707 7.396L11.78 10.47L12.31 11L11.25 12.06L10.72 11.53L8.75 9.56V16H7.25V9.56L5.28 11.53L4.75 12.06L3.69 11L4.22 10.47L7.293 7.396Z" fill="white"/>
</g>
<defs>
<clipPath id="clip0_5_2139">
<rect width="16" height="16" fill="white"/>
</clipPath>
</defs>
</svg>
