<svg width="16" height="16" viewBox="0 0 16 16" fill="none" xmlns="http://www.w3.org/2000/svg">
<g clip-path="url(#clip0_5_2137)">
<path d="M12 6.509L11.25 6.508V7.208L11.947 7.257L12 6.509ZM4 6.509L4.053 7.257L4.751 7.207L4.75 6.508L4 6.509ZM4.25 12.75C3.52065 12.75 2.82118 12.4603 2.30546 11.9445C1.78973 11.4288 1.5 10.7293 1.5 10H7.82025e-08C7.82025e-08 11.1272 0.447767 12.2082 1.2448 13.0052C2.04183 13.8022 3.12283 14.25 4.25 14.25V12.75ZM11.75 12.75H4.25V14.25H11.75V12.75ZM14.5 10C14.5 10.7293 14.2103 11.4288 13.6945 11.9445C13.1788 12.4603 12.4793 12.75 11.75 12.75V14.25C12.8772 14.25 13.9582 13.8022 14.7552 13.0052C15.5522 12.2082 16 11.1272 16 10H14.5ZM11.947 7.257C12.6405 7.30681 13.2893 7.61743 13.763 8.12636C14.2367 8.63529 14.5 9.30475 14.5 10H16C16.0002 8.92514 15.5931 7.89012 14.8608 7.10339C14.1284 6.31665 13.1251 5.83663 12.053 5.76L11.947 7.257ZM11.25 6.499V6.508L12.75 6.51V6.5L11.25 6.499ZM8 3.25C8.86195 3.25 9.6886 3.59241 10.2981 4.2019C10.9076 4.8114 11.25 5.63705 11.25 6.499L12.75 6.5C12.75 5.24022 12.2496 4.03204 11.3588 3.14124C10.468 2.25044 9.25978 1.75 8 1.75V3.25ZM4.75 6.5C4.75 5.63805 5.09241 4.8114 5.7019 4.2019C6.3114 3.59241 7.13805 3.25 8 3.25V1.75C6.74022 1.75 5.53204 2.25044 4.64124 3.14124C3.75045 4.03204 3.25 5.24022 3.25 6.5H4.75ZM4.75 6.508V6.5H3.25V6.51L4.75 6.508ZM1.5 10C1.49998 9.30475 1.76331 8.63529 2.23699 8.12636C2.71067 7.61743 3.35953 7.30681 4.053 7.257L3.947 5.76C2.87488 5.83663 1.87161 6.31665 1.13924 7.10339C0.406865 7.89012 -0.000205995 8.92514 7.82025e-08 10H1.5Z" fill="white"/>
</g>
<defs>
<clipPath id="clip0_5_2137">
<rect width="16" height="16" fill="white"/>
</clipPath>
</defs>
</svg>
