<svg width="16" height="16" viewBox="0 0 16 16" fill="none" xmlns="http://www.w3.org/2000/svg">
<g clip-path="url(#clip0_5_2143)">
<path fill-rule="evenodd" clip-rule="evenodd" d="M8 0.099999L8.406 0.360999L15.656 5.031L16 5.252V10.74L15.656 10.961L8.406 15.631L8 15.892L7.594 15.631L0.344 10.961L0 10.74V5.252L0.344 5.03L7.594 0.360999L8 0.098999V0.099999ZM1.5 9.16L3.248 7.996L1.5 6.83V9.16ZM2.065 5.706L4.375 7.245L7.375 5.245V2.287L2.065 5.706ZM11.625 7.245L8.625 5.245V2.287L13.935 5.707L11.625 7.245ZM14.5 6.83L12.752 7.995L14.5 9.16V6.83ZM10.498 7.995L8 6.332L5.502 7.996L8 9.66L10.498 7.995ZM7.375 10.745L4.375 8.745L2.065 10.285L7.375 13.705V10.745ZM8.625 13.705L13.935 10.285L11.625 8.745L8.625 10.745V13.705Z" fill="white"/>
</g>
<defs>
<clipPath id="clip0_5_2143">
<rect width="16" height="16" fill="white"/>
</clipPath>
</defs>
</svg>
