<svg width="16" height="16" viewBox="0 0 16 16" fill="none" xmlns="http://www.w3.org/2000/svg">
<path fill-rule="evenodd" clip-rule="evenodd" d="M2.5 3.5C2.5 3.23478 2.60536 2.98043 2.79289 2.79289C2.98043 2.60536 3.23478 2.5 3.5 2.5H4.25V1H3.5C2.83696 1 2.20107 1.26339 1.73223 1.73223C1.26339 2.20107 1 2.83696 1 3.5V6.294C1 6.65 0.882 6.869 0.738 7.004C0.588 7.144 0.345 7.25 0 7.25V8.75C0.345 8.75 0.588 8.857 0.738 8.997C0.882 9.131 1 9.35 1 9.705V12.5C1 13.163 1.26339 13.7989 1.73223 14.2678C2.20107 14.7366 2.83696 15 3.5 15H4.25V13.5H3.5C3.23478 13.5 2.98043 13.3946 2.79289 13.2071C2.60536 13.0196 2.5 12.7652 2.5 12.5V9.705C2.5 9.035 2.279 8.441 1.862 8C2.279 7.559 2.5 6.965 2.5 6.294V3.5ZM12.5 1H11.75V2.5H12.5C12.7652 2.5 13.0196 2.60536 13.2071 2.79289C13.3946 2.98043 13.5 3.23478 13.5 3.5V6.294C13.5 6.964 13.721 7.559 14.138 8C13.721 8.441 13.5 9.035 13.5 9.705V12.5C13.5 12.7652 13.3946 13.0196 13.2071 13.2071C13.0196 13.3946 12.7652 13.5 12.5 13.5H11.75V15H12.5C13.163 15 13.7989 14.7366 14.2678 14.2678C14.7366 13.7989 15 13.163 15 12.5V9.705C15 9.35 15.118 9.131 15.262 8.997C15.412 8.857 15.656 8.75 16 8.75V7.25C15.656 7.25 15.412 7.143 15.262 7.003C15.118 6.869 15 6.65 15 6.294V3.5C15 2.83696 14.7366 2.20107 14.2678 1.73223C13.7989 1.26339 13.163 1 12.5 1ZM8.75 10.25V9.5H7.25V12.599C7.25 13.039 7.12 13.469 6.876 13.834L6.46 14.458L7.708 15.29L8.124 14.666C8.5321 14.0539 8.74991 13.3347 8.75 12.599V10.25ZM8 7C8.33152 7 8.64946 6.8683 8.88388 6.63388C9.1183 6.39946 9.25 6.08152 9.25 5.75C9.25 5.41848 9.1183 5.10054 8.88388 4.86612C8.64946 4.6317 8.33152 4.5 8 4.5C7.66848 4.5 7.35054 4.6317 7.11612 4.86612C6.8817 5.10054 6.75 5.41848 6.75 5.75C6.75 6.08152 6.8817 6.39946 7.11612 6.63388C7.35054 6.8683 7.66848 7 8 7Z" fill="white"/>
</svg>
