<svg width="16" height="16" viewBox="0 0 16 16" fill="none" xmlns="http://www.w3.org/2000/svg">
<path fill-rule="evenodd" clip-rule="evenodd" d="M4.22 12.53L4.75 13.06L5.81 12L5.28 11.47L1.81 8L5.28 4.53L5.81 4L4.75 2.94L4.22 3.47L0.395997 7.293C0.208526 7.48053 0.10321 7.73484 0.10321 8C0.10321 8.26517 0.208526 8.51947 0.395997 8.707L4.22 12.53ZM11.78 12.53L11.25 13.06L10.19 12L10.72 11.47L14.19 8L10.72 4.53L10.19 4L11.25 2.94L11.78 3.47L15.604 7.293C15.7915 7.48053 15.8968 7.73484 15.8968 8C15.8968 8.26517 15.7915 8.51947 15.604 8.707L11.78 12.53Z" fill="white"/>
</svg>
