<svg width="16" height="16" viewBox="0 0 16 16" fill="none" xmlns="http://www.w3.org/2000/svg">
<path fill-rule="evenodd" clip-rule="evenodd" d="M1.80802 4.442L2.25002 4.884L3.13402 4L2.69202 3.558L1.63402 2.5L2.69202 1.442L3.13402 0.999997L2.25002 0.115997L1.80802 0.557997L0.485018 1.881C0.403682 1.96226 0.339159 2.05875 0.295136 2.16497C0.251114 2.27118 0.228455 2.38502 0.228455 2.5C0.228455 2.61497 0.251114 2.72882 0.295136 2.83503C0.339159 2.94124 0.403682 3.03774 0.485018 3.119L1.80802 4.442ZM12 0.999997H11.25V2.5H13.5V11.75C13.5 12.2141 13.3156 12.6592 12.9875 12.9874C12.6593 13.3156 12.2141 13.5 11.75 13.5H4.25002C3.78589 13.5 3.34077 13.3156 3.01258 12.9874C2.68439 12.6592 2.50002 12.2141 2.50002 11.75V6.25H1.00002V11.75C1.00002 12.1768 1.08408 12.5994 1.24741 12.9937C1.41074 13.388 1.65013 13.7463 1.95192 14.0481C2.56141 14.6576 3.38806 15 4.25002 15H11.75C12.1768 15 12.5994 14.9159 12.9937 14.7526C13.388 14.5893 13.7463 14.3499 14.0481 14.0481C14.3499 13.7463 14.5893 13.388 14.7526 12.9937C14.916 12.5994 15 12.1768 15 11.75V0.999997H12ZM7.75002 4.884L8.19202 4.442L9.51502 3.119C9.59635 3.03774 9.66088 2.94124 9.7049 2.83503C9.74892 2.72882 9.77158 2.61497 9.77158 2.5C9.77158 2.38502 9.74892 2.27118 9.7049 2.16497C9.66088 2.05875 9.59635 1.96226 9.51502 1.881L8.19202 0.557997L7.75002 0.115997L6.86602 0.999997L7.30802 1.442L8.36602 2.5L7.30802 3.558L6.86602 4L7.75002 4.884ZM4.13202 3.897L4.02802 4.515L5.26502 4.722L5.36802 4.103L5.86802 1.103L5.97202 0.484997L4.73502 0.277997L4.63202 0.896997L4.13202 3.897Z" fill="white"/>
</svg>
