<svg width="16" height="16" viewBox="0 0 16 16" fill="none" xmlns="http://www.w3.org/2000/svg">
<path fill-rule="evenodd" clip-rule="evenodd" d="M7.22806 14.182L10.2281 2.182L10.4091 1.454L8.95406 1.091L8.77206 1.818L5.77206 13.818L5.59106 14.546L7.04606 14.91L7.22806 14.182ZM3.75006 12.06L3.22006 11.53L0.396058 8.706C0.208587 8.51848 0.103271 8.26417 0.103271 7.999C0.103271 7.73384 0.208587 7.47953 0.396058 7.292L3.22006 4.47L3.75006 3.94L4.81006 5L4.28006 5.53L1.81006 8L4.28006 10.47L4.81006 11L3.75006 12.06ZM12.2501 12.06L12.7801 11.53L15.6041 8.706C15.7915 8.51848 15.8968 8.26417 15.8968 7.999C15.8968 7.73384 15.7915 7.47953 15.6041 7.292L12.7801 4.47L12.2501 3.94L11.1901 5L11.7201 5.53L14.1901 8L11.7201 10.47L11.1901 11L12.2501 12.06Z" fill="white"/>
</svg>
