<svg width="16" height="16" viewBox="0 0 16 16" fill="none" xmlns="http://www.w3.org/2000/svg">
<g clip-path="url(#clip0_5_2145)">
<mask id="mask0_5_2145" style="mask-type:luminance" maskUnits="userSpaceOnUse" x="0" y="0" width="16" height="16">
<path d="M0 0H16V16H0V0Z" fill="white"/>
</mask>
<g mask="url(#mask0_5_2145)">
<path fill-rule="evenodd" clip-rule="evenodd" d="M1.863 7.61C2.83 7.223 4.117 7 5.5 7C6.883 7 8.169 7.223 9.137 7.61C9.619 7.803 10.06 8.051 10.392 8.366C10.726 8.681 11 9.115 11 9.65V13.35C11 13.886 10.735 14.326 10.398 14.651C10.065 14.973 9.622 15.226 9.138 15.42C8.168 15.808 6.881 16.02 5.5 16C4.119 16.02 2.833 15.808 1.863 15.42C1.378 15.226 0.935 14.973 0.603 14.651C0.264 14.326 0 13.886 0 13.35V9.65C0 9.115 0.274 8.681 0.608 8.366C0.94 8.051 1.381 7.803 1.863 7.61ZM1.5 9.65C1.5 9.65 1.5 9.637 1.514 9.609C1.54683 9.55109 1.58908 9.49904 1.639 9.455C1.787 9.315 2.042 9.154 2.419 9.003C3.171 8.703 4.259 8.5 5.5 8.5C6.74 8.5 7.83 8.703 8.58 9.003C8.958 9.153 9.213 9.315 9.361 9.455C9.41092 9.49904 9.45317 9.55109 9.486 9.609C9.501 9.637 9.5 9.649 9.5 9.65M1.5 11.53V13.35C1.5 13.359 1.5 13.434 1.645 13.573C1.792 13.715 2.045 13.877 2.42 14.027C3.166 14.326 4.25 14.519 5.489 14.5H5.511C6.749 14.519 7.834 14.326 8.581 14.027C8.955 13.877 9.208 13.715 9.355 13.573C9.499 13.433 9.5 13.359 9.5 13.35V11.53C9.383 11.587 9.261 11.64 9.137 11.69C8.169 12.077 6.883 12.3 5.5 12.3C4.117 12.3 2.831 12.077 1.863 11.69C1.74011 11.6411 1.61903 11.5877 1.5 11.53ZM9.5 9.65C9.49821 9.66448 9.49344 9.67844 9.486 9.691C9.45317 9.74891 9.41092 9.80096 9.361 9.845C9.213 9.985 8.958 10.146 8.581 10.297C7.829 10.597 6.741 10.8 5.5 10.8C4.26 10.8 3.17 10.597 2.42 10.297C2.042 10.147 1.787 9.985 1.639 9.845C1.58908 9.80096 1.54683 9.74891 1.514 9.691C1.50669 9.67875 1.50193 9.66514 1.5 9.651M6.863 0.61C7.83 0.223 9.117 0 10.5 0C11.883 0 13.169 0.223 14.137 0.61C14.619 0.803 15.06 1.051 15.392 1.366C15.726 1.681 16 2.115 16 2.65V6.35C16 6.904 15.746 7.35 15.425 7.68C15.111 8 14.709 8.237 14.317 8.41C13.539 8.754 12.623 8.923 12 8.923V7.423C12.415 7.423 13.124 7.297 13.711 7.038C14.002 6.91 14.219 6.768 14.351 6.631C14.477 6.503 14.5 6.413 14.5 6.35V4.53C14.383 4.587 14.261 4.64 14.137 4.69C13.169 5.077 11.883 5.3 10.5 5.3C9.117 5.3 7.831 5.077 6.863 4.69C6.74011 4.64107 6.61903 4.5877 6.5 4.53V5.5H5V2.65C5 2.115 5.274 1.681 5.608 1.366C5.94 1.05 6.38 0.803 6.863 0.61ZM6.5 2.65C6.5 2.65 6.5 2.637 6.514 2.609C6.54683 2.55109 6.58908 2.49904 6.639 2.455C6.787 2.315 7.042 2.154 7.419 2.003C8.171 1.703 9.259 1.5 10.5 1.5C11.74 1.5 12.83 1.703 13.58 2.003C13.958 2.153 14.213 2.315 14.361 2.455C14.433 2.523 14.469 2.576 14.486 2.609C14.5 2.637 14.5 2.649 14.5 2.65M6.5 2.65C6.5 2.654 6.501 2.666 6.514 2.691C6.54683 2.74891 6.58908 2.80096 6.639 2.845C6.787 2.985 7.042 3.146 7.419 3.297C8.171 3.597 9.259 3.8 10.5 3.8C11.74 3.8 12.83 3.597 13.58 3.297C13.958 3.147 14.213 2.985 14.361 2.845C14.4109 2.80094 14.4531 2.7489 14.486 2.691C14.4933 2.67875 14.4981 2.66414 14.5 2.65" fill="white"/>
</g>
</g>
<defs>
<clipPath id="clip0_5_2145">
<rect width="16" height="16" fill="white"/>
</clipPath>
</defs>
</svg>
