<svg width="16" height="16" viewBox="0 0 16 16" fill="none" xmlns="http://www.w3.org/2000/svg">
<path fill-rule="evenodd" clip-rule="evenodd" d="M1 3.75C1 3.02066 1.28973 2.32118 1.80546 1.80546C2.32118 1.28973 3.02066 1 3.75 1C4.47935 1 5.17882 1.28973 5.69455 1.80546C6.21027 2.32118 6.5 3.02066 6.5 3.75V5H9.5V3.75C9.5 3.2061 9.66129 2.67442 9.96346 2.22218C10.2656 1.76995 10.6951 1.41747 11.1976 1.20933C11.7001 1.00119 12.2531 0.946732 12.7865 1.05284C13.3199 1.15895 13.81 1.42086 14.1945 1.80546C14.5791 2.19005 14.8411 2.68006 14.9472 3.2135C15.0533 3.74695 14.9988 4.29988 14.7907 4.80238C14.5825 5.30488 14.2301 5.73437 13.7778 6.03654C13.3256 6.33872 12.7939 6.5 12.25 6.5H11V9.5H12.25C12.7939 9.5 13.3256 9.66129 13.7778 9.96346C14.2301 10.2656 14.5825 10.6951 14.7907 11.1976C14.9988 11.7001 15.0533 12.2531 14.9472 12.7865C14.8411 13.3199 14.5791 13.81 14.1945 14.1945C13.81 14.5791 13.3199 14.8411 12.7865 14.9472C12.2531 15.0533 11.7001 14.9988 11.1976 14.7907C10.6951 14.5825 10.2656 14.2301 9.96346 13.7778C9.66129 13.3256 9.5 12.7939 9.5 12.25V11H6.5V12.25C6.5 12.7939 6.33872 13.3256 6.03654 13.7778C5.73437 14.2301 5.30488 14.5825 4.80238 14.7907C4.29988 14.9988 3.74695 15.0533 3.2135 14.9472C2.68006 14.8411 2.19005 14.5791 1.80546 14.1945C1.42086 13.81 1.15895 13.3199 1.05284 12.7865C0.946732 12.2531 1.00119 11.7001 1.20933 11.1976C1.41747 10.6951 1.76995 10.2656 2.22218 9.96346C2.67442 9.66129 3.2061 9.5 3.75 9.5H5V6.5H3.75C3.02066 6.5 2.32118 6.21027 1.80546 5.69455C1.28973 5.17882 1 4.47935 1 3.75ZM11 5H12.25C12.4972 5 12.7389 4.92669 12.9445 4.78934C13.15 4.65199 13.3102 4.45676 13.4049 4.22836C13.4995 3.99995 13.5242 3.74861 13.476 3.50614C13.4278 3.26366 13.3087 3.04093 13.1339 2.86612C12.9591 2.6913 12.7363 2.57225 12.4939 2.52402C12.2514 2.47579 12.0001 2.50054 11.7716 2.59515C11.5432 2.68976 11.348 2.84998 11.2107 3.05554C11.0733 3.2611 11 3.50277 11 3.75V5ZM9.5 6.5H6.5V9.5H9.5V6.5ZM11 12.25V11H12.25C12.4972 11 12.7389 11.0733 12.9445 11.2107C13.15 11.348 13.3102 11.5432 13.4049 11.7716C13.4995 12.0001 13.5242 12.2514 13.476 12.4939C13.4278 12.7363 13.3087 12.9591 13.1339 13.1339C12.9591 13.3087 12.7363 13.4278 12.4939 13.476C12.2514 13.5242 12.0001 13.4995 11.7716 13.4049C11.5432 13.3102 11.348 13.15 11.2107 12.9445C11.0733 12.7389 11 12.4972 11 12.25ZM5 11H3.75C3.50277 11 3.2611 11.0733 3.05554 11.2107C2.84998 11.348 2.68976 11.5432 2.59515 11.7716C2.50054 12.0001 2.47579 12.2514 2.52402 12.4939C2.57225 12.7363 2.6913 12.9591 2.86612 13.1339C3.04093 13.3087 3.26366 13.4278 3.50614 13.476C3.74861 13.5242 3.99995 13.4995 4.22836 13.4049C4.45676 13.3102 4.65199 13.15 4.78934 12.9445C4.92669 12.7389 5 12.4972 5 12.25V11ZM5 3.75V5H3.75C3.50277 5 3.2611 4.92669 3.05554 4.78934C2.84998 4.65199 2.68976 4.45676 2.59515 4.22836C2.50054 3.99995 2.47579 3.74861 2.52402 3.50614C2.57225 3.26366 2.6913 3.04093 2.86612 2.86612C3.04093 2.6913 3.26366 2.57225 3.50614 2.52402C3.74861 2.47579 3.99995 2.50054 4.22836 2.59515C4.45676 2.68976 4.65199 2.84998 4.78934 3.05554C4.92669 3.2611 5 3.50277 5 3.75Z" fill="white"/>
</svg>
