<svg width="16" height="16" viewBox="0 0 16 16" fill="none" xmlns="http://www.w3.org/2000/svg">
<g clip-path="url(#clip0_5_2147)">
<path fill-rule="evenodd" clip-rule="evenodd" d="M15.7329 1.16L15.9799 0.0199966L14.8399 0.266997L5.22394 2.357C4.52122 2.50973 3.87724 2.86129 3.36874 3.36979C2.86024 3.87829 2.50868 4.52228 2.35594 5.225L0.265944 14.841L0.0179443 15.981L1.15794 15.733L10.7739 13.643C11.4767 13.4903 12.1206 13.1387 12.6291 12.6302C13.1376 12.1217 13.4892 11.4777 13.6419 10.775L15.7319 1.159L15.7329 1.16ZM5.54294 3.822L14.0189 1.98L12.1769 10.455C12.0852 10.8764 11.8743 11.2625 11.5694 11.5675C11.2645 11.8724 10.8783 12.0833 10.4569 12.175L1.97994 14.02L3.82194 5.545C3.91366 5.12362 4.12454 4.73747 4.42948 4.43253C4.73442 4.12759 5.12056 3.91671 5.54194 3.825L5.54294 3.822ZM8.99994 8C8.99994 8.26521 8.89459 8.51957 8.70705 8.7071C8.51952 8.89464 8.26516 9 7.99994 9C7.73473 9 7.48037 8.89464 7.29284 8.7071C7.1053 8.51957 6.99994 8.26521 6.99994 8C6.99994 7.73478 7.1053 7.48043 7.29284 7.29289C7.48037 7.10535 7.73473 7 7.99994 7C8.26516 7 8.51952 7.10535 8.70705 7.29289C8.89459 7.48043 8.99994 7.73478 8.99994 8ZM10.4999 8C10.4999 8.66304 10.2366 9.29892 9.76771 9.76776C9.29887 10.2366 8.66299 10.5 7.99994 10.5C7.3369 10.5 6.70102 10.2366 6.23218 9.76776C5.76334 9.29892 5.49994 8.66304 5.49994 8C5.49994 7.33696 5.76334 6.70107 6.23218 6.23223C6.70102 5.76339 7.3369 5.5 7.99994 5.5C8.66299 5.5 9.29887 5.76339 9.76771 6.23223C10.2366 6.70107 10.4999 7.33696 10.4999 8Z" fill="white"/>
</g>
<defs>
<clipPath id="clip0_5_2147">
<rect width="16" height="16" fill="white"/>
</clipPath>
</defs>
</svg>
