<svg width="16" height="16" viewBox="0 0 16 16" fill="none" xmlns="http://www.w3.org/2000/svg">
<path fill-rule="evenodd" clip-rule="evenodd" d="M10.5 4C10.5 4.39783 10.6581 4.77936 10.9394 5.06066C11.2207 5.34197 11.6022 5.5 12 5.5C12.3978 5.5 12.7794 5.34197 13.0607 5.06066C13.342 4.77936 13.5 4.39783 13.5 4C13.5 3.60218 13.342 3.22065 13.0607 2.93934C12.7794 2.65804 12.3978 2.5 12 2.5C11.6022 2.5 11.2207 2.65804 10.9394 2.93934C10.6581 3.22065 10.5 3.60218 10.5 4ZM9.41502 5.524C9.04406 4.89503 8.91524 4.15234 9.05271 3.43518C9.19018 2.71801 9.58451 2.07561 10.1618 1.6284C10.739 1.18118 11.4596 0.959866 12.1883 1.00593C12.9171 1.052 13.604 1.36229 14.1204 1.87864C14.6367 2.39498 14.947 3.08193 14.9931 3.81069C15.0392 4.53946 14.8178 5.26001 14.3706 5.83727C13.9234 6.41452 13.281 6.80884 12.5638 6.94632C11.8467 7.08379 11.104 6.95497 10.475 6.584L6.58502 10.476C6.95599 11.105 7.08481 11.8477 6.94734 12.5648C6.80987 13.282 6.41554 13.9244 5.83829 14.3716C5.26103 14.8188 4.54048 15.0401 3.81172 14.9941C3.08295 14.948 2.396 14.6377 1.87966 14.1214C1.36332 13.605 1.05302 12.9181 1.00696 12.1893C0.960888 11.4605 1.18221 10.74 1.62942 10.1627C2.07663 9.58548 2.71904 9.19116 3.4362 9.05369C4.15337 8.91622 4.89605 9.04504 5.52502 9.416L9.41502 5.524ZM2.50002 12C2.50002 12.3978 2.65806 12.7794 2.93936 13.0607C3.22067 13.342 3.6022 13.5 4.00002 13.5C4.39785 13.5 4.77938 13.342 5.06069 13.0607C5.34199 12.7794 5.50002 12.3978 5.50002 12C5.50002 11.6022 5.34199 11.2206 5.06069 10.9393C4.77938 10.658 4.39785 10.5 4.00002 10.5C3.6022 10.5 3.22067 10.658 2.93936 10.9393C2.65806 11.2206 2.50002 11.6022 2.50002 12Z" fill="white"/>
</svg>
