<svg width="16" height="16" viewBox="0 0 16 16" fill="none" xmlns="http://www.w3.org/2000/svg">
<path fill-rule="evenodd" clip-rule="evenodd" d="M2.75 0.5C2.28587 0.5 1.84075 0.684374 1.51256 1.01256C1.18437 1.34075 1 1.78587 1 2.25V9.75C1 10.716 1.784 11.5 2.75 11.5H4.5V10H2.75C2.6837 10 2.62011 9.97366 2.57322 9.92678C2.52634 9.87989 2.5 9.8163 2.5 9.75V2.25C2.5 2.1837 2.52634 2.12011 2.57322 2.07322C2.62011 2.02634 2.6837 2 2.75 2H8.25C8.3163 2 8.37989 2.02634 8.42678 2.07322C8.47366 2.12011 8.5 2.1837 8.5 2.25V3H10V2.25C10 1.78587 9.81563 1.34075 9.48744 1.01256C9.15925 0.684374 8.71413 0.5 8.25 0.5H2.75ZM7.75 4.5C7.28587 4.5 6.84075 4.68437 6.51256 5.01256C6.18437 5.34075 6 5.78587 6 6.25V13.75C6 14.716 6.784 15.5 7.75 15.5H13.25C13.7141 15.5 14.1592 15.3156 14.4874 14.9874C14.8156 14.6592 15 14.2141 15 13.75V6.25C15 5.78587 14.8156 5.34075 14.4874 5.01256C14.1592 4.68437 13.7141 4.5 13.25 4.5H7.75ZM7.5 6.25C7.5 6.1837 7.52634 6.12011 7.57322 6.07322C7.62011 6.02634 7.6837 6 7.75 6H13.25C13.3163 6 13.3799 6.02634 13.4268 6.07322C13.4737 6.12011 13.5 6.1837 13.5 6.25V13.75C13.5 13.8163 13.4737 13.8799 13.4268 13.9268C13.3799 13.9737 13.3163 14 13.25 14H7.75C7.6837 14 7.62011 13.9737 7.57322 13.9268C7.52634 13.8799 7.5 13.8163 7.5 13.75V6.25Z" fill="white"/>
</svg>
