<svg width="16" height="16" viewBox="0 0 16 16" fill="none" xmlns="http://www.w3.org/2000/svg">
<path fill-rule="evenodd" clip-rule="evenodd" d="M2.75 2.75H2V1.25H9C9.966 1.25 10.75 2.034 10.75 3V12.69L12.72 10.72L13.25 10.19L14.31 11.25L13.78 11.78L10.53 15.03C10.3894 15.1705 10.1988 15.2493 10 15.2493C9.80125 15.2493 9.61063 15.1705 9.47 15.03L6.22 11.78L5.69 11.25L6.75 10.19L7.28 10.72L9.25 12.69V3C9.25 2.9337 9.22366 2.87011 9.17678 2.82322C9.12989 2.77634 9.0663 2.75 9 2.75H2.75Z" fill="white"/>
</svg>
