<svg width="16" height="16" viewBox="0 0 16 16" fill="none" xmlns="http://www.w3.org/2000/svg">
<path fill-rule="evenodd" clip-rule="evenodd" d="M4.47001 10.03L5.00001 10.56L6.06001 9.5L5.53001 8.97L3.56001 7H13.25C13.3163 7 13.3799 7.02634 13.4268 7.07323C13.4737 7.12011 13.5 7.1837 13.5 7.25V14.25H15V7.25C15 6.78587 14.8156 6.34075 14.4874 6.01257C14.1593 5.68438 13.7141 5.5 13.25 5.5H3.56001L5.53001 3.53L6.06001 3L5.00001 1.94L4.47001 2.47L1.22001 5.72C1.07956 5.86063 1.00067 6.05125 1.00067 6.25C1.00067 6.44875 1.07956 6.63938 1.22001 6.78L4.47001 10.03Z" fill="white"/>
</svg>
