<svg width="16" height="16" viewBox="0 0 16 16" fill="none" xmlns="http://www.w3.org/2000/svg">
<path fill-rule="evenodd" clip-rule="evenodd" d="M13.2499 2.75H13.9999V1.25H6.99994C6.53581 1.25 6.09069 1.43437 5.7625 1.76256C5.43432 2.09075 5.24994 2.53587 5.24994 3V12.69L3.27994 10.72L2.74994 10.19L1.68994 11.25L2.21994 11.78L5.46994 15.03C5.61057 15.1705 5.80119 15.2493 5.99994 15.2493C6.19869 15.2493 6.38932 15.1705 6.52994 15.03L9.77994 11.78L10.3099 11.25L9.24994 10.19L8.71994 10.72L6.74994 12.69V3C6.74994 2.9337 6.77628 2.87011 6.82316 2.82322C6.87005 2.77634 6.93364 2.75 6.99994 2.75H13.2499Z" fill="white"/>
</svg>
