<svg width="16" height="16" viewBox="0 0 16 16" fill="none" xmlns="http://www.w3.org/2000/svg">
<path fill-rule="evenodd" clip-rule="evenodd" d="M6.22 4.72L5.69 5.25L6.75 6.31L7.28 5.78L9.25 3.81V13.5C9.25 13.5663 9.22366 13.6299 9.17678 13.6768C9.12989 13.7237 9.0663 13.75 9 13.75H2V15.25H9C9.46413 15.25 9.90925 15.0656 10.2374 14.7374C10.5656 14.4092 10.75 13.9641 10.75 13.5V3.81L12.72 5.78L13.25 6.31L14.31 5.25L13.78 4.72L10.53 1.47C10.3894 1.32955 10.1988 1.25066 10 1.25066C9.80125 1.25066 9.61063 1.32955 9.47 1.47L6.22 4.72Z" fill="white"/>
</svg>
