<svg width="16" height="16" viewBox="0 0 16 16" fill="none" xmlns="http://www.w3.org/2000/svg">
<g clip-path="url(#clip0_5_2158)">
<path fill-rule="evenodd" clip-rule="evenodd" d="M5.5 2V0H7V2H9V0H10.5V2H13C13.2652 2 13.5196 2.10536 13.7071 2.29289C13.8946 2.48043 14 2.73478 14 3V5.5H16V7H14V9H16V10.5H14V13C14 13.2652 13.8946 13.5196 13.7071 13.7071C13.5196 13.8946 13.2652 14 13 14H10.5V16H9V14H7V16H5.5V14H3C2.73478 14 2.48043 13.8946 2.29289 13.7071C2.10536 13.5196 2 13.2652 2 13V10.5H0V9H2V7H0V5.5H2V3C2 2.73478 2.10536 2.48043 2.29289 2.29289C2.48043 2.10536 2.73478 2 3 2H5.5ZM12.75 10.5V3.25H3.25V12.75H12.75V10.5Z" fill="white"/>
</g>
<defs>
<clipPath id="clip0_5_2158">
<rect width="16" height="16" fill="white"/>
</clipPath>
</defs>
</svg>
