<svg width="16" height="16" viewBox="0 0 16 16" fill="none" xmlns="http://www.w3.org/2000/svg">
<g clip-path="url(#clip0_5_2159)">
<path fill-rule="evenodd" clip-rule="evenodd" d="M14 3H2C1.86739 3 1.74021 3.05268 1.64645 3.14645C1.55268 3.24021 1.5 3.36739 1.5 3.5V5H14.5V3.5C14.5 3.36739 14.4473 3.24021 14.3536 3.14645C14.2598 3.05268 14.1326 3 14 3ZM1.5 12.5V6.5H14.5V12.5C14.5 12.6326 14.4473 12.7598 14.3536 12.8536C14.2598 12.9473 14.1326 13 14 13H2C1.86739 13 1.74021 12.9473 1.64645 12.8536C1.55268 12.7598 1.5 12.6326 1.5 12.5ZM2 1.5C1.46957 1.5 0.960859 1.71071 0.585786 2.08579C0.210714 2.46086 0 2.96957 0 3.5L0 12.5C0 13.0304 0.210714 13.5391 0.585786 13.9142C0.960859 14.2893 1.46957 14.5 2 14.5H14C14.5304 14.5 15.0391 14.2893 15.4142 13.9142C15.7893 13.5391 16 13.0304 16 12.5V3.5C16 2.96957 15.7893 2.46086 15.4142 2.08579C15.0391 1.71071 14.5304 1.5 14 1.5H2ZM4 10.75C4.19891 10.75 4.38968 10.671 4.53033 10.5303C4.67098 10.3897 4.75 10.1989 4.75 10C4.75 9.80109 4.67098 9.61032 4.53033 9.46967C4.38968 9.32902 4.19891 9.25 4 9.25C3.80109 9.25 3.61032 9.32902 3.46967 9.46967C3.32902 9.61032 3.25 9.80109 3.25 10C3.25 10.1989 3.32902 10.3897 3.46967 10.5303C3.61032 10.671 3.80109 10.75 4 10.75Z" fill="white"/>
</g>
<defs>
<clipPath id="clip0_5_2159">
<rect width="16" height="16" fill="white"/>
</clipPath>
</defs>
</svg>
