<svg width="16" height="16" viewBox="0 0 16 16" fill="none" xmlns="http://www.w3.org/2000/svg">
<g clip-path="url(#clip0_5_2164)">
<path fill-rule="evenodd" clip-rule="evenodd" d="M7.25 11.75V14.457C5.79499 14.2875 4.43982 13.6318 3.40402 12.596C2.36822 11.5602 1.71247 10.205 1.543 8.75H5V7.25H1.543C1.71247 5.79499 2.36822 4.43982 3.40402 3.40402C4.43982 2.36822 5.79499 1.71247 7.25 1.543V5H8.75V1.543C10.205 1.71247 11.5602 2.36822 12.596 3.40402C13.6318 4.43982 14.2875 5.79499 14.457 7.25H11V8.75H14.457C14.2875 10.205 13.6318 11.5602 12.596 12.596C11.5602 13.6318 10.205 14.2875 8.75 14.457V11H7.25V11.75ZM15.965 8.75C15.79 10.6044 14.9737 12.3396 13.6566 13.6566C12.3396 14.9737 10.6044 15.79 8.75 15.965V16H7.25V15.965C5.39564 15.79 3.6604 14.9737 2.34335 13.6566C1.0263 12.3396 0.209952 10.6044 0.035 8.75H0V7.25H0.035C0.209952 5.39564 1.0263 3.6604 2.34335 2.34335C3.6604 1.0263 5.39564 0.209952 7.25 0.035V0H8.75V0.035C10.6044 0.209952 12.3396 1.0263 13.6566 2.34335C14.9737 3.6604 15.79 5.39564 15.965 7.25H16V8.75H15.965Z" fill="white"/>
</g>
<defs>
<clipPath id="clip0_5_2164">
<rect width="16" height="16" fill="white"/>
</clipPath>
</defs>
</svg>
