<svg width="16" height="16" viewBox="0 0 16 16" fill="none" xmlns="http://www.w3.org/2000/svg">
<path fill-rule="evenodd" clip-rule="evenodd" d="M11.25 9.75C11.7141 9.75 12.1592 9.56563 12.4874 9.23744C12.8156 8.90925 13 8.46413 13 8C13 7.53587 12.8156 7.09075 12.4874 6.76256C12.1592 6.43437 11.7141 6.25 11.25 6.25C10.7859 6.25 10.3408 6.43437 10.0126 6.76256C9.68437 7.09075 9.5 7.53587 9.5 8C9.5 8.46413 9.68437 8.90925 10.0126 9.23744C10.3408 9.56563 10.7859 9.75 11.25 9.75ZM6.75 12.5C7.21413 12.5 7.65925 12.3156 7.98744 11.9874C8.31563 11.6592 8.5 11.2141 8.5 10.75C8.5 10.2859 8.31563 9.84075 7.98744 9.51256C7.65925 9.18437 7.21413 9 6.75 9C6.28587 9 5.84075 9.18437 5.51256 9.51256C5.18437 9.84075 5 10.2859 5 10.75C5 11.2141 5.18437 11.6592 5.51256 11.9874C5.84075 12.3156 6.28587 12.5 6.75 12.5Z" fill="white"/>
<path opacity="0.3" d="M6.8 7.1C7.79411 7.1 8.6 6.29411 8.6 5.3C8.6 4.30589 7.79411 3.5 6.8 3.5C5.80589 3.5 5 4.30589 5 5.3C5 6.29411 5.80589 7.1 6.8 7.1Z" fill="white"/>
</svg>
