<svg width="16" height="16" viewBox="0 0 16 16" fill="none" xmlns="http://www.w3.org/2000/svg">
<path fill-rule="evenodd" clip-rule="evenodd" d="M3.302 0.786C4.542 0.29 6.203 0 8 0C9.797 0 11.458 0.29 12.698 0.786C13.316 1.033 13.866 1.346 14.274 1.732C14.684 2.119 15 2.632 15 3.25V12.75C15 13.368 14.684 13.88 14.274 14.268C13.866 14.654 13.316 14.967 12.698 15.214C11.458 15.71 9.797 16 8 16C6.203 16 4.542 15.71 3.302 15.214C2.684 14.967 2.134 14.654 1.726 14.268C1.316 13.881 1 13.368 1 12.75V3.25C1 2.632 1.316 2.12 1.726 1.732C2.134 1.346 2.684 1.033 3.302 0.786ZM2.5 5.33V8C2.5 8.072 2.534 8.217 2.756 8.428C2.981 8.64 3.346 8.866 3.859 9.071C4.881 9.481 6.345 9.75 8 9.75C9.655 9.75 11.119 9.48 12.14 9.071C12.654 8.866 13.02 8.641 13.243 8.428C13.466 8.218 13.5 8.072 13.5 8V5.33C13.252 5.473 12.982 5.6 12.698 5.714C11.458 6.21 9.797 6.5 8 6.5C6.203 6.5 4.542 6.21 3.302 5.714C3.02611 5.60507 2.75814 5.4761 2.5 5.33ZM13.5 3.249C13.5 3.321 13.466 3.466 13.243 3.677C13.019 3.889 12.654 4.115 12.141 4.32C11.119 4.731 9.655 5 8 5C6.345 5 4.881 4.73 3.86 4.321C3.346 4.116 2.98 3.891 2.756 3.678C2.534 3.468 2.5 3.322 2.5 3.25C2.5 3.178 2.534 3.033 2.756 2.822C2.981 2.61 3.346 2.384 3.859 2.179C4.881 1.769 6.345 1.5 8 1.5C9.655 1.5 11.119 1.77 12.14 2.179C12.654 2.384 13.02 2.609 13.243 2.822C13.466 3.032 13.5 3.177 13.5 3.249ZM13.5 10.079C13.252 10.222 12.982 10.349 12.698 10.463C11.458 10.959 9.797 11.249 8 11.249C6.203 11.249 4.542 10.959 3.302 10.463C3.02611 10.3541 2.75812 10.2261 2.5 10.08V12.749C2.5 12.821 2.534 12.966 2.756 13.177C2.981 13.389 3.346 13.615 3.859 13.82C4.881 14.23 6.345 14.499 8 14.499C9.655 14.499 11.119 14.229 12.14 13.82C12.654 13.615 13.02 13.39 13.243 13.177C13.466 12.967 13.5 12.821 13.5 12.749V10.079Z" fill="white"/>
</svg>
