<svg width="16" height="16" viewBox="0 0 16 16" fill="none" xmlns="http://www.w3.org/2000/svg">
<path fill-rule="evenodd" clip-rule="evenodd" d="M7.5 5.25C7.5 5.71413 7.31563 6.15925 6.98744 6.48744C6.65925 6.81563 6.21413 7 5.75 7C5.28587 7 4.84075 6.81563 4.51256 6.48744C4.18437 6.15925 4 5.71413 4 5.25C4 4.78587 4.18437 4.34075 4.51256 4.01256C4.84075 3.68437 5.28587 3.5 5.75 3.5C6.21413 3.5 6.65925 3.68437 6.98744 4.01256C7.31563 4.34075 7.5 4.78587 7.5 5.25ZM7.5 10.75C7.5 11.2141 7.31563 11.6592 6.98744 11.9874C6.65925 12.3156 6.21413 12.5 5.75 12.5C5.28587 12.5 4.84075 12.3156 4.51256 11.9874C4.18437 11.6592 4 11.2141 4 10.75C4 10.2859 4.18437 9.84075 4.51256 9.51256C4.84075 9.18437 5.28587 9 5.75 9C6.21413 9 6.65925 9.18437 6.98744 9.51256C7.31563 9.84075 7.5 10.2859 7.5 10.75ZM10.25 9.75C10.7141 9.75 11.1592 9.56563 11.4874 9.23744C11.8156 8.90925 12 8.46413 12 8C12 7.53587 11.8156 7.09075 11.4874 6.76256C11.1592 6.43437 10.7141 6.25 10.25 6.25C9.78587 6.25 9.34075 6.43437 9.01256 6.76256C8.68437 7.09075 8.5 7.53587 8.5 8C8.5 8.46413 8.68437 8.90925 9.01256 9.23744C9.34075 9.56563 9.78587 9.75 10.25 9.75Z" fill="white"/>
</svg>
