<svg width="16" height="16" viewBox="0 0 16 16" fill="none" xmlns="http://www.w3.org/2000/svg">
<path d="M8.5 10.75C8.5 11.2141 8.31563 11.6592 7.98744 11.9874C7.65925 12.3156 7.21413 12.5 6.75 12.5C6.28587 12.5 5.84075 12.3156 5.51256 11.9874C5.18437 11.6592 5 11.2141 5 10.75C5 10.2859 5.18437 9.84075 5.51256 9.51256C5.84075 9.18437 6.28587 9 6.75 9C7.21413 9 7.65925 9.18437 7.98744 9.51256C8.31563 9.84075 8.5 10.2859 8.5 10.75Z" fill="white"/>
<path opacity="0.3" fill-rule="evenodd" clip-rule="evenodd" d="M6.75 7C7.21413 7 7.65925 6.81563 7.98744 6.48744C8.31563 6.15925 8.5 5.71413 8.5 5.25C8.5 4.78587 8.31563 4.34075 7.98744 4.01256C7.65925 3.68437 7.21413 3.5 6.75 3.5C6.28587 3.5 5.84075 3.68437 5.51256 4.01256C5.18437 4.34075 5 4.78587 5 5.25C5 5.71413 5.18437 6.15925 5.51256 6.48744C5.84075 6.81563 6.28587 7 6.75 7ZM11.25 9.75C11.7141 9.75 12.1592 9.56563 12.4874 9.23744C12.8156 8.90925 13 8.46413 13 8C13 7.53587 12.8156 7.09075 12.4874 6.76256C12.1592 6.43437 11.7141 6.25 11.25 6.25C10.7859 6.25 10.3408 6.43437 10.0126 6.76256C9.68437 7.09075 9.5 7.53587 9.5 8C9.5 8.46413 9.68437 8.90925 10.0126 9.23744C10.3408 9.56563 10.7859 9.75 11.25 9.75Z" fill="white"/>
</svg>
