<svg width="16" height="16" viewBox="0 0 16 16" fill="none" xmlns="http://www.w3.org/2000/svg">
<path fill-rule="evenodd" clip-rule="evenodd" d="M0 2C0 1.73478 0.105357 1.48043 0.292893 1.29289C0.48043 1.10536 0.734784 1 1 1H15C15.2652 1 15.5196 1.10536 15.7071 1.29289C15.8946 1.48043 16 1.73478 16 2V10.5C16 10.7652 15.8946 11.0196 15.7071 11.2071C15.5196 11.3946 15.2652 11.5 15 11.5H8.75V14.5H10.5V16H5.5V14.5H7.25V11.5H1C0.734784 11.5 0.48043 11.3946 0.292893 11.2071C0.105357 11.0196 0 10.7652 0 10.5V2ZM1.5 2.5V10H14.5V2.5H1.5Z" fill="white"/>
</svg>
