<svg width="16" height="16" viewBox="0 0 16 16" fill="none" xmlns="http://www.w3.org/2000/svg">
<path fill-rule="evenodd" clip-rule="evenodd" d="M1 3.25C1 2.38805 1.34241 1.5614 1.9519 0.951903C2.5614 0.34241 3.38805 0 4.25 0L11.75 0C12.1768 0 12.5994 0.0840637 12.9937 0.247392C13.388 0.410719 13.7463 0.650113 14.0481 0.951903C14.3499 1.25369 14.5893 1.61197 14.7526 2.00628C14.9159 2.40059 15 2.8232 15 3.25V16H1V3.25ZM4.25 1.5C3.78587 1.5 3.34075 1.68437 3.01256 2.01256C2.68437 2.34075 2.5 2.78587 2.5 3.25V14.5H13.5V3.25C13.5 2.78587 13.3156 2.34075 12.9874 2.01256C12.6592 1.68437 12.2141 1.5 11.75 1.5H4.25ZM4 4C4 3.73478 4.10536 3.48043 4.29289 3.29289C4.48043 3.10536 4.73478 3 5 3H11C11.2652 3 11.5196 3.10536 11.7071 3.29289C11.8946 3.48043 12 3.73478 12 4V10H4V4ZM9 13H12V11.5H9V13Z" fill="white"/>
</svg>
