<svg width="16" height="16" viewBox="0 0 16 16" fill="none" xmlns="http://www.w3.org/2000/svg">
<path fill-rule="evenodd" clip-rule="evenodd" d="M14.866 14.704C13.9138 14.5726 12.9581 14.4686 12 14.392V12.888C12.835 12.952 13.668 13.038 14.5 13.143V9H16V14.86L15.148 14.743L14.866 14.704ZM16 7V1.64L15.148 1.757L14.866 1.796C13.9138 1.92739 12.9581 2.03143 12 2.108V3.612C12.8353 3.54724 13.6689 3.46222 14.5 3.357V7H16ZM10 2.227V3.728C8.66716 3.77955 7.33284 3.77955 6 3.728V2.228C7.333 2.28 8.667 2.279 10 2.227ZM10 14.273V12.77C8.66717 12.7184 7.33283 12.7184 6 12.77V14.272C7.3328 14.2189 8.6672 14.2199 10 14.273ZM4 14.393C3.043 14.469 2.087 14.573 1.134 14.704L0.852 14.743L0 14.86V9H1.5V13.143C2.332 13.037 3.165 12.953 4 12.888V14.393ZM1.5 7V3.357C2.332 3.463 3.165 3.547 4 3.612V2.108C3.04188 2.03143 2.08615 1.92739 1.134 1.796L0.852 1.757L0 1.639V7H1.5Z" fill="white"/>
</svg>
