<svg width="16" height="16" viewBox="0 0 16 16" fill="none" xmlns="http://www.w3.org/2000/svg">
<g clip-path="url(#clip0_5_2176)">
<path fill-rule="evenodd" clip-rule="evenodd" d="M8 14.5C9.72391 14.5 11.3772 13.8152 12.5962 12.5962C13.8152 11.3772 14.5 9.72391 14.5 8C14.5 6.27609 13.8152 4.62279 12.5962 3.40381C11.3772 2.18482 9.72391 1.5 8 1.5C6.27609 1.5 4.62279 2.18482 3.40381 3.40381C2.18482 4.62279 1.5 6.27609 1.5 8C1.5 9.72391 2.18482 11.3772 3.40381 12.5962C4.62279 13.8152 6.27609 14.5 8 14.5ZM8 16C10.1217 16 12.1566 15.1571 13.6569 13.6569C15.1571 12.1566 16 10.1217 16 8C16 5.87827 15.1571 3.84344 13.6569 2.34315C12.1566 0.842855 10.1217 0 8 0C5.87827 0 3.84344 0.842855 2.34315 2.34315C0.842855 3.84344 0 5.87827 0 8C0 10.1217 0.842855 12.1566 2.34315 13.6569C3.84344 15.1571 5.87827 16 8 16ZM8.625 3.375V4.375H9C10.174 4.375 11.125 5.326 11.125 6.5H9.875C9.875 6.26794 9.78281 6.04538 9.61872 5.88128C9.45462 5.71719 9.23206 5.625 9 5.625H8.625V7.375H9C9.56359 7.375 10.1041 7.59888 10.5026 7.9974C10.9011 8.39591 11.125 8.93641 11.125 9.5C11.125 10.0636 10.9011 10.6041 10.5026 11.0026C10.1041 11.4011 9.56359 11.625 9 11.625H8.625V12.625H7.375V11.625H7C6.43641 11.625 5.89591 11.4011 5.4974 11.0026C5.09888 10.6041 4.875 10.0636 4.875 9.5H6.125C6.125 9.983 6.517 10.375 7 10.375H7.375V8.625H7C6.43641 8.625 5.89591 8.40112 5.4974 8.0026C5.09888 7.60409 4.875 7.06359 4.875 6.5C4.875 5.93641 5.09888 5.39591 5.4974 4.9974C5.89591 4.59888 6.43641 4.375 7 4.375H7.375V3.375H8.625ZM7.375 5.625H7C6.76794 5.625 6.54538 5.71719 6.38128 5.88128C6.21719 6.04538 6.125 6.26794 6.125 6.5C6.125 6.73206 6.21719 6.95462 6.38128 7.11872C6.54538 7.28281 6.76794 7.375 7 7.375H7.375V5.625ZM8.625 8.625V10.375H9C9.23206 10.375 9.45462 10.2828 9.61872 10.1187C9.78281 9.95462 9.875 9.73206 9.875 9.5C9.875 9.26794 9.78281 9.04538 9.61872 8.88128C9.45462 8.71719 9.23206 8.625 9 8.625H8.625Z" fill="white"/>
</g>
<defs>
<clipPath id="clip0_5_2176">
<rect width="16" height="16" fill="white"/>
</clipPath>
</defs>
</svg>
