<svg width="16" height="16" viewBox="0 0 16 16" fill="none" xmlns="http://www.w3.org/2000/svg">
<path fill-rule="evenodd" clip-rule="evenodd" d="M8.75 1V8.69L10.72 6.72L11.25 6.19L12.31 7.25L11.78 7.78L8.707 10.854C8.51947 11.0415 8.26516 11.1468 8 11.1468C7.73484 11.1468 7.48053 11.0415 7.293 10.854L4.22 7.78L3.69 7.25L4.75 6.19L5.28 6.72L7.25 8.69V1H8.75ZM13.5 9.25V13.5H2.5V8.5H1V14C1 14.2652 1.10536 14.5196 1.29289 14.7071C1.48043 14.8946 1.73478 15 2 15H14C14.2652 15 14.5196 14.8946 14.7071 14.7071C14.8946 14.5196 15 14.2652 15 14V8.5H13.5V9.25Z" fill="white"/>
</svg>
