<svg width="16" height="16" viewBox="0 0 16 16" fill="none" xmlns="http://www.w3.org/2000/svg">
<path fill-rule="evenodd" clip-rule="evenodd" d="M4.47501 5.737L8.00001 2.142L11.525 5.737C13.492 7.741 13.492 11.004 11.525 13.009C11.0671 13.4808 10.5192 13.8559 9.91372 14.112C9.30822 14.3682 8.65746 14.5002 8.00001 14.5002C7.34256 14.5002 6.69179 14.3682 6.08629 14.112C5.48079 13.8559 4.93287 13.4808 4.47501 13.009C2.50801 11.004 2.50801 7.741 4.47501 5.737ZM3.40401 4.687L6.94901 1.07L8.00001 0L9.05001 1.071L12.596 4.686C15.135 7.274 15.135 11.471 12.596 14.059C11.9985 14.6732 11.2839 15.1614 10.4945 15.4948C9.70512 15.8282 8.85691 15.9999 8.00001 15.9999C7.1431 15.9999 6.29489 15.8282 5.50549 15.4948C4.71609 15.1614 4.00152 14.6732 3.40401 14.059C0.865006 11.471 0.865006 7.275 3.40401 4.687ZM11.25 9.5V8.75H9.75001V9.5C9.75001 9.96413 9.56563 10.4092 9.23744 10.7374C8.90925 11.0656 8.46413 11.25 8.00001 11.25H7.25001V12.75H8.00001C8.86196 12.75 9.68861 12.4076 10.2981 11.7981C10.9076 11.1886 11.25 10.362 11.25 9.5Z" fill="white"/>
</svg>
