<svg width="16" height="16" viewBox="0 0 16 16" fill="none" xmlns="http://www.w3.org/2000/svg">
<path fill-rule="evenodd" clip-rule="evenodd" d="M8.5 1C8.5 1 4.586 4.748 3.941 5.397C3.90241 5.4357 3.87858 5.48669 3.87364 5.54112C3.86871 5.59555 3.88299 5.64999 3.914 5.695C3.978 5.789 4.1 5.825 4.206 5.781L7.906 4.273L11.775 10.36C11.841 10.464 11.975 10.501 12.087 10.447C12.1404 10.4211 12.182 10.376 12.2035 10.3208C12.225 10.2655 12.2248 10.2041 12.203 10.149C11.71 8.905 8.5 1 8.5 1ZM6.293 7.039C6.32309 6.98826 6.3329 6.92803 6.32048 6.87036C6.30806 6.8127 6.27431 6.76185 6.226 6.728C6.17734 6.69344 6.11769 6.67792 6.05836 6.68437C5.99902 6.69082 5.9441 6.71879 5.904 6.763C5.124 7.633 0 13.5 0 13.5C0 13.5 5.186 14.803 6.03 14.994C6.08388 15.0066 6.14047 15.0004 6.19033 14.9764C6.24019 14.9524 6.28031 14.912 6.304 14.862C6.32728 14.8124 6.33243 14.7562 6.31854 14.7032C6.30465 14.6502 6.27261 14.6038 6.228 14.572L3.162 12.343L6.293 7.039ZM14.054 8.589C14.0355 8.53511 13.9986 8.4895 13.9497 8.46025C13.9008 8.43101 13.8432 8.42003 13.787 8.42926C13.7307 8.43849 13.6796 8.46733 13.6426 8.51067C13.6057 8.55401 13.5853 8.60904 13.585 8.666V12.382L6.453 12.52C6.39336 12.5208 6.33615 12.5438 6.29252 12.5844C6.24889 12.6251 6.22197 12.6806 6.217 12.74C6.21333 12.7994 6.23204 12.858 6.26943 12.9042C6.30681 12.9505 6.36018 12.9811 6.419 12.99C7.682 13.193 16 14.573 16 14.573C16 14.573 14.331 9.39 14.054 8.589Z" fill="white"/>
</svg>
