<svg width="16" height="16" viewBox="0 0 16 16" fill="none" xmlns="http://www.w3.org/2000/svg">
<g clip-path="url(#clip0_5_2182)">
<path fill-rule="evenodd" clip-rule="evenodd" d="M8 0C3.578 0 0 3.617 0 8.03C0 12.412 3.55 16 7.938 16C9.42607 16 10.8842 15.5818 12.146 14.793L12.398 14.636L11.602 13.364L11.351 13.521C10.3276 14.1608 9.14494 14.5 7.938 14.5C4.387 14.5 1.5 11.59 1.5 8.03C1.5 4.438 4.414 1.5 8 1.5C9.72391 1.5 11.3772 2.18482 12.5962 3.40381C13.8152 4.62279 14.5 6.27609 14.5 8V8.607C14.5 9.377 13.876 10 13.107 10C12.22 10 11.5 9.28 11.5 8.393V4.5H10V5.127C9.44473 4.74049 8.78933 4.5232 8.11314 4.50142C7.43694 4.47965 6.76892 4.65431 6.18993 5.00429C5.61094 5.35427 5.14579 5.86455 4.85077 6.47338C4.55575 7.08222 4.44351 7.76351 4.52763 8.43481C4.61176 9.1061 4.88864 9.73863 5.32477 10.2558C5.76089 10.7731 6.33758 11.1528 6.98502 11.3491C7.63247 11.5454 8.32293 11.5498 8.97285 11.3618C9.62276 11.1739 10.2043 10.8016 10.647 10.29C10.9369 10.6667 11.3095 10.9717 11.7361 11.1815C12.1626 11.3913 12.6317 11.5003 13.107 11.5C13.8743 11.5 14.6101 11.1952 15.1527 10.6527C15.6952 10.1101 16 9.37427 16 8.607V8C16 5.87827 15.1571 3.84344 13.6569 2.34315C12.1566 0.842855 10.1217 0 8 0ZM10 8C10 7.46957 9.78929 6.96086 9.41421 6.58579C9.03914 6.21071 8.53043 6 8 6C7.46957 6 6.96086 6.21071 6.58579 6.58579C6.21071 6.96086 6 7.46957 6 8C6 8.53043 6.21071 9.03914 6.58579 9.41421C6.96086 9.78929 7.46957 10 8 10C8.53043 10 9.03914 9.78929 9.41421 9.41421C9.78929 9.03914 10 8.53043 10 8Z" fill="white"/>
</g>
<defs>
<clipPath id="clip0_5_2182">
<rect width="16" height="16" fill="white"/>
</clipPath>
</defs>
</svg>
