<svg width="16" height="16" viewBox="0 0 16 16" fill="none" xmlns="http://www.w3.org/2000/svg">
<g clip-path="url(#clip0_5_2183)">
<path fill-rule="evenodd" clip-rule="evenodd" d="M13.264 3.5H2.736L8 8.012L13.264 3.5ZM1.5 4.416V11.5C1.5 11.7652 1.60536 12.0196 1.79289 12.2071C1.98043 12.3946 2.23478 12.5 2.5 12.5H13.5C13.7652 12.5 14.0196 12.3946 14.2071 12.2071C14.3946 12.0196 14.5 11.7652 14.5 11.5V4.416L8.488 9.57L8 9.988L7.512 9.569L1.5 4.416ZM0 2H16V11.5C16 12.163 15.7366 12.7989 15.2678 13.2678C14.7989 13.7366 14.163 14 13.5 14H2.5C1.83696 14 1.20107 13.7366 0.732233 13.2678C0.263392 12.7989 0 12.163 0 11.5L0 2Z" fill="white"/>
</g>
<defs>
<clipPath id="clip0_5_2183">
<rect width="16" height="16" fill="white"/>
</clipPath>
</defs>
</svg>
