<svg width="16" height="16" viewBox="0 0 16 16" fill="none" xmlns="http://www.w3.org/2000/svg">
<path fill-rule="evenodd" clip-rule="evenodd" d="M11.5 9.75V11.25C11.5 11.3163 11.4737 11.3799 11.4268 11.4268C11.3799 11.4737 11.3163 11.5 11.25 11.5H4.75C4.6837 11.5 4.62011 11.4737 4.57322 11.4268C4.52634 11.3799 4.5 11.3163 4.5 11.25V4.75C4.5 4.6837 4.52634 4.62011 4.57322 4.57322C4.62011 4.52634 4.6837 4.5 4.75 4.5H7V3H4.75C4.28587 3 3.84075 3.18437 3.51256 3.51256C3.18437 3.84075 3 4.28587 3 4.75V11.25C3 12.216 3.784 13 4.75 13H11.25C11.7141 13 12.1592 12.8156 12.4874 12.4874C12.8156 12.1592 13 11.7141 13 11.25V9H11.5V9.75ZM8.5 3H12.25C12.4489 3 12.6397 3.07902 12.7803 3.21967C12.921 3.36032 13 3.55109 13 3.75V7.5H11.5V5.56L8.53 8.53L8 9.06L6.94 8L7.47 7.47L10.439 4.5H8.5V3Z" fill="white"/>
</svg>
