<svg width="16" height="16" viewBox="0 0 16 16" fill="none" xmlns="http://www.w3.org/2000/svg">
<path fill-rule="evenodd" clip-rule="evenodd" d="M13.5 10.25V13.25C13.5 13.3163 13.4737 13.3799 13.4268 13.4268C13.3799 13.4737 13.3163 13.5 13.25 13.5H2.75C2.6837 13.5 2.62011 13.4737 2.57322 13.4268C2.52634 13.3799 2.5 13.3163 2.5 13.25V2.75C2.5 2.6837 2.52634 2.62011 2.57322 2.57322C2.62011 2.52634 2.6837 2.5 2.75 2.5H6.5V1H2.75C2.28587 1 1.84075 1.18437 1.51256 1.51256C1.18437 1.84075 1 2.28587 1 2.75V13.25C1 14.216 1.784 15 2.75 15H13.25C13.7141 15 14.1592 14.8156 14.4874 14.4874C14.8156 14.1592 15 13.7141 15 13.25V9.5H13.5V10.25ZM9 1H14.25C14.4489 1 14.6397 1.07902 14.7803 1.21967C14.921 1.36032 15 1.55109 15 1.75V7H13.5V3.56L8.53 8.53L8 9.06L6.94 8L7.47 7.47L12.439 2.5H9V1Z" fill="white"/>
</svg>
