<svg width="16" height="16" viewBox="0 0 16 16" fill="none" xmlns="http://www.w3.org/2000/svg">
<g clip-path="url(#clip0_5_2187)">
<path fill-rule="evenodd" clip-rule="evenodd" d="M6.51401 3.158C7.48434 2.87416 8.51567 2.87416 9.48601 3.158L9.90801 1.718C8.66214 1.35339 7.33788 1.35339 6.09201 1.718L6.51401 3.158ZM10.848 3.782C11.258 4.047 11.639 4.376 11.978 4.769L13.046 6.009L14.183 5.031L13.115 3.791C12.6941 3.30082 12.2051 2.87348 11.663 2.522L10.848 3.782ZM4.02201 4.769C4.36101 4.376 4.74201 4.047 5.15201 3.782L4.33701 2.522C3.79487 2.87346 3.3059 3.3008 2.88501 3.791L1.81701 5.03L2.95401 6.008L4.02201 4.769ZM14.114 7.249L14.76 8L14.114 8.75L15.25 9.73L16.318 8.49V7.51L15.25 6.27L14.114 7.249ZM1.88601 7.249L1.24001 8L1.88601 8.75L0.749007 9.73L-0.317993 8.49V7.51L0.749007 6.27L1.88601 7.249ZM13.046 9.991L11.978 11.231C11.639 11.624 11.258 11.953 10.848 12.218L11.663 13.478C12.2052 13.1266 12.6941 12.6992 13.115 12.209L14.183 10.969L13.046 9.991ZM4.02201 11.231L2.95401 9.99L1.81701 10.968L2.88501 12.208C3.30588 12.6982 3.79485 13.1256 4.33701 13.477L5.15201 12.217C4.73013 11.9437 4.3496 11.6113 4.02201 11.23V11.231ZM9.90801 14.281L9.48601 12.842C8.51567 13.1258 7.48434 13.1258 6.51401 12.842L6.09201 14.282C7.33788 14.6466 8.66214 14.6456 9.90801 14.281ZM6.50001 8C6.50001 7.60218 6.65804 7.22064 6.93935 6.93934C7.22065 6.65804 7.60218 6.5 8.00001 6.5C8.39783 6.5 8.77936 6.65804 9.06067 6.93934C9.34197 7.22064 9.50001 7.60218 9.50001 8C9.50001 8.39783 9.34197 8.77936 9.06067 9.06066C8.77936 9.34197 8.39783 9.5 8.00001 9.5C7.60218 9.5 7.22065 9.34197 6.93935 9.06066C6.65804 8.77936 6.50001 8.39783 6.50001 8ZM8.00001 5C7.20436 5 6.4413 5.31607 5.87869 5.87868C5.31608 6.44129 5.00001 7.20435 5.00001 8C5.00001 8.79565 5.31608 9.55871 5.87869 10.1213C6.4413 10.6839 7.20436 11 8.00001 11C8.79566 11 9.55872 10.6839 10.1213 10.1213C10.6839 9.55871 11 8.79565 11 8C11 7.20435 10.6839 6.44129 10.1213 5.87868C9.55872 5.31607 8.79566 5 8.00001 5Z" fill="white"/>
</g>
<defs>
<clipPath id="clip0_5_2187">
<rect width="16" height="16" fill="white"/>
</clipPath>
</defs>
</svg>
