<svg width="16" height="16" viewBox="0 0 16 16" fill="none" xmlns="http://www.w3.org/2000/svg">
<g clip-path="url(#clip0_5_2188)">
<path fill-rule="evenodd" clip-rule="evenodd" d="M0.19103 2.062L0.75103 2.561L14.251 14.561L14.812 15.059L15.809 13.938L15.249 13.439L13.439 11.832L16.319 8.489V7.511L13.115 3.791C10.645 0.919999 6.36503 0.684999 3.59403 3.08L1.74803 1.44L1.18803 0.94L0.19103 2.062ZM14.761 8L12.319 10.835L10.669 9.37C10.9718 8.77822 11.0695 8.10268 10.9468 7.44937C10.8241 6.79607 10.488 6.20198 9.99124 5.76033C9.49445 5.31869 8.86508 5.05448 8.2019 5.00917C7.53873 4.96386 6.87927 5.14002 6.32703 5.51L4.72703 4.088C5.78936 3.24239 7.13786 2.84097 8.4897 2.96793C9.84155 3.09489 11.0917 3.74037 11.978 4.769L14.761 8ZM7.52603 6.576L9.46803 8.303C9.52166 8.04496 9.50631 7.77735 9.42353 7.52713C9.34075 7.27692 9.19347 7.05296 8.99653 6.87782C8.79959 6.70268 8.55995 6.58256 8.30178 6.52957C8.04361 6.47658 7.77604 6.4926 7.52603 6.576ZM-0.31897 7.511L1.40303 5.511L2.54003 6.489L1.24003 8L4.02203 11.23C4.72951 12.0528 5.67453 12.6362 6.72711 12.8999C7.7797 13.1637 8.88815 13.0949 9.90003 12.703L10.44 14.102C9.13956 14.6057 7.71498 14.6943 6.36214 14.3555C5.00929 14.0167 3.79459 13.2672 2.88503 12.21L-0.31797 8.49V7.512L-0.31897 7.511Z" fill="white"/>
</g>
<defs>
<clipPath id="clip0_5_2188">
<rect width="16" height="16" fill="white"/>
</clipPath>
</defs>
</svg>
