<svg width="16" height="16" viewBox="0 0 16 16" fill="none" xmlns="http://www.w3.org/2000/svg">
<g clip-path="url(#clip0_5_2186)">
<path fill-rule="evenodd" clip-rule="evenodd" d="M4.02201 4.77C4.51486 4.19775 5.12539 3.73856 5.8119 3.42379C6.49842 3.10902 7.24477 2.94608 8.00001 2.94608C8.75525 2.94608 9.50159 3.10902 10.1881 3.42379C10.8746 3.73856 11.4851 4.19775 11.978 4.77L14.76 8L11.978 11.23C11.4851 11.8023 10.8746 12.2614 10.1881 12.5762C9.50159 12.891 8.75525 13.0539 8.00001 13.0539C7.24477 13.0539 6.49842 12.891 5.8119 12.5762C5.12539 12.2614 4.51486 11.8023 4.02201 11.23L1.24001 8L4.02201 4.77ZM13.115 3.79C10.422 0.664001 5.57801 0.664001 2.88501 3.79L-0.317993 7.51V8.49L2.88501 12.21C5.57801 15.337 10.422 15.337 13.115 12.21L16.318 8.49V7.51L13.115 3.79ZM6.50001 8C6.50001 7.60218 6.65804 7.22064 6.93935 6.93934C7.22065 6.65804 7.60218 6.5 8.00001 6.5C8.39783 6.5 8.77936 6.65804 9.06067 6.93934C9.34197 7.22064 9.50001 7.60218 9.50001 8C9.50001 8.39783 9.34197 8.77936 9.06067 9.06066C8.77936 9.34197 8.39783 9.5 8.00001 9.5C7.60218 9.5 7.22065 9.34197 6.93935 9.06066C6.65804 8.77936 6.50001 8.39783 6.50001 8ZM8.00001 5C7.20436 5 6.4413 5.31607 5.87869 5.87868C5.31608 6.44129 5.00001 7.20435 5.00001 8C5.00001 8.79565 5.31608 9.55871 5.87869 10.1213C6.4413 10.6839 7.20436 11 8.00001 11C8.79566 11 9.55872 10.6839 10.1213 10.1213C10.6839 9.55871 11 8.79565 11 8C11 7.20435 10.6839 6.44129 10.1213 5.87868C9.55872 5.31607 8.79566 5 8.00001 5Z" fill="white"/>
</g>
<defs>
<clipPath id="clip0_5_2186">
<rect width="16" height="16" fill="white"/>
</clipPath>
</defs>
</svg>
