<svg width="16" height="16" viewBox="0 0 16 16" fill="none" xmlns="http://www.w3.org/2000/svg">
<g clip-path="url(#clip0_5_2193)">
<path fill-rule="evenodd" clip-rule="evenodd" d="M14.5 8C14.5 9.72391 13.8152 11.3772 12.5962 12.5962C11.3772 13.8152 9.72391 14.5 8 14.5C6.27609 14.5 4.62279 13.8152 3.40381 12.5962C2.18482 11.3772 1.5 9.72391 1.5 8C1.5 6.27609 2.18482 4.62279 3.40381 3.40381C4.62279 2.18482 6.27609 1.5 8 1.5C9.72391 1.5 11.3772 2.18482 12.5962 3.40381C13.8152 4.62279 14.5 6.27609 14.5 8ZM16 8C16 10.1217 15.1571 12.1566 13.6569 13.6569C12.1566 15.1571 10.1217 16 8 16C5.87827 16 3.84344 15.1571 2.34315 13.6569C0.842855 12.1566 0 10.1217 0 8C0 5.87827 0.842855 3.84344 2.34315 2.34315C3.84344 0.842855 5.87827 0 8 0C10.1217 0 12.1566 0.842855 13.6569 2.34315C15.1571 3.84344 16 5.87827 16 8ZM5.75 7.75C6.01522 7.75 6.26957 7.64464 6.45711 7.45711C6.64464 7.26957 6.75 7.01522 6.75 6.75C6.75 6.48478 6.64464 6.23043 6.45711 6.04289C6.26957 5.85536 6.01522 5.75 5.75 5.75C5.48478 5.75 5.23043 5.85536 5.04289 6.04289C4.85536 6.23043 4.75 6.48478 4.75 6.75C4.75 7.01522 4.85536 7.26957 5.04289 7.45711C5.23043 7.64464 5.48478 7.75 5.75 7.75ZM11.25 6.75C11.25 7.01522 11.1446 7.26957 10.9571 7.45711C10.7696 7.64464 10.5152 7.75 10.25 7.75C9.98478 7.75 9.73043 7.64464 9.54289 7.45711C9.35536 7.26957 9.25 7.01522 9.25 6.75C9.25 6.48478 9.35536 6.23043 9.54289 6.04289C9.73043 5.85536 9.98478 5.75 10.25 5.75C10.5152 5.75 10.7696 5.85536 10.9571 6.04289C11.1446 6.23043 11.25 6.48478 11.25 6.75ZM11.525 11.262L11.873 11.782L10.834 12.477L10.486 11.957C10.213 11.5483 9.84339 11.2134 9.40989 10.9819C8.97639 10.7504 8.49244 10.6295 8.001 10.63C7.51043 10.6296 7.02732 10.7501 6.59441 10.9809C6.1615 11.2116 5.79214 11.5455 5.519 11.953L5.169 12.472L4.133 11.774L4.481 11.256C4.86851 10.6782 5.39238 10.2048 6.00631 9.87765C6.62024 9.55045 7.30532 9.37953 8.001 9.38C9.471 9.38 10.765 10.128 11.525 11.262Z" fill="white"/>
</g>
<defs>
<clipPath id="clip0_5_2193">
<rect width="16" height="16" fill="white"/>
</clipPath>
</defs>
</svg>
