<svg width="16" height="16" viewBox="0 0 16 16" fill="none" xmlns="http://www.w3.org/2000/svg">
<g clip-path="url(#clip0_5_2191)">
<path fill-rule="evenodd" clip-rule="evenodd" d="M4 9V16H5.5V9H4ZM12 9V16H10.5V9H12Z" fill="black"/>
<path fill-rule="evenodd" clip-rule="evenodd" d="M1.5 8C1.50011 6.95645 1.75148 5.92826 2.23284 5.00237C2.71421 4.07648 3.41143 3.28009 4.26556 2.68054C5.11969 2.08099 6.10562 1.6959 7.13999 1.55783C8.17437 1.41976 9.22678 1.53277 10.2083 1.88729C11.1897 2.24182 12.0714 2.82745 12.7788 3.59467C13.4862 4.36189 13.9984 5.28814 14.2722 6.29513C14.5461 7.30211 14.5734 8.36022 14.352 9.38001C14.1305 10.3998 13.6668 11.3513 13 12.154V14.245C14.2939 13.2091 15.234 11.7969 15.6905 10.2035C16.1471 8.61019 16.0974 6.91439 15.5485 5.35047C14.9996 3.78655 13.9784 2.43175 12.6262 1.47328C11.274 0.514807 9.65746 0 8 0C6.34254 0 4.726 0.514807 3.37378 1.47328C2.02156 2.43175 1.00043 3.78655 0.451491 5.35047C-0.0974441 6.91439 -0.147074 8.61019 0.309459 10.2035C0.765992 11.7969 1.70615 13.2091 3 14.245V12.154C2.02855 10.988 1.49764 9.51768 1.5 8ZM8 14.5C8.50505 14.5003 9.00843 14.4419 9.5 14.326V15.86C8.50886 16.0482 7.49114 16.0482 6.5 15.86V14.326C6.99157 14.4419 7.49495 14.5003 8 14.5ZM3.786 8.365C4.159 7.985 4.676 7.75 5.25 7.75C5.824 7.75 6.341 7.985 6.714 8.365L7.786 7.315C7.45566 6.97735 7.06112 6.70918 6.6256 6.52628C6.19008 6.34338 5.72237 6.24944 5.25 6.25C4.257 6.25 3.358 6.659 2.714 7.315L3.786 8.365ZM10.75 7.75C10.176 7.75 9.659 7.985 9.286 8.365L8.214 7.315C8.54434 6.97735 8.93888 6.70918 9.3744 6.52628C9.80992 6.34338 10.2776 6.24944 10.75 6.25C11.743 6.25 12.642 6.659 13.286 7.315L12.214 8.365C12.0234 8.16987 11.7957 8.01491 11.5443 7.90928C11.2928 7.80365 11.0227 7.74949 10.75 7.75ZM6.25 12H9.75C9.75 11.5359 9.56563 11.0907 9.23744 10.7626C8.90925 10.4344 8.46413 10.25 8 10.25C7.53587 10.25 7.09075 10.4344 6.76256 10.7626C6.43437 11.0907 6.25 11.5359 6.25 12Z" fill="white"/>
</g>
<defs>
<clipPath id="clip0_5_2191">
<rect width="16" height="16" fill="white"/>
</clipPath>
</defs>
</svg>
