<svg width="16" height="16" viewBox="0 0 16 16" fill="none" xmlns="http://www.w3.org/2000/svg">
<g clip-path="url(#clip0_5_2190)">
<path fill-rule="evenodd" clip-rule="evenodd" d="M12.3751 5.375V3.625H10.6251V2.375H12.3751V0.625H13.6251V2.375H15.3751V3.625H13.6251V5.375H12.3751ZM7.50006 2.5C6.25143 2.50028 5.034 2.89011 4.01744 3.61514C3.00088 4.34017 2.23584 5.36428 1.82894 6.54475C1.42205 7.72521 1.39357 9.00322 1.74748 10.2006C2.10139 11.3981 2.82005 12.4552 3.80331 13.2248C4.78656 13.9944 5.98542 14.4381 7.23279 14.494C8.48017 14.5499 9.71391 14.2152 10.7621 13.5367C11.8102 12.8581 12.6206 11.8695 13.0802 10.7085C13.5398 9.54756 13.6257 8.27213 13.3261 7.06L14.7831 6.7C15.1761 8.29056 15.0375 9.96609 14.3885 11.4704C13.7394 12.9748 12.6156 14.2253 11.1888 15.0306C9.76198 15.836 8.1107 16.152 6.48735 15.9303C4.86401 15.7087 3.35791 14.9615 2.19927 13.8031C1.04063 12.6447 0.293202 11.1387 0.071233 9.51539C-0.150736 7.89208 0.164966 6.24074 0.970082 4.81379C1.7752 3.38685 3.02543 2.26279 4.52968 1.61346C6.03392 0.964121 7.70942 0.825225 9.30006 1.218L8.94005 2.675C8.46887 2.5588 7.98536 2.50004 7.50006 2.5ZM4.78806 9.894L5.18306 10.379C5.4631 10.7235 5.81654 11.0011 6.21756 11.1916C6.61859 11.3821 7.05709 11.4806 7.50106 11.48C8.43606 11.48 9.27006 11.052 9.81906 10.379L10.2141 9.894L11.1831 10.684L10.7881 11.168C10.3907 11.6566 9.8894 12.0504 9.32058 12.3206C8.75176 12.5908 8.1298 12.7307 7.50006 12.73C6.17406 12.73 4.99006 12.12 4.21306 11.168L3.81806 10.684L4.78806 9.894ZM5.50006 8C5.76527 8 6.01963 7.89464 6.20716 7.70711C6.3947 7.51957 6.50006 7.26522 6.50006 7C6.50006 6.73478 6.3947 6.48043 6.20716 6.29289C6.01963 6.10536 5.76527 6 5.50006 6C5.23484 6 4.98048 6.10536 4.79295 6.29289C4.60541 6.48043 4.50006 6.73478 4.50006 7C4.50006 7.26522 4.60541 7.51957 4.79295 7.70711C4.98048 7.89464 5.23484 8 5.50006 8ZM10.5001 7C10.5001 7.26522 10.3947 7.51957 10.2072 7.70711C10.0196 7.89464 9.76527 8 9.50006 8C9.23484 8 8.98048 7.89464 8.79295 7.70711C8.60541 7.51957 8.50006 7.26522 8.50006 7C8.50006 6.73478 8.60541 6.48043 8.79295 6.29289C8.98048 6.10536 9.23484 6 9.50006 6C9.76527 6 10.0196 6.10536 10.2072 6.29289C10.3947 6.48043 10.5001 6.73478 10.5001 7Z" fill="white"/>
</g>
<defs>
<clipPath id="clip0_5_2190">
<rect width="16" height="16" fill="white"/>
</clipPath>
</defs>
</svg>
