<svg width="16" height="16" viewBox="0 0 16 16" fill="none" xmlns="http://www.w3.org/2000/svg">
<g clip-path="url(#clip0_5_2192)">
<path fill-rule="evenodd" clip-rule="evenodd" d="M14.5 8C14.5 9.72391 13.8152 11.3772 12.5962 12.5962C11.3772 13.8152 9.72391 14.5 8 14.5C6.27609 14.5 4.62279 13.8152 3.40381 12.5962C2.18482 11.3772 1.5 9.72391 1.5 8C1.5 6.27609 2.18482 4.62279 3.40381 3.40381C4.62279 2.18482 6.27609 1.5 8 1.5C9.72391 1.5 11.3772 2.18482 12.5962 3.40381C13.8152 4.62279 14.5 6.27609 14.5 8ZM16 8C16 10.1217 15.1571 12.1566 13.6569 13.6569C12.1566 15.1571 10.1217 16 8 16C5.87827 16 3.84344 15.1571 2.34315 13.6569C0.842855 12.1566 0 10.1217 0 8C0 5.87827 0.842855 3.84344 2.34315 2.34315C3.84344 0.842855 5.87827 0 8 0C10.1217 0 12.1566 0.842855 13.6569 2.34315C15.1571 3.84344 16 5.87827 16 8ZM4.5 8.975H3.875V9.6C3.875 11.475 5.81 12.864 7.998 12.864C10.188 12.864 12.125 11.484 12.125 9.6V8.975H4.5ZM7.998 11.614C6.594 11.614 5.638 10.948 5.281 10.225H10.721C10.364 10.95 9.408 11.614 7.998 11.614Z" fill="white"/>
<path fill-rule="evenodd" clip-rule="evenodd" d="M6.153 4.92L5.375 3.5L4.597 4.92L3 5.22L4.116 6.396L3.907 8L5.375 7.306L6.843 8L6.633 6.395L7.75 5.219L6.153 4.92ZM11.403 4.92L10.625 3.5L9.847 4.92L8.25 5.219L9.366 6.395L9.157 8L10.625 7.306L12.093 8L11.883 6.395L13 5.219L11.403 4.92Z" fill="black"/>
</g>
<defs>
<clipPath id="clip0_5_2192">
<rect width="16" height="16" fill="white"/>
</clipPath>
</defs>
</svg>
