<svg width="16" height="16" viewBox="0 0 16 16" fill="none" xmlns="http://www.w3.org/2000/svg">
<path fill-rule="evenodd" clip-rule="evenodd" d="M13 6.5V13.5C13 13.7652 12.8946 14.0196 12.7071 14.2071C12.5196 14.3946 12.2652 14.5 12 14.5H9V12.5H7V10.5H9V8.5H7V6.5H5V8.5H7V10.5H5V12.5H7V14.5H4C3.73478 14.5 3.48043 14.3946 3.29289 14.2071C3.10536 14.0196 3 13.7652 3 13.5V1.5H8V6.5H13ZM14.5 6.5V13.5C14.5 14.163 14.2366 14.7989 13.7678 15.2678C13.2989 15.7366 12.663 16 12 16H4C3.33696 16 2.70107 15.7366 2.23223 15.2678C1.76339 14.7989 1.5 14.163 1.5 13.5V0H9.086C9.3512 5.66374e-05 9.60551 0.105451 9.793 0.293L14.207 4.707C14.3945 4.89449 14.4999 5.14881 14.5 5.414V6.5ZM9.5 2.121L12.379 5H9.5V2.121Z" fill="white"/>
</svg>
