<svg width="16" height="16" viewBox="0 0 16 16" fill="none" xmlns="http://www.w3.org/2000/svg">
<g clip-path="url(#clip0_5_2198)">
<mask id="mask0_5_2198" style="mask-type:luminance" maskUnits="userSpaceOnUse" x="0" y="0" width="16" height="16">
<path d="M0 0H16V16H0V0Z" fill="white"/>
</mask>
<g mask="url(#mask0_5_2198)">
<path fill-rule="evenodd" clip-rule="evenodd" d="M15.093 7.649C15.0053 6.24839 14.5219 4.90144 13.6991 3.76461C12.8763 2.62778 11.7478 1.74776 10.4447 1.22676C9.14167 0.705769 7.71753 0.565197 6.33776 0.821378C4.95799 1.07756 3.67922 1.71998 2.65003 2.674L3.67003 3.773C4.49111 3.01165 5.5114 2.49896 6.61232 2.29452C7.71324 2.09007 8.84958 2.20226 9.88926 2.61805C10.9289 3.03384 11.8293 3.73615 12.4856 4.64336C13.142 5.55057 13.5274 6.62543 13.597 7.743C13.664 8.813 14.061 10.103 15.135 10.83L15.975 9.588C15.455 9.236 15.148 8.505 15.095 7.649H15.093ZM1.22003 4.489C0.522193 5.73234 0.199194 7.15111 0.29003 8.574C0.41503 10.564 0.70103 12.534 1.14303 14.466L2.60603 14.131C2.18064 12.273 1.90707 10.3834 1.78803 8.481C1.71478 7.34631 1.9718 6.21471 2.52803 5.223L1.22003 4.489ZM11.931 8.15C11.8476 7.06216 11.3394 6.05087 10.5162 5.33481C9.69301 4.61875 8.62107 4.25548 7.53216 4.32354C6.44325 4.39161 5.42489 4.88554 4.69729 5.69853C3.96969 6.51153 3.59133 7.57824 3.64403 8.668C3.68903 9.398 3.76003 10.123 3.85403 10.845L5.34203 10.65C5.25148 9.96048 5.18444 9.26808 5.14103 8.574C5.1092 7.87896 5.3518 7.19924 5.81651 6.68142C6.28121 6.16359 6.93081 5.84913 7.62523 5.80583C8.31965 5.76254 9.00328 5.99388 9.52871 6.44997C10.0541 6.90607 10.3793 7.55039 10.434 8.244C10.473 8.857 10.534 9.468 10.616 10.074L12.102 9.872C12.0245 9.30025 11.9678 8.72587 11.932 8.15H11.931ZM13.002 13.875C12.7534 13.0916 12.5455 12.2959 12.379 11.491L10.91 11.795C11.075 12.591 11.278 13.379 11.518 14.155L13.002 13.875ZM14.65 24.82L10.85 25.568C11.4964 25.7625 12.1806 25.796 12.8429 25.6656C13.5052 25.5352 14.1256 25.2449 14.65 24.82ZM4.79803 15.42C4.54169 14.5156 4.32515 13.6004 4.14903 12.677L5.62303 12.397C5.79907 13.3212 6.01764 14.2369 6.27803 15.141L4.79803 15.42ZM8.11703 14.795L8.07803 14.665V14.661C7.46146 12.5414 7.08082 10.3602 6.94303 8.157C6.93322 7.95993 7.00147 7.76694 7.13298 7.61984C7.26449 7.47275 7.44867 7.3834 7.6456 7.37117C7.84253 7.35894 8.03635 7.4248 8.18506 7.55449C8.33376 7.68417 8.42537 7.86723 8.44003 8.064C8.57103 10.164 8.93403 12.235 9.51703 14.241L9.59803 14.515L8.11703 14.795Z" fill="white"/>
</g>
</g>
<defs>
<clipPath id="clip0_5_2198">
<rect width="16" height="16" fill="white"/>
</clipPath>
</defs>
</svg>
