<svg width="16" height="16" viewBox="0 0 16 16" fill="none" xmlns="http://www.w3.org/2000/svg">
<g clip-path="url(#clip0_5_2200)">
<mask id="mask0_5_2200" style="mask-type:luminance" maskUnits="userSpaceOnUse" x="0" y="0" width="16" height="16">
<path d="M0 0H16V16H0V0Z" fill="white"/>
</mask>
<g mask="url(#mask0_5_2200)">
<path fill-rule="evenodd" clip-rule="evenodd" d="M1.25 0C0.56 0 0 0.56 0 1.25V12.25C0 12.94 0.56 13.5 1.25 13.5H4.5V12H1.5V9.5H6V5.5H16V1.25C16 0.56 15.44 0 14.75 0H1.25ZM4.5 8H1.5V5.5H4.5V8ZM1.5 4H4.5V1.5H1.5V4ZM6 4V1.5H10V4H6ZM11.5 4H14.5V1.5H11.5V4ZM13.23 12C13.2 12.815 13.094 13.628 12.912 14.428C13.3861 14.1991 13.7975 13.8586 14.111 13.4357C14.4245 13.0128 14.6307 12.5201 14.712 12H13.23ZM11.805 14.736C11.6021 14.7548 11.3979 14.7548 11.195 14.736C10.9503 13.843 10.8077 12.9251 10.77 12H12.23C12.1923 12.9251 12.0497 13.843 11.805 14.736ZM13.23 11C13.1989 10.1825 13.0922 9.36973 12.911 8.572C13.3851 8.80092 13.7965 9.14144 14.11 9.56433C14.4235 9.98723 14.6297 10.4799 14.711 11H13.23ZM12.229 11C12.1913 10.0749 12.0487 9.15699 11.804 8.264C11.6011 8.2451 11.3969 8.2451 11.194 8.264C10.9496 9.15703 10.8074 10.0749 10.77 11H12.229ZM9.769 11C9.799 10.185 9.905 9.372 10.087 8.572C9.61313 8.80105 9.2019 9.14162 8.88856 9.56451C8.57523 9.98739 8.36915 10.48 8.288 11H9.77H9.769ZM10.087 14.428C9.905 13.628 9.799 12.815 9.768 12H8.29C8.37115 12.52 8.57723 13.0126 8.89056 13.4355C9.2039 13.8584 9.61513 14.199 10.089 14.428H10.087ZM11.5 16C12.6935 16 13.8381 15.5259 14.682 14.682C15.5259 13.8381 16 12.6935 16 11.5C16 10.3065 15.5259 9.16193 14.682 8.31802C13.8381 7.47411 12.6935 7 11.5 7C10.3065 7 9.16193 7.47411 8.31802 8.31802C7.47411 9.16193 7 10.3065 7 11.5C7 12.6935 7.47411 13.8381 8.31802 14.682C9.16193 15.5259 10.3065 16 11.5 16Z" fill="white"/>
<mask id="mask1_5_2200" style="mask-type:luminance" maskUnits="userSpaceOnUse" x="0" y="0" width="16" height="16">
<path fill-rule="evenodd" clip-rule="evenodd" d="M1.25 0C0.56 0 0 0.56 0 1.25V12.25C0 12.94 0.56 13.5 1.25 13.5H4.5V12H1.5V9.5H6V5.5H16V1.25C16 0.56 15.44 0 14.75 0H1.25ZM4.5 8H1.5V5.5H4.5V8ZM1.5 4H4.5V1.5H1.5V4ZM6 4V1.5H10V4H6ZM11.5 4H14.5V1.5H11.5V4ZM13.23 12C13.2 12.815 13.094 13.628 12.912 14.428C13.3861 14.1991 13.7975 13.8586 14.111 13.4357C14.4245 13.0128 14.6307 12.5201 14.712 12H13.23ZM11.805 14.736C11.6021 14.7548 11.3979 14.7548 11.195 14.736C10.9503 13.843 10.8077 12.9251 10.77 12H12.23C12.1923 12.9251 12.0497 13.843 11.805 14.736ZM13.23 11C13.1989 10.1825 13.0922 9.36973 12.911 8.572C13.3851 8.80092 13.7965 9.14144 14.11 9.56433C14.4235 9.98723 14.6297 10.4799 14.711 11H13.23ZM12.229 11C12.1913 10.0749 12.0487 9.15699 11.804 8.264C11.6011 8.2451 11.3969 8.2451 11.194 8.264C10.9496 9.15703 10.8074 10.0749 10.77 11H12.229ZM9.769 11C9.799 10.185 9.905 9.372 10.087 8.572C9.61313 8.80105 9.2019 9.14162 8.88856 9.56451C8.57523 9.98739 8.36915 10.48 8.288 11H9.77H9.769ZM10.087 14.428C9.905 13.628 9.799 12.815 9.768 12H8.29C8.37115 12.52 8.57723 13.0126 8.89056 13.4355C9.2039 13.8584 9.61513 14.199 10.089 14.428H10.087ZM11.5 16C12.6935 16 13.8381 15.5259 14.682 14.682C15.5259 13.8381 16 12.6935 16 11.5C16 10.3065 15.5259 9.16193 14.682 8.31802C13.8381 7.47411 12.6935 7 11.5 7C10.3065 7 9.16193 7.47411 8.31802 8.31802C7.47411 9.16193 7 10.3065 7 11.5C7 12.6935 7.47411 13.8381 8.31802 14.682C9.16193 15.5259 10.3065 16 11.5 16Z" fill="white"/>
</mask>
<g mask="url(#mask1_5_2200)">
<path d="M4.5 13.5V15L6 13.5H4.5ZM4.5 12H6L4.5 10.5V12ZM1.5 12H0L1.5 13.5V12ZM1.5 9.5V8L0 9.5H1.5ZM6 9.5V11L7.5 9.5H6ZM6 5.5V4L4.5 5.5H6ZM16 5.5V7L17.5 5.5H16ZM1.5 8H0L1.5 9.5V8ZM4.5 8V9.5L6 8H4.5ZM1.5 5.5V4L0 5.5H1.5ZM4.5 5.5H6L4.5 4V5.5ZM4.5 4V5.5L6 4H4.5ZM1.5 4H0L1.5 5.5V4ZM4.5 1.5H6L4.5 0V1.5ZM1.5 1.5V0L0 1.5H1.5ZM6 1.5V0L4.5 1.5H6ZM6 4H4.5L6 5.5V4ZM10 1.5H11.5L10 0V1.5ZM10 4V5.5L11.5 4H10ZM14.5 4V5.5L16 4H14.5ZM11.5 4H10L11.5 5.5V4ZM14.5 1.5H16L14.5 0V1.5ZM11.5 1.5V0L10 1.5H11.5ZM13.23 12V10.5L11.732 11.943L13.23 12ZM12.912 14.428L11.449 14.096L13.565 15.778L12.912 14.428ZM14.712 12L16.194 12.229L14.712 10.5V12ZM11.805 14.736L11.944 16.23L13.251 15.132L11.805 14.736ZM11.195 14.736L9.749 15.132L11.056 16.23L11.196 14.736H11.195ZM10.77 12V10.5L9.271 12.061L10.77 12ZM12.23 12L13.729 12.061L12.23 10.5V12ZM12.912 8.572L13.565 7.222L11.45 8.904L12.912 8.572ZM13.231 11L11.731 11.057L13.231 12.5V11ZM14.711 11V12.5L16.194 10.771L14.711 11ZM12.23 11V12.5L13.729 10.939L12.23 11ZM11.805 8.264L13.251 7.868L11.944 6.771L11.804 8.264H11.805ZM11.195 8.264L11.056 6.771L9.75 7.868L11.196 8.264H11.195ZM10.77 11L9.271 10.939L10.77 12.5V11ZM10.088 8.572L11.551 8.904L9.435 7.222L10.088 8.572ZM9.769 11V12.5L11.269 11.057L9.769 11ZM8.289 11L6.806 10.771L8.288 12.5L8.289 11ZM9.769 12L11.269 11.943L9.769 10.5V12ZM10.088 14.428L9.435 15.778L11.55 14.096L10.088 14.428ZM8.288 12V10.5L6.806 12.229L8.288 12ZM1.5 1.25C1.5 1.3163 1.47366 1.37989 1.42678 1.42678C1.37989 1.47366 1.3163 1.5 1.25 1.5V-1.5C0.520655 -1.5 -0.178819 -1.21027 -0.694544 -0.694544C-1.21027 -0.178819 -1.5 0.520655 -1.5 1.25H1.5ZM1.5 12.25V1.25H-1.5V12.25H1.5ZM1.25 12C1.3163 12 1.37989 12.0263 1.42678 12.0732C1.47366 12.1201 1.5 12.1837 1.5 12.25H-1.5C-1.5 12.9793 -1.21027 13.6788 -0.694544 14.1945C-0.178819 14.7103 0.520655 15 1.25 15V12ZM4.5 12H1.25V15H4.5V12ZM3 12V13.5H6V12H3ZM1.5 13.5H4.5V10.5H1.5V13.5ZM0 9.5V12H3V9.5H0ZM5.25 8H1.5V11H5.25V8ZM6 8H5.25V11H6V8ZM4.5 8.75V9.5H7.5V8.75H4.5ZM4.5 5.5V8.75H7.5V5.5H4.5ZM15.25 4H6V7H15.25V4ZM16 4H15.25V7H16V4ZM14.5 4.75V5.5H17.5V4.75H14.5ZM14.5 1.25V4.75H17.5V1.25H14.5ZM14.75 1.5C14.6837 1.5 14.6201 1.47366 14.5732 1.42678C14.5263 1.37989 14.5 1.3163 14.5 1.25H17.5C17.5 0.520655 17.2103 -0.178819 16.6945 -0.694544C16.1788 -1.21027 15.4793 -1.5 14.75 -1.5V1.5ZM1.25 1.5H14.75V-1.5H1.25V1.5ZM1.5 9.5H4.5V6.5H1.5V9.5ZM0 5.5V8H3V5.5H0ZM4.5 4H1.5V7H4.5V4ZM6 8V5.5H3V8H6ZM4.5 2.5H1.5V5.5H4.5V2.5ZM3 1.5V4H6V1.5H3ZM1.5 3H4.5V0H1.5V3ZM3 4V1.5H0V4H3ZM4.5 1.5V4H7.5V1.5H4.5ZM10 0H6V3H10V0ZM11.5 4V1.5H8.5V4H11.5ZM6 5.5H10V2.5H6V5.5ZM14.5 2.5H11.5V5.5H14.5V2.5ZM13 1.5V4H16V1.5H13ZM11.5 3H14.5V0H11.5V3ZM13 4V1.5H10V4H13ZM11.732 11.943C11.7047 12.6678 11.6093 13.3886 11.449 14.096L14.375 14.76C14.577 13.869 14.695 12.964 14.73 12.057L11.732 11.943ZM13.229 11.771C13.1849 12.0509 13.0736 12.3159 12.9047 12.5433C12.7357 12.7708 12.5142 12.9539 12.259 13.077L13.565 15.778C14.258 15.4433 14.8593 14.9454 15.3174 14.3271C15.7755 13.7087 16.0767 12.9884 16.195 12.228L13.229 11.771ZM13.231 13.5H14.711L14.712 10.5H13.231V13.5ZM11.666 13.242C11.6108 13.2473 11.5554 13.2499 11.5 13.25V16.25C11.65 16.25 11.797 16.243 11.944 16.23L11.666 13.242ZM11.5 13.25C11.4446 13.2499 11.3892 13.2473 11.334 13.242L11.056 16.23C11.203 16.243 11.351 16.25 11.5 16.25V13.25ZM12.642 14.34C12.4272 13.5564 12.3021 12.7509 12.269 11.939L9.271 12.061C9.3136 13.0998 9.47396 14.1294 9.749 15.132L12.642 14.339V14.34ZM10.77 13.5H12.23V10.5H10.77V13.5ZM13.251 15.132C13.527 14.125 13.687 13.095 13.729 12.061L10.731 11.939C10.6978 12.7505 10.5727 13.5557 10.358 14.339L13.251 15.132ZM11.45 8.903C11.61 9.613 11.705 10.334 11.732 11.057L14.73 10.943C14.6954 10.033 14.5766 9.1281 14.375 8.24L11.45 8.904V8.903ZM16.194 10.771C16.0758 10.0107 15.7748 9.29044 15.3169 8.6721C14.859 8.05375 14.2578 7.5568 13.565 7.222L12.26 9.924C12.77 10.17 13.14 10.657 13.23 11.23L16.194 10.772V10.771ZM13.231 12.5H14.711V9.5H13.231V12.5ZM13.729 10.939C13.6864 9.90054 13.526 8.87028 13.251 7.868L10.358 8.661C10.574 9.448 10.698 10.253 10.731 11.061L13.729 10.939ZM11.944 6.771C11.7964 6.75713 11.6482 6.74912 11.5 6.749V9.749C11.556 9.749 11.612 9.752 11.666 9.757L11.944 6.771ZM11.5 6.749C11.35 6.749 11.203 6.758 11.056 6.771L11.334 9.758C11.3892 9.75276 11.4446 9.7501 11.5 9.75V6.749ZM9.749 7.868C9.4741 8.86997 9.31374 9.89988 9.271 10.938L12.269 11.061C12.302 10.253 12.426 9.448 12.642 8.661L9.749 7.868ZM10.77 12.5H12.23V9.5H10.77V12.5ZM8.625 8.24C8.423 9.131 8.305 10.036 8.27 10.943L11.268 11.057C11.295 10.334 11.391 9.613 11.551 8.904L8.625 8.24ZM9.77 11.23C9.858 10.657 10.228 10.17 10.74 9.924L9.434 7.222C8.74103 7.55667 8.13966 8.05457 7.68156 8.67292C7.22346 9.29128 6.92231 10.0116 6.804 10.772L9.77 11.23ZM9.769 9.5H8.29V12.5H9.77V9.5H9.769ZM8.27 12.057C8.305 12.964 8.423 13.869 8.625 14.76L11.55 14.096C11.39 13.386 11.295 12.666 11.268 11.943L8.27 12.057ZM8.288 13.5H9.77V10.5H8.29V13.5H8.288ZM10.74 13.077C10.4849 12.9538 10.2634 12.7707 10.0944 12.5433C9.92551 12.3158 9.81419 12.0508 9.77 11.771L6.806 12.229C6.92421 12.9893 7.2252 13.7096 7.68313 14.3279C8.14105 14.9462 8.74222 15.4432 9.435 15.778L10.74 13.077ZM14.5 11.5C14.5 12.2956 14.1839 13.0587 13.6213 13.6213C13.0587 14.1839 12.2956 14.5 11.5 14.5V17.5C13.0913 17.5 14.6174 16.8679 15.7426 15.7426C16.8679 14.6174 17.5 13.0913 17.5 11.5H14.5ZM11.5 8.5C12.2956 8.5 13.0587 8.81607 13.6213 9.37868C14.1839 9.94129 14.5 10.7044 14.5 11.5H17.5C17.5 9.9087 16.8679 8.38258 15.7426 7.25736C14.6174 6.13214 13.0913 5.5 11.5 5.5V8.5ZM8.5 11.5C8.5 10.7044 8.81607 9.94129 9.37868 9.37868C9.94129 8.81607 10.7044 8.5 11.5 8.5V5.5C9.9087 5.5 8.38258 6.13214 7.25736 7.25736C6.13214 8.38258 5.5 9.9087 5.5 11.5H8.5ZM11.5 14.5C10.7044 14.5 9.94129 14.1839 9.37868 13.6213C8.81607 13.0587 8.5 12.2956 8.5 11.5H5.5C5.5 13.0913 6.13214 14.6174 7.25736 15.7426C8.38258 16.8679 9.9087 17.5 11.5 17.5V14.5Z" fill="white"/>
</g>
</g>
</g>
<defs>
<clipPath id="clip0_5_2200">
<rect width="16" height="16" fill="white"/>
</clipPath>
</defs>
</svg>
