<svg width="16" height="16" viewBox="0 0 16 16" fill="none" xmlns="http://www.w3.org/2000/svg">
<g clip-path="url(#clip0_5_2199)">
<mask id="mask0_5_2199" style="mask-type:luminance" maskUnits="userSpaceOnUse" x="0" y="0" width="16" height="16">
<path d="M0 0H16V16H0V0Z" fill="white"/>
</mask>
<g mask="url(#mask0_5_2199)">
<path fill-rule="evenodd" clip-rule="evenodd" d="M0 1.25C0 0.56 0.56 0 1.25 0H14.75C15.44 0 16 0.56 16 1.25V5.5H6V9.5H1.5V12H4.5V13.5H1.25C0.56 13.5 0 12.94 0 12.25V1.25ZM1.5 8H4.5V5.5H1.5V8ZM4.5 4H1.5V1.5H4.5V4ZM6 1.5V4H10V1.5H6ZM14.5 4H11.5V1.5H14.5V4ZM16 11.5C16 12.6935 15.5259 13.8381 14.682 14.682C13.8381 15.5259 12.6935 16 11.5 16C10.3065 16 9.16193 15.5259 8.31802 14.682C7.47411 13.8381 7 12.6935 7 11.5C7 10.3065 7.47411 9.16193 8.31802 8.31802C9.16193 7.47411 10.3065 7 11.5 7C12.6935 7 13.8381 7.47411 14.682 8.31802C15.5259 9.16193 16 10.3065 16 11.5ZM14.286 10.363L13.844 10.805L11.241 13.408C11.1597 13.4893 11.0632 13.5539 10.957 13.5979C10.8508 13.6419 10.737 13.6646 10.622 13.6646C10.507 13.6646 10.3932 13.6419 10.287 13.5979C10.1808 13.5539 10.0843 13.4893 10.003 13.408L9.156 12.561L8.714 12.119L9.598 11.235L10.04 11.677L10.622 12.259L12.96 9.921L13.402 9.479L14.286 10.363Z" fill="white"/>
<mask id="mask1_5_2199" style="mask-type:luminance" maskUnits="userSpaceOnUse" x="0" y="0" width="16" height="16">
<path fill-rule="evenodd" clip-rule="evenodd" d="M0 1.25C0 0.56 0.56 0 1.25 0H14.75C15.44 0 16 0.56 16 1.25V5.5H6V9.5H1.5V12H4.5V13.5H1.25C0.56 13.5 0 12.94 0 12.25V1.25ZM1.5 8H4.5V5.5H1.5V8ZM4.5 4H1.5V1.5H4.5V4ZM6 1.5V4H10V1.5H6ZM14.5 4H11.5V1.5H14.5V4ZM16 11.5C16 12.6935 15.5259 13.8381 14.682 14.682C13.8381 15.5259 12.6935 16 11.5 16C10.3065 16 9.16193 15.5259 8.31802 14.682C7.47411 13.8381 7 12.6935 7 11.5C7 10.3065 7.47411 9.16193 8.31802 8.31802C9.16193 7.47411 10.3065 7 11.5 7C12.6935 7 13.8381 7.47411 14.682 8.31802C15.5259 9.16193 16 10.3065 16 11.5ZM14.286 10.363L13.844 10.805L11.241 13.408C11.1597 13.4893 11.0632 13.5539 10.957 13.5979C10.8508 13.6419 10.737 13.6646 10.622 13.6646C10.507 13.6646 10.3932 13.6419 10.287 13.5979C10.1808 13.5539 10.0843 13.4893 10.003 13.408L9.156 12.561L8.714 12.119L9.598 11.235L10.04 11.677L10.622 12.259L12.96 9.921L13.402 9.479L14.286 10.363Z" fill="white"/>
</mask>
<g mask="url(#mask1_5_2199)">
<path d="M16 5.5V7L17.5 5.5H16ZM6 5.5V4L4.5 5.5H6ZM6 9.5V11L7.5 9.5H6ZM1.5 9.5V8L0 9.5H1.5ZM1.5 12H0L1.5 13.5V12ZM4.5 12H6L4.5 10.5V12ZM4.5 13.5V15L6 13.5H4.5ZM4.5 8V9.5L6 8H4.5ZM1.5 8H0L1.5 9.5V8ZM4.5 5.5H6L4.5 4V5.5ZM1.5 5.5V4L0 5.5H1.5ZM1.5 4H0L1.5 5.5V4ZM4.5 4V5.5L6 4H4.5ZM1.5 1.5V0L0 1.5H1.5ZM4.5 1.5H6L4.5 0V1.5ZM6 4H4.5L6 5.5V4ZM6 1.5V0L4.5 1.5H6ZM10 4V5.5L11.5 4H10ZM10 1.5H11.5L10 0V1.5ZM11.5 4H10L11.5 5.5V4ZM14.5 4V5.5L16 4H14.5ZM11.5 1.5V0L10 1.5H11.5ZM14.5 1.5H16L14.5 0V1.5ZM14.286 10.363L15.346 11.423V9.303L14.286 10.363ZM10.003 13.408L8.943 14.469L10.003 13.409V13.408ZM8.714 12.119L7.654 11.059V13.179L8.714 12.119ZM9.598 11.235L10.658 10.175H8.537L9.598 11.235ZM10.04 11.677L8.979 12.737L10.039 11.677H10.04ZM10.622 12.259L9.562 13.32H11.682L10.622 12.26V12.259ZM13.402 9.479L14.462 8.419H12.342L13.402 9.479ZM1.25 -1.5C0.520655 -1.5 -0.178819 -1.21027 -0.694544 -0.694544C-1.21027 -0.178819 -1.5 0.520655 -1.5 1.25H1.5C1.5 1.3163 1.47366 1.37989 1.42678 1.42678C1.37989 1.47366 1.3163 1.5 1.25 1.5V-1.5ZM14.75 -1.5H1.25V1.5H14.75V-1.5ZM17.5 1.25C17.5 0.520655 17.2103 -0.178819 16.6945 -0.694544C16.1788 -1.21027 15.4793 -1.5 14.75 -1.5V1.5C14.6837 1.5 14.6201 1.47366 14.5732 1.42678C14.5263 1.37989 14.5 1.3163 14.5 1.25H17.5ZM17.5 4.75V1.25H14.5V4.75H17.5ZM17.5 5.5V4.75H14.5V5.5H17.5ZM15.25 7H16V4H15.25V7ZM6 7H15.25V4H6V7ZM7.5 8.75V5.5H4.5V8.75H7.5ZM7.5 9.5V8.75H4.5V9.5H7.5ZM5.25 11H6V8H5.25V11ZM1.5 11H5.25V8H1.5V11ZM3 12V9.5H0V12H3ZM4.5 10.5H1.5V13.5H4.5V10.5ZM6 13.5V12H3V13.5H6ZM1.25 15H4.5V12H1.25V15ZM-1.5 12.25C-1.5 12.9793 -1.21027 13.6788 -0.694544 14.1945C-0.178819 14.7103 0.520655 15 1.25 15V12C1.3163 12 1.37989 12.0263 1.42678 12.0732C1.47366 12.1201 1.5 12.1837 1.5 12.25H-1.5ZM-1.5 1.25V12.25H1.5V1.25H-1.5ZM4.5 6.5H1.5V9.5H4.5V6.5ZM3 5.5V8H6V5.5H3ZM1.5 7H4.5V4H1.5V7ZM3 8V5.5H0V8H3ZM1.5 5.5H4.5V2.5H1.5V5.5ZM0 1.5V4H3V1.5H0ZM4.5 0H1.5V3H4.5V0ZM6 4V1.5H3V4H6ZM7.5 4V1.5H4.5V4H7.5ZM10 2.5H6V5.5H10V2.5ZM8.5 1.5V4H11.5V1.5H8.5ZM6 3H10V0H6V3ZM11.5 5.5H14.5V2.5H11.5V5.5ZM10 1.5V4H13V1.5H10ZM14.5 0H11.5V3H14.5V0ZM16 4V1.5H13V4H16ZM11.5 17.5C13.0913 17.5 14.6174 16.8679 15.7426 15.7426C16.8679 14.6174 17.5 13.0913 17.5 11.5H14.5C14.5 12.2956 14.1839 13.0587 13.6213 13.6213C13.0587 14.1839 12.2956 14.5 11.5 14.5V17.5ZM5.5 11.5C5.5 13.0913 6.13214 14.6174 7.25736 15.7426C8.38258 16.8679 9.9087 17.5 11.5 17.5V14.5C10.7044 14.5 9.94129 14.1839 9.37868 13.6213C8.81607 13.0587 8.5 12.2956 8.5 11.5H5.5ZM11.5 5.5C9.9087 5.5 8.38258 6.13214 7.25736 7.25736C6.13214 8.38258 5.5 9.9087 5.5 11.5H8.5C8.5 10.7044 8.81607 9.94129 9.37868 9.37868C9.94129 8.81607 10.7044 8.5 11.5 8.5V5.5ZM17.5 11.5C17.5 9.9087 16.8679 8.38258 15.7426 7.25736C14.6174 6.13214 13.0913 5.5 11.5 5.5V8.5C12.2956 8.5 13.0587 8.81607 13.6213 9.37868C14.1839 9.94129 14.5 10.7044 14.5 11.5H17.5ZM14.905 11.866L15.347 11.424L13.226 9.302L12.783 9.744L14.905 11.866ZM12.3 14.469L14.905 11.866L12.783 9.744L10.179 12.348L12.3 14.469ZM8.943 14.469C9.38837 14.9142 9.9913 15.1642 10.621 15.1642C11.2507 15.1642 11.8546 14.9142 12.3 14.469L10.181 12.348C10.2982 12.2311 10.456 12.1654 10.6215 12.1654C10.787 12.1654 10.9458 12.2311 11.063 12.348L8.943 14.469ZM8.094 13.621L8.943 14.469L11.063 12.348L10.215 11.5L8.095 13.621H8.094ZM7.652 13.18L8.094 13.621L10.216 11.501L9.773 11.058L7.652 13.18ZM8.536 10.174L7.652 11.058L9.773 13.18L10.657 12.296L8.536 10.174ZM11.099 10.616L10.657 10.174L8.536 12.296L8.978 12.738L11.099 10.616ZM11.682 11.199L11.099 10.616L8.978 12.738L9.56 13.32L11.682 11.199ZM11.9 8.86L9.56 11.2L11.682 13.321L14.02 10.983L11.9 8.86ZM12.342 8.419L11.9 8.86L14.021 10.982L14.463 10.54L12.342 8.419ZM15.347 9.302L14.463 8.418L12.342 10.54L13.225 11.424L15.347 9.302Z" fill="white"/>
</g>
</g>
</g>
<defs>
<clipPath id="clip0_5_2199">
<rect width="16" height="16" fill="white"/>
</clipPath>
</defs>
</svg>
