<svg width="16" height="16" viewBox="0 0 16 16" fill="none" xmlns="http://www.w3.org/2000/svg">
<path fill-rule="evenodd" clip-rule="evenodd" d="M2.5 2.384C3.39536 1.80954 4.4362 1.50283 5.5 1.5C6.368 1.5 7.017 1.917 7.764 2.476L7.917 2.59C8.233 2.828 8.585 3.094 8.949 3.3C9.387 3.55 9.9 3.75 10.5 3.75C11.477 3.75 12.508 3.468 13.259 3.209C13.342 3.18 13.423 3.152 13.5 3.123V8.82C13.366 8.89 13.192 8.97 12.982 9.053C12.412 9.275 11.582 9.501 10.557 9.501C9.651 9.501 9.114 9.173 8.427 8.741L8.405 8.727C7.705 8.287 6.853 7.751 5.5 7.751C4.46269 7.75312 3.43853 7.98322 2.5 8.425V2.384ZM2.5 10.134V16H1V1.652L1.266 1.427L1.268 1.426L1.27 1.424L1.277 1.418L1.297 1.402C1.3942 1.32492 1.49427 1.25154 1.597 1.182C2.75397 0.41384 4.11125 0.00279552 5.5 0C6.904 0.001 7.904 0.709 8.662 1.275L8.831 1.402C9.152 1.643 9.417 1.842 9.69 1.997C9.993 2.17 10.248 2.251 10.5 2.251C11.227 2.251 12.072 2.033 12.77 1.792C13.1553 1.65833 13.5337 1.50581 13.904 1.335L13.918 1.328H13.921L15 0.799V9.64L14.682 9.863L14.25 9.25C14.682 9.863 14.681 9.863 14.681 9.864L14.677 9.867L14.67 9.871L14.65 9.885L14.585 9.927C14.531 9.961 14.455 10.007 14.357 10.062C14.0899 10.2089 13.8133 10.3379 13.529 10.448C12.5813 10.8152 11.5734 11.0024 10.557 11C9.204 11 8.353 10.465 7.652 10.024L7.629 10.01C6.942 9.578 6.405 9.25 5.5 9.25C4.43619 9.25278 3.39533 9.55949 2.5 10.134Z" fill="white"/>
</svg>
