<svg width="16" height="16" viewBox="0 0 16 16" fill="none" xmlns="http://www.w3.org/2000/svg">
<path fill-rule="evenodd" clip-rule="evenodd" d="M1.75 0H2.5C5.12 0 7.29 1.313 9.151 2.491L9.483 2.702C10.309 3.227 11.071 3.712 11.831 4.085C12.683 4.504 13.471 4.75 14.25 4.75L14.666 6.124L14.664 6.125L14.661 6.127L14.651 6.134L14.613 6.159C14.4023 6.29269 14.1882 6.42106 13.971 6.544C13.539 6.788 12.921 7.113 12.174 7.438C10.69 8.083 8.644 8.75 6.5 8.75C4.62 8.75 3.636 9.22 3.13 9.68C2.623 10.14 2.5 10.675 2.5 11V16H1V0H1.75ZM2.5 1.5V8.266C3.377 7.647 4.666 7.25 6.5 7.25C8.355 7.25 10.185 6.667 11.576 6.062C11.756 5.984 11.926 5.906 12.088 5.83C11.7752 5.71215 11.4684 5.57865 11.169 5.43C10.33 5.019 9.493 4.486 8.677 3.967L8.35 3.76C6.46 2.562 4.63 1.5 2.5 1.5Z" fill="white"/>
</svg>
