<svg width="16" height="16" viewBox="0 0 16 16" fill="none" xmlns="http://www.w3.org/2000/svg">
<path fill-rule="evenodd" clip-rule="evenodd" d="M13.5 4V6H2.5V2.5H6L7.333 3.5C7.766 3.825 8.293 4 8.833 4H13.5ZM1 6V1H6.167C6.38337 1 6.5939 1.07018 6.767 1.2L8.233 2.3C8.4061 2.42982 8.61663 2.5 8.833 2.5H15V6H16L15.833 7.5L15.247 12.776C15.1791 13.3875 14.888 13.9525 14.4295 14.3629C13.971 14.7732 13.3773 15.0001 12.762 15H3.238C2.6227 15.0001 2.02898 14.7732 1.57049 14.3629C1.112 13.9525 0.820929 13.3875 0.753 12.776L0.167 7.5L0 6H1ZM14 7.5H1.676L2.244 12.61C2.27108 12.8547 2.38747 13.0808 2.57087 13.245C2.75428 13.4092 2.99182 13.5 3.238 13.5H12.762C13.0082 13.5 13.2457 13.4092 13.4291 13.245C13.6125 13.0808 13.7289 12.8547 13.756 12.61L14.324 7.5H14Z" fill="white"/>
</svg>
