<svg width="16" height="16" viewBox="0 0 16 16" fill="none" xmlns="http://www.w3.org/2000/svg">
<path fill-rule="evenodd" clip-rule="evenodd" d="M14.5 12.5V4H8.833C8.29207 4 7.76574 3.82456 7.333 3.5L6 2.5H1.5V12.5C1.5 12.7652 1.60536 13.0196 1.79289 13.2071C1.98043 13.3946 2.23478 13.5 2.5 13.5H13.5C13.7652 13.5 14.0196 13.3946 14.2071 13.2071C14.3946 13.0196 14.5 12.7652 14.5 12.5ZM1.5 1H0V12.5C0 13.163 0.263392 13.7989 0.732233 14.2678C1.20107 14.7366 1.83696 15 2.5 15H13.5C14.163 15 14.7989 14.7366 15.2678 14.2678C15.7366 13.7989 16 13.163 16 12.5V2.5H8.833C8.61663 2.5 8.4061 2.42982 8.233 2.3L6.767 1.2C6.5939 1.07018 6.38337 1 6.167 1H1.5ZM5.25 8H7.25V6H8.75V8H10.75V9.5H8.75V11.5H7.25V9.5H5.25V8Z" fill="white"/>
</svg>
