<svg width="16" height="16" viewBox="0 0 16 16" fill="none" xmlns="http://www.w3.org/2000/svg">
<g clip-path="url(#clip0_5_2204)">
<path fill-rule="evenodd" clip-rule="evenodd" d="M14.5 7.5V12.5C14.5 12.7652 14.3946 13.0196 14.2071 13.2071C14.0196 13.3946 13.7652 13.5 13.5 13.5H2.5C2.23478 13.5 1.98043 13.3946 1.79289 13.2071C1.60536 13.0196 1.5 12.7652 1.5 12.5V7.5H14.5ZM14.5 6V4H8.833C8.29207 4 7.76574 3.82456 7.333 3.5L6 2.5H1.5V6H14.5ZM0 1H6.167C6.38337 1 6.5939 1.07018 6.767 1.2L8.233 2.3C8.4061 2.42982 8.61663 2.5 8.833 2.5H16V12.5C16 13.163 15.7366 13.7989 15.2678 14.2678C14.7989 14.7366 14.163 15 13.5 15H2.5C1.83696 15 1.20107 14.7366 0.732233 14.2678C0.263392 13.7989 0 13.163 0 12.5L0 1Z" fill="white"/>
</g>
<defs>
<clipPath id="clip0_5_2204">
<rect width="16" height="16" fill="white"/>
</clipPath>
</defs>
</svg>
