<svg width="16" height="16" viewBox="0 0 16 16" fill="none" xmlns="http://www.w3.org/2000/svg">
<g clip-path="url(#clip0_5_2209)">
<path fill-rule="evenodd" clip-rule="evenodd" d="M7.55964e-08 7.945C-0.000201765 6.57121 0.403783 5.22772 1.16164 4.08187C1.91949 2.93602 2.99771 2.03847 4.262 1.501H1V0.000999451H5.925C6.19022 0.000999451 6.44457 0.106356 6.63211 0.293893C6.81964 0.481429 6.925 0.735783 6.925 1.001V5.926H5.425V2.674C4.15844 3.05138 3.07012 3.87219 2.35917 4.98625C1.64822 6.1003 1.36218 7.43311 1.5534 8.74078C1.74461 10.0485 2.40029 11.2436 3.40047 12.1074C4.40064 12.9712 5.67842 13.4461 7 13.445H7.75V14.945H7C5.14348 14.945 3.36301 14.2075 2.05025 12.8947C0.737498 11.582 7.55964e-08 9.80152 7.55964e-08 7.945ZM14.37 5.628C13.474 5.628 12.748 6.354 12.748 7.25V9.38C12.748 9.81031 12.9189 10.223 13.2232 10.5273C13.5275 10.8316 13.9402 11.0025 14.3705 11.0025C14.8008 11.0025 15.2135 10.8316 15.5178 10.5273C15.8221 10.223 15.993 9.81031 15.993 9.38V7.25C15.993 6.354 15.266 5.628 14.37 5.628ZM13.993 7.25C13.993 7.14988 14.0328 7.05386 14.1036 6.98307C14.1744 6.91227 14.2704 6.8725 14.3705 6.8725C14.4706 6.8725 14.5666 6.91227 14.6374 6.98307C14.7082 7.05386 14.748 7.14988 14.748 7.25V9.38C14.748 9.48012 14.7082 9.57614 14.6374 9.64693C14.5666 9.71773 14.4706 9.7575 14.3705 9.7575C14.2704 9.7575 14.1744 9.71773 14.1036 9.64693C14.0328 9.57614 13.993 9.48012 13.993 9.38V7.25ZM11.243 6.373C11.2431 6.2783 11.2216 6.18483 11.1802 6.0997C11.1387 6.01457 11.0783 5.94004 11.0037 5.88178C10.929 5.82352 10.842 5.78308 10.7494 5.76353C10.6567 5.74399 10.5608 5.74586 10.469 5.769L9.469 6.019L8.865 6.17L9.167 7.378L9.771 7.227L9.997 7.17V9.75H8.997V10.995H12.243V9.75H11.243V6.373Z" fill="white"/>
</g>
<defs>
<clipPath id="clip0_5_2209">
<rect width="16" height="16" fill="white"/>
</clipPath>
</defs>
</svg>
