<svg width="16" height="16" viewBox="0 0 16 16" fill="none" xmlns="http://www.w3.org/2000/svg">
<path fill-rule="evenodd" clip-rule="evenodd" d="M6 1V5C6 5.26522 5.89464 5.51957 5.70711 5.70711C5.51957 5.89464 5.26522 6 5 6H1V4.5H4.5V1H6ZM14.25 6H15V4.5H11.5V1H10V5C10 5.26522 10.1054 5.51957 10.2929 5.70711C10.4804 5.89464 10.7348 6 11 6H14.25ZM10 14.25V15H11.5V11.5H15.04V10H11C10.7348 10 10.4804 10.1054 10.2929 10.2929C10.1054 10.4804 10 10.7348 10 11V14.25ZM1.75 10H1V11.5H4.5V15H6V11C6 10.7348 5.89464 10.4804 5.70711 10.2929C5.51957 10.1054 5.26522 10 5 10H1.75Z" fill="white"/>
</svg>
