<svg width="16" height="16" viewBox="0 0 16 16" fill="none" xmlns="http://www.w3.org/2000/svg">
<g clip-path="url(#clip0_5_2222)">
<path d="M15.25 8V2.25C15.25 1.85218 15.092 1.47064 14.8107 1.18934C14.5294 0.908035 14.1478 0.75 13.75 0.75H2.25C1.85218 0.75 1.47064 0.908035 1.18934 1.18934C0.908035 1.47064 0.75 1.85218 0.75 2.25V13.75C0.75 14.1478 0.908035 14.5294 1.18934 14.8107C1.47064 15.092 1.85218 15.25 2.25 15.25H8" fill="black"/>
<path d="M15.25 8V2.25C15.25 1.85218 15.092 1.47064 14.8107 1.18934C14.5294 0.908035 14.1478 0.75 13.75 0.75H2.25C1.85218 0.75 1.47064 0.908035 1.18934 1.18934C0.908035 1.47064 0.75 1.85218 0.75 2.25V13.75C0.75 14.1478 0.908035 14.5294 1.18934 14.8107C1.47064 15.092 1.85218 15.25 2.25 15.25H8" stroke="white" stroke-width="1.5" stroke-linejoin="round"/>
<path d="M9.24603 4.25C8.65035 4.25 8.07907 4.48663 7.65787 4.90784C7.23666 5.32905 7.00003 5.90032 7.00003 6.496V9.504C7.00003 9.79895 6.94193 10.091 6.82906 10.3635C6.71619 10.636 6.55075 10.8836 6.34219 11.0922C6.13363 11.3007 5.88603 11.4662 5.61353 11.579C5.34104 11.6919 5.04898 11.75 4.75403 11.75M5.25003 7.75H8.75003H5.25003Z" fill="black"/>
<path d="M9.24603 4.25C8.65035 4.25 8.07907 4.48663 7.65787 4.90784C7.23666 5.32905 7.00003 5.90032 7.00003 6.496V9.504C7.00003 9.79895 6.94193 10.091 6.82906 10.3635C6.71619 10.636 6.55075 10.8836 6.34219 11.0922C6.13363 11.3007 5.88603 11.4662 5.61353 11.579C5.34104 11.6919 5.04898 11.75 4.75403 11.75M5.25003 7.75H8.75003" stroke="white" stroke-width="1.5" stroke-linecap="square" stroke-linejoin="round"/>
<path d="M15.725 11.386L14.548 10.048H10.452L9.27503 11.386C9.10639 11.5779 9.01761 11.8271 9.02691 12.0824C9.03621 12.3378 9.14288 12.5798 9.32503 12.759L12.5 15.877L15.675 12.759C15.8572 12.5798 15.9638 12.3378 15.9731 12.0824C15.9824 11.8271 15.8937 11.5779 15.725 11.386Z" fill="#CA2A30"/>
<path fill-rule="evenodd" clip-rule="evenodd" d="M12.466 9.488C13.669 9.493 14.8 9.917 14.797 10.517C14.794 11.117 13.745 11.533 12.542 11.529C11.34 11.524 10.198 11.129 10.202 10.529C10.204 9.929 11.264 9.484 12.466 9.489V9.488Z" fill="#F87274"/>
</g>
<defs>
<clipPath id="clip0_5_2222">
<rect width="16" height="16" fill="white"/>
</clipPath>
</defs>
</svg>
