<svg width="16" height="16" viewBox="0 0 16 16" fill="none" xmlns="http://www.w3.org/2000/svg">
<g clip-path="url(#clip0_5_2216)">
<path d="M15.25 8V2.25C15.25 1.85218 15.092 1.47064 14.8107 1.18934C14.5294 0.908035 14.1478 0.75 13.75 0.75H2.25C1.85218 0.75 1.47064 0.908035 1.18934 1.18934C0.908035 1.47064 0.75 1.85218 0.75 2.25V13.75C0.75 14.1478 0.908035 14.5294 1.18934 14.8107C1.47064 15.092 1.85218 15.25 2.25 15.25H8" fill="black"/>
<path d="M15.25 8V2.25C15.25 1.85218 15.092 1.47064 14.8107 1.18934C14.5294 0.908035 14.1478 0.75 13.75 0.75H2.25C1.85218 0.75 1.47064 0.908035 1.18934 1.18934C0.908035 1.47064 0.75 1.85218 0.75 2.25V13.75C0.75 14.1478 0.908035 14.5294 1.18934 14.8107C1.47064 15.092 1.85218 15.25 2.25 15.25H8" stroke="white" stroke-width="1.5" stroke-linejoin="round"/>
<path d="M9.246 4.25C8.65032 4.25 8.07904 4.48663 7.65784 4.90784C7.23663 5.32905 7 5.90032 7 6.496V9.504C7 9.79895 6.9419 10.091 6.82903 10.3635C6.71616 10.636 6.55072 10.8836 6.34216 11.0922C6.1336 11.3007 5.886 11.4662 5.6135 11.579C5.34101 11.6919 5.04895 11.75 4.754 11.75M5.25 7.75H8.75H5.25Z" fill="black"/>
<path d="M9.246 4.25C8.65032 4.25 8.07904 4.48663 7.65784 4.90784C7.23663 5.32905 7 5.90032 7 6.496V9.504C7 9.79895 6.9419 10.091 6.82903 10.3635C6.71616 10.636 6.55072 10.8836 6.34216 11.0922C6.1336 11.3007 5.886 11.4662 5.6135 11.579C5.34101 11.6919 5.04895 11.75 4.754 11.75M5.25 7.75H8.75" stroke="white" stroke-width="1.5" stroke-linecap="square" stroke-linejoin="round"/>
<path d="M15.722 11.14C15.192 11.282 14.829 11.388 14.307 11.529C14.181 11.564 14.173 11.573 14.063 11.441C13.937 11.291 13.844 11.194 13.667 11.105C13.137 10.832 12.623 10.911 12.143 11.238C11.57 11.626 11.276 12.199 11.284 12.914C11.292 13.619 11.756 14.201 12.421 14.299C12.994 14.378 13.474 14.166 13.853 13.716C13.928 13.619 13.996 13.514 14.08 13.39H12.455C12.278 13.39 12.235 13.275 12.295 13.125C12.405 12.852 12.606 12.393 12.725 12.164C12.749 12.111 12.808 12.023 12.935 12.023H16C15.983 12.261 15.983 12.499 15.95 12.737C15.8644 13.3614 15.6271 13.9554 15.259 14.467C14.653 15.304 13.861 15.825 12.859 15.966C12.034 16.08 11.267 15.913 10.594 15.384C9.96999 14.89 9.61699 14.237 9.52399 13.425C9.41399 12.464 9.68399 11.599 10.24 10.841C10.838 10.021 11.63 9.5 12.598 9.315C13.389 9.165 14.148 9.262 14.829 9.747C15.276 10.056 15.596 10.479 15.806 10.991C15.856 11.071 15.823 11.113 15.722 11.14Z" fill="#00ACD7"/>
</g>
<defs>
<clipPath id="clip0_5_2216">
<rect width="16" height="16" fill="white"/>
</clipPath>
</defs>
</svg>
