<svg width="16" height="16" viewBox="0 0 16 16" fill="none" xmlns="http://www.w3.org/2000/svg">
<path fill-rule="evenodd" clip-rule="evenodd" d="M8.75 4C8.75 3.33696 9.01339 2.70107 9.48223 2.23223C9.95107 1.76339 10.587 1.5 11.25 1.5H12V0H11.25C10.1891 0 9.17172 0.421427 8.42157 1.17157C7.67143 1.92172 7.25 2.93913 7.25 4V6H4V7.5H7.25V12C7.25 12.3283 7.18534 12.6534 7.0597 12.9567C6.93406 13.26 6.74991 13.5356 6.51777 13.7678C6.28562 13.9999 6.01002 14.1841 5.70671 14.3097C5.40339 14.4353 5.0783 14.5 4.75 14.5H4V16H4.75C5.81087 16 6.82828 15.5786 7.57843 14.8284C8.32857 14.0783 8.75 13.0609 8.75 12V7.5H12V6H8.75V4Z" fill="white"/>
</svg>
