<svg width="16" height="16" viewBox="0 0 16 16" fill="none" xmlns="http://www.w3.org/2000/svg">
<g clip-path="url(#clip0_5_2214)">
<path fill-rule="evenodd" clip-rule="evenodd" d="M0 2.25C0 1.65326 0.237053 1.08097 0.65901 0.65901C1.08097 0.237053 1.65326 0 2.25 0L13.75 0C14.3467 0 14.919 0.237053 15.341 0.65901C15.7629 1.08097 16 1.65326 16 2.25V8H14.5V2.25C14.5 2.05109 14.421 1.86032 14.2803 1.71967C14.1397 1.57902 13.9489 1.5 13.75 1.5H2.25C2.05109 1.5 1.86032 1.57902 1.71967 1.71967C1.57902 1.86032 1.5 2.05109 1.5 2.25V13.75C1.5 14.164 1.836 14.5 2.25 14.5H8V16H2.25C1.65326 16 1.08097 15.7629 0.65901 15.341C0.237053 14.919 0 14.3467 0 13.75L0 2.25ZM9.246 5C8.42 5 7.75 5.67 7.75 6.496V7H9.5V8.5H7.75V9.504C7.75 9.89744 7.67251 10.287 7.52194 10.6505C7.37138 11.014 7.1507 11.3443 6.87249 11.6225C6.59429 11.9007 6.26401 12.1214 5.90052 12.2719C5.53703 12.4225 5.14744 12.5 4.754 12.5H4.004V11H4.754C5.58 11 6.25 10.33 6.25 9.504V8.5H4.5V7H6.25V6.496C6.25 5.70141 6.56565 4.93937 7.12751 4.37751C7.68937 3.81565 8.45141 3.5 9.246 3.5H9.996V5H9.246Z" fill="white"/>
<path fill-rule="evenodd" clip-rule="evenodd" d="M11.5 11.875C11.5 11.668 11.668 11.5 11.875 11.5H16V10H11.875C11.5268 10 11.1855 10.097 10.8893 10.28C10.5931 10.4631 10.3537 10.725 10.198 11.0365C10.0422 11.3479 9.97631 11.6966 10.0076 12.0434C10.0388 12.3902 10.1661 12.7214 10.375 13C10.1661 13.2786 10.0388 13.6098 10.0076 13.9566C9.97631 14.3034 10.0422 14.6521 10.198 14.9635C10.3537 15.275 10.5931 15.5369 10.8893 15.72C11.1855 15.903 11.5268 16 11.875 16H16V14.5H11.875C11.7755 14.5 11.6802 14.4605 11.6098 14.3902C11.5395 14.3198 11.5 14.2245 11.5 14.125C11.5 14.0255 11.5395 13.9302 11.6098 13.8598C11.6802 13.7895 11.7755 13.75 11.875 13.75H15V12.25H11.875C11.7755 12.25 11.6802 12.2105 11.6098 12.1402C11.5395 12.0698 11.5 11.9745 11.5 11.875Z" fill="black"/>
</g>
<defs>
<clipPath id="clip0_5_2214">
<rect width="16" height="16" fill="white"/>
</clipPath>
</defs>
</svg>
