<svg width="16" height="16" viewBox="0 0 16 16" fill="none" xmlns="http://www.w3.org/2000/svg">
<g clip-path="url(#clip0_5_2219)">
<path d="M15.25 8V2.25C15.25 1.85218 15.092 1.47064 14.8107 1.18934C14.5294 0.908035 14.1478 0.75 13.75 0.75H2.25C1.85218 0.75 1.47064 0.908035 1.18934 1.18934C0.908035 1.47064 0.75 1.85218 0.75 2.25V13.75C0.75 14.1478 0.908035 14.5294 1.18934 14.8107C1.47064 15.092 1.85218 15.25 2.25 15.25H8" fill="black"/>
<path d="M15.25 8V2.25C15.25 1.85218 15.092 1.47064 14.8107 1.18934C14.5294 0.908035 14.1478 0.75 13.75 0.75H2.25C1.85218 0.75 1.47064 0.908035 1.18934 1.18934C0.908035 1.47064 0.75 1.85218 0.75 2.25V13.75C0.75 14.1478 0.908035 14.5294 1.18934 14.8107C1.47064 15.092 1.85218 15.25 2.25 15.25H8" stroke="white" stroke-width="1.5" stroke-linejoin="round"/>
<path d="M9.24603 4.25C8.65035 4.25 8.07907 4.48663 7.65787 4.90784C7.23666 5.32905 7.00003 5.90032 7.00003 6.496V9.504C7.00003 9.79895 6.94193 10.091 6.82906 10.3635C6.71619 10.636 6.55075 10.8836 6.34219 11.0922C6.13363 11.3007 5.88603 11.4662 5.61353 11.579C5.34104 11.6919 5.04898 11.75 4.75403 11.75M5.25003 7.75H8.75003H5.25003Z" fill="black"/>
<path d="M9.24603 4.25C8.65035 4.25 8.07907 4.48663 7.65787 4.90784C7.23666 5.32905 7.00003 5.90032 7.00003 6.496V9.504C7.00003 9.79895 6.94193 10.091 6.82906 10.3635C6.71619 10.636 6.55075 10.8836 6.34219 11.0922C6.13363 11.3007 5.88603 11.4662 5.61353 11.579C5.34104 11.6919 5.04898 11.75 4.75403 11.75M5.25003 7.75H8.75003" stroke="white" stroke-width="1.5" stroke-linecap="square" stroke-linejoin="round"/>
<path d="M14 15C14 15.2652 13.8946 15.5196 13.7071 15.7071C13.5196 15.8946 13.2652 16 13 16H12.5C12.2348 16 11.9804 15.8946 11.7929 15.7071C11.6054 15.5196 11.5 15.2652 11.5 15V13.5C11.5 13.2348 11.6054 12.9804 11.7929 12.7929C11.9804 12.6054 12.2348 12.5 12.5 12.5C12.7652 12.5 13.0196 12.3946 13.2071 12.2071C13.3946 12.0196 13.5 11.7652 13.5 11.5V11H14.25C14.4798 11 14.7074 11.0453 14.9197 11.1332C15.132 11.2212 15.3249 11.3501 15.4874 11.5126C15.6499 11.6751 15.7788 11.868 15.8668 12.0803C15.9547 12.2926 16 12.5202 16 12.75C16 12.9798 15.9547 13.2074 15.8668 13.4197C15.7788 13.632 15.6499 13.8249 15.4874 13.9874C15.3249 14.1499 15.132 14.2788 14.9197 14.3668C14.7074 14.4547 14.4798 14.5 14.25 14.5H14V15Z" fill="#FFC700"/>
<path d="M11 10C11 9.73478 11.1054 9.48043 11.2929 9.29289C11.4804 9.10536 11.7348 9 12 9H12.5C12.7652 9 13.0196 9.10536 13.2071 9.29289C13.3946 9.48043 13.5 9.73478 13.5 10V11.5C13.5 11.7652 13.3946 12.0196 13.2071 12.2071C13.0196 12.3946 12.7652 12.5 12.5 12.5C12.2348 12.5 11.9804 12.6054 11.7929 12.7929C11.6054 12.9804 11.5 13.2348 11.5 13.5V14H10.75C10.2859 14 9.84075 13.8156 9.51256 13.4874C9.18437 13.1592 9 12.7141 9 12.25C9 11.7859 9.18437 11.3408 9.51256 11.0126C9.84075 10.6844 10.2859 10.5 10.75 10.5H11V10Z" fill="#338ED8"/>
</g>
<defs>
<clipPath id="clip0_5_2219">
<rect width="16" height="16" fill="white"/>
</clipPath>
</defs>
</svg>
