<svg width="16" height="16" viewBox="0 0 16 16" fill="none" xmlns="http://www.w3.org/2000/svg">
<g clip-path="url(#clip0_5_2217)">
<mask id="mask0_5_2217" style="mask-type:luminance" maskUnits="userSpaceOnUse" x="0" y="0" width="16" height="16">
<path d="M0 0H16V16H0V0Z" fill="white"/>
</mask>
<g mask="url(#mask0_5_2217)">
<path fill-rule="evenodd" clip-rule="evenodd" d="M2.25 0C1.65326 0 1.08097 0.237053 0.65901 0.65901C0.237053 1.08097 0 1.65326 0 2.25L0 13.75C0 14.3467 0.237053 14.919 0.65901 15.341C1.08097 15.7629 1.65326 16 2.25 16H13.75C14.3467 16 14.919 15.7629 15.341 15.341C15.7629 14.919 16 14.3467 16 13.75V2.25C16 1.65326 15.7629 1.08097 15.341 0.65901C14.919 0.237053 14.3467 0 13.75 0L2.25 0ZM1.5 2.25C1.5 2.05109 1.57902 1.86032 1.71967 1.71967C1.86032 1.57902 2.05109 1.5 2.25 1.5H13.75C13.9489 1.5 14.1397 1.57902 14.2803 1.71967C14.421 1.86032 14.5 2.05109 14.5 2.25V13.75C14.5 13.9489 14.421 14.1397 14.2803 14.2803C14.1397 14.421 13.9489 14.5 13.75 14.5H2.25C2.05109 14.5 1.86032 14.421 1.71967 14.2803C1.57902 14.1397 1.5 13.9489 1.5 13.75V2.25ZM5.5 10V7.125C5.5 7.01009 5.52263 6.89631 5.56661 6.79015C5.61058 6.68399 5.67503 6.58753 5.75628 6.50628C5.83753 6.42503 5.93399 6.36058 6.04015 6.31661C6.14631 6.27263 6.26009 6.25 6.375 6.25C6.48991 6.25 6.60369 6.27263 6.70985 6.31661C6.81601 6.36058 6.91247 6.42503 6.99372 6.50628C7.07497 6.58753 7.13942 6.68399 7.18339 6.79015C7.22737 6.89631 7.25 7.01009 7.25 7.125V11.25H8.75V7.125C8.75 6.89294 8.84219 6.67038 9.00628 6.50628C9.17038 6.34219 9.39294 6.25 9.625 6.25C9.85706 6.25 10.0796 6.34219 10.2437 6.50628C10.4078 6.67038 10.5 6.89294 10.5 7.125V11.25H12V7.125C12 6.66172 11.8645 6.20856 11.6102 5.82132C11.3559 5.43408 10.9938 5.12968 10.5687 4.94559C10.1436 4.76151 9.67387 4.70578 9.21747 4.78528C8.76106 4.86477 8.33786 5.07602 8 5.393C7.67199 5.08364 7.26245 4.8744 6.81957 4.7899C6.37668 4.7054 5.91887 4.74915 5.5 4.916V4.75H4V11.25H5.5V10Z" fill="white"/>
</g>
</g>
<defs>
<clipPath id="clip0_5_2217">
<rect width="16" height="16" fill="white"/>
</clipPath>
</defs>
</svg>
