<svg width="16" height="16" viewBox="0 0 16 16" fill="none" xmlns="http://www.w3.org/2000/svg">
<path fill-rule="evenodd" clip-rule="evenodd" d="M1 0H15V13.5C15 14.163 14.7366 14.7989 14.2678 15.2678C13.7989 15.7366 13.163 16 12.5 16H3.5C2.83696 16 2.20107 15.7366 1.73223 15.2678C1.26339 14.7989 1 14.163 1 13.5V0ZM9.75 4.5C9.48478 4.5 9.23043 4.60536 9.04289 4.79289C8.85536 4.98043 8.75 5.23478 8.75 5.5V6.5H10.5V8H8.75V10.5C8.75 11.163 8.48661 11.7989 8.01777 12.2678C7.54893 12.7366 6.91304 13 6.25 13H5.5V11.5H6.25C6.51522 11.5 6.76957 11.3946 6.95711 11.2071C7.14464 11.0196 7.25 10.7652 7.25 10.5V8H5.5V6.5H7.25V5.5C7.25 4.83696 7.51339 4.20107 7.98223 3.73223C8.45107 3.26339 9.08696 3 9.75 3H10.5V4.5H9.75Z" fill="white"/>
</svg>
