<svg width="16" height="16" viewBox="0 0 16 16" fill="none" xmlns="http://www.w3.org/2000/svg">
<g clip-path="url(#clip0_5_2223)">
<path fill-rule="evenodd" clip-rule="evenodd" d="M0 2.25C0 1.65326 0.237053 1.08097 0.65901 0.65901C1.08097 0.237053 1.65326 0 2.25 0L13.75 0C14.3467 0 14.919 0.237053 15.341 0.65901C15.7629 1.08097 16 1.65326 16 2.25V13.75C16 14.3467 15.7629 14.919 15.341 15.341C14.919 15.7629 14.3467 16 13.75 16H2.25C1.65326 16 1.08097 15.7629 0.65901 15.341C0.237053 14.919 0 14.3467 0 13.75L0 2.25ZM2.25 1.5C2.05109 1.5 1.86032 1.57902 1.71967 1.71967C1.57902 1.86032 1.5 2.05109 1.5 2.25V13.75C1.5 14.164 1.836 14.5 2.25 14.5H13.75C13.9489 14.5 14.1397 14.421 14.2803 14.2803C14.421 14.1397 14.5 13.9489 14.5 13.75V2.25C14.5 2.05109 14.421 1.86032 14.2803 1.71967C14.1397 1.57902 13.9489 1.5 13.75 1.5H2.25ZM10.246 5C9.42 5 8.75 5.67 8.75 6.496V7H10.5V8.5H8.75V9.504C8.75 9.89744 8.67251 10.287 8.52194 10.6505C8.37138 11.014 8.1507 11.3443 7.87249 11.6225C7.59429 11.9007 7.26401 12.1214 6.90052 12.2719C6.53703 12.4225 6.14744 12.5 5.754 12.5H5.004V11H5.754C6.58 11 7.25 10.33 7.25 9.504V8.5H5.5V7H7.25V6.496C7.25 5.70141 7.56565 4.93937 8.12751 4.37751C8.68937 3.81565 9.45141 3.5 10.246 3.5H10.996V5H10.246Z" fill="white"/>
</g>
<defs>
<clipPath id="clip0_5_2223">
<rect width="16" height="16" fill="white"/>
</clipPath>
</defs>
</svg>
