<svg width="16" height="16" viewBox="0 0 16 16" fill="none" xmlns="http://www.w3.org/2000/svg">
<g clip-path="url(#clip0_5_2224)">
<path fill-rule="evenodd" clip-rule="evenodd" d="M8.991 1.576C7.63664 1.36717 6.25094 1.59173 5.03184 2.21759C3.81275 2.84345 2.82265 3.83859 2.20298 5.06084C1.58332 6.28309 1.3658 7.66991 1.58149 9.02319C1.79719 10.3765 2.43506 11.627 3.404 12.596L3.934 13.126L2.874 14.187L2.344 13.657C1.1047 12.4184 0.306283 10.8073 0.0713802 9.071C-0.163522 7.33472 0.178082 5.56933 1.04372 4.046C1.90936 2.52267 3.25116 1.32564 4.86303 0.638789C6.47489 -0.0480647 8.26767 -0.186762 9.96599 0.244002L8.99 1.576H8.991ZM13.831 5.123C14.4315 6.34155 14.6353 7.71757 14.4138 9.05787C14.1923 10.3982 13.5566 11.6354 12.596 12.596L12.066 13.126L13.126 14.187L13.656 13.657C14.9306 12.3824 15.7377 10.7149 15.9464 8.92447C16.1551 7.13404 15.7533 5.32557 14.806 3.792L13.83 5.122L13.831 5.123ZM8 9C8.26521 9 8.51957 8.89464 8.7071 8.70711C8.89464 8.51957 9 8.26522 9 8C9 7.73479 8.89464 7.48043 8.7071 7.2929C8.51957 7.10536 8.26521 7 8 7C7.73478 7 7.48042 7.10536 7.29289 7.2929C7.10535 7.48043 7 7.73479 7 8C7 8.26522 7.10535 8.51957 7.29289 8.70711C7.48042 8.89464 7.73478 9 8 9ZM8 10.5C8.46686 10.4998 8.92434 10.3689 9.32063 10.1221C9.71692 9.87529 10.0362 9.52244 10.2423 9.10352C10.4483 8.6846 10.533 8.21635 10.4866 7.75179C10.4403 7.28724 10.2648 6.84494 9.97999 6.475L13.447 2.141C13.0804 1.79962 12.6827 1.49329 12.259 1.226L8.74899 5.614C8.40531 5.5065 8.04245 5.47451 7.68526 5.52024C7.32807 5.56596 6.98497 5.6883 6.67944 5.87891C6.37391 6.06951 6.11316 6.32387 5.91504 6.62457C5.71692 6.92528 5.5861 7.26524 5.53154 7.62119C5.47697 7.97714 5.49995 8.34068 5.5989 8.68692C5.69784 9.03317 5.87042 9.35395 6.10483 9.62733C6.33923 9.9007 6.62992 10.1202 6.95702 10.2708C7.28411 10.4214 7.63989 10.4996 8 10.5Z" fill="white"/>
</g>
<defs>
<clipPath id="clip0_5_2224">
<rect width="16" height="16" fill="white"/>
</clipPath>
</defs>
</svg>
