<svg width="16" height="16" viewBox="0 0 16 16" fill="none" xmlns="http://www.w3.org/2000/svg">
<path d="M4 6.25V14.25V6.25Z" fill="black"/>
<path d="M4 6.25V14.25" stroke="white" stroke-width="1.5" stroke-linecap="square" stroke-linejoin="round"/>
<path fill-rule="evenodd" clip-rule="evenodd" d="M10.5 12C10.5 12.3978 10.6581 12.7794 10.9394 13.0607C11.2207 13.342 11.6022 13.5 12 13.5C12.3979 13.5 12.7794 13.342 13.0607 13.0607C13.342 12.7794 13.5 12.3978 13.5 12C13.5 11.6022 13.342 11.2206 13.0607 10.9393C12.7794 10.658 12.3979 10.5 12 10.5C11.6022 10.5 11.2207 10.658 10.9394 10.9393C10.6581 11.2206 10.5 11.6022 10.5 12ZM9.07903 12.687C9.24609 13.3975 9.66637 14.0228 10.2612 14.4458C10.856 14.8688 11.5846 15.0605 12.3106 14.9851C13.0366 14.9096 13.7102 14.5721 14.2053 14.0359C14.7004 13.4996 14.9831 12.8012 15.0005 12.0716C15.0179 11.3419 14.7687 10.6309 14.2997 10.0716C13.8307 9.5124 13.1739 9.14327 12.4523 9.03335C11.7307 8.92344 10.9938 9.08026 10.3796 9.47446C9.76528 9.86867 9.31572 10.4732 9.11503 11.175C8.04391 10.9918 7.05601 10.4808 6.28761 9.71242C5.51922 8.94403 5.00819 7.95613 4.82503 6.885C5.51977 6.68512 6.119 6.24117 6.51256 5.63477C6.90612 5.02837 7.06756 4.30029 6.9672 3.58437C6.86684 2.86845 6.51142 2.21283 5.96629 1.73802C5.42115 1.26322 4.72295 1.00115 4.00003 1C3.26373 0.999246 2.55286 1.2693 2.00277 1.75874C1.45269 2.24819 1.10181 2.92284 1.01695 3.65424C0.932085 4.38564 1.11916 5.1227 1.54256 5.7251C1.96597 6.32749 2.59612 6.75314 3.31303 6.921C3.51387 8.37938 4.18599 9.73212 5.22695 10.7731C6.26791 11.814 7.62065 12.4862 9.07903 12.687ZM2.50003 4C2.50003 4.39783 2.65807 4.77936 2.93937 5.06066C3.22068 5.34197 3.60221 5.5 4.00003 5.5C4.39786 5.5 4.77939 5.34197 5.06069 5.06066C5.342 4.77936 5.50003 4.39783 5.50003 4C5.50003 3.60218 5.342 3.22065 5.06069 2.93934C4.77939 2.65804 4.39786 2.5 4.00003 2.5C3.60221 2.5 3.22068 2.65804 2.93937 2.93934C2.65807 3.22065 2.50003 3.60218 2.50003 4Z" fill="white"/>
</svg>
