<svg width="16" height="16" viewBox="0 0 16 16" fill="none" xmlns="http://www.w3.org/2000/svg">
<g clip-path="url(#clip0_5_2225)">
<path fill-rule="evenodd" clip-rule="evenodd" d="M4.74999 1.75V1H3.24999V9.095C2.73491 9.22785 2.26439 9.49522 1.88663 9.86973C1.50887 10.2442 1.23744 10.7124 1.10015 11.2264C0.962859 11.7403 0.964633 12.2814 1.10529 12.7945C1.24595 13.3075 1.52044 13.7739 1.90065 14.1459C2.28086 14.5179 2.75312 14.7822 3.26907 14.9117C3.78501 15.0411 4.3261 15.0311 4.83691 14.8827C5.34772 14.7343 5.80989 14.4527 6.1761 14.0669C6.54231 13.6811 6.79938 13.2049 6.92099 12.687C8.37937 12.4862 9.73211 11.814 10.7731 10.7731C11.814 9.73212 12.4862 8.37938 12.687 6.921C13.3975 6.75394 14.0228 6.33366 14.4458 5.73884C14.8688 5.14401 15.0605 4.41541 14.985 3.68943C14.9096 2.96345 14.5721 2.28985 14.0359 1.79472C13.4996 1.2996 12.8012 1.01689 12.0716 0.999516C11.3419 0.982142 10.6309 1.2313 10.0716 1.70034C9.51239 2.16938 9.14327 2.82616 9.03335 3.54773C8.92343 4.26929 9.08025 5.00619 9.47446 5.62047C9.86866 6.23476 10.4732 6.68432 11.175 6.885C10.9918 7.95613 10.4808 8.94403 9.71242 9.71242C8.94402 10.4808 7.95612 10.9918 6.88499 11.175C6.74069 10.6726 6.46787 10.2165 6.09346 9.85174C5.71905 9.48697 5.25599 9.22615 4.74999 9.095V1.75ZM13.5 4C13.5 4.39783 13.342 4.77936 13.0607 5.06066C12.7793 5.34197 12.3978 5.5 12 5.5C11.6022 5.5 11.2206 5.34197 10.9393 5.06066C10.658 4.77936 10.5 4.39783 10.5 4C10.5 3.60218 10.658 3.22065 10.9393 2.93934C11.2206 2.65804 11.6022 2.5 12 2.5C12.3978 2.5 12.7793 2.65804 13.0607 2.93934C13.342 3.22065 13.5 3.60218 13.5 4ZM3.99999 13.5C4.39782 13.5 4.77935 13.342 5.06065 13.0607C5.34196 12.7794 5.49999 12.3978 5.49999 12C5.49999 11.6022 5.34196 11.2206 5.06065 10.9393C4.77935 10.658 4.39782 10.5 3.99999 10.5C3.60217 10.5 3.22064 10.658 2.93933 10.9393C2.65803 11.2206 2.49999 11.6022 2.49999 12C2.49999 12.3978 2.65803 12.7794 2.93933 13.0607C3.22064 13.342 3.60217 13.5 3.99999 13.5Z" fill="white"/>
</g>
<defs>
<clipPath id="clip0_5_2225">
<rect width="16" height="16" fill="white"/>
</clipPath>
</defs>
</svg>
