<svg width="16" height="16" viewBox="0 0 16 16" fill="none" xmlns="http://www.w3.org/2000/svg">
<path fill-rule="evenodd" clip-rule="evenodd" d="M4.00005 5.5C3.60222 5.5 3.22069 5.34196 2.93939 5.06066C2.65808 4.77936 2.50005 4.39783 2.50005 4C2.50005 3.60218 2.65808 3.22064 2.93939 2.93934C3.22069 2.65804 3.60222 2.5 4.00005 2.5C4.39787 2.5 4.7794 2.65804 5.06071 2.93934C5.34201 3.22064 5.50005 3.60218 5.50005 4C5.50005 4.39783 5.34201 4.77936 5.06071 5.06066C4.7794 5.34196 4.39787 5.5 4.00005 5.5ZM4.75005 6.905C5.45574 6.7211 6.07031 6.28652 6.47892 5.68249C6.88754 5.07846 7.06222 4.34631 6.97034 3.62287C6.87845 2.89943 6.52628 2.23419 5.97964 1.75149C5.433 1.26879 4.7293 1.00165 4.00005 1C3.26969 0.999752 2.56433 1.26595 2.01623 1.74867C1.46814 2.23138 1.11496 2.89747 1.02294 3.622C0.930915 4.34654 1.10636 5.07977 1.51638 5.68417C1.9264 6.28858 2.54282 6.72266 3.25005 6.905V15H4.75005V6.905ZM9.50005 3.25H8.75005V4.75H11C11.0664 4.75 11.1299 4.77634 11.1768 4.82322C11.2237 4.87011 11.25 4.9337 11.25 5V9.095C10.5428 9.27755 9.92638 9.71179 9.51638 10.3163C9.10638 10.9208 8.93094 11.6542 9.02295 12.3788C9.11496 13.1034 9.4681 13.7696 10.0162 14.2525C10.5642 14.7354 11.2696 15.0018 12 15.0018C12.7305 15.0018 13.4359 14.7354 13.9839 14.2525C14.532 13.7696 14.8851 13.1034 14.9771 12.3788C15.0692 11.6542 14.8937 10.9208 14.4837 10.3163C14.0737 9.71179 13.4573 9.27755 12.75 9.095V5C12.75 4.53587 12.5657 4.09075 12.2375 3.76256C11.9093 3.43437 11.4642 3.25 11 3.25H9.50005ZM10.5 12C10.5 12.3978 10.6581 12.7794 10.9394 13.0607C11.2207 13.342 11.6022 13.5 12 13.5C12.3979 13.5 12.7794 13.342 13.0607 13.0607C13.342 12.7794 13.5 12.3978 13.5 12C13.5 11.6022 13.342 11.2206 13.0607 10.9393C12.7794 10.658 12.3979 10.5 12 10.5C11.6022 10.5 11.2207 10.658 10.9394 10.9393C10.6581 11.2206 10.5 11.6022 10.5 12Z" fill="white"/>
</svg>
