<svg width="16" height="16" viewBox="0 0 16 16" fill="none" xmlns="http://www.w3.org/2000/svg">
<path fill-rule="evenodd" clip-rule="evenodd" d="M8 10.5C8.66304 10.5 9.29893 10.2366 9.76777 9.76776C10.2366 9.29892 10.5 8.66304 10.5 8C10.5 7.33696 10.2366 6.70107 9.76777 6.23223C9.29893 5.76339 8.66304 5.5 8 5.5C7.33696 5.5 6.70107 5.76339 6.23223 6.23223C5.76339 6.70107 5.5 7.33696 5.5 8C5.5 8.66304 5.76339 9.29892 6.23223 9.76776C6.70107 10.2366 7.33696 10.5 8 10.5ZM8 12C9.953 12 11.579 10.6 11.93 8.75H16V7.25H11.93C11.7554 6.33559 11.2674 5.51068 10.5501 4.91735C9.83272 4.32402 8.93093 3.9994 8 3.9994C7.06907 3.9994 6.16728 4.32402 5.44994 4.91735C4.73259 5.51068 4.2446 6.33559 4.07 7.25H0V8.75H4.07C4.24472 9.66429 4.73277 10.4891 5.4501 11.0823C6.16743 11.6755 7.06916 12 8 12Z" fill="white"/>
</svg>
