<svg width="16" height="16" viewBox="0 0 16 16" fill="none" xmlns="http://www.w3.org/2000/svg">
<g clip-path="url(#clip0_5_2230)">
<path fill-rule="evenodd" clip-rule="evenodd" d="M5.25 0.098999L5.666 0.375999L10.166 3.376L10.5 3.598V5H9.552L6 7.17V13.587L4.859 12.89L0.359 10.14L0 9.92V3.599L0.334 3.377L4.834 0.376999L5.25 0.098999ZM5.25 5.871L8.357 3.972L5.25 1.902L2.143 3.972L5.25 5.871ZM1.5 5.337L4.5 7.171V10.913L1.5 9.079V5.337ZM13.23 12C13.2 12.815 13.094 13.628 12.912 14.428C13.3861 14.1991 13.7975 13.8586 14.111 13.4357C14.4245 13.0128 14.6307 12.5201 14.712 12H13.23ZM11.805 14.736C11.6021 14.7548 11.3979 14.7548 11.195 14.736C10.9503 13.843 10.8077 12.9251 10.77 12H12.23C12.1923 12.9251 12.0497 13.843 11.805 14.736ZM13.23 11C13.1989 10.1825 13.0922 9.36973 12.911 8.572C13.3851 8.80092 13.7965 9.14144 14.11 9.56433C14.4235 9.98723 14.6297 10.4799 14.711 11H13.23ZM12.229 11C12.1913 10.0749 12.0487 9.15699 11.804 8.264C11.6011 8.2451 11.3969 8.2451 11.194 8.264C10.9496 9.15703 10.8074 10.0749 10.77 11H12.229ZM9.769 11C9.799 10.185 9.905 9.372 10.087 8.572C9.61313 8.80104 9.2019 9.14162 8.88856 9.5645C8.57523 9.98739 8.36915 10.48 8.288 11H9.77H9.769ZM10.087 14.428C9.905 13.628 9.799 12.815 9.768 12H8.29C8.37115 12.52 8.57723 13.0126 8.89056 13.4355C9.2039 13.8584 9.61513 14.199 10.089 14.428H10.087ZM11.5 16C12.6935 16 13.8381 15.5259 14.682 14.682C15.5259 13.8381 16 12.6935 16 11.5C16 10.3065 15.5259 9.16193 14.682 8.31802C13.8381 7.47411 12.6935 7 11.5 7C10.3065 7 9.16193 7.47411 8.31802 8.31802C7.47411 9.16193 7 10.3065 7 11.5C7 12.6935 7.47411 13.8381 8.31802 14.682C9.16193 15.5259 10.3065 16 11.5 16Z" fill="white"/>
</g>
<defs>
<clipPath id="clip0_5_2230">
<rect width="16" height="16" fill="white"/>
</clipPath>
</defs>
</svg>
