<svg width="16" height="16" viewBox="0 0 16 16" fill="none" xmlns="http://www.w3.org/2000/svg">
<g clip-path="url(#clip0_5_2229)">
<path fill-rule="evenodd" clip-rule="evenodd" d="M10.268 14.093C11.0776 13.7905 11.8189 13.33 12.4489 12.7384C13.079 12.1469 13.5851 11.4359 13.938 10.647C13.119 10.794 12.214 10.911 11.247 10.992C11.034 12.2 10.695 13.262 10.268 14.093ZM8 16C10.1217 16 12.1566 15.1571 13.6569 13.6569C15.1571 12.1566 16 10.1217 16 8C16 5.87827 15.1571 3.84344 13.6569 2.34315C12.1566 0.842855 10.1217 0 8 0C5.87827 0 3.84344 0.842855 2.34315 2.34315C0.842855 3.84344 0 5.87827 0 8C0 10.1217 0.842855 12.1566 2.34315 13.6569C3.84344 15.1571 5.87827 16 8 16ZM8.483 14.482C8.16143 14.5056 7.83857 14.5056 7.517 14.482L7.507 14.472C7.242 14.217 6.946 13.785 6.67 13.156C6.38744 12.4875 6.1766 11.791 6.041 11.078C7.34623 11.1416 8.65377 11.1416 9.959 11.078C9.82308 11.791 9.6119 12.4876 9.329 13.156C9.054 13.786 8.759 14.216 8.494 14.473L8.484 14.483L8.483 14.482ZM11.419 9.722C12.411 9.63503 13.397 9.49012 14.372 9.288C14.543 8.43785 14.543 7.56215 14.372 6.712C13.397 6.50989 12.411 6.36498 11.419 6.278C11.5286 7.42338 11.5286 8.57662 11.419 9.722ZM10.152 6.184C10.216 6.76 10.25 7.368 10.25 8C10.25 8.632 10.216 9.24 10.152 9.816C8.71811 9.89584 7.28089 9.89584 5.847 9.816C5.78167 9.21288 5.74929 8.60665 5.75 8C5.75 7.368 5.784 6.76 5.847 6.184C7.28089 6.10418 8.71811 6.10418 10.152 6.184ZM11.247 5.007C12.214 5.089 13.119 5.206 13.938 5.353C13.5851 4.56407 13.079 3.85315 12.4489 3.26156C11.8189 2.66998 11.0776 2.20954 10.268 1.907C10.695 2.737 11.034 3.8 11.247 5.007ZM8.483 1.517L8.493 1.527C8.758 1.784 9.054 2.215 9.33 2.844C9.584 3.426 9.8 4.129 9.959 4.922C8.65378 4.85836 7.34622 4.85836 6.041 4.922C6.2 4.129 6.416 3.426 6.671 2.844C6.946 2.214 7.241 1.784 7.506 1.527L7.516 1.517C7.8379 1.49332 8.1611 1.49332 8.483 1.517ZM5.732 1.907C4.92244 2.20954 4.18109 2.66998 3.55105 3.26156C2.92101 3.85315 2.41485 4.56407 2.062 5.353C2.881 5.206 3.786 5.089 4.753 5.007C4.966 3.8 5.305 2.737 5.732 1.907ZM4.582 6.277C3.486 6.379 2.488 6.527 1.628 6.712C1.45698 7.56215 1.45698 8.43785 1.628 9.288C2.488 9.472 3.486 9.621 4.581 9.722C4.47124 8.57662 4.47124 7.42338 4.581 6.278L4.582 6.277ZM4.753 10.992C3.85113 10.9188 2.95316 10.8037 2.062 10.647C2.4149 11.4359 2.92108 12.1468 3.55111 12.7384C4.18114 13.33 4.92247 13.7904 5.732 14.093C5.305 13.263 4.966 12.2 4.753 10.993V10.992Z" fill="white"/>
</g>
<defs>
<clipPath id="clip0_5_2229">
<rect width="16" height="16" fill="white"/>
</clipPath>
</defs>
</svg>
