<svg width="16" height="16" viewBox="0 0 16 16" fill="none" xmlns="http://www.w3.org/2000/svg">
<path fill-rule="evenodd" clip-rule="evenodd" d="M2.5 6.5V2.5H5.5V6.5H2.5ZM1 2C1 1.73478 1.10536 1.48043 1.29289 1.29289C1.48043 1.10536 1.73478 1 2 1H6C6.26522 1 6.51957 1.10536 6.70711 1.29289C6.89464 1.48043 7 1.73478 7 2V7C7 7.26522 6.89464 7.51957 6.70711 7.70711C6.51957 7.89464 6.26522 8 6 8H2C1.73478 8 1.48043 7.89464 1.29289 7.70711C1.10536 7.51957 1 7.26522 1 7V2ZM2.5 13.5V11.5H5.5V13.5H2.5ZM1 11C1 10.7348 1.10536 10.4804 1.29289 10.2929C1.48043 10.1054 1.73478 10 2 10H6C6.26522 10 6.51957 10.1054 6.70711 10.2929C6.89464 10.4804 7 10.7348 7 11V14C7 14.2652 6.89464 14.5196 6.70711 14.7071C6.51957 14.8946 6.26522 15 6 15H2C1.73478 15 1.48043 14.8946 1.29289 14.7071C1.10536 14.5196 1 14.2652 1 14V11ZM10.5 2.5V4.5H13.5V2.5H10.5ZM10 1C9.73478 1 9.48043 1.10536 9.29289 1.29289C9.10536 1.48043 9 1.73478 9 2V5C9 5.26522 9.10536 5.51957 9.29289 5.70711C9.48043 5.89464 9.73478 6 10 6H14C14.2652 6 14.5196 5.89464 14.7071 5.70711C14.8946 5.51957 15 5.26522 15 5V2C15 1.73478 14.8946 1.48043 14.7071 1.29289C14.5196 1.10536 14.2652 1 14 1H10ZM13.5 13.5H10.5V9.5H13.5V13.5ZM9 9C9 8.73478 9.10536 8.48043 9.29289 8.29289C9.48043 8.10536 9.73478 8 10 8H14C14.2652 8 14.5196 8.10536 14.7071 8.29289C14.8946 8.48043 15 8.73478 15 9V14C15 14.2652 14.8946 14.5196 14.7071 14.7071C14.5196 14.8946 14.2652 15 14 15H10C9.73478 15 9.48043 14.8946 9.29289 14.7071C9.10536 14.5196 9 14.2652 9 14V9Z" fill="white"/>
</svg>
