<svg width="16" height="16" viewBox="0 0 16 16" fill="none" xmlns="http://www.w3.org/2000/svg">
<path fill-rule="evenodd" clip-rule="evenodd" d="M7.24 1.869L7.36 1.128L5.877 0.889999L5.758 1.63L5.22 5H1.75V6.5H4.98L4.42 10H1.75V11.5H4.18L3.76 14.132L3.64 14.872L5.122 15.109L5.241 14.369L5.7 11.5H9.18L8.76 14.132L8.64 14.872L10.122 15.109L10.241 14.369L10.7 11.5H14.25V10H10.94L11.5 6.5H14.25V5H11.74L12.24 1.869L12.36 1.128L10.877 0.889999L10.758 1.63L10.22 5H6.74L7.24 1.869ZM9.98 6.5H6.5L5.94 10H9.42L9.98 6.5Z" fill="white"/>
</svg>
