<svg width="16" height="16" viewBox="0 0 16 16" fill="none" xmlns="http://www.w3.org/2000/svg">
<path fill-rule="evenodd" clip-rule="evenodd" d="M8 1C6.14348 1 4.36301 1.7375 3.05025 3.05025C1.7375 4.36301 1 6.14348 1 8V11H3.25C3.78043 11 4.28914 10.7893 4.66421 10.4142C5.03929 10.0391 5.25 9.53043 5.25 9V8.25C5.25 7.71957 5.03929 7.21086 4.66421 6.83579C4.28914 6.46071 3.78043 6.25 3.25 6.25H2.784C3.15084 5.15712 3.85169 4.20707 4.7876 3.53399C5.72351 2.86092 6.84719 2.49881 8 2.49881C9.15281 2.49881 10.2765 2.86092 11.2124 3.53399C12.1483 4.20707 12.8492 5.15712 13.216 6.25H12.75C12.2196 6.25 11.7109 6.46071 11.3358 6.83579C10.9607 7.21086 10.75 7.71957 10.75 8.25V9C10.75 9.53043 10.9607 10.0391 11.3358 10.4142C11.7109 10.7893 12.2196 11 12.75 11H13.5C13.5 11.663 13.2366 12.2989 12.7678 12.7678C12.2989 13.2366 11.663 13.5 11 13.5H10V13C10 12.7348 9.89464 12.4804 9.70711 12.2929C9.51957 12.1054 9.26522 12 9 12H7C6.73478 12 6.48043 12.1054 6.29289 12.2929C6.10536 12.4804 6 12.7348 6 13V14C6 14.2652 6.10536 14.5196 6.29289 14.7071C6.48043 14.8946 6.73478 15 7 15H11C12.0609 15 13.0783 14.5786 13.8284 13.8284C14.5786 13.0783 15 12.0609 15 11V8C15 6.14348 14.2625 4.36301 12.9497 3.05025C11.637 1.7375 9.85652 1 8 1ZM12.75 7.75H13.494C13.498 7.833 13.5 7.916 13.5 8V9.5H12.75C12.6174 9.5 12.4902 9.44732 12.3964 9.35355C12.3027 9.25979 12.25 9.13261 12.25 9V8.25C12.25 8.11739 12.3027 7.99021 12.3964 7.89645C12.4902 7.80268 12.6174 7.75 12.75 7.75ZM2.506 7.75C2.50214 7.83328 2.50014 7.91663 2.5 8V9.5H3.25C3.38261 9.5 3.50979 9.44732 3.60355 9.35355C3.69732 9.25979 3.75 9.13261 3.75 9V8.25C3.75 8.11739 3.69732 7.99021 3.60355 7.89645C3.50979 7.80268 3.38261 7.75 3.25 7.75H2.506Z" fill="white"/>
</svg>
