<svg width="16" height="16" viewBox="0 0 16 16" fill="none" xmlns="http://www.w3.org/2000/svg">
<g clip-path="url(#clip0_5_2237)">
<path fill-rule="evenodd" clip-rule="evenodd" d="M7.06499 3.205C6.76363 2.89628 6.40399 2.65044 6.00692 2.48174C5.60985 2.31304 5.18325 2.22483 4.75183 2.22222C4.32042 2.21962 3.89278 2.30267 3.4937 2.46656C3.09462 2.63046 2.73204 2.87193 2.42698 3.177C2.12192 3.48206 1.88044 3.84464 1.71655 4.24371C1.55265 4.64279 1.4696 5.07043 1.47221 5.50185C1.47481 5.93326 1.56302 6.35987 1.73172 6.75694C1.90042 7.15401 2.14626 7.51365 2.45499 7.815L7.99999 13.36L13.545 7.815C14.1442 7.20117 14.4773 6.37593 14.4721 5.51816C14.4669 4.66038 14.1239 3.83922 13.5173 3.23267C12.9108 2.62613 12.0896 2.28308 11.2318 2.2779C10.3741 2.27272 9.54881 2.60582 8.93499 3.205L8.52999 3.61L7.99999 4.14L7.46999 3.61L7.06499 3.205ZM7.99999 2.023C7.08558 1.17832 5.87666 0.725459 4.63234 0.761487C3.38802 0.797516 2.20732 1.31956 1.34332 2.21574C0.47932 3.11192 0.00076873 4.3109 0.0102393 5.55571C0.0197098 6.80051 0.516448 7.99208 1.39399 8.875L7.46999 14.951L7.99999 15.481L8.52999 14.951L14.606 8.875C15.4835 7.99208 15.9803 6.80051 15.9897 5.55571C15.9992 4.3109 15.5207 3.11192 14.6566 2.21574C13.7926 1.31956 12.612 0.797516 11.3676 0.761487C10.1233 0.725459 8.91439 1.17832 7.99999 2.023Z" fill="white"/>
</g>
<defs>
<clipPath id="clip0_5_2237">
<rect width="16" height="16" fill="white"/>
</clipPath>
</defs>
</svg>
