<svg width="16" height="16" viewBox="0 0 16 16" fill="none" xmlns="http://www.w3.org/2000/svg">
<g clip-path="url(#clip0_5_2239)">
<path fill-rule="evenodd" clip-rule="evenodd" d="M12.5 6.56001L8 2.06001L3.5 6.56001V13.5H6V11C6 10.4696 6.21072 9.96086 6.58579 9.58579C6.96086 9.21072 7.46957 9 8 9C8.53044 9 9.03914 9.21072 9.41422 9.58579C9.78929 9.96086 10 10.4696 10 11V13.5H12.5V6.56001ZM13.78 5.72001L8.707 0.645005C8.51947 0.457534 8.26517 0.352219 8 0.352219C7.73484 0.352219 7.48053 0.457534 7.293 0.645005L2.22 5.72001L0.470002 7.47001L-0.0599976 8.00001L1 9.06001L1.53 8.53L2 8.06001V15H14V8.06001L14.47 8.53L15 9.06001L16.06 8.00001L15.53 7.47001L13.78 5.72001ZM8.5 11V13.5H7.5V11C7.5 10.8674 7.55268 10.7402 7.64645 10.6465C7.74022 10.5527 7.86739 10.5 8 10.5C8.13261 10.5 8.25979 10.5527 8.35356 10.6465C8.44732 10.7402 8.5 10.8674 8.5 11Z" fill="white"/>
</g>
<defs>
<clipPath id="clip0_5_2239">
<rect width="16" height="16" fill="white"/>
</clipPath>
</defs>
</svg>
