<svg width="16" height="16" viewBox="0 0 16 16" fill="none" xmlns="http://www.w3.org/2000/svg">
<g clip-path="url(#clip0_5_2240)">
<path fill-rule="evenodd" clip-rule="evenodd" d="M3.50003 2.75C3.50003 2.41848 3.63173 2.10054 3.86615 1.86612C4.10057 1.6317 4.41851 1.5 4.75003 1.5C5.08155 1.5 5.39949 1.6317 5.63391 1.86612C5.86833 2.10054 6.00003 2.41848 6.00003 2.75C6.00003 3.08152 5.86833 3.39946 5.63391 3.63388C5.39949 3.8683 5.08155 4 4.75003 4C4.41851 4 4.10057 3.8683 3.86615 3.63388C3.63173 3.39946 3.50003 3.08152 3.50003 2.75ZM4.75003 1.40411e-07C4.08612 -0.000211911 3.44454 0.239766 2.94374 0.675631C2.44295 1.1115 2.11674 1.71382 2.02534 2.37141C1.93394 3.029 2.08352 3.69746 2.44647 4.25338C2.80942 4.8093 3.36123 5.21515 4.00003 5.396V11.25C4.00003 12.5098 4.50048 13.718 5.39127 14.6088C6.28207 15.4996 7.49025 16 8.75003 16H9.25003C10.5098 16 11.718 15.4996 12.6088 14.6088C13.4996 13.718 14 12.5098 14 11.25V2.44L12.72 3.72L10.47 5.97L9.94003 6.5L11 7.56L11.53 7.03L12.5 6.06V11.25C12.5 12.112 12.1576 12.9386 11.5481 13.5481C10.9386 14.1576 10.112 14.5 9.25003 14.5H8.75003C7.88808 14.5 7.06143 14.1576 6.45193 13.5481C5.84244 12.9386 5.50003 12.112 5.50003 11.25V5.396C6.13741 5.21376 6.68755 4.80749 7.04924 4.25192C7.41093 3.69636 7.55983 3.02888 7.46857 2.37227C7.37731 1.71566 7.05201 1.11408 6.55252 0.678217C6.05303 0.242351 5.41295 0.00151009 4.75003 1.40411e-07Z" fill="white"/>
</g>
<defs>
<clipPath id="clip0_5_2240">
<rect width="16" height="16" fill="white"/>
</clipPath>
</defs>
</svg>
