<svg width="16" height="16" viewBox="0 0 16 16" fill="none" xmlns="http://www.w3.org/2000/svg">
<g clip-path="url(#clip0_5_2242)">
<path fill-rule="evenodd" clip-rule="evenodd" d="M1.677 7.5L3.927 3H12.073L14.323 7.5H9.25V8.25C9.25 8.58152 9.1183 8.89946 8.88388 9.13388C8.64946 9.3683 8.33152 9.5 8 9.5C7.66848 9.5 7.35054 9.3683 7.11612 9.13388C6.8817 8.89946 6.75 8.58152 6.75 8.25V7.5H1.677ZM1.5 9V12C1.5 12.2652 1.60536 12.5196 1.79289 12.7071C1.98043 12.8946 2.23478 13 2.5 13H13.5C13.7652 13 14.0196 12.8946 14.2071 12.7071C14.3946 12.5196 14.5 12.2652 14.5 12V9H10.646C10.4823 9.57551 10.1354 10.0819 9.65787 10.4425C9.18038 10.8031 8.59835 10.9982 8 10.9982C7.40165 10.9982 6.81962 10.8031 6.34213 10.4425C5.86464 10.0819 5.51773 9.57551 5.354 9H1.5ZM3 1.5H13L15.894 7.289C15.9635 7.42775 15.9998 7.58079 16 7.736V12C16 12.663 15.7366 13.2989 15.2678 13.7678C14.7989 14.2366 14.163 14.5 13.5 14.5H2.5C1.83696 14.5 1.20107 14.2366 0.732233 13.7678C0.263392 13.2989 0 12.663 0 12L0 7.736C0.000165776 7.58079 0.0364567 7.42775 0.106 7.289L3 1.5Z" fill="white"/>
</g>
<defs>
<clipPath id="clip0_5_2242">
<rect width="16" height="16" fill="white"/>
</clipPath>
</defs>
</svg>
