<svg width="16" height="16" viewBox="0 0 16 16" fill="none" xmlns="http://www.w3.org/2000/svg">
<path d="M13.5 5C14.8807 5 16 3.88071 16 2.5C16 1.11929 14.8807 0 13.5 0C12.1193 0 11 1.11929 11 2.5C11 3.88071 12.1193 5 13.5 5Z" fill="#52A8FF"/>
<path fill-rule="evenodd" clip-rule="evenodd" d="M15.29 6.078L15.894 7.288C15.9637 7.42706 16 7.58046 16 7.736V12C16 12.663 15.7366 13.2989 15.2678 13.7678C14.7989 14.2366 14.163 14.5 13.5 14.5H2.5C1.83696 14.5 1.20107 14.2366 0.732233 13.7678C0.263392 13.2989 0 12.663 0 12L0 7.736C0.000165776 7.58079 0.0364567 7.42775 0.106 7.289L3 1.5H9.626C9.5 1.98953 9.46777 2.49848 9.531 3H3.927L1.677 7.5H6.75V8.25C6.75 8.58152 6.8817 8.89946 7.11612 9.13388C7.35054 9.3683 7.66848 9.5 8 9.5C8.33152 9.5 8.64946 9.3683 8.88388 9.13388C9.1183 8.89946 9.25 8.58152 9.25 8.25V7.5H14.323L13.817 6.488C14.3296 6.44782 14.8295 6.30858 15.289 6.078H15.29ZM1.5 12V9H5.354C5.51773 9.57551 5.86464 10.0819 6.34213 10.4425C6.81962 10.8031 7.40165 10.9982 8 10.9982C8.59835 10.9982 9.18038 10.8031 9.65787 10.4425C10.1354 10.0819 10.4823 9.57551 10.646 9H14.5V12C14.5 12.2652 14.3946 12.5196 14.2071 12.7071C14.0196 12.8946 13.7652 13 13.5 13H2.5C2.23478 13 1.98043 12.8946 1.79289 12.7071C1.60536 12.5196 1.5 12.2652 1.5 12Z" fill="white"/>
</svg>
