<svg width="16" height="16" viewBox="0 0 16 16" fill="none" xmlns="http://www.w3.org/2000/svg">
<g clip-path="url(#clip0_5_2245)">
<path fill-rule="evenodd" clip-rule="evenodd" d="M16 8C16 10.1217 15.1571 12.1566 13.6569 13.6569C12.1566 15.1571 10.1217 16 8 16C5.87827 16 3.84344 15.1571 2.34315 13.6569C0.842855 12.1566 0 10.1217 0 8C0 5.87827 0.842855 3.84344 2.34315 2.34315C3.84344 0.842855 5.87827 0 8 0C10.1217 0 12.1566 0.842855 13.6569 2.34315C15.1571 3.84344 16 5.87827 16 8ZM6.25 7H7.75C8.01522 7 8.26957 7.10536 8.45711 7.29289C8.64464 7.48043 8.75 7.73478 8.75 8V12.25H7.25V8.5H6.25V7ZM8 6C8.26522 6 8.51957 5.89464 8.70711 5.70711C8.89464 5.51957 9 5.26522 9 5C9 4.73478 8.89464 4.48043 8.70711 4.29289C8.51957 4.10536 8.26522 4 8 4C7.73478 4 7.48043 4.10536 7.29289 4.29289C7.10536 4.48043 7 4.73478 7 5C7 5.26522 7.10536 5.51957 7.29289 5.70711C7.48043 5.89464 7.73478 6 8 6Z" fill="white"/>
</g>
<defs>
<clipPath id="clip0_5_2245">
<rect width="16" height="16" fill="white"/>
</clipPath>
</defs>
</svg>
