<svg width="16" height="16" viewBox="0 0 16 16" fill="none" xmlns="http://www.w3.org/2000/svg">
<path fill-rule="evenodd" clip-rule="evenodd" d="M4.75 13.5H2.5V2.5H13.5V5.5H15V2C15 1.73478 14.8946 1.48043 14.7071 1.29289C14.5196 1.10536 14.2652 1 14 1H2C1.73478 1 1.48043 1.10536 1.29289 1.29289C1.10536 1.48043 1 1.73478 1 2V14C1 14.2652 1.10536 14.5196 1.29289 14.7071C1.48043 14.8946 1.73478 15 2 15H5.5V13.5H4.75ZM7.5 13.425V8.501C7.5 8.23578 7.60536 7.98143 7.79289 7.79389C7.98043 7.60636 8.23478 7.501 8.5 7.501H13.425V9H10.06L15.029 13.969L15.559 14.499L14.499 15.559L13.969 15.029L9 10.061V13.425H7.5Z" fill="white"/>
</svg>
