<svg width="16" height="16" viewBox="0 0 16 16" fill="none" xmlns="http://www.w3.org/2000/svg">
<path fill-rule="evenodd" clip-rule="evenodd" d="M13 15.1L12 14.5L10.152 15.886C10.1081 15.9188 10.0548 15.9365 10 15.9365C9.94521 15.9365 9.89189 15.9188 9.848 15.886L8 14.5L6.144 15.892C6.10188 15.9237 6.05095 15.9414 5.99828 15.9429C5.9456 15.9443 5.89378 15.9293 5.85 15.9L3.75 14.5L3 15L2.833 15.112L1.836 15.776L1.686 15.876C1.66792 15.8879 1.64696 15.8947 1.62534 15.8957C1.60372 15.8966 1.58224 15.8917 1.56318 15.8815C1.54411 15.8712 1.52818 15.856 1.51705 15.8374C1.50593 15.8189 1.50004 15.7976 1.5 15.776V0H9.086C9.3512 5.66374e-05 9.60551 0.105451 9.793 0.293L14.207 4.707C14.3945 4.89449 14.4999 5.14881 14.5 5.414V15.788C14.5 15.8093 14.4944 15.8302 14.4837 15.8486C14.473 15.867 14.4576 15.8822 14.4391 15.8927C14.4206 15.9032 14.3996 15.9085 14.3783 15.9082C14.357 15.9079 14.3362 15.902 14.318 15.891L14.147 15.788L13.137 15.182L13 15.1ZM12.379 5L9.5 2.121V5H12.379ZM8 1.5V6.5H13V13.35L12.772 13.214L11.907 12.694L11.1 13.3L10 14.125L8.9 13.3L8 12.625L7.1 13.3L5.949 14.163L4.582 13.252L3.75 12.697L3 13.197V1.5H8Z" fill="white"/>
</svg>
