<svg width="16" height="16" viewBox="0 0 16 16" fill="none" xmlns="http://www.w3.org/2000/svg">
<g clip-path="url(#clip0_5_2249)">
<path fill-rule="evenodd" clip-rule="evenodd" d="M2.99994 0H10.5959C10.8611 5.66374e-05 11.1154 0.105451 11.3029 0.293L15.7069 4.696C15.7999 4.78896 15.8737 4.89934 15.9239 5.02082C15.9742 5.14231 16 5.27252 15.9999 5.404V13.5C15.9999 14.163 15.7365 14.7989 15.2677 15.2678C14.7989 15.7366 14.163 16 13.4999 16H5.49994C4.8369 16 4.20102 15.7366 3.73217 15.2678C3.26333 14.7989 2.99994 14.163 2.99994 13.5V9.31L1.77994 10.53L1.24994 11.06L0.189941 10L0.719941 9.47L3.04294 7.146C3.23047 6.95853 3.48478 6.85321 3.74994 6.85321C4.01511 6.85321 4.26941 6.95853 4.45694 7.146L6.77994 9.47L7.30994 10L6.24994 11.06L5.71994 10.53L4.49994 9.31V13.5C4.49994 13.7652 4.6053 14.0196 4.79283 14.2071C4.98037 14.3946 5.23472 14.5 5.49994 14.5H13.4999C13.7652 14.5 14.0195 14.3946 14.207 14.2071C14.3946 14.0196 14.4999 13.7652 14.4999 13.5V6.5H9.49994V1.5H4.49994V4H2.99994V0ZM10.9999 2.11V5H13.8899L10.9999 2.11Z" fill="white"/>
</g>
<defs>
<clipPath id="clip0_5_2249">
<rect width="16" height="16" fill="white"/>
</clipPath>
</defs>
</svg>
