<svg width="16" height="16" viewBox="0 0 16 16" fill="none" xmlns="http://www.w3.org/2000/svg">
<g clip-path="url(#clip0_5_2251)">
<path fill-rule="evenodd" clip-rule="evenodd" d="M11.2499 1.5C10.388 1.5 9.56134 1.84241 8.95185 2.4519C8.34235 3.06139 7.99994 3.88804 7.99994 4.75C7.99994 5.61195 8.34235 6.4386 8.95185 7.04809C9.56134 7.65759 10.388 8 11.2499 8C12.1119 8 12.9385 7.65759 13.548 7.04809C14.1575 6.4386 14.4999 5.61195 14.4999 4.75C14.4999 3.88804 14.1575 3.06139 13.548 2.4519C12.9385 1.84241 12.1119 1.5 11.2499 1.5ZM6.49994 4.75C6.50007 3.68334 6.8592 2.64778 7.51951 1.81008C8.17982 0.972379 9.10286 0.381308 10.14 0.132058C11.1771 -0.117192 12.2679 -0.0101119 13.2368 0.436053C14.2057 0.882218 14.9961 1.6415 15.481 2.59161C15.9658 3.54171 16.1167 4.62735 15.9094 5.67367C15.7021 6.71998 15.1487 7.66607 14.3382 8.35957C13.5278 9.05307 12.5075 9.45361 11.4417 9.49668C10.376 9.53975 9.32669 9.22284 8.46294 8.597L7.06094 10L9.03094 11.97L9.56094 12.5L9.03094 13.03L6.78094 15.28L6.24994 15.81L5.71994 15.28L3.74994 13.31L1.77994 15.28L1.24994 15.81L0.189941 14.75L0.719941 14.22L2.68994 12.25L3.21994 11.72L5.46994 9.47L5.99994 8.94L7.40294 7.537C6.81452 6.727 6.49834 5.75116 6.49994 4.75ZM4.80994 12.25L6.24994 13.69L7.43994 12.5L5.99994 11.06L4.80994 12.25Z" fill="white"/>
</g>
<defs>
<clipPath id="clip0_5_2251">
<rect width="16" height="16" fill="white"/>
</clipPath>
</defs>
</svg>
