<svg width="16" height="16" viewBox="0 0 16 16" fill="none" xmlns="http://www.w3.org/2000/svg">
<g clip-path="url(#clip0_5_2250)">
<path fill-rule="evenodd" clip-rule="evenodd" d="M6.5 5.5C6.50036 4.6532 6.76944 3.82836 7.26851 3.14425C7.76758 2.46014 8.47089 1.95207 9.27715 1.69319C10.0834 1.43431 10.951 1.43798 11.7551 1.70368C12.5591 1.96938 13.2581 2.48339 13.7513 3.1717C14.2446 3.86001 14.5067 4.6871 14.4999 5.53388C14.4931 6.38065 14.2177 7.20342 13.7134 7.8837C13.2091 8.56398 12.502 9.06667 11.6938 9.3194C10.8856 9.57212 10.018 9.56182 9.216 9.29L9.099 9.25H7.25V12.25H5V14.5H1.5V11.582L6.38 7.145L6.707 6.848L6.606 6.418C6.53544 6.1171 6.49987 5.80906 6.5 5.5ZM10.5 1.24383e-07C9.70848 -0.0001682 8.92625 0.170507 8.20674 0.500367C7.48723 0.830227 6.8474 1.3115 6.33094 1.91131C5.81448 2.51112 5.43357 3.21534 5.21423 3.97586C4.99489 4.73638 4.94228 5.53528 5.06 6.318L0.245 10.695L0 10.918V16H6.5V13.75H8.75V10.75H8.856C9.61217 10.9861 10.4104 11.0561 11.1961 10.9552C11.9819 10.8542 12.7365 10.5848 13.4084 10.1652C14.0804 9.74561 14.6537 9.18583 15.0893 8.52416C15.5249 7.86248 15.8124 7.11452 15.9321 6.33145C16.0519 5.54838 16.0011 4.74868 15.7832 3.98706C15.5653 3.22545 15.1854 2.51989 14.6696 1.91867C14.1537 1.31745 13.5141 0.834755 12.7945 0.503605C12.0749 0.172456 11.2922 0.000669391 10.5 1.24383e-07ZM10.5 6.5C10.7652 6.5 11.0196 6.39464 11.2071 6.20711C11.3946 6.01957 11.5 5.76522 11.5 5.5C11.5 5.23478 11.3946 4.98043 11.2071 4.79289C11.0196 4.60536 10.7652 4.5 10.5 4.5C10.2348 4.5 9.98043 4.60536 9.79289 4.79289C9.60536 4.98043 9.5 5.23478 9.5 5.5C9.5 5.76522 9.60536 6.01957 9.79289 6.20711C9.98043 6.39464 10.2348 6.5 10.5 6.5Z" fill="white"/>
</g>
<defs>
<clipPath id="clip0_5_2250">
<rect width="16" height="16" fill="white"/>
</clipPath>
</defs>
</svg>
