<svg width="16" height="16" viewBox="0 0 16 16" fill="none" xmlns="http://www.w3.org/2000/svg">
<g clip-path="url(#clip0_5_2252)">
<path fill-rule="evenodd" clip-rule="evenodd" d="M10.6789 2.05401L9.81694 5.56301L13.3249 6.42501L14.1879 2.91501L10.6789 2.05401ZM10.3829 0.436007C10.17 0.383811 9.945 0.418327 9.75748 0.531966C9.56995 0.645606 9.43524 0.829065 9.38294 1.04201L8.19894 5.85901C8.14675 6.07197 8.18126 6.29695 8.2949 6.48447C8.40854 6.672 8.592 6.80671 8.80494 6.85901L13.6209 8.04201C13.8338 8.09423 14.0586 8.05985 14.2461 7.94642C14.4336 7.83298 14.5684 7.64976 14.6209 7.43701L15.8049 2.62001C15.8571 2.40704 15.8226 2.18206 15.709 1.99454C15.5953 1.80702 15.4119 1.6723 15.1989 1.62001L10.3829 0.436007ZM9.49994 14.5C10.0304 14.5 10.5391 14.2893 10.9142 13.9142C11.2892 13.5391 11.4999 13.0304 11.4999 12.5C11.4999 11.9696 11.2892 11.4609 10.9142 11.0858C10.5391 10.7107 10.0304 10.5 9.49994 10.5C8.96951 10.5 8.4608 10.7107 8.08573 11.0858C7.71066 11.4609 7.49994 11.9696 7.49994 12.5C7.49994 13.0304 7.71066 13.5391 8.08573 13.9142C8.4608 14.2893 8.96951 14.5 9.49994 14.5ZM9.49994 16C10.4282 16 11.3184 15.6313 11.9748 14.9749C12.6312 14.3185 12.9999 13.4283 12.9999 12.5C12.9999 11.5717 12.6312 10.6815 11.9748 10.0251C11.3184 9.36876 10.4282 9.00001 9.49994 9.00001C8.57168 9.00001 7.68145 9.36876 7.02507 10.0251C6.36869 10.6815 5.99994 11.5717 5.99994 12.5C5.99994 13.4283 6.36869 14.3185 7.02507 14.9749C7.68145 15.6313 8.57168 16 9.49994 16ZM2.93094 5.14801L5.61594 7.51301L2.25694 8.66001L2.93094 5.14801ZM0.467942 10.028C0.45082 10.1183 0.457674 10.2116 0.487822 10.2984C0.517969 10.3853 0.570357 10.4627 0.639762 10.523C0.709168 10.5833 0.793166 10.6244 0.883384 10.6421C0.973602 10.6598 1.06689 10.6536 1.15394 10.624L7.68994 8.38901C7.77707 8.35922 7.85486 8.30708 7.91552 8.2378C7.97618 8.16852 8.01759 8.08453 8.03561 7.99423C8.05363 7.90392 8.04763 7.81047 8.01821 7.72322C7.98878 7.63596 7.93697 7.55796 7.86794 7.49701L2.64394 2.89601C2.57439 2.83478 2.48991 2.79302 2.39903 2.77494C2.30815 2.75685 2.21411 2.7631 2.12642 2.79304C2.03874 2.82298 1.96051 2.87555 1.89967 2.94543C1.83883 3.01532 1.79753 3.10003 1.77994 3.19101L0.467942 10.028Z" fill="white"/>
</g>
<defs>
<clipPath id="clip0_5_2252">
<rect width="16" height="16" fill="white"/>
</clipPath>
</defs>
</svg>
