<svg width="16" height="16" viewBox="0 0 16 16" fill="none" xmlns="http://www.w3.org/2000/svg">
<g clip-path="url(#clip0_5_2253)">
<path fill-rule="evenodd" clip-rule="evenodd" d="M2.75 3.04458e-08H2V1.5H2.75C3.683 1.5 4.534 2.036 4.937 2.878L6.373 5.879L6.319 5.998L2.319 14.686L2.005 15.368L3.368 15.995L3.681 15.314L7.215 7.638L10.717 14.957C11.33 16.237 13.111 16.35 13.88 15.157L14.287 14.526L13.026 13.713L12.62 14.343C12.5898 14.3904 12.5474 14.4289 12.4973 14.4544C12.4471 14.4799 12.3911 14.4915 12.335 14.488C12.2789 14.4845 12.2247 14.4661 12.1781 14.4346C12.1315 14.4032 12.0942 14.3598 12.07 14.309L6.29 2.23C5.9704 1.56221 5.4684 0.998452 4.84199 0.603852C4.21559 0.209252 3.49033 -9.21753e-05 2.75 3.04458e-08Z" fill="white"/>
</g>
<defs>
<clipPath id="clip0_5_2253">
<rect width="16" height="16" fill="white"/>
</clipPath>
</defs>
</svg>
