<svg width="16" height="16" viewBox="0 0 16 16" fill="none" xmlns="http://www.w3.org/2000/svg">
<path fill-rule="evenodd" clip-rule="evenodd" d="M13.5 1.5H2.5V13.5C2.5 13.7652 2.60536 14.0196 2.79289 14.2071C2.98043 14.3946 3.23478 14.5 3.5 14.5H12.5C12.7652 14.5 13.0196 14.3946 13.2071 14.2071C13.3946 14.0196 13.5 13.7652 13.5 13.5V1.5ZM2.5 0H1V13.5C1 14.163 1.26339 14.7989 1.73223 15.2678C2.20107 15.7366 2.83696 16 3.5 16H12.5C13.163 16 13.7989 15.7366 14.2678 15.2678C14.7366 14.7989 15 14.163 15 13.5V0H2.5ZM4.857 3.452H5.607C6.534 3.452 7.378 3.984 7.778 4.819L10.645 10.81L10.863 10.472L12.123 11.284L11.718 11.914C11.5922 12.1094 11.4165 12.2677 11.2091 12.3726C11.0016 12.4774 10.77 12.525 10.538 12.5104C10.3061 12.4958 10.0822 12.4196 9.88954 12.2896C9.69687 12.1597 9.54237 11.9806 9.442 11.771L7.934 8.621L6.284 12.091L5.962 12.769L4.608 12.125L4.93 11.447L6.96 7.178L7.101 6.88L6.425 5.467C6.35108 5.31277 6.23506 5.18258 6.09032 5.09145C5.94558 5.00033 5.77803 4.95198 5.607 4.952H4.857V3.452Z" fill="white"/>
</svg>
