<svg width="16" height="16" viewBox="0 0 16 16" fill="none" xmlns="http://www.w3.org/2000/svg">
<g clip-path="url(#clip0_5_2260)">
<mask id="mask0_5_2260" style="mask-type:luminance" maskUnits="userSpaceOnUse" x="0" y="0" width="16" height="16">
<path d="M0 16L0 0L16 0V16H0Z" fill="white"/>
</mask>
<g mask="url(#mask0_5_2260)">
<path d="M13.5 5C14.8807 5 16 3.88071 16 2.5C16 1.11929 14.8807 0 13.5 0C12.1193 0 11 1.11929 11 2.5C11 3.88071 12.1193 5 13.5 5Z" fill="#52A8FF"/>
<path fill-rule="evenodd" clip-rule="evenodd" d="M3 14.5H2.25C2.05109 14.5 1.86032 14.421 1.71967 14.2803C1.57902 14.1397 1.5 13.9489 1.5 13.75V12.5H0V13.75C0 14.3467 0.237053 14.919 0.65901 15.341C1.08097 15.7629 1.65326 16 2.25 16H3V14.5ZM6 14.5H4V16H6V14.5ZM4 0H6V1.5H4V0ZM1.5 3.5V2.25C1.5 2.05109 1.57902 1.86032 1.71967 1.71967C1.86032 1.57902 2.05109 1.5 2.25 1.5H3V0H2.25C1.65326 0 1.08097 0.237053 0.65901 0.65901C0.237053 1.08097 0 1.65326 0 2.25L0 3.5H1.5ZM1.5 8.5V11.5H0V8.5H1.5ZM1.5 7.5V4.5H0V7.5H1.5ZM8.75 16C8.15326 16 7.58097 15.7629 7.15901 15.341C6.73705 14.919 6.5 14.3467 6.5 13.75V2.25C6.5 1.65326 6.73705 1.08097 7.15901 0.65901C7.58097 0.237053 8.15326 0 8.75 0L10.377 0C10.0231 0.441067 9.7671 0.952388 9.626 1.5H8.75C8.55109 1.5 8.36032 1.57902 8.21967 1.71967C8.07902 1.86032 8 2.05109 8 2.25V13.75C8 14.164 8.336 14.5 8.75 14.5H13.75C13.9489 14.5 14.1397 14.421 14.2803 14.2803C14.421 14.1397 14.5 13.9489 14.5 13.75V6.374C15.0476 6.23288 15.5589 5.97688 16 5.623V13.75C16 14.3467 15.7629 14.919 15.341 15.341C14.919 15.7629 14.3467 16 13.75 16H8.75Z" fill="white"/>
</g>
</g>
<defs>
<clipPath id="clip0_5_2260">
<rect width="16" height="16" fill="white"/>
</clipPath>
</defs>
</svg>
