<svg width="16" height="16" viewBox="0 0 16 16" fill="none" xmlns="http://www.w3.org/2000/svg">
<g clip-path="url(#clip0_5_2259)">
<mask id="mask0_5_2259" style="mask-type:luminance" maskUnits="userSpaceOnUse" x="0" y="0" width="16" height="16">
<path d="M0 16L0 0L16 0V16H0Z" fill="white"/>
</mask>
<g mask="url(#mask0_5_2259)">
<path fill-rule="evenodd" clip-rule="evenodd" d="M2.25 14.5H3V16H2.25C1.65326 16 1.08097 15.7629 0.65901 15.341C0.237053 14.919 0 14.3467 0 13.75L0 12.5H1.5V13.75C1.5 14.164 1.836 14.5 2.25 14.5ZM4 14.5H6V16H4V14.5ZM6 0H4V1.5H6V0ZM1.5 2.25V3.5H0V2.25C0 1.65326 0.237053 1.08097 0.65901 0.65901C1.08097 0.237053 1.65326 0 2.25 0L3 0V1.5H2.25C2.05109 1.5 1.86032 1.57902 1.71967 1.71967C1.57902 1.86032 1.5 2.05109 1.5 2.25ZM1.5 11.5V8.5H0V11.5H1.5ZM1.5 4.5V7.5H0V4.5H1.5ZM6.5 13.75C6.5 14.3467 6.73705 14.919 7.15901 15.341C7.58097 15.7629 8.15326 16 8.75 16H13.75C14.3467 16 14.919 15.7629 15.341 15.341C15.7629 14.919 16 14.3467 16 13.75V2.25C16 1.65326 15.7629 1.08097 15.341 0.65901C14.919 0.237053 14.3467 0 13.75 0L8.75 0C8.15326 0 7.58097 0.237053 7.15901 0.65901C6.73705 1.08097 6.5 1.65326 6.5 2.25V13.75ZM8.75 14.5C8.55109 14.5 8.36032 14.421 8.21967 14.2803C8.07902 14.1397 8 13.9489 8 13.75V2.25C8 2.05109 8.07902 1.86032 8.21967 1.71967C8.36032 1.57902 8.55109 1.5 8.75 1.5H13.75C13.9489 1.5 14.1397 1.57902 14.2803 1.71967C14.421 1.86032 14.5 2.05109 14.5 2.25V13.75C14.5 13.9489 14.421 14.1397 14.2803 14.2803C14.1397 14.421 13.9489 14.5 13.75 14.5H8.75Z" fill="white"/>
</g>
</g>
<defs>
<clipPath id="clip0_5_2259">
<rect width="16" height="16" fill="white"/>
</clipPath>
</defs>
</svg>
