<svg width="16" height="16" viewBox="0 0 16 16" fill="none" xmlns="http://www.w3.org/2000/svg">
<g clip-path="url(#clip0_5_2261)">
<path fill-rule="evenodd" clip-rule="evenodd" d="M9.753 14.26C8.31689 14.6623 6.78611 14.5585 5.41745 13.966C4.04879 13.3736 2.9255 12.3284 2.236 11.006H9.753V14.26ZM11.007 13.764C12.3294 13.0745 13.3746 11.9512 13.967 10.5826C14.5595 9.21389 14.6633 7.68311 14.261 6.247H11.007V13.764ZM13.764 4.993H6.247V1.739C7.68311 1.3367 9.21389 1.44049 10.5826 2.03297C11.9512 2.62544 13.0745 3.67056 13.764 4.993ZM4.993 2.236C3.67056 2.9255 2.62544 4.04879 2.03297 5.41745C1.44049 6.78611 1.3367 8.31689 1.739 9.753H4.993V2.236ZM16 8C16 10.1217 15.1571 12.1566 13.6569 13.6569C12.1566 15.1571 10.1217 16 8 16C5.87827 16 3.84344 15.1571 2.34315 13.6569C0.842855 12.1566 0 10.1217 0 8C0 5.87827 0.842855 3.84344 2.34315 2.34315C3.84344 0.842855 5.87827 0 8 0C10.1217 0 12.1566 0.842855 13.6569 2.34315C15.1571 3.84344 16 5.87827 16 8ZM6.247 6.247H9.753V9.753H6.247V6.247Z" fill="white"/>
</g>
<defs>
<clipPath id="clip0_5_2261">
<rect width="16" height="16" fill="white"/>
</clipPath>
</defs>
</svg>
