<svg width="16" height="16" viewBox="0 0 16 16" fill="none" xmlns="http://www.w3.org/2000/svg">
<g clip-path="url(#clip0_5_2262)">
<path fill-rule="evenodd" clip-rule="evenodd" d="M14.5 8C14.5 9.107 14.223 10.15 13.735 11.063L11.345 9.697C11.604 9.187 11.75 8.611 11.75 8C11.75 7.39 11.604 6.812 11.345 6.303L13.735 4.937C14.223 5.85 14.5 6.893 14.5 8ZM11.063 2.265C10.1208 1.76107 9.06849 1.49825 8 1.5C6.893 1.5 5.85 1.777 4.937 2.265L6.303 4.655C6.82875 4.38789 7.41029 4.2491 8 4.25C8.61 4.25 9.188 4.396 9.697 4.655L11.063 2.265ZM9.697 11.345L11.063 13.735C10.1208 14.239 9.0685 14.5018 8 14.5C6.9315 14.5018 5.87918 14.239 4.937 13.735L6.303 11.345C6.813 11.604 7.389 11.75 8 11.75C8.61 11.75 9.188 11.604 9.697 11.345ZM4.655 9.697C4.38789 9.17125 4.2491 8.58971 4.25 8C4.25 7.39 4.396 6.812 4.655 6.303L2.265 4.937C1.76103 5.87918 1.49821 6.9315 1.5 8C1.5 9.107 1.777 10.15 2.265 11.063L4.655 9.697ZM16 8C16 10.1217 15.1571 12.1566 13.6569 13.6569C12.1566 15.1571 10.1217 16 8 16C5.87827 16 3.84344 15.1571 2.34315 13.6569C0.842855 12.1566 0 10.1217 0 8C0 5.87827 0.842855 3.84344 2.34315 2.34315C3.84344 0.842855 5.87827 0 8 0C10.1217 0 12.1566 0.842855 13.6569 2.34315C15.1571 3.84344 16 5.87827 16 8ZM10.5 8C10.5 8.66304 10.2366 9.29893 9.76777 9.76777C9.29893 10.2366 8.66304 10.5 8 10.5C7.33696 10.5 6.70107 10.2366 6.23223 9.76777C5.76339 9.29893 5.5 8.66304 5.5 8C5.5 7.33696 5.76339 6.70107 6.23223 6.23223C6.70107 5.76339 7.33696 5.5 8 5.5C8.66304 5.5 9.29893 5.76339 9.76777 6.23223C10.2366 6.70107 10.5 7.33696 10.5 8Z" fill="white"/>
</g>
<defs>
<clipPath id="clip0_5_2262">
<rect width="16" height="16" fill="white"/>
</clipPath>
</defs>
</svg>
