<svg width="16" height="16" viewBox="0 0 16 16" fill="none" xmlns="http://www.w3.org/2000/svg">
<path fill-rule="evenodd" clip-rule="evenodd" d="M7.15701 0L2.33301 9.408L1.77301 10.5H7.00001C7.06631 10.5 7.1299 10.5263 7.17679 10.5732C7.22367 10.6201 7.25001 10.6837 7.25001 10.75V16H8.84301L13.667 6.592L14.227 5.5H9.00001C8.93371 5.5 8.87012 5.47366 8.82323 5.42678C8.77635 5.37989 8.75001 5.3163 8.75001 5.25V0H7.15701ZM7.00001 9H4.22701L7.25001 3.106V5.25C7.25001 6.216 8.03401 7 9.00001 7H11.773L8.75001 12.894V10.75C8.75001 10.2859 8.56564 9.84075 8.23745 9.51256C7.90926 9.18437 7.46414 9 7.00001 9Z" fill="white"/>
</svg>
