<svg width="16" height="16" viewBox="0 0 16 16" fill="none" xmlns="http://www.w3.org/2000/svg">
<path fill-rule="evenodd" clip-rule="evenodd" d="M1 1V12.75C1 13.3467 1.23705 13.919 1.65901 14.341C2.08097 14.7629 2.65326 15 3.25 15H15V13.5H3.25C3.05109 13.5 2.86032 13.421 2.71967 13.2803C2.57902 13.1397 2.5 12.9489 2.5 12.75V1H1ZM14.297 6.013L14.81 5.466L13.716 4.44L13.203 4.987L9.983 8.421L7.707 6.146C7.51947 5.95853 7.26516 5.85321 7 5.85321C6.73484 5.85321 6.48053 5.95853 6.293 6.146L4.22 8.22L3.69 8.75L4.75 9.81L5.28 9.28L7 7.56L9.287 9.847C9.38177 9.94184 9.49465 10.0167 9.61892 10.067C9.74319 10.1173 9.87631 10.1422 10.0104 10.14C10.1444 10.1379 10.2767 10.1088 10.3993 10.0545C10.5219 10.0002 10.6323 9.92183 10.724 9.824L14.297 6.013Z" fill="white"/>
</svg>
