<svg width="16" height="16" viewBox="0 0 16 16" fill="none" xmlns="http://www.w3.org/2000/svg">
<g clip-path="url(#clip0_5_2265)">
<path fill-rule="evenodd" clip-rule="evenodd" d="M8.47 1.47C9.27361 0.666396 10.3635 0.214935 11.5 0.214935C12.6365 0.214935 13.7264 0.666396 14.53 1.47C15.3336 2.27361 15.7851 3.36353 15.7851 4.5C15.7851 5.63647 15.3336 6.7264 14.53 7.53L12.03 10.03L10.97 8.97L13.47 6.47C13.9925 5.94753 14.286 5.2389 14.286 4.5C14.286 3.76111 13.9925 3.05248 13.47 2.53C12.9475 2.00753 12.2389 1.714 11.5 1.714C10.7611 1.714 10.0525 2.00753 9.53 2.53L7.03 5.03L5.97 3.97L8.47 1.47ZM11.53 5.53L5.53 11.53L4.47 10.47L10.47 4.47L11.53 5.53ZM1.47 14.53C1.8679 14.9279 2.34028 15.2436 2.86017 15.4589C3.38006 15.6743 3.93727 15.7851 4.5 15.7851C5.06273 15.7851 5.61994 15.6743 6.13983 15.4589C6.65972 15.2436 7.1321 14.9279 7.53 14.53L10.03 12.03L8.97 10.97L6.47 13.47C5.94752 13.9925 5.23889 14.286 4.5 14.286C3.76111 14.286 3.05248 13.9925 2.53 13.47C2.00752 12.9475 1.714 12.2389 1.714 11.5C1.714 10.7611 2.00752 10.0525 2.53 9.53L5.03 7.03L3.97 5.97L1.47 8.47C1.07209 8.8679 0.756444 9.34028 0.541094 9.86017C0.325744 10.3801 0.214905 10.9373 0.214905 11.5C0.214905 12.0627 0.325744 12.6199 0.541094 13.1398C0.756444 13.6597 1.07209 14.1321 1.47 14.53Z" fill="white"/>
</g>
<defs>
<clipPath id="clip0_5_2265">
<rect width="16" height="16" fill="white"/>
</clipPath>
</defs>
</svg>
