<svg width="16" height="16" viewBox="0 0 16 16" fill="none" xmlns="http://www.w3.org/2000/svg">
<g clip-path="url(#clip0_5_2267)">
<path fill-rule="evenodd" clip-rule="evenodd" d="M2 0C1.46957 0 0.960859 0.210714 0.585786 0.585786C0.210714 0.960859 0 1.46957 0 2L0 14C0 14.5304 0.210714 15.0391 0.585786 15.4142C0.960859 15.7893 1.46957 16 2 16H14C14.5304 16 15.0391 15.7893 15.4142 15.4142C15.7893 15.0391 16 14.5304 16 14V2C16 1.46957 15.7893 0.960859 15.4142 0.585786C15.0391 0.210714 14.5304 0 14 0L2 0ZM5 6.75V13H3V6.75H5ZM5 4.5C5 5.056 4.614 5.5 3.994 5.5H3.982C3.386 5.5 3 5.056 3 4.5C3 3.932 3.398 3.5 4.006 3.5C4.614 3.5 4.988 3.932 5 4.5ZM8.5 13H6.5C6.5 13 6.532 7.432 6.5 6.75H8.5V7.784C8.5 7.784 9 6.75 10.5 6.75C12 6.75 13 7.598 13 9.831V13H11V10.11C11 10.11 11 8.466 9.736 8.466C8.472 8.466 8.5 9.94 8.5 9.94V13Z" fill="white"/>
</g>
<defs>
<clipPath id="clip0_5_2267">
<rect width="16" height="16" fill="white"/>
</clipPath>
</defs>
</svg>
