<svg width="16" height="16" viewBox="0 0 16 16" fill="none" xmlns="http://www.w3.org/2000/svg">
<path fill-rule="evenodd" clip-rule="evenodd" d="M4.24999 1.5C3.44101 1.50011 2.64887 1.7311 1.96663 2.16584C1.28439 2.60058 0.740407 3.221 0.398583 3.95422C0.0567598 4.68743 -0.0686985 5.50297 0.036949 6.30502C0.142597 7.10707 0.474961 7.86231 0.994991 8.482L2.14299 7.518C1.80638 7.11698 1.59125 6.62819 1.52288 6.10911C1.45451 5.59002 1.53574 5.06221 1.75703 4.5877C1.97832 4.11319 2.33047 3.71172 2.77208 3.43047C3.2137 3.14921 3.72642 2.99987 4.24999 3H8.49999C9.22934 3 9.92881 3.28973 10.4445 3.80546C10.9603 4.32118 11.25 5.02065 11.25 5.75C11.25 6.47935 10.9603 7.17882 10.4445 7.69454C9.92881 8.21027 9.22934 8.5 8.49999 8.5V10C9.62716 10 10.7082 9.55223 11.5052 8.7552C12.3022 7.95817 12.75 6.87717 12.75 5.75C12.75 4.62283 12.3022 3.54183 11.5052 2.7448C10.7082 1.94777 9.62716 1.5 8.49999 1.5H4.24999ZM11.75 13H7.49999C6.77065 13 6.07117 12.7103 5.55545 12.1945C5.03972 11.6788 4.74999 10.9793 4.74999 10.25C4.74999 9.52065 5.03972 8.82118 5.55545 8.30546C6.07117 7.78973 6.77065 7.5 7.49999 7.5V6C6.37282 6 5.29182 6.44777 4.49479 7.2448C3.69776 8.04183 3.24999 9.12283 3.24999 10.25C3.24999 11.3772 3.69776 12.4582 4.49479 13.2552C5.29182 14.0522 6.37282 14.5 7.49999 14.5H11.75C12.559 14.4999 13.3511 14.2689 14.0334 13.8342C14.7156 13.3994 15.2596 12.779 15.6014 12.0458C15.9432 11.3126 16.0687 10.497 15.963 9.69498C15.8574 8.89293 15.525 8.13769 15.005 7.518L13.857 8.482C14.1936 8.88302 14.4087 9.37181 14.4771 9.89089C14.5455 10.41 14.4642 10.9378 14.2429 11.4123C14.0217 11.8868 13.6695 12.2883 13.2279 12.5695C12.7863 12.8508 12.2736 13.0001 11.75 13Z" fill="white"/>
</svg>
