<svg width="16" height="16" viewBox="0 0 16 16" fill="none" xmlns="http://www.w3.org/2000/svg">
<path fill-rule="evenodd" clip-rule="evenodd" d="M2.5 4C2.83152 4 3.14946 3.8683 3.38388 3.63388C3.6183 3.39946 3.75 3.08152 3.75 2.75C3.75 2.41848 3.6183 2.10054 3.38388 1.86612C3.14946 1.6317 2.83152 1.5 2.5 1.5C2.16848 1.5 1.85054 1.6317 1.61612 1.86612C1.3817 2.10054 1.25 2.41848 1.25 2.75C1.25 3.08152 1.3817 3.39946 1.61612 3.63388C1.85054 3.8683 2.16848 4 2.5 4ZM2.5 9.25C2.83152 9.25 3.14946 9.1183 3.38388 8.88388C3.6183 8.64946 3.75 8.33152 3.75 8C3.75 7.66848 3.6183 7.35054 3.38388 7.11612C3.14946 6.8817 2.83152 6.75 2.5 6.75C2.16848 6.75 1.85054 6.8817 1.61612 7.11612C1.3817 7.35054 1.25 7.66848 1.25 8C1.25 8.33152 1.3817 8.64946 1.61612 8.88388C1.85054 9.1183 2.16848 9.25 2.5 9.25ZM3.75 13.25C3.75 13.5815 3.6183 13.8995 3.38388 14.1339C3.14946 14.3683 2.83152 14.5 2.5 14.5C2.16848 14.5 1.85054 14.3683 1.61612 14.1339C1.3817 13.8995 1.25 13.5815 1.25 13.25C1.25 12.9185 1.3817 12.6005 1.61612 12.3661C1.85054 12.1317 2.16848 12 2.5 12C2.83152 12 3.14946 12.1317 3.38388 12.3661C3.6183 12.6005 3.75 12.9185 3.75 13.25ZM6.75 2H6V3.5H15V2H6.75ZM6.75 7.25H6V8.75H15V7.25H6.75ZM6.75 12.5H6V14H15V12.5H6.75Z" fill="white"/>
</svg>
