<svg width="16" height="16" viewBox="0 0 16 16" fill="none" xmlns="http://www.w3.org/2000/svg">
<path fill-rule="evenodd" clip-rule="evenodd" d="M3.62298 0.872996C3.62311 0.7783 3.60162 0.684825 3.56014 0.599696C3.51866 0.514567 3.45829 0.440033 3.38364 0.381775C3.30898 0.323517 3.22201 0.283074 3.12936 0.26353C3.0367 0.243985 2.9408 0.245855 2.84898 0.268996L1.84898 0.518996L1.24498 0.669996L1.54698 1.878L2.15098 1.727L2.37798 1.67V3.75H1.37698V4.995H4.62198V3.75H3.62298V0.872996ZM7.74998 2.127H7.12798V3.372H14.873V2.127H7.74998ZM7.12798 7.377H14.873V8.622H7.12798V7.377ZM7.12798 12.627H14.873V13.872H7.12798V12.627ZM3.06798 11.747C3.04498 11.739 3.00798 11.733 2.94498 11.761L2.25298 12.069L1.68398 12.322L1.17798 11.184L1.74798 10.931L2.43998 10.623C3.87198 9.987 5.12998 11.795 4.03598 12.917L2.72698 14.257H4.62298V15.502H2.43698C1.44298 15.502 0.938979 14.307 1.63298 13.596L3.14498 12.047C3.19298 11.998 3.19998 11.961 3.20098 11.937C3.20091 11.8956 3.18759 11.8553 3.16298 11.822C3.14028 11.7871 3.10698 11.7615 3.06798 11.747Z" fill="white"/>
</svg>
