<svg width="16" height="16" viewBox="0 0 16 16" fill="none" xmlns="http://www.w3.org/2000/svg">
<g clip-path="url(#clip0_5_2271)">
<path fill-rule="evenodd" clip-rule="evenodd" d="M11.525 10.263L8.00001 13.858L4.47501 10.263C2.50801 8.25899 2.50801 4.99599 4.47501 2.99099C4.93287 2.51919 5.48079 2.1441 6.08629 1.88795C6.69179 1.63181 7.34256 1.49983 8.00001 1.49983C8.65746 1.49983 9.30822 1.63181 9.91372 1.88795C10.5192 2.1441 11.0671 2.51919 11.525 2.99099C13.492 4.99599 13.492 8.25899 11.525 10.263ZM12.596 11.313L9.05101 14.93L8.00001 16L6.95001 14.929L3.40401 11.314C0.865006 8.72599 0.865006 4.52899 3.40401 1.93999C4.00152 1.32578 4.71609 0.837565 5.50549 0.504197C6.29489 0.170828 7.1431 -0.000930786 8.00001 -0.000930786C8.85691 -0.000930786 9.70512 0.170828 10.4945 0.504197C11.2839 0.837565 11.9985 1.32578 12.596 1.93999C15.135 4.52799 15.135 8.72499 12.596 11.313ZM9.00001 6.49999C9.00001 6.76521 8.89465 7.01956 8.70711 7.2071C8.51958 7.39464 8.26522 7.49999 8.00001 7.49999C7.73479 7.49999 7.48044 7.39464 7.2929 7.2071C7.10536 7.01956 7.00001 6.76521 7.00001 6.49999C7.00001 6.23478 7.10536 5.98042 7.2929 5.79289C7.48044 5.60535 7.73479 5.49999 8.00001 5.49999C8.26522 5.49999 8.51958 5.60535 8.70711 5.79289C8.89465 5.98042 9.00001 6.23478 9.00001 6.49999ZM8.00001 8.99999C8.66305 8.99999 9.29893 8.7366 9.76777 8.26776C10.2366 7.79892 10.5 7.16303 10.5 6.49999C10.5 5.83695 10.2366 5.20107 9.76777 4.73223C9.29893 4.26338 8.66305 3.99999 8.00001 3.99999C7.33696 3.99999 6.70108 4.26338 6.23224 4.73223C5.7634 5.20107 5.50001 5.83695 5.50001 6.49999C5.50001 7.16303 5.7634 7.79892 6.23224 8.26776C6.70108 8.7366 7.33696 8.99999 8.00001 8.99999Z" fill="white"/>
</g>
<defs>
<clipPath id="clip0_5_2271">
<rect width="16" height="16" fill="white"/>
</clipPath>
</defs>
</svg>
