<svg width="16" height="16" viewBox="0 0 16 16" fill="none" xmlns="http://www.w3.org/2000/svg">
<path fill-rule="evenodd" clip-rule="evenodd" d="M10 4.5V6H6V4.5C6 3.96957 6.21071 3.46086 6.58579 3.08579C6.96086 2.71071 7.46957 2.5 8 2.5C8.53043 2.5 9.03914 2.71071 9.41421 3.08579C9.78929 3.46086 10 3.96957 10 4.5ZM4.5 6V4.5C4.5 3.57174 4.86875 2.6815 5.52513 2.02513C6.1815 1.36875 7.07174 1 8 1C8.92826 1 9.8185 1.36875 10.4749 2.02513C11.1313 2.6815 11.5 3.57174 11.5 4.5V6H14V12.5C14 13.163 13.7366 13.7989 13.2678 14.2678C12.7989 14.7366 12.163 15 11.5 15H4.5C3.83696 15 3.20107 14.7366 2.73223 14.2678C2.26339 13.7989 2 13.163 2 12.5V6H4.5ZM11.5 7.5H3.5V12.5C3.5 12.7652 3.60536 13.0196 3.79289 13.2071C3.98043 13.3946 4.23478 13.5 4.5 13.5H11.5C11.7652 13.5 12.0196 13.3946 12.2071 13.2071C12.3946 13.0196 12.5 12.7652 12.5 12.5V7.5H11.5Z" fill="white"/>
</svg>
