<svg width="16" height="16" viewBox="0 0 16 16" fill="none" xmlns="http://www.w3.org/2000/svg">
<g clip-path="url(#clip0_5_2274)">
<path fill-rule="evenodd" clip-rule="evenodd" d="M14 6V4.5C14 3.96957 13.7893 3.46086 13.4142 3.08579C13.0391 2.71071 12.5304 2.5 12 2.5C11.4696 2.5 10.9609 2.71071 10.5858 3.08579C10.2107 3.46086 10 3.96957 10 4.5V6H12V12.5C12 12.8283 11.9353 13.1534 11.8097 13.4567C11.6841 13.76 11.4999 14.0356 11.2678 14.2678C11.0356 14.4999 10.76 14.6841 10.4567 14.8097C10.1534 14.9353 9.8283 15 9.5 15H2.5C1.83696 15 1.20107 14.7366 0.732233 14.2678C0.263392 13.7989 0 13.163 0 12.5L0 6H8.5V4.5C8.5 4.04037 8.59053 3.58525 8.76642 3.16061C8.94231 2.73597 9.20012 2.35013 9.52513 2.02513C9.85013 1.70012 10.236 1.44231 10.6606 1.26642C11.0852 1.09053 11.5404 1 12 1C12.4596 1 12.9148 1.09053 13.3394 1.26642C13.764 1.44231 14.1499 1.70012 14.4749 2.02513C14.7999 2.35013 15.0577 2.73597 15.2336 3.16061C15.4095 3.58525 15.5 4.04037 15.5 4.5V6H14ZM10.5 7.5H1.5V12.5C1.5 12.7652 1.60536 13.0196 1.79289 13.2071C1.98043 13.3946 2.23478 13.5 2.5 13.5H9.5C9.76522 13.5 10.0196 13.3946 10.2071 13.2071C10.3946 13.0196 10.5 12.7652 10.5 12.5V7.5Z" fill="white"/>
</g>
<defs>
<clipPath id="clip0_5_2274">
<rect width="16" height="16" fill="white"/>
</clipPath>
</defs>
</svg>
