<svg width="16" height="16" viewBox="0 0 16 16" fill="none" xmlns="http://www.w3.org/2000/svg">
<g clip-path="url(#clip0_5_2301)">
<mask id="mask0_5_2301" style="mask-type:luminance" maskUnits="userSpaceOnUse" x="0" y="0" width="16" height="16">
<path d="M0 0H16V16H0V0Z" fill="white"/>
</mask>
<g mask="url(#mask0_5_2301)">
<path d="M8.00001 15.4C12.0869 15.4 15.4 12.0869 15.4 8.00001C15.4 3.9131 12.0869 0.600006 8.00001 0.600006C3.9131 0.600006 0.600006 3.9131 0.600006 8.00001C0.600006 12.0869 3.9131 15.4 8.00001 15.4Z" fill="black" stroke="black" stroke-linecap="round" stroke-linejoin="round"/>
<path d="M10.63 11V5V11Z" fill="black"/>
<path d="M10.63 11V5" stroke="url(#paint0_linear_5_2301)" stroke-miterlimit="1.4" stroke-linejoin="round"/>
<path fill-rule="evenodd" clip-rule="evenodd" d="M5.995 5H4.745V11H5.995V6.968L12.361 14.708C12.712 14.479 13.043 14.224 13.353 13.945L5.995 5Z" fill="url(#paint1_linear_5_2301)"/>
</g>
</g>
<defs>
<linearGradient id="paint0_linear_5_2301" x1="-nan" y1="-nan" x2="-nan" y2="-nan" gradientUnits="userSpaceOnUse">
<stop stop-color="white"/>
<stop offset="0.6" stop-color="white" stop-opacity="0.6"/>
<stop offset="0.8" stop-color="white" stop-opacity="0"/>
<stop offset="1" stop-color="white" stop-opacity="0"/>
</linearGradient>
<linearGradient id="paint1_linear_5_2301" x1="9.9" y1="9.1" x2="13.6" y2="13.4" gradientUnits="userSpaceOnUse">
<stop stop-color="white"/>
<stop offset="1" stop-color="white" stop-opacity="0"/>
</linearGradient>
<clipPath id="clip0_5_2301">
<rect width="16" height="16" fill="white"/>
</clipPath>
</defs>
</svg>
