<svg width="16" height="16" viewBox="0 0 16 16" fill="none" xmlns="http://www.w3.org/2000/svg">
<g clip-path="url(#clip0_5_2312)">
<mask id="mask0_5_2312" style="mask-type:luminance" maskUnits="userSpaceOnUse" x="0" y="0" width="16" height="16">
<path d="M0 0H16V16H0V0Z" fill="white"/>
</mask>
<g mask="url(#mask0_5_2312)">
<path d="M3.42698 10.079C3.42698 10.999 2.68398 11.742 1.76398 11.742C0.843976 11.742 0.0999756 10.998 0.0999756 10.079C0.0999756 9.15899 0.842976 8.41599 1.76298 8.41599H3.42598L3.42698 10.079ZM4.25798 10.079C4.25798 9.15899 5.00198 8.41599 5.92098 8.41599C6.84098 8.41599 7.58398 9.15899 7.58398 10.079V14.236C7.58398 15.156 6.84098 15.899 5.92098 15.899C5.00098 15.899 4.25798 15.156 4.25798 14.236V10.079Z" fill="#E01E5A"/>
<path d="M5.92101 3.40199C5.00101 3.40199 4.25801 2.65799 4.25801 1.73899C4.25801 0.818989 5.00201 0.0759888 5.92101 0.0759888C6.84101 0.0759888 7.58401 0.818989 7.58401 1.73899V3.40199H5.92101ZM5.92101 4.24599C6.84101 4.24599 7.58401 4.98899 7.58401 5.90899C7.58401 6.82899 6.84101 7.57199 5.92101 7.57199H1.75101C0.831013 7.57199 0.0880127 6.82799 0.0880127 5.90899C0.0880127 4.98899 0.831013 4.24599 1.75101 4.24599H5.92101Z" fill="#36C5F0"/>
<path d="M12.586 5.90899C12.586 4.98899 13.329 4.24599 14.249 4.24599C15.169 4.24599 15.912 4.98899 15.912 5.90899C15.912 6.82899 15.168 7.57199 14.249 7.57199H12.586V5.90899ZM11.754 5.90899C11.754 6.82899 11.011 7.57199 10.091 7.57199C9.17098 7.57199 8.42798 6.82799 8.42798 5.90899V1.73899C8.42798 0.818989 9.17198 0.0759888 10.091 0.0759888C11.011 0.0759888 11.754 0.818989 11.754 1.73899V5.90899Z" fill="#2EB67D"/>
<path d="M10.091 12.573C11.011 12.573 11.754 13.316 11.754 14.236C11.754 15.156 11.011 15.899 10.091 15.899C9.17098 15.899 8.42798 15.156 8.42798 14.236V12.573H10.091ZM10.091 11.742C9.17098 11.742 8.42798 10.998 8.42798 10.079C8.42798 9.15899 9.17198 8.41599 10.091 8.41599H14.261C15.181 8.41599 15.924 9.15899 15.924 10.079C15.924 10.999 15.181 11.742 14.261 11.742H10.091Z" fill="#ECB22E"/>
</g>
</g>
<defs>
<clipPath id="clip0_5_2312">
<rect width="16" height="16" fill="white"/>
</clipPath>
</defs>
</svg>
