<svg width="16" height="16" viewBox="0 0 16 16" fill="none" xmlns="http://www.w3.org/2000/svg">
<g clip-path="url(#clip0_5_2292)">
<mask id="mask0_5_2292" style="mask-type:luminance" maskUnits="userSpaceOnUse" x="0" y="0" width="16" height="16">
<path d="M0 0H16V16H0V0Z" fill="white"/>
</mask>
<g mask="url(#mask0_5_2292)">
<path d="M15.527 6.68699L15.506 6.63099L13.386 1.09899C13.3429 0.990724 13.2668 0.898846 13.1683 0.836516C13.0699 0.774186 12.9543 0.7446 12.838 0.751994C12.722 0.758109 12.6106 0.799642 12.519 0.870994C12.4286 0.944466 12.3629 1.04396 12.331 1.15599L10.9 5.53599H5.10398L3.67398 1.15599C3.64388 1.0425 3.57862 0.941444 3.48755 0.867318C3.39649 0.793192 3.28429 0.7498 3.16705 0.74336C3.04981 0.736921 2.93353 0.767765 2.8349 0.831472C2.73626 0.895178 2.66033 0.988477 2.61798 1.09799L0.494979 6.62799L0.472979 6.68299C0.167663 7.48043 0.129951 8.35552 0.365532 9.17627C0.601112 9.99701 1.09721 10.7189 1.77898 11.233L1.78598 11.238L1.80598 11.252L5.03498 13.67L6.63198 14.879L7.60498 15.614C7.71882 15.7006 7.85793 15.7475 8.00098 15.7475C8.14403 15.7475 8.28313 15.7006 8.39698 15.614L9.36998 14.879L10.967 13.669L14.215 11.237L14.223 11.231C14.9029 10.7168 15.3975 9.99581 15.6327 9.17643C15.8678 8.35705 15.8307 7.48349 15.527 6.68699Z" fill="#E24329"/>
<path d="M15.527 6.68698L15.506 6.63098C14.4734 6.84265 13.5002 7.27972 12.656 7.91098L8 11.432C9.585 12.632 10.965 13.674 10.965 13.674L14.214 11.242L14.222 11.235C14.9027 10.7207 15.398 9.99929 15.6333 9.17927C15.8687 8.35924 15.8314 7.48497 15.527 6.68798V6.68698Z" fill="#FC6D26"/>
<path d="M5.03503 13.673L6.63203 14.883L7.60503 15.617C7.71879 15.7034 7.8577 15.7501 8.00053 15.7501C8.14337 15.7501 8.28228 15.7034 8.39603 15.617L9.37003 14.882L10.967 13.673L8.00003 11.432C6.41503 12.628 5.03503 13.673 5.03503 13.673Z" fill="#FCA326"/>
<path d="M3.34394 7.91198C2.50034 7.27869 1.52708 6.83987 0.493935 6.62698L0.473935 6.68298C0.168514 7.48031 0.130646 8.35534 0.366044 9.17607C0.601441 9.99681 1.09734 10.7187 1.77894 11.233L1.78594 11.238L1.80594 11.252L5.03493 13.67L7.99994 11.429L3.34394 7.91198Z" fill="#FC6D26"/>
</g>
</g>
<defs>
<clipPath id="clip0_5_2292">
<rect width="16" height="16" fill="white"/>
</clipPath>
</defs>
</svg>
