<svg width="16" height="16" viewBox="0 0 16 16" fill="none" xmlns="http://www.w3.org/2000/svg">
<g clip-path="url(#clip0_5_2298)">
<mask id="mask0_5_2298" style="mask-type:luminance" maskUnits="userSpaceOnUse" x="0" y="0" width="16" height="16">
<path d="M14 0H2C0.89543 0 0 0.89543 0 2V14C0 15.1046 0.89543 16 2 16H14C15.1046 16 16 15.1046 16 14V2C16 0.89543 15.1046 0 14 0Z" fill="white"/>
</mask>
<g mask="url(#mask0_5_2298)">
<path d="M0 0H16V16H0V0Z" fill="black"/>
<path d="M6.045 10.933C6.43479 10.9402 6.8221 10.8696 7.18432 10.7254C7.54653 10.5812 7.87637 10.3663 8.15457 10.0932C8.43278 9.82009 8.65376 9.49427 8.80461 9.13478C8.95547 8.7753 9.03316 8.38935 9.03316 7.99949C9.03316 7.60963 8.95547 7.22369 8.80461 6.8642C8.65376 6.50471 8.43278 6.17889 8.15457 5.90578C7.87637 5.63266 7.54653 5.41773 7.18432 5.27354C6.8221 5.12935 6.43479 5.05879 6.045 5.06599C5.27636 5.08018 4.544 5.39549 4.00545 5.94408C3.46689 6.49267 3.16516 7.23073 3.16516 7.99949C3.16516 8.76825 3.46689 9.50631 4.00545 10.0549C4.544 10.6035 5.27636 10.9188 6.045 10.933Z" fill="#EB001B"/>
<path d="M9.95596 10.933C10.734 10.933 11.4801 10.6239 12.0303 10.0738C12.5804 9.52367 12.8895 8.77752 12.8895 7.99951C12.8895 7.2215 12.5804 6.47535 12.0303 5.92521C11.4801 5.37507 10.734 5.06601 9.95596 5.06601C9.17795 5.06601 8.4318 5.37507 7.88166 5.92521C7.33153 6.47535 7.02246 7.2215 7.02246 7.99951C7.02246 8.77752 7.33153 9.52367 7.88166 10.0738C8.4318 10.6239 9.17795 10.933 9.95596 10.933Z" fill="#F79E1B"/>
<path d="M7.99998 10.187C8.30812 9.91213 8.55459 9.57515 8.72315 9.19821C8.89172 8.82127 8.97856 8.4129 8.97798 7.99999C8.97856 7.58707 8.89172 7.17871 8.72315 6.80177C8.55459 6.42482 8.30812 6.08784 7.99998 5.81299C7.69193 6.08792 7.44553 6.42492 7.27698 6.80185C7.10842 7.17877 7.02152 7.58709 7.02198 7.99999C7.02133 8.41291 7.10814 8.8213 7.27671 9.19825C7.44528 9.5752 7.69178 9.91218 7.99998 10.187Z" fill="#FF5F00"/>
</g>
</g>
<defs>
<clipPath id="clip0_5_2298">
<rect width="16" height="16" fill="white"/>
</clipPath>
</defs>
</svg>
