<svg width="16" height="16" viewBox="0 0 16 16" fill="none" xmlns="http://www.w3.org/2000/svg">
<g clip-path="url(#clip0_5_2305)">
<path d="M7.9049 0.000129592C7.2449 0.00312959 6.6149 0.0591296 6.0609 0.15613C4.4269 0.44113 4.1309 1.03913 4.1309 2.14013V3.59513H7.9909V4.08013H2.6819C1.5599 4.08013 0.578904 4.74713 0.271904 6.01513C-0.0830959 7.46913 -0.0980959 8.37613 0.271904 9.89513C0.545904 11.0251 1.2019 11.8301 2.3219 11.8301H3.6499V10.0861C3.6499 8.82613 4.7519 7.71413 6.0599 7.71413H9.9149C10.9879 7.71413 11.8449 6.84113 11.8449 5.77413V2.14013C11.8449 1.10613 10.9629 0.32813 9.9149 0.15613C9.2519 0.0461296 8.5649 -0.00287041 7.9049 0.000129592ZM5.8179 1.17013C6.00618 1.17711 6.18442 1.25681 6.31515 1.39248C6.44588 1.52815 6.51893 1.70922 6.51893 1.89763C6.51893 2.08604 6.44588 2.26711 6.31515 2.40278C6.18442 2.53845 6.00618 2.61815 5.8179 2.62513C5.62496 2.62513 5.43992 2.54848 5.30348 2.41205C5.16705 2.27562 5.0904 2.09057 5.0904 1.89763C5.0904 1.70468 5.16705 1.51964 5.30348 1.38321C5.43992 1.24678 5.62496 1.17013 5.8179 1.17013Z" fill="url(#paint0_linear_5_2305)"/>
<path d="M12.326 4.07999V5.77499C12.326 7.08899 11.2 8.19499 9.91601 8.19499H6.06C5.005 8.19499 4.13 9.08899 4.13 10.135V13.769C4.13 14.804 5.04 15.412 6.06 15.709C7.282 16.064 8.454 16.129 9.915 15.709C10.887 15.431 11.845 14.871 11.845 13.769V12.315H7.99V11.83H13.775C14.896 11.83 15.315 11.056 15.705 9.89399C16.107 8.69899 16.09 7.54899 15.705 6.01399C15.427 4.91099 14.898 4.07999 13.775 4.07999H12.326ZM10.158 13.284C10.3509 13.284 10.536 13.3606 10.6724 13.4971C10.8089 13.6335 10.8855 13.8185 10.8855 14.0115C10.8855 14.2044 10.8089 14.3895 10.6724 14.5259C10.536 14.6623 10.3509 14.739 10.158 14.739C9.96973 14.732 9.79149 14.6523 9.66076 14.5166C9.53003 14.381 9.45698 14.1999 9.45698 14.0115C9.45698 13.8231 9.53003 13.642 9.66076 13.5063C9.79149 13.3707 9.96973 13.291 10.158 13.284Z" fill="url(#paint1_linear_5_2305)"/>
</g>
<defs>
<linearGradient id="paint0_linear_5_2305" x1="-9.5925e-05" y1="0.000129608" x2="8.7999" y2="7.60013" gradientUnits="userSpaceOnUse">
<stop stop-color="#5A9FD4"/>
<stop offset="1" stop-color="#306998"/>
</linearGradient>
<linearGradient id="paint1_linear_5_2305" x1="10.1" y1="13.9" x2="6.9" y2="9.39999" gradientUnits="userSpaceOnUse">
<stop stop-color="#FFD43B"/>
<stop offset="1" stop-color="#FFE873"/>
</linearGradient>
<clipPath id="clip0_5_2305">
<rect width="16" height="16" fill="white"/>
</clipPath>
</defs>
</svg>
