<svg width="16" height="16" viewBox="0 0 16 16" fill="none" xmlns="http://www.w3.org/2000/svg">
<g clip-path="url(#clip0_5_2307)">
<path d="M7.99101 15.894C10.087 15.894 12.0972 15.0614 13.5793 13.5793C15.0614 12.0972 15.894 10.087 15.894 7.99101C15.894 5.89501 15.0614 3.88485 13.5793 2.40275C12.0972 0.920648 10.087 0.0880127 7.99101 0.0880127C5.89501 0.0880127 3.88485 0.920648 2.40275 2.40275C0.920648 3.88485 0.0880127 5.89501 0.0880127 7.99101C0.0880127 10.087 0.920648 12.0972 2.40275 13.5793C3.88485 15.0614 5.89501 15.894 7.99101 15.894Z" fill="#FF4500"/>
<path d="M13.262 7.99099C13.2534 7.76863 13.1809 7.55348 13.053 7.37135C12.9252 7.18922 12.7475 7.04786 12.5413 6.96424C12.3351 6.88062 12.1091 6.85828 11.8905 6.89992C11.6719 6.94156 11.47 7.04541 11.309 7.19899C10.4101 6.58741 9.353 6.24976 8.26599 6.22699L8.77999 3.75999L10.471 4.11599C10.4909 4.30277 10.5766 4.47637 10.7129 4.60563C10.8492 4.73489 11.0271 4.81137 11.2147 4.82133C11.4022 4.83129 11.5872 4.77409 11.7364 4.65999C11.8856 4.54589 11.9893 4.38236 12.0289 4.19873C12.0684 4.0151 12.0412 3.82339 11.9522 3.658C11.8631 3.4926 11.7181 3.36433 11.543 3.29622C11.368 3.2281 11.1744 3.22458 10.997 3.2863C10.8196 3.34802 10.67 3.47093 10.575 3.63299L8.63799 3.24599C8.60653 3.23907 8.57402 3.23842 8.54232 3.24407C8.51061 3.24973 8.48034 3.26158 8.45321 3.27895C8.42609 3.29632 8.40266 3.31886 8.38426 3.34529C8.36587 3.37172 8.35286 3.40152 8.34599 3.43299V3.43599L7.75999 6.17999C6.65999 6.19799 5.58999 6.53499 4.67799 7.15199C4.56754 7.04824 4.43775 6.96727 4.29601 6.91368C4.15428 6.8601 4.00338 6.83496 3.85192 6.8397C3.70047 6.84443 3.55143 6.87895 3.41332 6.94129C3.27521 7.00362 3.15073 7.09255 3.04699 7.20299C2.94324 7.31343 2.86227 7.44322 2.80868 7.58496C2.7551 7.7267 2.72996 7.8776 2.73469 8.02905C2.73943 8.1805 2.77395 8.32954 2.83628 8.46765C2.89862 8.60576 2.98754 8.73024 3.09799 8.83399C3.18899 8.91799 3.29299 8.99099 3.40799 9.04199C3.40006 9.15785 3.40006 9.27412 3.40799 9.38999C3.40799 11.16 5.47199 12.6 8.01599 12.6C10.559 12.6 12.622 11.162 12.622 9.38999C12.6299 9.27412 12.6299 9.15785 12.622 9.04199C13.019 8.84399 13.269 8.43499 13.261 7.99099H13.262ZM5.35899 8.78299C5.35899 8.34699 5.71399 7.99099 6.14999 7.99099C6.58599 7.99099 6.94199 8.34699 6.94199 8.78299C6.94146 8.99278 6.85781 9.19382 6.70937 9.34208C6.56093 9.49033 6.35978 9.57372 6.14999 9.57399C5.94052 9.57294 5.73994 9.48926 5.59183 9.34115C5.44371 9.19303 5.36004 8.99245 5.35899 8.78299ZM9.94899 10.987V10.955C9.38848 11.378 8.69863 11.5936 7.99699 11.565C7.29499 11.5939 6.60472 11.3783 6.04399 10.955C6.00994 10.9142 5.99239 10.8621 5.99479 10.809C5.99719 10.7558 6.01936 10.7056 6.05695 10.668C6.09455 10.6304 6.14484 10.6082 6.19795 10.6058C6.25107 10.6034 6.30315 10.6209 6.34399 10.655C6.81942 11.0038 7.39997 11.1792 7.98899 11.152C8.57828 11.1838 9.16087 11.0142 9.64099 10.671C9.6831 10.6302 9.73966 10.6077 9.79831 10.6084C9.85696 10.6092 9.91292 10.6331 9.95399 10.675C9.9945 10.7171 10.0168 10.7734 10.016 10.8318C10.0153 10.8902 9.99056 10.946 9.94899 10.987ZM9.84299 9.62999H9.80299L9.80899 9.59999C9.59953 9.59946 9.3988 9.51609 9.2506 9.36808C9.1024 9.22007 9.01878 9.01944 9.01799 8.80999C9.01799 8.37299 9.37299 8.01699 9.80899 8.01699C10.245 8.01699 10.601 8.37299 10.601 8.80899C10.6051 8.91267 10.5888 9.01615 10.553 9.11353C10.5171 9.21091 10.4624 9.30027 10.3921 9.37651C10.3217 9.45275 10.2369 9.51438 10.1427 9.55787C10.0485 9.60136 9.94667 9.62587 9.84299 9.62999Z" fill="white"/>
</g>
<defs>
<clipPath id="clip0_5_2307">
<rect width="16" height="16" fill="white"/>
</clipPath>
</defs>
</svg>
