<svg width="16" height="16" viewBox="0 0 16 16" fill="none" xmlns="http://www.w3.org/2000/svg">
<g clip-path="url(#clip0_5_2326)">
<mask id="mask0_5_2326" style="mask-type:luminance" maskUnits="userSpaceOnUse" x="0" y="0" width="16" height="16">
<path d="M0 0H16V16H0V0Z" fill="white"/>
</mask>
<g mask="url(#mask0_5_2326)">
<path d="M15.596 2.32297L8.41603 15.163C8.38238 15.2235 8.33323 15.2739 8.27364 15.3092C8.21404 15.3444 8.14614 15.3631 8.07691 15.3634C8.00768 15.3637 7.93961 15.3456 7.8797 15.3109C7.8198 15.2762 7.77021 15.2262 7.73603 15.166L0.413028 2.32397C0.376278 2.25953 0.358672 2.18593 0.362277 2.11183C0.365883 2.03773 0.390549 1.96619 0.433383 1.90562C0.476216 1.84504 0.535439 1.79794 0.604101 1.76984C0.672763 1.74174 0.748016 1.73381 0.821028 1.74697L8.00903 3.03197C8.05466 3.04018 8.10139 3.04018 8.14703 3.03197L15.185 1.74897C15.2578 1.73579 15.3328 1.74355 15.4013 1.77136C15.4698 1.79917 15.529 1.84588 15.5719 1.90604C15.6149 1.9662 15.6399 2.03734 15.644 2.11116C15.6481 2.18498 15.6321 2.25844 15.596 2.32297Z" fill="url(#paint0_linear_5_2326)"/>
<path d="M11.433 0.0609863L6.11902 1.10299C6.0766 1.11134 6.03816 1.13355 6.00974 1.16614C5.98132 1.19872 5.96453 1.23982 5.96202 1.28299L5.63502 6.80299C5.62702 6.93299 5.74702 7.03399 5.87402 7.00499L7.35302 6.66299C7.38494 6.65556 7.41822 6.65631 7.44978 6.66515C7.48134 6.67399 7.51016 6.69064 7.53358 6.71356C7.557 6.73648 7.57427 6.76494 7.58378 6.7963C7.5933 6.82766 7.59476 6.86091 7.58802 6.89299L7.14802 9.04499C7.14116 9.07814 7.14305 9.11251 7.1535 9.14471C7.16395 9.17692 7.1826 9.20584 7.20763 9.22865C7.23265 9.25145 7.26318 9.26735 7.29622 9.27477C7.32925 9.2822 7.36365 9.28089 7.39602 9.27099L8.31002 8.99299C8.3424 8.98308 8.37679 8.98178 8.40983 8.9892C8.44286 8.99662 8.47339 9.01252 8.49842 9.03532C8.52344 9.05813 8.5421 9.08706 8.55255 9.11926C8.563 9.15146 8.56489 9.18583 8.55802 9.21899L7.85902 12.6C7.81602 12.812 8.09702 12.927 8.21402 12.746L8.29302 12.624L12.623 3.98399C12.6397 3.95134 12.6469 3.91464 12.6437 3.87811C12.6405 3.84158 12.627 3.80669 12.6049 3.77746C12.5828 3.74822 12.5528 3.72582 12.5185 3.71282C12.4842 3.69983 12.447 3.69676 12.411 3.70399L10.888 3.99799C10.8553 4.00421 10.8216 4.00196 10.79 3.99146C10.7585 3.98097 10.7301 3.96256 10.7076 3.93801C10.6852 3.91345 10.6694 3.88356 10.6618 3.85117C10.6541 3.81879 10.6549 3.78499 10.664 3.75299L11.658 0.306986C11.6674 0.274829 11.6684 0.240793 11.6608 0.208159C11.6532 0.175526 11.6374 0.145396 11.6147 0.120674C11.5921 0.0959527 11.5635 0.0774738 11.5317 0.0670191C11.4999 0.0565645 11.4659 0.0544868 11.433 0.0609863Z" fill="url(#paint1_linear_5_2326)"/>
</g>
</g>
<defs>
<linearGradient id="paint0_linear_5_2326" x1="0.200028" y1="1.29997" x2="9.20003" y2="13.4" gradientUnits="userSpaceOnUse">
<stop stop-color="#41D1FF"/>
<stop offset="1" stop-color="#BD34FE"/>
</linearGradient>
<linearGradient id="paint1_linear_5_2326" x1="7.60002" y1="0.299986" x2="9.20002" y2="11.4" gradientUnits="userSpaceOnUse">
<stop stop-color="#FFEA83"/>
<stop offset="0.1" stop-color="#FFDD35"/>
<stop offset="1" stop-color="#FFA800"/>
</linearGradient>
<clipPath id="clip0_5_2326">
<rect width="16" height="16" fill="white"/>
</clipPath>
</defs>
</svg>
