<svg width="16" height="16" viewBox="0 0 16 16" fill="none" xmlns="http://www.w3.org/2000/svg">
<g clip-path="url(#clip0_5_2314)">
<path d="M4.78998 13.465V8.14499L0.531982 11.468L4.78898 13.464L4.78998 13.465Z" fill="white"/>
<path d="M4.78994 8.14399L4.46194 7.72399C4.54054 7.66243 4.63488 7.62424 4.73417 7.61377C4.83346 7.60331 4.93369 7.62099 5.0234 7.6648C5.11311 7.70861 5.18868 7.77679 5.24148 7.86153C5.29427 7.94626 5.32215 8.04415 5.32194 8.14399H4.78994ZM4.78994 13.465H5.32194C5.32201 13.5546 5.29944 13.6427 5.25634 13.7213C5.21325 13.7998 5.15101 13.8662 5.0754 13.9143C4.9998 13.9624 4.91328 13.9906 4.82387 13.9963C4.73445 14.002 4.64505 13.985 4.56394 13.947L4.78994 13.465ZM0.531939 11.47L0.305939 11.952C0.223568 11.9134 0.15246 11.8544 0.0994046 11.7805C0.0463494 11.7066 0.0131195 11.6204 0.00288851 11.53C-0.00734253 11.4396 0.00576694 11.3482 0.0409649 11.2643C0.0761629 11.1804 0.132274 11.107 0.203939 11.051L0.531939 11.47ZM5.32194 8.14499V13.465H4.25594V8.14499H5.32194ZM4.56394 13.948L0.306939 11.951L0.758939 10.988L5.01494 12.983L4.56394 13.947V13.948ZM0.205939 11.05L4.46194 7.72399L5.11694 8.56299L0.860939 11.89L0.205939 11.05Z" fill="#121212"/>
<path d="M7.73203 1.09001C8.13603 0.917009 8.67603 0.984009 9.26203 1.37601C9.84503 1.76401 10.41 2.43801 10.788 3.31801C11.166 4.19801 11.266 5.07101 11.148 5.76001C11.028 6.45601 10.705 6.89401 10.301 7.06701C9.89703 7.24101 9.35803 7.17401 8.77103 6.78201C8.18803 6.39401 7.62303 5.72001 7.24503 4.84101C6.86703 3.96101 6.76703 3.08701 6.88503 2.39701C7.00503 1.70201 7.32803 1.26401 7.73203 1.09001Z" fill="white" stroke="#121212" stroke-width="1.1" stroke-linejoin="round"/>
<path d="M3.18201 11.23C3.76001 13.765 6.70801 15.471 10.214 14.75C13.745 14.023 15.88 11.245 15.307 8.73001C14.735 6.22001 11.597 4.53301 8.07501 5.24701C4.04501 6.48301 2.69201 9.07801 3.18201 11.23Z" fill="#FFC700"/>
<path d="M3.18201 11.23C3.76001 13.765 6.70801 15.471 10.214 14.75C13.745 14.023 15.88 11.245 15.307 8.73001C14.735 6.22001 11.597 4.53301 8.07501 5.24701C4.04501 6.48301 2.69201 9.07801 3.18201 11.23Z" fill="url(#paint0_linear_5_2314)"/>
<path d="M3.18201 11.23C3.76001 13.765 6.70801 15.471 10.214 14.75C13.745 14.023 15.88 11.245 15.307 8.73001C14.735 6.22001 11.597 4.53301 8.07501 5.24701C4.04501 6.48301 2.69201 9.07801 3.18201 11.23Z" stroke="#121212" stroke-width="1.1" stroke-linejoin="round"/>
<path d="M10.04 14.208C10.1272 14.1989 10.2153 14.2109 10.2969 14.243C10.3785 14.2751 10.4511 14.3263 10.5087 14.3924C10.5663 14.4586 10.6071 14.5376 10.6277 14.6228C10.6483 14.708 10.6481 14.7969 10.627 14.882C10.5995 14.9828 10.5422 15.073 10.4627 15.1408C10.3831 15.2086 10.285 15.2508 10.181 15.262L10.041 14.208H10.04ZM8.81004 4.95601C8.89707 4.94722 8.98494 4.95946 9.06625 4.99172C9.14756 5.02397 9.21993 5.07529 9.27727 5.14135C9.33461 5.20741 9.37524 5.28629 9.39573 5.37133C9.41622 5.45637 9.41599 5.54508 9.39504 5.63001C9.36762 5.73091 9.31037 5.82117 9.23079 5.88897C9.15121 5.95678 9.053 5.99897 8.94904 6.01001L8.80904 4.95601H8.81004ZM5.85004 10.479C6.00604 11.652 6.50704 12.651 7.23004 13.318C7.94604 13.977 8.90204 14.334 10.04 14.208L10.18 15.263C8.73004 15.425 7.46104 14.961 6.51404 14.09C5.57604 13.225 4.97604 11.98 4.79204 10.598L5.85004 10.479ZM8.94804 6.01101C7.80504 6.13901 6.96904 6.68301 6.44804 7.46101C5.92104 8.24901 5.69504 9.30801 5.85004 10.479L4.79204 10.598C4.60804 9.21501 4.86604 7.89101 5.55604 6.86101C6.25104 5.82301 7.36404 5.11701 8.80804 4.95601L8.94804 6.01101Z" fill="#121212"/>
<path d="M12.312 13.405C12.3947 13.3757 12.4833 13.3668 12.5702 13.379C12.6571 13.3913 12.7398 13.4244 12.8111 13.4754C12.8825 13.5265 12.9405 13.594 12.9802 13.6723C13.0199 13.7506 13.04 13.8372 13.039 13.925C13.0362 14.0295 13.002 14.1307 12.9408 14.2154C12.8796 14.3001 12.7943 14.3645 12.696 14.4L12.312 13.405ZM10.354 4.607C10.4933 4.57886 10.6381 4.60616 10.7577 4.6831C10.8772 4.76003 10.962 4.88053 10.994 5.019C11.0096 5.08655 11.0114 5.15653 10.9994 5.22481C10.9875 5.29309 10.962 5.35828 10.9244 5.41653C10.8868 5.47479 10.838 5.52493 10.7807 5.564C10.7235 5.60307 10.659 5.63027 10.591 5.644L10.354 4.607ZM8.32803 10.284C8.50203 11.049 8.85403 12.108 9.49303 12.829C9.80303 13.179 10.169 13.436 10.605 13.554C11.04 13.671 11.597 13.665 12.312 13.405L12.696 14.4C11.816 14.72 11.032 14.761 10.343 14.576C9.65603 14.391 9.11403 13.992 8.69503 13.518C7.87203 12.588 7.47103 11.312 7.28503 10.498L8.32803 10.284ZM10.591 5.644C8.93403 5.985 7.80303 7.979 8.32803 10.284L7.28603 10.499C6.67803 7.827 7.93303 5.105 10.354 4.607L10.591 5.644Z" fill="#121212"/>
<path d="M2.94395 3.01001C2.68995 3.37001 2.64395 3.91001 2.90395 4.56601C3.16395 5.21601 3.70395 5.91001 4.48695 6.46301C5.26795 7.01501 6.10195 7.29501 6.80095 7.32301C7.50595 7.35001 8.00195 7.12601 8.25595 6.76701C8.50895 6.40701 8.55595 5.86701 8.29595 5.21001C8.03595 4.56001 7.49595 3.86701 6.71295 3.31401C5.93195 2.76101 5.09795 2.48201 4.39895 2.45401C3.69395 2.42701 3.19895 2.65101 2.94395 3.01001Z" fill="white" stroke="#121212" stroke-width="1.1" stroke-linejoin="round"/>
<path d="M11.935 9.07999C11.8656 9.09807 11.7932 9.10192 11.7223 9.09132C11.6514 9.08073 11.5833 9.0559 11.5222 9.01832C11.4611 8.98075 11.4083 8.93121 11.3668 8.87269C11.3254 8.81416 11.2962 8.74786 11.281 8.67776C11.2658 8.60766 11.2649 8.53522 11.2785 8.46479C11.292 8.39435 11.3196 8.32738 11.3597 8.2679C11.3998 8.20842 11.4515 8.15766 11.5117 8.11866C11.5719 8.07967 11.6393 8.05325 11.71 8.04099C11.7783 8.02622 11.8488 8.02504 11.9176 8.03752C11.9863 8.05001 12.0519 8.07591 12.1106 8.11375C12.1694 8.15159 12.2201 8.20062 12.2599 8.25806C12.2996 8.31549 12.3277 8.3802 12.3425 8.44849C12.3573 8.51678 12.3585 8.58731 12.346 8.65605C12.3335 8.72479 12.3076 8.7904 12.2697 8.84914C12.2319 8.90787 12.1829 8.95858 12.1254 8.99836C12.068 9.03814 12.0033 9.06622 11.935 9.08099V9.07999Z" fill="#121212" stroke="#121212" stroke-width="0.5" stroke-linejoin="round"/>
</g>
<defs>
<linearGradient id="paint0_linear_5_2314" x1="7.90001" y1="4.70001" x2="11" y2="15.1" gradientUnits="userSpaceOnUse">
<stop stop-color="#FFE073"/>
<stop offset="1" stop-color="#FFA800"/>
</linearGradient>
<clipPath id="clip0_5_2314">
<rect width="16" height="16" fill="white"/>
</clipPath>
</defs>
</svg>
