<svg width="16" height="16" viewBox="0 0 16 16" fill="none" xmlns="http://www.w3.org/2000/svg">
<g clip-path="url(#clip0_5_2285)">
<path d="M8 0C10.1217 0 12.1566 0.842855 13.6569 2.34315C15.1571 3.84344 16 5.87827 16 8C16 10.1217 15.1571 12.1566 13.6569 13.6569C12.1566 15.1571 10.1217 16 8 16C5.87827 16 3.84344 15.1571 2.34315 13.6569C0.842855 12.1566 0 10.1217 0 8C0 5.87827 0.842855 3.84344 2.34315 2.34315C3.84344 0.842855 5.87827 0 8 0Z" fill="#E04E39"/>
<path fill-rule="evenodd" clip-rule="evenodd" d="M8.15803 3.01601C9.18903 2.99601 9.91803 3.27601 10.544 4.16501C11.911 7.55301 7.02603 9.30201 6.83003 9.37001L6.82403 9.37201C6.82403 9.37201 6.67603 10.292 8.07703 10.257C9.80103 10.257 11.614 8.92101 12.303 8.35601C12.3832 8.29007 12.4854 8.25683 12.589 8.26295C12.6926 8.26907 12.7902 8.31409 12.862 8.38901L13.378 8.92501C13.4508 8.9999 13.4923 9.09966 13.4941 9.20404C13.496 9.30841 13.458 9.40959 13.388 9.48701C12.5293 10.4305 11.4766 11.177 10.302 11.675C10.302 11.675 7.65703 12.899 5.87403 11.74C4.81103 11.049 4.52003 10.22 4.40003 9.36001C4.40003 9.36001 3.11003 9.29401 2.28003 8.97001C1.45103 8.64701 2.28703 7.67001 2.28703 7.67001C2.28703 7.67001 2.54203 7.26501 3.02703 7.67001C3.51203 8.07301 4.41803 7.89001 4.41803 7.89001C4.49803 7.25301 4.63303 6.41201 5.02803 5.52401C5.85803 3.66401 7.12803 3.03601 8.15803 3.01601ZM8.76503 4.88001C8.21903 4.35401 6.64203 5.40601 6.58103 7.81201C6.58103 7.81201 7.04603 7.95301 8.07703 7.24501C9.10803 6.53801 9.31103 5.40501 8.76503 4.88001Z" fill="white"/>
</g>
<defs>
<clipPath id="clip0_5_2285">
<rect width="16" height="16" fill="white"/>
</clipPath>
</defs>
</svg>
