<svg width="16" height="16" viewBox="0 0 16 16" fill="none" xmlns="http://www.w3.org/2000/svg">
<path d="M8.00299 8.00001C8.00299 7.64977 8.07197 7.30297 8.206 6.97939C8.34003 6.65582 8.53648 6.36181 8.78414 6.11415C9.03179 5.8665 9.3258 5.67005 9.64937 5.53602C9.97295 5.40199 10.3198 5.33301 10.67 5.33301C11.0202 5.33301 11.367 5.40199 11.6906 5.53602C12.0142 5.67005 12.3082 5.8665 12.5558 6.11415C12.8035 6.36181 12.9999 6.65582 13.134 6.97939C13.268 7.30297 13.337 7.64977 13.337 8.00001C13.337 8.70734 13.056 9.3857 12.5558 9.88586C12.0557 10.386 11.3773 10.667 10.67 10.667C9.96266 10.667 9.2843 10.386 8.78414 9.88586C8.28398 9.3857 8.00299 8.70734 8.00299 8.00001Z" fill="#1ABCFE"/>
<path d="M2.66998 13.333C2.67025 12.6258 2.95135 11.9477 3.45148 11.4478C3.95161 10.9478 4.62982 10.667 5.33698 10.667H8.00298V13.333C8.00298 13.6832 7.93401 14.0299 7.80001 14.3534C7.666 14.6769 7.46959 14.9709 7.22198 15.2185C6.97438 15.4661 6.68042 15.6625 6.35691 15.7965C6.03339 15.9305 5.68665 15.9995 5.33648 15.9995C4.98631 15.9995 4.63957 15.9305 4.31606 15.7965C3.99254 15.6625 3.69859 15.4661 3.45098 15.2185C3.20338 14.9709 3.00696 14.6769 2.87296 14.3534C2.73895 14.0299 2.66998 13.6832 2.66998 13.333Z" fill="#0ACF83"/>
<path d="M8.00299 0V5.333H10.67C11.3682 5.31948 12.0333 5.0326 12.5224 4.53401C13.0114 4.03541 13.2853 3.36489 13.2853 2.6665C13.2853 1.96811 13.0114 1.29759 12.5224 0.798993C12.0333 0.3004 11.3682 0.0135228 10.67 0L8.00299 0Z" fill="#FF7262"/>
<path d="M2.66998 2.667C2.67025 3.37416 2.95135 4.05226 3.45148 4.55221C3.95161 5.05215 4.62982 5.333 5.33698 5.333H8.00398V0H5.33698C4.62965 0 3.95129 0.280987 3.45113 0.781146C2.95097 1.28131 2.66998 1.95967 2.66998 2.667Z" fill="#F24E1E"/>
<path d="M2.66998 8.00001C2.66998 8.70734 2.95097 9.3857 3.45113 9.88586C3.95129 10.386 4.62965 10.667 5.33698 10.667H8.00298V5.33301H5.33698C4.62965 5.33301 3.95129 5.61399 3.45113 6.11415C2.95097 6.61431 2.66998 7.29268 2.66998 8.00001Z" fill="#A259FF"/>
</svg>
