<svg width="16" height="16" viewBox="0 0 16 16" fill="none" xmlns="http://www.w3.org/2000/svg">
<g clip-path="url(#clip0_5_2320)">
<path fill-rule="evenodd" clip-rule="evenodd" d="M9.503 5.5H13.253C13.313 5.5 13.37 5.504 13.427 5.512L9.512 9.427C9.50385 9.36835 9.49984 9.30921 9.5 9.25V5.5H8V9.25C8 9.97935 8.28973 10.6788 8.80546 11.1945C9.32118 11.7103 10.0207 12 10.75 12H14.5V10.5H10.75C10.69 10.5 10.63 10.496 10.573 10.488L14.49 6.57C14.499 6.629 14.503 6.689 14.503 6.75V10.5H16.003V6.75C16.003 6.02065 15.7133 5.32118 15.1975 4.80546C14.6818 4.28973 13.9823 4 13.253 4H9.503V5.5ZM0 5V5.004L5.125 11.531C5.741 12.315 7.001 11.879 7.001 10.882V5H5.501V9.58L1.904 5H0Z" fill="white"/>
</g>
<defs>
<clipPath id="clip0_5_2320">
<rect width="16" height="16" fill="white"/>
</clipPath>
</defs>
</svg>
