<svg width="16" height="16" viewBox="0 0 16 16" fill="none" xmlns="http://www.w3.org/2000/svg">
<g clip-path="url(#clip0_5_2291)">
<mask id="mask0_5_2291" style="mask-type:luminance" maskUnits="userSpaceOnUse" x="0" y="0" width="16" height="16">
<path d="M0 0H16V16H0V0Z" fill="white"/>
</mask>
<g mask="url(#mask0_5_2291)">
<path fill-rule="evenodd" clip-rule="evenodd" d="M8 1.00062e-06C3.58 1.00062e-06 1.19033e-06 3.579 1.19033e-06 7.997C-0.000914957 9.67608 0.52703 11.3128 1.50891 12.6749C2.49079 14.0369 3.87672 15.0551 5.47 15.585C5.87 15.655 6.02 15.415 6.02 15.205C6.02 15.015 6.01 14.385 6.01 13.715C4 14.085 3.48 13.225 3.32 12.775C3.23 12.545 2.84 11.836 2.5 11.646C2.22 11.496 1.82 11.126 2.49 11.116C3.12 11.106 3.57 11.696 3.72 11.936C4.44 13.146 5.59 12.806 6.05 12.596C6.12 12.076 6.33 11.726 6.56 11.526C4.78 11.326 2.92 10.636 2.92 7.577C2.92 6.707 3.23 5.988 3.74 5.428C3.66 5.228 3.38 4.408 3.82 3.308C3.82 3.308 4.49 3.099 6.02 4.128C6.66 3.948 7.34 3.858 8.02 3.858C8.7 3.858 9.38 3.948 10.02 4.128C11.55 3.089 12.22 3.308 12.22 3.308C12.66 4.408 12.38 5.228 12.3 5.428C12.81 5.988 13.12 6.698 13.12 7.578C13.12 10.646 11.25 11.326 9.47 11.526C9.76 11.776 10.01 12.256 10.01 13.006C10.01 14.076 10 14.935 10 15.205C10 15.415 10.15 15.665 10.55 15.585C12.1379 15.0491 13.5178 14.0288 14.4954 12.6676C15.4731 11.3064 15.9993 9.6729 16 7.997C16.0001 6.94653 15.7933 5.90633 15.3912 4.93583C14.9892 3.96534 14.3999 3.08357 13.657 2.34091C12.914 1.59826 12.032 1.00927 11.0614 0.607607C10.0908 0.205944 9.05047 -0.000524506 8 1.00062e-06Z" fill="white"/>
</g>
</g>
<defs>
<clipPath id="clip0_5_2291">
<rect width="16" height="16" fill="white"/>
</clipPath>
</defs>
</svg>
