<svg width="16" height="16" viewBox="0 0 16 16" fill="none" xmlns="http://www.w3.org/2000/svg">
<g clip-path="url(#clip0_5_2311)">
<mask id="mask0_5_2311" style="mask-type:luminance" maskUnits="userSpaceOnUse" x="0" y="0" width="16" height="16">
<path d="M0 0H16V16H0V0Z" fill="white"/>
</mask>
<g mask="url(#mask0_5_2311)">
<path d="M3.42701 10.079C3.42701 10.999 2.68401 11.742 1.76401 11.742C0.844013 11.742 0.100013 10.998 0.100013 10.079C0.100013 9.15899 0.843013 8.41599 1.76301 8.41599H3.42601L3.42701 10.079ZM4.25801 10.079C4.25801 9.15899 5.00201 8.41599 5.92101 8.41599C6.84101 8.41599 7.58401 9.15899 7.58401 10.079V14.236C7.58401 15.156 6.84101 15.899 5.92101 15.899C5.00101 15.899 4.25801 15.156 4.25801 14.236V10.079ZM5.92101 3.40199C5.00101 3.40199 4.25801 2.65799 4.25801 1.73899C4.25801 0.818989 5.00201 0.0759888 5.92101 0.0759888C6.84101 0.0759888 7.58401 0.818989 7.58401 1.73899V3.40199H5.92101ZM5.92101 4.24599C6.84101 4.24599 7.58401 4.98899 7.58401 5.90899C7.58401 6.82899 6.84101 7.57199 5.92101 7.57199H1.75101C0.831013 7.57199 0.0880127 6.82799 0.0880127 5.90899C0.0880127 4.98899 0.831013 4.24599 1.75101 4.24599H5.92101ZM12.586 5.90899C12.586 4.98899 13.329 4.24599 14.249 4.24599C15.169 4.24599 15.912 4.98899 15.912 5.90899C15.912 6.82899 15.168 7.57199 14.249 7.57199H12.586V5.90899ZM11.754 5.90899C11.754 6.82899 11.011 7.57199 10.091 7.57199C9.17101 7.57199 8.42801 6.82799 8.42801 5.90899V1.73899C8.42801 0.818989 9.17201 0.0759888 10.091 0.0759888C11.011 0.0759888 11.754 0.818989 11.754 1.73899V5.90899ZM10.091 12.573C11.011 12.573 11.754 13.316 11.754 14.236C11.754 15.156 11.011 15.899 10.091 15.899C9.17101 15.899 8.42801 15.156 8.42801 14.236V12.573H10.091ZM10.091 11.742C9.17101 11.742 8.42801 10.998 8.42801 10.079C8.42801 9.15899 9.17201 8.41599 10.091 8.41599H14.261C15.181 8.41599 15.924 9.15899 15.924 10.079C15.924 10.999 15.181 11.742 14.261 11.742H10.091Z" fill="white"/>
</g>
</g>
<defs>
<clipPath id="clip0_5_2311">
<rect width="16" height="16" fill="white"/>
</clipPath>
</defs>
</svg>
