<svg width="16" height="16" viewBox="0 0 16 16" fill="none" xmlns="http://www.w3.org/2000/svg">
<g clip-path="url(#clip0_5_2306)">
<mask id="mask0_5_2306" style="mask-type:luminance" maskUnits="userSpaceOnUse" x="0" y="0" width="16" height="16">
<path d="M0 0H16V16H0V0Z" fill="white"/>
</mask>
<g mask="url(#mask0_5_2306)">
<path fill-rule="evenodd" clip-rule="evenodd" d="M4.5 1.93801C4.701 1.82201 4.995 1.78601 5.413 1.91101C5.833 2.03601 6.331 2.31101 6.876 2.73901C7.011 2.84601 7.148 2.96101 7.286 3.08301C6.862 3.53401 6.442 4.04301 6.038 4.60101C5.352 4.67301 4.702 4.78101 4.099 4.92301C4.06263 4.74867 4.03161 4.57325 4.006 4.39701C3.907 3.71001 3.918 3.14101 4.02 2.71501C4.121 2.29001 4.299 2.05401 4.5 1.93801ZM7.495 1.95401C7.662 2.08501 7.831 2.22801 8 2.38101C8.17 2.22801 8.338 2.08501 8.505 1.95401C9.109 1.47801 9.72 1.12501 10.301 0.95201C10.884 0.77801 11.484 0.77401 12 1.07201C12.516 1.37001 12.812 1.89201 12.953 2.48301C13.093 3.07301 13.093 3.77901 12.983 4.53901C12.953 4.75001 12.914 4.96801 12.866 5.19001C13.083 5.26001 13.291 5.33501 13.489 5.41401C14.202 5.70001 14.813 6.05201 15.254 6.46901C15.696 6.88701 16 7.40401 16 8.00001C16 8.59601 15.696 9.11301 15.254 9.53101C14.814 9.94801 14.203 10.301 13.489 10.586C13.291 10.665 13.083 10.74 12.866 10.81C12.914 11.032 12.953 11.25 12.984 11.46C13.094 12.221 13.094 12.927 12.953 13.517C12.812 14.108 12.516 14.63 12 14.928C11.484 15.226 10.884 15.221 10.301 15.048C9.72 14.874 9.109 14.522 8.505 14.046C8.33194 13.9097 8.16351 13.7676 8 13.62C7.83 13.773 7.662 13.916 7.495 14.047C6.891 14.523 6.28 14.876 5.699 15.049C5.116 15.223 4.516 15.227 4 14.929C3.484 14.631 3.188 14.109 3.047 13.518C2.907 12.928 2.907 12.222 3.017 11.462C3.047 11.251 3.086 11.033 3.134 10.811C2.92388 10.7433 2.7161 10.6686 2.511 10.587C1.798 10.3 1.187 9.94801 0.746 9.53001C0.304 9.11301 0 8.59601 0 8.00001C0 7.40401 0.304 6.88701 0.746 6.46901C1.186 6.05201 1.798 5.69901 2.511 5.41401C2.709 5.33501 2.917 5.26001 3.134 5.19001C3.08737 4.97473 3.04801 4.75794 3.016 4.54001C2.906 3.77901 2.906 3.07301 3.047 2.48301C3.188 1.89201 3.484 1.37001 4 1.07201C4.516 0.77401 5.116 0.77801 5.699 0.95201C6.28 1.12501 6.891 1.47801 7.495 1.95401ZM7.367 4.51001C7.577 4.25201 7.789 4.01001 8 3.78401C8.211 4.00901 8.423 4.25201 8.633 4.51001C8.21111 4.49628 7.78889 4.49628 7.367 4.51001ZM8.714 3.08301C9.138 3.53401 9.558 4.04301 9.962 4.60101C10.648 4.67301 11.298 4.78101 11.901 4.92301C11.938 4.74301 11.969 4.56701 11.994 4.39701C12.093 3.71001 12.082 3.14101 11.98 2.71501C11.879 2.29001 11.701 2.05401 11.5 1.93801C11.299 1.82201 11.005 1.78601 10.587 1.91101C10.167 2.03601 9.669 2.31101 9.124 2.73901C8.98384 2.84945 8.84711 2.96417 8.714 3.08301ZM8 5.50001C8.484 5.50001 8.956 5.51901 9.412 5.55501C9.94561 6.332 10.4177 7.14949 10.824 8.00001C10.4179 8.85061 9.94574 9.6681 9.412 10.445C8.47211 10.5188 7.52789 10.5188 6.588 10.445C6.05431 9.66807 5.58221 8.85057 5.176 8.00001C5.58222 7.14946 6.05433 6.33196 6.588 5.55501C7.044 5.51901 7.516 5.50001 8 5.50001ZM11.031 6.25001C11.137 6.43401 11.24 6.61901 11.338 6.80301C11.458 6.49201 11.562 6.18801 11.652 5.89201C11.351 5.82201 11.035 5.76001 10.706 5.70701C10.816 5.88501 10.925 6.06601 11.031 6.25001ZM11.031 9.75001C11.137 9.56601 11.24 9.38101 11.338 9.19701C11.458 9.50801 11.562 9.81201 11.652 10.108C11.351 10.178 11.035 10.24 10.706 10.293C10.816 10.115 10.925 9.93401 11.031 9.75001ZM11.925 8.00001C12.205 8.63001 12.436 9.24701 12.615 9.84001C12.79 9.78201 12.958 9.72001 13.118 9.65701C13.761 9.40001 14.248 9.10501 14.568 8.80401C14.884 8.50401 15 8.23201 15 8.00001C15 7.76801 14.884 7.49601 14.567 7.19601C14.249 6.89501 13.761 6.60001 13.117 6.34301C12.9516 6.27688 12.7842 6.21585 12.615 6.16001C12.436 6.75301 12.205 7.37001 11.925 8.00001ZM9.962 11.4C10.6144 11.3329 11.262 11.225 11.901 11.077C11.938 11.257 11.969 11.433 11.994 11.603C12.093 12.29 12.082 12.859 11.98 13.285C11.879 13.71 11.701 13.946 11.5 14.062C11.299 14.178 11.005 14.214 10.587 14.089C10.167 13.964 9.669 13.689 9.124 13.26C8.98385 13.1499 8.84712 13.0355 8.714 12.917C9.138 12.466 9.558 11.958 9.962 11.4ZM8.632 11.49C8.422 11.748 8.212 11.99 8 12.216C7.7806 11.9815 7.56948 11.7393 7.367 11.49C7.78856 11.5037 8.21045 11.5037 8.632 11.49ZM4.97 9.75001C5.076 9.93401 5.185 10.115 5.295 10.293C4.97761 10.2423 4.66209 10.1806 4.349 10.108C4.439 9.81201 4.544 9.50801 4.663 9.19801C4.761 9.38101 4.863 9.56601 4.97 9.75001ZM6.039 11.4C5.38657 11.3329 4.73897 11.225 4.1 11.077C4.06364 11.2514 4.03262 11.4268 4.007 11.603C3.908 12.29 3.919 12.859 4.021 13.285C4.122 13.71 4.3 13.946 4.501 14.062C4.702 14.178 4.996 14.214 5.414 14.089C5.834 13.964 6.332 13.689 6.877 13.26C7.012 13.154 7.149 13.04 7.287 12.917C6.83977 12.4375 6.42296 11.9315 6.039 11.4ZM4.075 8.00001C3.80685 8.59835 3.5764 9.21289 3.385 9.84001C3.2155 9.78418 3.04775 9.72315 2.882 9.65701C2.239 9.40001 1.752 9.10501 1.432 8.80401C1.117 8.50401 1 8.23201 1 8.00001C1 7.76801 1.116 7.49601 1.433 7.19601C1.751 6.89501 2.239 6.60001 2.883 6.34301C3.042 6.27901 3.21 6.21801 3.385 6.16001C3.564 6.75301 3.795 7.37001 4.075 8.00001ZM4.662 6.80301C4.54678 6.50308 4.44205 6.19923 4.348 5.89201C4.65 5.82201 4.965 5.76001 5.294 5.70701C5.07151 6.06539 4.86073 6.43092 4.662 6.80301ZM9.25 8.00001C9.25 8.33153 9.1183 8.64947 8.88388 8.88389C8.64946 9.11831 8.33152 9.25001 8 9.25001C7.66848 9.25001 7.35054 9.11831 7.11612 8.88389C6.8817 8.64947 6.75 8.33153 6.75 8.00001C6.75 7.66849 6.8817 7.35055 7.11612 7.11613C7.35054 6.88171 7.66848 6.75001 8 6.75001C8.33152 6.75001 8.64946 6.88171 8.88388 7.11613C9.1183 7.35055 9.25 7.66849 9.25 8.00001Z" fill="#149ECA"/>
</g>
</g>
<defs>
<clipPath id="clip0_5_2306">
<rect width="16" height="16" fill="white"/>
</clipPath>
</defs>
</svg>
