<svg width="16" height="16" viewBox="0 0 16 16" fill="none" xmlns="http://www.w3.org/2000/svg">
<g clip-path="url(#clip0_5_2303)">
<path d="M8.97598 13.333H14.924C15.1122 13.3327 15.2972 13.2835 15.4606 13.19C15.624 13.0965 15.7603 12.9621 15.856 12.8C15.9503 12.638 16 12.4539 16 12.2665C16 12.0791 15.9503 11.895 15.856 11.733L11.86 4.87601C11.7654 4.71293 11.6293 4.57775 11.4657 4.48415C11.302 4.39055 11.1165 4.34186 10.928 4.34301C10.7399 4.34334 10.5551 4.39267 10.3919 4.48613C10.2286 4.57959 10.0925 4.71396 9.99698 4.87601L8.97598 6.63101L6.97998 3.20001C6.88521 3.03707 6.74915 2.902 6.58552 2.80842C6.42189 2.71484 6.23648 2.66606 6.04798 2.66701C5.85973 2.66727 5.67478 2.71656 5.51136 2.81002C5.34794 2.90347 5.21168 3.03788 5.11598 3.20001L0.145984 11.733C0.0750391 11.8542 0.0289087 11.9883 0.0102771 12.1275C-0.00835454 12.2667 0.000884779 12.4082 0.0374573 12.5438C0.0740299 12.6794 0.137205 12.8063 0.223306 12.9173C0.309408 13.0282 0.416715 13.1209 0.538984 13.19C0.701984 13.284 0.888984 13.333 1.07698 13.333H4.80998C6.28898 13.333 7.37998 12.689 8.12998 11.433L9.95298 8.30501L10.929 6.63101L13.859 11.659H9.95298L8.97598 13.333ZM4.74998 11.658L2.14398 11.657L6.04998 4.95301L7.99898 8.30501L6.69398 10.545C6.19498 11.361 5.62898 11.658 4.74998 11.658Z" fill="#00DC82"/>
</g>
<defs>
<clipPath id="clip0_5_2303">
<rect width="16" height="16" fill="white"/>
</clipPath>
</defs>
</svg>
