<svg width="16" height="16" viewBox="0 0 16 16" fill="none" xmlns="http://www.w3.org/2000/svg">
<g clip-path="url(#clip0_5_2304)">
<path d="M14.945 6.54899C15.1267 6.01053 15.1898 5.43914 15.1299 4.87401C15.07 4.30889 14.8885 3.7634 14.598 3.27499C14.1608 2.53124 13.5004 1.9441 12.7106 1.59694C11.9207 1.24977 11.0416 1.16022 10.198 1.34099C9.81342 0.914962 9.34297 0.575201 8.81763 0.344068C8.29228 0.112936 7.72394 -0.00432793 7.15001 -6.84993e-06C5.37501 -0.00500685 3.80001 1.12299 3.25301 2.78999C2.6913 2.90248 2.15996 3.13319 1.69427 3.46681C1.22858 3.80043 0.839206 4.22932 0.552012 4.72499C0.117865 5.46268 -0.0676122 6.3204 0.0229589 7.17155C0.11353 8.0227 0.47535 8.82219 1.05501 9.45199C0.873314 9.99045 0.81025 10.5618 0.870146 11.127C0.930041 11.6921 1.11148 12.2376 1.40201 12.726C1.83924 13.4698 2.49964 14.0569 3.28947 14.404C4.0793 14.7512 4.95841 14.8408 5.80201 14.66C6.18646 15.0859 6.65676 15.4255 7.18195 15.6564C7.70714 15.8874 8.2753 16.0045 8.84901 16C10.626 16.004 12.201 14.875 12.748 13.207C13.3096 13.0946 13.8409 12.8641 14.3066 12.5306C14.7723 12.1972 15.1617 11.7685 15.449 11.273C15.8826 10.5354 16.0676 9.67804 15.9768 8.82731C15.8861 7.97658 15.5244 7.17853 14.945 6.54899ZM8.85001 14.954C8.14001 14.955 7.45001 14.71 6.90501 14.26C6.93001 14.247 6.97301 14.224 7.00001 14.207L10.23 12.367C10.3107 12.3219 10.3779 12.256 10.4245 12.1762C10.4711 12.0963 10.4955 12.0055 10.495 11.913V7.42199L11.86 8.19899C11.8671 8.20248 11.8732 8.20769 11.8778 8.21416C11.8823 8.22063 11.8851 8.22814 11.886 8.23599V11.956C11.884 13.61 10.526 14.951 8.85001 14.954ZM2.32101 12.203C1.96504 11.5974 1.83668 10.8847 1.95901 10.193L2.05501 10.25L5.28401 12.09C5.36465 12.1363 5.45602 12.1607 5.54901 12.1607C5.64201 12.1607 5.73338 12.1363 5.81401 12.09L9.75601 9.84399V11.4C9.75633 11.4081 9.75468 11.4161 9.75119 11.4235C9.74771 11.4308 9.7425 11.4371 9.73601 11.442L6.47401 13.3C5.02001 14.125 3.16401 13.634 2.32301 12.202L2.32101 12.203ZM1.47101 5.24799C1.82831 4.63835 2.38815 4.17335 3.05301 3.93399L3.05201 4.04399V7.72399C3.05101 7.91099 3.15201 8.08399 3.31701 8.17699L7.25801 10.423L5.89401 11.2C5.88726 11.2044 5.87954 11.2071 5.87151 11.2078C5.86349 11.2084 5.85542 11.2072 5.84801 11.204L2.58301 9.34399C2.2391 9.15011 1.93715 8.88982 1.69469 8.57825C1.45223 8.26668 1.27409 7.91004 1.17063 7.52904C1.06717 7.14805 1.04045 6.75029 1.09201 6.35887C1.14358 5.96746 1.27241 5.5892 1.47101 5.24799ZM12.683 7.82299L8.74201 5.57699L10.106 4.79999C10.1128 4.7956 10.1205 4.79293 10.1285 4.79224C10.1365 4.79154 10.1446 4.79283 10.152 4.79599L13.417 6.65599C13.7612 6.84976 14.0633 7.11006 14.3059 7.42172C14.5485 7.73338 14.7267 8.09019 14.8301 8.47137C14.9335 8.85256 14.96 9.2505 14.9082 9.64203C14.8563 10.0336 14.7271 10.4109 14.528 10.752C14.1707 11.3608 13.6118 11.8256 12.948 12.066V8.27599C12.9485 8.18379 12.9243 8.09313 12.8778 8.01346C12.8314 7.93379 12.7645 7.86802 12.684 7.82299H12.683ZM14.041 5.80599C14.0096 5.78659 13.9779 5.76759 13.946 5.74899L10.716 3.90899C10.6354 3.86267 10.544 3.83829 10.451 3.83829C10.358 3.83829 10.2666 3.86267 10.186 3.90899L6.24401 6.15499V4.59999C6.24385 4.59206 6.24559 4.58421 6.24906 4.57708C6.25254 4.56995 6.25766 4.56375 6.26401 4.55899L9.52801 2.69999C10.981 1.87199 12.84 2.36499 13.678 3.79999C14.032 4.40599 14.16 5.11499 14.04 5.80499H14.041V5.80599ZM5.50301 8.57699L4.13701 7.79999C4.12992 7.79651 4.12381 7.79129 4.11927 7.78483C4.11472 7.77836 4.11188 7.77085 4.11101 7.76299V4.04299C4.11201 2.38699 5.47401 1.04499 7.15201 1.04599C7.86201 1.04599 8.54901 1.29199 9.09501 1.73999C9.06258 1.75722 9.03057 1.77522 8.99901 1.79399L5.77001 3.63399C5.68936 3.67889 5.62223 3.74461 5.57562 3.82429C5.52901 3.90396 5.50463 3.99469 5.50501 4.08699L5.50301 8.57699ZM6.24301 6.99999L8.00001 5.99999L9.75601 6.99999V8.99999L8.00001 9.99999L6.24401 8.99999L6.24301 6.99999Z" fill="white"/>
</g>
<defs>
<clipPath id="clip0_5_2304">
<rect width="16" height="16" fill="white"/>
</clipPath>
</defs>
</svg>
