<svg width="16" height="16" viewBox="0 0 16 16" fill="none" xmlns="http://www.w3.org/2000/svg">
<g clip-path="url(#clip0_5_2282)">
<path d="M4.80397 11.157C4.39095 10.7394 4.06426 10.2445 3.84257 9.70055C3.62089 9.15663 3.50855 8.57436 3.51197 7.98701C3.51197 6.80201 3.98197 5.65701 4.83297 4.82501C5.18164 4.51454 5.39293 4.07845 5.42049 3.6124C5.44805 3.14635 5.28962 2.6884 4.97997 2.33901C4.6695 1.99034 4.23342 1.77905 3.76737 1.75149C3.30132 1.72393 2.84337 1.88235 2.49397 2.19201C2.44497 2.24201 2.39697 2.28001 2.35697 2.32901C-0.774028 5.44201 -0.784028 10.501 2.31797 13.633C2.62982 13.9803 3.06664 14.1897 3.53265 14.2154C3.99867 14.241 4.45585 14.0809 4.80397 13.77C5.15122 13.4582 5.36064 13.0213 5.38632 12.5553C5.412 12.0893 5.25185 11.6321 4.94097 11.284C4.89197 11.245 4.85297 11.196 4.80397 11.157Z" fill="#FFDA00"/>
<path d="M4.833 4.825C5.67566 3.98861 6.81587 3.52092 8.00314 3.52467C9.19041 3.52842 10.3276 4.00331 11.165 4.845C11.3176 5.01914 11.5031 5.16136 11.7109 5.26347C11.9187 5.36559 12.1447 5.42558 12.3757 5.43998C12.6068 5.45439 12.8385 5.42293 13.0573 5.34742C13.2762 5.27191 13.478 5.15384 13.651 5C14.375 4.354 14.454 3.239 13.808 2.514C13.758 2.465 13.71 2.407 13.661 2.368C12.9227 1.62086 12.044 1.02695 11.0755 0.620381C10.107 0.213815 9.0677 0.00260713 8.01731 -0.00110974C6.96693 -0.00482661 5.92616 0.199021 4.95478 0.598722C3.98341 0.998424 3.10058 1.5861 2.357 2.328C2.1828 2.48052 2.04049 2.666 1.93829 2.87376C1.83609 3.08152 1.776 3.30745 1.7615 3.53853C1.747 3.76961 1.77837 4.00128 1.8538 4.22018C1.92923 4.43909 2.04723 4.64091 2.201 4.814C2.35345 4.98828 2.53888 5.13067 2.7466 5.23296C2.95432 5.33525 3.18023 5.39543 3.41132 5.41002C3.6424 5.42462 3.87409 5.39334 4.09303 5.31799C4.31197 5.24264 4.51384 5.12472 4.687 4.971C4.735 4.921 4.784 4.874 4.833 4.825Z" fill="#67B3FF"/>
<path d="M11.146 11.177C10.3032 12.0138 9.16264 12.4818 7.97498 12.478C6.79098 12.478 5.64498 12.008 4.81398 11.157C4.50351 10.8083 4.06742 10.597 3.60137 10.5695C3.13532 10.5419 2.67737 10.7003 2.32798 11.01C1.97954 11.3206 1.76842 11.7567 1.74087 12.2226C1.71332 12.6886 1.87158 13.1465 2.18098 13.496C2.22998 13.545 2.26898 13.594 2.31798 13.633C5.41998 16.765 10.47 16.794 13.602 13.692L13.622 13.672C14.317 12.987 14.317 11.872 13.632 11.177C13.3008 10.8503 12.8542 10.6671 12.389 10.6671C11.9237 10.6671 11.4772 10.8503 11.146 11.177Z" fill="#EB5A68"/>
</g>
<defs>
<clipPath id="clip0_5_2282">
<rect width="16" height="16" fill="white"/>
</clipPath>
</defs>
</svg>
