<svg width="16" height="16" viewBox="0 0 16 16" fill="none" xmlns="http://www.w3.org/2000/svg">
<g clip-path="url(#clip0_5_2290)">
<path fill-rule="evenodd" clip-rule="evenodd" d="M8 4C8.39782 4 8.77936 3.84196 9.06066 3.56066C9.34196 3.27936 9.5 2.89782 9.5 2.5C9.5 2.10218 9.34196 1.72064 9.06066 1.43934C8.77936 1.15804 8.39782 1 8 1C7.60218 1 7.22064 1.15804 6.93934 1.43934C6.65804 1.72064 6.5 2.10218 6.5 2.5C6.5 2.89782 6.65804 3.27936 6.93934 3.56066C7.22064 3.84196 7.60218 4 8 4ZM8.971 4.757L9.571 5.757L10.429 5.243L9.829 4.243L8.971 4.757ZM6.429 5.757L7.029 4.757L6.171 4.243L5.571 5.243L6.429 5.757ZM10.171 6.757L10.771 7.757L11.629 7.243L11.029 6.243L10.171 6.757ZM5.229 7.757L5.829 6.757L4.971 6.243L4.371 7.243L5.229 7.757ZM11.371 8.757L11.971 9.757L12.829 9.243L12.229 8.243L11.371 8.757ZM4.029 9.757L4.629 8.757L3.771 8.243L3.171 9.243L4.029 9.757ZM12.571 10.757L13.171 11.757L14.029 11.243L13.429 10.243L12.571 10.757ZM2.829 11.757L3.429 10.757L2.571 10.243L1.971 11.243L2.829 11.757ZM3 13.5C3 13.813 2.904 14.104 2.74 14.345V14.5H2.618C2.38425 14.7613 2.06633 14.9325 1.71949 14.9838C1.37265 15.0351 1.01879 14.9633 0.719389 14.7808C0.419991 14.5984 0.19397 14.3168 0.0805906 13.985C-0.0327882 13.6532 -0.0263604 13.2922 0.0987574 12.9647C0.223875 12.6372 0.459777 12.3638 0.765481 12.1921C1.07119 12.0204 1.42738 11.9612 1.77217 12.0249C2.11697 12.0885 2.42859 12.2709 2.65289 12.5404C2.87719 12.8098 3.00001 13.1494 3 13.5ZM3.925 14.5H5.11V13.5H3.925V14.5ZM6.295 14.5H7.481V13.5H6.296L6.295 14.5ZM8.666 14.5H9.851V13.5H8.666V14.5ZM11.036 14.5H12.222V13.5H11.037L11.036 14.5ZM14.5 15C14.8978 15 15.2794 14.842 15.5607 14.5607C15.842 14.2794 16 13.8978 16 13.5C16 13.1022 15.842 12.7206 15.5607 12.4393C15.2794 12.158 14.8978 12 14.5 12C14.1022 12 13.7206 12.158 13.4393 12.4393C13.158 12.7206 13 13.1022 13 13.5C13 13.8978 13.158 14.2794 13.4393 14.5607C13.7206 14.842 14.1022 15 14.5 15Z" fill="white"/>
</g>
<defs>
<clipPath id="clip0_5_2290">
<rect width="16" height="16" fill="white"/>
</clipPath>
</defs>
</svg>
