<svg width="16" height="16" viewBox="0 0 16 16" fill="none" xmlns="http://www.w3.org/2000/svg">
<g clip-path="url(#clip0_5_2289)">
<mask id="mask0_5_2289" style="mask-type:luminance" maskUnits="userSpaceOnUse" x="0" y="0" width="16" height="16">
<path d="M0 0H16V16H0V0Z" fill="white"/>
</mask>
<g mask="url(#mask0_5_2289)">
<path d="M8 0C3.6 0 0 3.6 0 8C0 12.4 3.6 16 8 16C12.4 16 16 12.4 16 8C16 3.6 12.4 0 8 0ZM3.543 12.457C2.343 11.257 1.714 9.657 1.714 8.114L7.943 14.286C6.343 14.229 4.743 13.657 3.543 12.457ZM9.371 14.114L1.886 6.63C2.514 3.829 5.029 1.714 8 1.714C8.99022 1.71291 9.96676 1.94523 10.8504 2.39209C11.7341 2.83896 12.5 3.4878 13.086 4.286L12.229 5.029C11.257 3.714 9.714 2.857 8 2.857C5.771 2.857 3.886 4.286 3.143 6.286L9.714 12.857C11.371 12.286 12.629 10.857 13.029 9.143H10.286V8H14.286C14.286 10.971 12.171 13.486 9.371 14.114Z" fill="#663399"/>
</g>
</g>
<defs>
<clipPath id="clip0_5_2289">
<rect width="16" height="16" fill="white"/>
</clipPath>
</defs>
</svg>
