<svg width="16" height="16" viewBox="0 0 16 16" fill="none" xmlns="http://www.w3.org/2000/svg">
<path d="M5.53497 13.441C4.73197 12.728 4.49797 11.231 4.83197 10.146C5.41197 10.83 6.21497 11.046 7.04697 11.169C8.33097 11.357 9.59197 11.287 10.785 10.716C10.921 10.651 11.047 10.564 11.196 10.476C11.308 10.792 11.337 11.11 11.298 11.435C11.203 12.225 10.798 12.835 10.156 13.297C9.89897 13.482 9.62597 13.647 9.36097 13.822C8.54497 14.358 8.32397 14.987 8.63097 15.902L8.66097 16C8.26957 15.8315 7.93602 15.5522 7.70146 15.1965C7.4669 14.8407 7.34159 14.4241 7.34097 13.998C7.33697 13.785 7.33697 13.57 7.30797 13.359C7.23597 12.847 6.98797 12.617 6.52197 12.604C6.04197 12.591 5.66397 12.878 5.56397 13.331C5.55597 13.366 5.54597 13.401 5.53497 13.441Z" fill="url(#paint0_linear_5_2277)"/>
<path d="M1.5 10.478C1.5 10.478 3.694 9.428 5.893 9.428L7.552 4.385C7.614 4.141 7.795 3.975 8 3.975C8.205 3.975 8.386 4.141 8.448 4.385L10.107 9.428C12.712 9.428 14.5 10.478 14.5 10.478L10.767 0.485C10.66 0.19 10.479 0 10.236 0H5.765C5.521 0 5.348 0.19 5.234 0.485L1.5 10.478Z" fill="white"/>
<defs>
<linearGradient id="paint0_linear_5_2277" x1="4.69997" y1="16" x2="12.3" y2="12.3" gradientUnits="userSpaceOnUse">
<stop stop-color="#D83333"/>
<stop offset="1" stop-color="#F041FF"/>
</linearGradient>
</defs>
</svg>
