<svg width="16" height="16" viewBox="0 0 16 16" fill="none" xmlns="http://www.w3.org/2000/svg">
<g clip-path="url(#clip0_5_2296)">
<mask id="mask0_5_2296" style="mask-type:luminance" maskUnits="userSpaceOnUse" x="0" y="0" width="16" height="16">
<path d="M0 0H16V16H0V0Z" fill="white"/>
</mask>
<g mask="url(#mask0_5_2296)">
<path d="M12 0.799988H4.10005C2.27751 0.799988 0.800049 2.27745 0.800049 4.09999V12C0.800049 13.8225 2.27751 15.3 4.10005 15.3H12C13.8226 15.3 15.3 13.8225 15.3 12V4.09999C15.3 2.27745 13.8226 0.799988 12 0.799988Z" fill="black" stroke="url(#paint0_linear_5_2296)" stroke-width="1.5" stroke-linejoin="round"/>
<path fill-rule="evenodd" clip-rule="evenodd" d="M7.49402 6.804C7.48757 6.81827 7.47759 6.83066 7.46502 6.84V6.837L4.69102 8.976C4.60502 9.04 4.47602 8.966 4.51902 8.875L5.32302 7.131C5.33202 7.111 5.33302 7.09 5.32602 7.07C5.31819 7.04869 5.30292 7.03093 5.28302 7.02L4.05002 6.31C4.03654 6.30273 4.0249 6.29247 4.01602 6.28C4.00769 6.26815 4.00273 6.25427 4.00168 6.23983C4.00062 6.22539 4.0035 6.21093 4.01002 6.198C4.01668 6.18414 4.02663 6.17212 4.03902 6.163L6.82002 4.025C6.90302 3.961 7.03202 4.037 6.99202 4.125L6.11002 5.995C6.10479 6.00534 6.10191 6.0167 6.10156 6.02828C6.10121 6.03985 6.10342 6.05137 6.10802 6.062C6.11802 6.083 6.13602 6.101 6.16002 6.112L7.44102 6.692C7.45702 6.698 7.47102 6.708 7.48102 6.72C7.49133 6.73129 7.49814 6.74533 7.50062 6.76042C7.50311 6.77551 7.50116 6.791 7.49502 6.805L7.49402 6.804ZM9.62302 7.758C9.46415 7.76701 9.31476 7.83647 9.20547 7.95213C9.09619 8.06779 9.0353 8.22088 9.0353 8.38C9.0353 8.53912 9.09619 8.69221 9.20547 8.80787C9.31476 8.92353 9.46415 8.99299 9.62302 9.002H11.378C11.5431 9.002 11.7015 8.93641 11.8182 8.81967C11.9349 8.70293 12.0005 8.5446 12.0005 8.3795C12.0005 8.2144 11.9349 8.05607 11.8182 7.93932C11.7015 7.82258 11.5431 7.757 11.378 7.757H9.62202L9.62302 7.758Z" fill="white"/>
</g>
</g>
<defs>
<linearGradient id="paint0_linear_5_2296" x1="8.30005" y1="0.799988" x2="8.30005" y2="16" gradientUnits="userSpaceOnUse">
<stop stop-color="#F743B6"/>
<stop offset="1" stop-color="#FCC043"/>
</linearGradient>
<clipPath id="clip0_5_2296">
<rect width="16" height="16" fill="white"/>
</clipPath>
</defs>
</svg>
