<svg width="16" height="16" viewBox="0 0 16 16" fill="none" xmlns="http://www.w3.org/2000/svg">
<g clip-path="url(#clip0_5_2294)">
<path d="M10.1531 5.08H10.6411L12.0311 3.676L12.1001 3.08C11.3052 2.37101 10.3419 1.87764 9.30205 1.647C8.26448 1.41715 7.18521 1.45813 6.16805 1.766C5.14818 2.07524 4.22449 2.64053 3.48505 3.408C2.74249 4.1784 2.20747 5.12458 1.93005 6.158C2.08492 6.0941 2.25671 6.08389 2.41805 6.129L5.20005 5.666C5.20005 5.666 5.34105 5.43 5.41405 5.444C6.00653 4.78402 6.8306 4.3778 7.71489 4.30982C8.59919 4.24184 9.47566 4.51733 10.1621 5.079H10.1521L10.1531 5.08Z" fill="#EA4335"/>
<path d="M14.013 6.15901C13.6947 4.97257 13.0384 3.90423 12.124 3.08401L10.172 5.05501C10.579 5.39101 10.905 5.81501 11.126 6.29701C11.346 6.77701 11.456 7.30402 11.446 7.83401V8.18401C11.6745 8.18383 11.9007 8.22909 12.1115 8.31717C12.3224 8.40524 12.5135 8.53436 12.674 8.69701C13.0014 9.02656 13.1848 9.47247 13.184 9.93702C13.1833 10.4013 13.0001 10.8466 12.674 11.177C12.5133 11.3395 12.3221 11.4686 12.1113 11.5569C11.9006 11.6453 11.6745 11.6912 11.446 11.692H7.971L7.625 12.046V14.15L7.971 14.5H11.446C12.4173 14.5071 13.3647 14.199 14.146 13.622C14.9312 13.0419 15.5095 12.2252 15.796 11.292C16.084 10.356 16.066 9.35202 15.746 8.42701C15.4261 7.50494 14.8186 6.70993 14.013 6.15901Z" fill="#4285F4"/>
<path d="M4.49204 14.48H7.96704V11.67H4.49204C4.24504 11.67 4.00004 11.617 3.77504 11.513L3.28704 11.666L1.88704 13.07L1.76404 13.562C2.55004 14.162 3.50804 14.484 4.49204 14.48Z" fill="#34A853"/>
<path d="M4.49199 5.37001C3.54952 5.37622 2.6329 5.67885 1.87199 6.23501C1.10675 6.79379 0.534574 7.57708 0.234994 8.47601C-0.0650062 9.37701 -0.0790062 10.35 0.194994 11.26C0.467994 12.17 1.01699 12.97 1.76299 13.549L3.77799 11.514C3.52076 11.3968 3.29592 11.2188 3.12291 10.9953C2.9499 10.7717 2.83392 10.5094 2.78499 10.231C2.73461 9.95217 2.75191 9.66531 2.83544 9.39454C2.91896 9.12377 3.06628 8.87701 3.26499 8.67501C3.4631 8.47533 3.70681 8.32683 3.9751 8.24234C4.24339 8.15785 4.52821 8.13989 4.80499 8.19001C5.08287 8.2408 5.34409 8.35886 5.56582 8.53387C5.78755 8.70888 5.96305 8.93553 6.07699 9.19401L8.09199 7.15901C7.67036 6.602 7.12546 6.15019 6.49999 5.83901C5.87626 5.5286 5.1887 5.36801 4.49199 5.37001Z" fill="#FBBC05"/>
</g>
<defs>
<clipPath id="clip0_5_2294">
<rect width="16" height="16" fill="white"/>
</clipPath>
</defs>
</svg>
