<svg width="16" height="16" viewBox="0 0 16 16" fill="none" xmlns="http://www.w3.org/2000/svg">
<path d="M1.728 9.68799C1.728 10.299 1.862 10.768 2.038 11.052C2.268 11.424 2.61 11.582 2.96 11.582C3.41 11.582 3.823 11.469 4.617 10.371C5.254 9.48999 6.004 8.25299 6.508 7.47799L7.363 6.16499C7.957 5.25299 8.643 4.23999 9.432 3.55199C10.075 2.99199 10.769 2.67999 11.467 2.67999C12.639 2.67999 13.756 3.35999 14.611 4.63299C15.546 6.02999 16 7.78699 16 9.60099C16 10.679 15.787 11.471 15.426 12.097C15.076 12.703 14.396 13.307 13.25 13.307V11.581C14.23 11.581 14.475 10.68 14.475 9.64799C14.475 8.17799 14.133 6.54699 13.378 5.38099C12.842 4.55399 12.148 4.04899 11.383 4.04899C10.557 4.04899 9.893 4.67199 9.145 5.78399C8.748 6.37399 8.34 7.09399 7.882 7.90499L7.378 8.79799C6.365 10.594 6.108 11.003 5.602 11.678C4.715 12.859 3.957 13.308 2.96 13.308C1.776 13.308 1.028 12.795 0.564 12.023C0.186 11.393 0 10.568 0 9.62699L1.728 9.68799Z" fill="#0081FB"/>
<path d="M1.31897 4.76899C2.11097 3.54699 3.25497 2.69299 4.56597 2.69299C5.32597 2.69299 6.08097 2.91799 6.86897 3.56199C7.73097 4.26599 8.65097 5.42499 9.79697 7.33499L10.209 8.01999C11.201 9.67399 11.766 10.525 12.096 10.926C12.521 11.441 12.819 11.594 13.206 11.594C14.186 11.594 14.432 10.694 14.432 9.66199L15.956 9.61399C15.956 10.692 15.744 11.484 15.382 12.11C15.032 12.716 14.352 13.32 13.206 13.32C12.494 13.32 11.863 13.166 11.165 12.508C10.629 12.002 10.002 11.105 9.51897 10.298L8.08397 7.90099C7.36397 6.69799 6.70397 5.80099 6.32097 5.39499C5.91097 4.95799 5.38097 4.43099 4.53797 4.43099C3.85497 4.43099 3.27597 4.90999 2.79097 5.64299L1.31897 4.76899Z" fill="url(#paint0_linear_5_2299)"/>
<path d="M4.582 4.41799C3.899 4.41799 3.32 4.89699 2.834 5.62899C2.148 6.66499 1.728 8.20699 1.728 9.68899C1.728 10.299 1.862 10.769 2.038 11.052L0.564 12.022C0.186 11.394 0 10.569 0 9.62799C0 7.91699 0.47 6.13299 1.363 4.75599C2.155 3.53399 3.298 2.67999 4.61 2.67999L4.582 4.41799Z" fill="url(#paint1_linear_5_2299)"/>
<defs>
<linearGradient id="paint0_linear_5_2299" x1="3.39997" y1="9.19999" x2="14.4" y2="9.79999" gradientUnits="userSpaceOnUse">
<stop stop-color="#0064E1"/>
<stop offset="0.4" stop-color="#0064E1"/>
<stop offset="0.8" stop-color="#0073EE"/>
<stop offset="1" stop-color="#0082FB"/>
</linearGradient>
<linearGradient id="paint1_linear_5_2299" x1="2.5" y1="10.4" x2="2.5" y2="6.39999" gradientUnits="userSpaceOnUse">
<stop stop-color="#0082FB"/>
<stop offset="1" stop-color="#0064E0"/>
</linearGradient>
</defs>
</svg>
