<svg width="16" height="16" viewBox="0 0 16 16" fill="none" xmlns="http://www.w3.org/2000/svg">
<g clip-path="url(#clip0_5_2295)">
<path fill-rule="evenodd" clip-rule="evenodd" d="M14.5801 10.263V5.20801C14.5801 4.55001 14.2321 3.94201 13.6651 3.60801L8.97906 0.859008C8.63776 0.658796 8.2484 0.555253 7.85273 0.559481C7.45706 0.563709 7.07 0.675548 6.73306 0.883008L2.57506 3.44501C2.22678 3.65929 1.93916 3.95917 1.7396 4.31609C1.54005 4.67301 1.4352 5.07509 1.43506 5.48401V10.66C1.43512 11.0652 1.54132 11.4634 1.74309 11.8148C1.94485 12.1662 2.23514 12.4587 2.58506 12.663L6.91906 15.194C7.20218 15.3594 7.52351 15.4483 7.85141 15.4518C8.17931 15.4553 8.50246 15.3734 8.78906 15.214L13.5871 12.544C14.2001 12.202 14.5791 11.557 14.5791 10.856L14.5801 10.263Z" fill="#FF4088"/>
<path fill-rule="evenodd" clip-rule="evenodd" d="M7.88197 0H7.97297L7.98297 0.001H8.00797L8.01797 0.002H8.02997L8.03997 0.003H8.05297L8.06297 0.005H8.07497L8.08497 0.006H8.08597L8.09597 0.007H8.09697L8.10697 0.008H8.11997L8.12997 0.01H8.14397L8.15397 0.011L8.16497 0.012H8.16697L8.17697 0.013H8.17797L8.18797 0.015H8.19997L8.20997 0.017H8.21197L8.22197 0.018H8.22397L8.23397 0.02H8.24597L8.25597 0.022H8.25697L8.26697 0.024H8.26897L8.27897 0.026L8.28997 0.027H8.29097L8.29997 0.03H8.30197L8.31197 0.032L8.32197 0.033H8.32397L8.33397 0.035H8.33497L8.34497 0.037L8.35597 0.039H8.35697L8.36697 0.041H8.36897L8.37897 0.043L8.38897 0.045H8.39097L8.40097 0.047H8.40197L8.41197 0.049H8.41297L8.42297 0.051L8.43397 0.053H8.43597L8.44597 0.056L8.45597 0.058H8.45797L8.46797 0.061L8.47897 0.064L8.48997 0.066H8.49197L8.50197 0.069L8.51197 0.071L8.52297 0.074H8.52497L8.53497 0.077L8.54497 0.08H8.54697L8.55697 0.083L8.56697 0.085L8.57797 0.088H8.57997L8.58997 0.091L8.60097 0.094H8.60197L8.61197 0.097H8.61397L8.62397 0.1L8.63397 0.103H8.63597L8.64597 0.107L8.65597 0.11H8.65797L8.66797 0.113L8.67897 0.116H8.67997L8.68997 0.12H8.69097L8.70097 0.124L8.71197 0.127H8.71297L8.72297 0.131H8.72497L8.73497 0.134L8.74497 0.138H8.74597L8.75597 0.142H8.75797L8.76797 0.145L8.77797 0.149H8.77897L8.78897 0.153L8.79897 0.157H8.80097L8.81097 0.161L8.82097 0.165H8.82297L8.83297 0.169L8.84297 0.173L8.85297 0.177H8.85497L8.86497 0.181H8.86597L8.87597 0.185L8.88597 0.19H8.88697L8.89697 0.194L8.90797 0.198H8.90897L8.91897 0.203H8.91997L8.92997 0.207L8.94097 0.212L8.95097 0.217L8.96197 0.221L8.97197 0.226L8.98297 0.23H8.98397L8.99397 0.235L9.00397 0.239H9.00497L9.01497 0.244L9.02497 0.249H9.02697L9.03697 0.254L9.04697 0.259L9.05697 0.264L9.06797 0.269L9.07797 0.274H9.07997L9.08997 0.279L9.09997 0.284L9.10997 0.29L9.11997 0.295L9.12997 0.3L9.14097 0.305H9.14197L9.15197 0.311L9.16197 0.317H9.16297L9.17297 0.322L9.18297 0.327V0.328L9.19297 0.333L9.19397 0.334L9.20397 0.339V0.34L9.21397 0.346L9.22397 0.351L9.23397 0.357V0.358L9.24397 0.363L9.25397 0.37L13.943 3.122L13.951 3.127L13.959 3.132H13.961L13.968 3.138L13.976 3.143L13.977 3.144L13.985 3.149L13.993 3.153L14.001 3.158L14.009 3.163H14.011L14.018 3.169H14.019L14.026 3.174H14.028L14.035 3.179H14.036L14.043 3.184L14.044 3.185L14.052 3.19L14.06 3.196L14.068 3.201H14.069L14.076 3.206L14.084 3.212H14.085L14.092 3.217H14.093L14.1 3.223L14.108 3.228L14.116 3.234L14.124 3.24L14.132 3.245L14.14 3.251L14.148 3.256L14.156 3.262L14.163 3.268L14.171 3.274H14.173L14.179 3.28H14.18L14.187 3.286H14.189L14.196 3.292L14.204 3.298L14.211 3.304L14.212 3.305L14.219 3.311L14.221 3.312L14.234 3.323L14.235 3.324L14.249 3.335L14.25 3.337L14.264 3.347L14.266 3.349L14.279 3.36L14.281 3.361L14.294 3.373L14.296 3.374L14.309 3.385L14.311 3.387L14.324 3.398L14.325 3.4L14.338 3.411L14.34 3.412L14.352 3.424L14.354 3.426L14.367 3.437L14.368 3.438L14.381 3.45L14.383 3.452L14.395 3.464L14.397 3.466L14.409 3.478L14.411 3.479L14.423 3.491L14.425 3.493L14.436 3.505L14.438 3.507L14.45 3.519L14.451 3.521L14.463 3.533L14.465 3.535L14.477 3.548L14.478 3.549L14.49 3.562L14.492 3.563L14.503 3.576L14.505 3.577L14.516 3.59L14.518 3.592L14.529 3.605L14.531 3.607L14.542 3.62L14.544 3.621L14.554 3.634L14.557 3.636L14.567 3.649L14.569 3.651L14.58 3.664L14.582 3.666L14.592 3.679L14.594 3.681L14.604 3.694L14.606 3.696L14.617 3.709L14.618 3.711L14.628 3.725L14.63 3.726L14.64 3.74L14.641 3.742L14.651 3.755L14.653 3.757L14.663 3.771L14.665 3.773L14.675 3.787L14.676 3.789L14.686 3.803L14.687 3.804L14.697 3.818L14.699 3.82L14.709 3.834V3.836L14.719 3.85L14.72 3.852L14.73 3.867L14.731 3.869L14.741 3.883V3.885L14.751 3.899V3.9L14.761 3.915L14.763 3.916L14.772 3.931L14.773 3.933L14.782 3.947V3.949L14.792 3.964L14.793 3.966L14.802 3.981L14.803 3.983L14.812 3.997L14.813 3.999L14.821 4.014L14.823 4.016L14.831 4.031L14.832 4.033L14.84 4.048L14.842 4.05L14.85 4.065V4.067L14.86 4.082V4.084L14.868 4.1L14.876 4.115L14.878 4.117L14.885 4.132L14.886 4.134L14.894 4.15V4.152L14.902 4.167L14.903 4.169L14.91 4.185L14.911 4.187L14.918 4.203L14.919 4.205L14.926 4.22V4.222L14.934 4.238V4.24L14.941 4.256L14.942 4.258L14.949 4.274V4.276L14.956 4.292V4.294L14.963 4.31V4.312L14.97 4.328V4.33L14.977 4.346V4.348L14.984 4.364V4.366L14.991 4.383V4.385L14.997 4.401V4.403L15.003 4.419V4.421L15.009 4.437L15.01 4.439L15.015 4.456V4.458L15.021 4.474V4.476L15.027 4.493V4.495L15.032 4.511V4.513L15.038 4.53V4.532L15.043 4.548L15.044 4.55L15.049 4.567V4.569L15.053 4.586L15.054 4.588L15.059 4.605V4.607L15.063 4.624V4.626L15.068 4.643V4.645L15.073 4.662V4.665L15.077 4.682V4.684L15.081 4.701V4.703L15.085 4.72V4.722L15.088 4.739V4.741L15.092 4.758V4.76L15.095 4.777V4.779L15.099 4.796V4.8L15.102 4.817V4.819L15.105 4.837V4.839L15.108 4.856V4.858L15.109 4.867V4.877L15.111 4.887L15.112 4.896L15.114 4.906L15.115 4.916L15.116 4.926L15.117 4.936L15.118 4.946L15.119 4.955L15.121 4.965V4.976L15.123 4.985V4.996L15.124 5.005L15.125 5.015V5.025L15.126 5.035V5.046L15.127 5.055V5.065L15.128 5.075V5.096L15.129 5.105V5.115L15.13 5.125V10.929L15.129 10.939V10.95L15.128 10.96V10.98H15.127V10.99L15.126 11V11.012L15.125 11.022L15.124 11.032V11.043L15.123 11.053L15.122 11.063L15.121 11.073V11.084L15.119 11.094V11.104L15.118 11.105L15.117 11.115L15.116 11.125L15.114 11.135V11.146L15.112 11.156L15.111 11.166L15.109 11.176V11.177L15.107 11.187L15.106 11.197V11.198L15.104 11.208V11.218H15.103L15.102 11.228V11.229L15.1 11.239L15.098 11.249L15.097 11.259L15.095 11.269L15.093 11.279L15.092 11.289L15.09 11.299L15.088 11.309L15.087 11.319L15.085 11.329L15.082 11.339L15.08 11.349L15.078 11.359L15.076 11.369L15.074 11.379L15.073 11.389L15.07 11.399L15.068 11.408V11.409L15.066 11.418L15.063 11.428L15.061 11.438L15.059 11.447L15.056 11.457L15.053 11.467L15.051 11.477L15.048 11.487L15.045 11.497L15.042 11.507L15.04 11.517L15.037 11.527L15.034 11.537L15.031 11.547L15.028 11.556V11.557L15.025 11.566V11.567L15.022 11.576L15.019 11.586L15.016 11.596L15.013 11.605L15.01 11.615L15.006 11.625L15.003 11.635L15 11.645L14.996 11.654L14.993 11.664V11.665L14.99 11.674L14.986 11.684L14.983 11.694L14.979 11.703L14.976 11.713L14.973 11.722L14.97 11.732L14.966 11.742L14.962 11.751L14.958 11.76V11.762L14.955 11.77L14.951 11.779V11.781L14.947 11.789V11.79L14.944 11.799L14.939 11.808L14.935 11.818L14.931 11.828L14.927 11.837L14.923 11.847L14.919 11.856L14.915 11.865L14.911 11.875L14.907 11.883L14.902 11.892L14.898 11.901V11.902L14.894 11.911L14.889 11.919V11.921L14.885 11.929L14.881 11.937V11.939L14.876 11.947L14.872 11.957L14.867 11.966L14.863 11.974V11.975L14.858 11.983V11.985L14.854 11.993V11.994L14.849 12.002V12.004L14.844 12.012L14.84 12.021L14.835 12.031L14.83 12.039V12.04L14.825 12.048L14.82 12.057L14.815 12.065V12.066L14.81 12.074L14.805 12.083L14.8 12.092L14.795 12.1V12.102L14.79 12.11L14.785 12.118L14.784 12.119L14.779 12.127L14.774 12.136L14.769 12.145L14.764 12.153V12.154L14.759 12.162L14.753 12.17V12.172L14.748 12.179H14.747L14.742 12.187L14.737 12.196L14.736 12.197L14.731 12.205H14.73L14.725 12.213L14.72 12.222L14.714 12.23L14.708 12.238L14.703 12.246L14.697 12.255L14.692 12.263H14.691L14.686 12.271L14.685 12.272L14.68 12.28H14.679L14.674 12.288L14.668 12.296L14.667 12.297L14.662 12.305L14.656 12.313H14.655L14.65 12.321L14.649 12.322L14.644 12.33H14.643L14.637 12.338L14.632 12.346H14.631L14.625 12.354L14.619 12.361V12.362L14.613 12.369L14.607 12.378L14.6 12.386L14.594 12.394L14.587 12.402L14.581 12.409L14.574 12.417V12.418L14.568 12.425L14.561 12.433L14.555 12.441L14.548 12.449L14.541 12.457L14.535 12.464L14.534 12.465L14.528 12.472L14.521 12.48L14.515 12.488H14.514L14.508 12.495V12.496L14.501 12.503L14.495 12.511L14.487 12.519L14.481 12.527H14.48L14.474 12.534L14.473 12.535L14.467 12.542H14.466L14.46 12.549H14.459L14.453 12.557H14.452L14.446 12.564H14.445L14.439 12.571L14.438 12.572L14.432 12.579H14.431L14.425 12.586L14.424 12.587L14.417 12.594L14.41 12.601V12.602L14.403 12.608V12.609L14.396 12.616H14.394L14.388 12.623L14.38 12.63L14.373 12.638H14.372L14.365 12.645L14.358 12.652L14.35 12.659L14.343 12.666L14.336 12.673H14.335L14.328 12.68L14.32 12.687L14.313 12.693L14.312 12.694L14.305 12.7V12.701L14.297 12.707L14.289 12.714L14.281 12.721L14.273 12.727L14.265 12.734L14.257 12.741L14.249 12.748L14.242 12.755L14.233 12.762L14.225 12.768L14.218 12.774L14.216 12.775L14.209 12.781L14.201 12.788L14.194 12.794L14.193 12.795L14.185 12.801L14.177 12.807L14.169 12.814L14.161 12.82V12.821L14.153 12.827L14.144 12.834L14.136 12.839L14.128 12.845H14.127L14.12 12.851H14.118L14.111 12.857H14.11L14.103 12.863L14.094 12.869L14.086 12.875L14.085 12.876L14.077 12.882L14.069 12.887H14.067L14.059 12.893V12.894L14.051 12.899L14.05 12.9L14.042 12.905V12.906L14.034 12.911L14.033 12.912L14.025 12.918L14.016 12.923L14.007 12.929L13.998 12.934L13.99 12.94L13.981 12.946L13.972 12.951H13.971L13.963 12.956L13.954 12.962L13.945 12.968L13.936 12.973L13.935 12.974L13.927 12.979L13.926 12.98L13.918 12.985H13.917L13.909 12.99L13.899 12.995V12.996L13.89 13.001L13.882 13.006H13.88L13.872 13.011L13.863 13.016L13.854 13.021L9.05597 15.693L9.04797 15.697H9.04697L9.03897 15.702L9.03797 15.703L9.02997 15.707L9.02097 15.712L9.01197 15.716H9.01097L9.00297 15.721H9.00197L8.99397 15.725H8.99297L8.98497 15.73L8.97597 15.735L8.96697 15.739L8.95797 15.743V15.744L8.94997 15.748L8.94097 15.752L8.93197 15.756L8.92397 15.761L8.91397 15.765L8.90597 15.769H8.90497L8.89697 15.773H8.89597L8.88797 15.778L8.87897 15.782L8.86997 15.786L8.86097 15.79H8.85997L8.85197 15.794H8.84997L8.84097 15.799L8.83197 15.802L8.82297 15.807L8.81397 15.81L8.80497 15.814L8.79497 15.818L8.78597 15.821L8.77597 15.825L8.76797 15.829L8.75897 15.832L8.74997 15.836H8.74797L8.73997 15.84L8.73197 15.843H8.72997L8.72197 15.847H8.72097L8.71297 15.85H8.70997L8.70197 15.854L8.69197 15.857L8.68297 15.86L8.67297 15.864L8.66397 15.867L8.65497 15.87L8.64697 15.873H8.64597L8.63697 15.876H8.63597L8.62697 15.879L8.61797 15.882L8.60797 15.885L8.59897 15.888L8.58897 15.891L8.57897 15.894L8.56197 15.899L8.55997 15.9L8.54297 15.905H8.54097L8.52397 15.911H8.52197L8.50497 15.916H8.50297L8.48597 15.921H8.48297L8.46697 15.926H8.46397L8.44697 15.931H8.44497L8.42797 15.935H8.42597L8.40897 15.94H8.40697L8.38997 15.944H8.38697L8.36997 15.948L8.35197 15.952H8.34997L8.33297 15.956H8.32997L8.31297 15.959H8.30997L8.29297 15.963H8.29097L8.27297 15.966H8.27097L8.25397 15.969H8.25197L8.23397 15.972H8.23197L8.21497 15.975H8.21297L8.19497 15.978H8.19297L8.17597 15.981H8.17397L8.15597 15.983H8.15397L8.13697 15.986H8.13497L8.11697 15.988L8.09997 15.99H8.09797L8.07997 15.991L8.06297 15.993H8.05997L8.04297 15.994H8.03997L8.02297 15.996H8.02097L8.00297 15.997H7.98197L7.96397 16H7.92297H7.90597H7.80697L7.78997 15.999L7.77197 15.998H7.76997L7.75197 15.997H7.74997L7.73297 15.996H7.73097L7.71397 15.995H7.70997L7.69297 15.993H7.69097L7.67397 15.991H7.67097L7.65397 15.989H7.65097L7.63397 15.987H7.63197L7.61397 15.985H7.61197L7.59497 15.983H7.59297L7.57597 15.981H7.57297L7.55597 15.979H7.55297L7.53597 15.976H7.53397L7.51597 15.973H7.51397L7.49697 15.97H7.49497L7.47797 15.967H7.47497L7.45797 15.964L7.43997 15.961H7.43797L7.42097 15.957L7.40297 15.953H7.39997L7.38297 15.95H7.37997L7.36297 15.946H7.36097L7.34397 15.942L7.34097 15.941L7.32397 15.937H7.32197L7.30497 15.933L7.30297 15.932L7.28597 15.928L7.28397 15.927L7.26697 15.922H7.26497L7.24797 15.917H7.24597L7.22897 15.912H7.22697L7.20997 15.906H7.20797L7.19097 15.901L7.18797 15.9L7.17097 15.895L7.15297 15.889H7.15097L7.13397 15.883H7.13197L7.11597 15.878H7.11397L7.10497 15.874L7.09597 15.872H7.09497L7.08697 15.868H7.08497L7.07697 15.865L7.06797 15.862H7.06597L7.05797 15.859L7.04797 15.855L7.03897 15.852L7.02997 15.849L7.02097 15.845L7.01197 15.841H7.00997L7.00197 15.838L6.99297 15.834L6.98397 15.83H6.98297L6.97397 15.826L6.96397 15.823L6.95597 15.819L6.94697 15.815H6.94497L6.93697 15.811L6.92797 15.808H6.92597L6.91797 15.804H6.91697L6.90897 15.8L6.89997 15.796H6.89797L6.88997 15.792L6.88097 15.788L6.87197 15.784L6.86297 15.78L6.85397 15.776L6.84397 15.772L6.83497 15.768L6.82697 15.763L6.81797 15.759L6.80797 15.755V15.754L6.79997 15.75L6.79897 15.749L6.79097 15.745L6.78197 15.741H6.77997L6.77197 15.736L6.76197 15.732L6.75397 15.727H6.75197L6.74497 15.722L6.73597 15.718L6.72697 15.713H6.72597L6.71797 15.709L6.70897 15.704L6.69997 15.699L6.69197 15.694H6.68997L6.68297 15.689H6.68097L6.67297 15.684L6.66397 15.68L6.65497 15.675H6.65397L6.64597 15.67L6.63797 15.665L2.29997 13.135L2.29097 13.129L2.28097 13.124L2.26997 13.118L2.25997 13.111L2.25097 13.105L2.24097 13.099V13.098L2.23097 13.092L2.21997 13.086L2.20997 13.08L2.19997 13.073H2.20297L2.19297 13.067L2.18297 13.061L2.17297 13.054L2.16297 13.047H2.16197L2.15197 13.04L2.14197 13.033L2.13197 13.026L2.12197 13.019L2.11297 13.012L2.10297 13.005L2.09297 12.998L2.08397 12.991H2.08297L2.07397 12.984L2.06397 12.977L2.05497 12.97L2.04497 12.963L2.03597 12.957L2.02597 12.949L2.01597 12.942L2.00697 12.935L1.99697 12.927L1.98897 12.92L1.97997 12.913L1.96997 12.906V12.905L1.96097 12.898L1.95197 12.891L1.94297 12.883L1.93397 12.876V12.875L1.92497 12.868L1.91497 12.861L1.90697 12.853L1.89697 12.846L1.88897 12.838H1.88797L1.87997 12.83H1.87897L1.87097 12.823L1.86197 12.816V12.815L1.85297 12.808L1.84497 12.8H1.84397L1.83597 12.792L1.82697 12.784L1.81897 12.776H1.81797L1.80997 12.768L1.80097 12.761L1.79997 12.76L1.79197 12.753V12.752L1.78397 12.745L1.78297 12.744L1.77497 12.736L1.76697 12.728L1.75897 12.72L1.74997 12.712L1.74897 12.711L1.74097 12.703L1.73297 12.695L1.72497 12.687H1.72397L1.71597 12.679L1.70797 12.671L1.69997 12.662H1.69897L1.69197 12.654H1.68997L1.68297 12.646L1.68197 12.645L1.67397 12.638L1.66597 12.629L1.65797 12.62L1.64997 12.612V12.611L1.64197 12.603L1.63397 12.594L1.62597 12.586V12.585L1.61897 12.577L1.61797 12.576L1.61097 12.568L1.60297 12.559L1.59597 12.551L1.59497 12.55L1.58797 12.542L1.57997 12.533L1.57297 12.524L1.56497 12.515L1.55697 12.507V12.506L1.54997 12.498V12.497L1.54297 12.489V12.488L1.53497 12.48L1.52797 12.471H1.52697L1.51997 12.462L1.51197 12.454V12.453L1.50497 12.445L1.49697 12.435L1.48997 12.426L1.48297 12.417H1.48197L1.47497 12.408L1.46797 12.399L1.46097 12.389L1.45497 12.381L1.45397 12.38L1.44797 12.371L1.44097 12.362L1.43397 12.353L1.42697 12.343L1.41997 12.334L1.41397 12.325L1.40697 12.315L1.39997 12.306L1.39297 12.296L1.38697 12.286L1.37997 12.277L1.37297 12.267L1.36697 12.258L1.35997 12.248L1.35397 12.238L1.34697 12.229L1.34097 12.219L1.33397 12.21L1.32797 12.2L1.32197 12.191L1.31497 12.181L1.30897 12.171L1.30297 12.161L1.29697 12.151H1.29597L1.29097 12.142H1.28997L1.28397 12.132V12.131L1.27797 12.122L1.27197 12.112L1.26697 12.102L1.25997 12.092L1.25397 12.082L1.24797 12.071L1.24197 12.062L1.23697 12.052L1.23097 12.042L1.22597 12.031L1.21997 12.021L1.21497 12.011L1.20797 12L1.20297 11.99L1.19797 11.98L1.19297 11.969L1.18697 11.959L1.18197 11.948L1.17697 11.938L1.17197 11.928V11.927L1.16697 11.917L1.16197 11.908V11.907L1.15697 11.897L1.15197 11.887V11.886L1.14697 11.876L1.14197 11.866L1.13697 11.856V11.855L1.13197 11.845L1.12697 11.835L1.12197 11.825V11.823L1.11797 11.813L1.11297 11.803L1.10797 11.793V11.792L1.10297 11.782L1.09897 11.772V11.771L1.09397 11.761L1.08997 11.751L1.08597 11.741V11.739L1.08097 11.729L1.07697 11.719L1.07297 11.708L1.06797 11.698V11.697L1.06397 11.687V11.686L1.05997 11.676L1.05597 11.665V11.664L1.05197 11.654V11.653L1.04697 11.643L1.04397 11.633V11.631L1.03997 11.621L1.03597 11.611V11.609L1.03197 11.599V11.598L1.02797 11.588V11.587L1.02397 11.577L1.02097 11.567V11.565L1.01697 11.555L1.01297 11.545V11.543L1.00897 11.533V11.532L1.00597 11.522V11.521L1.00197 11.511V11.509L0.999972 11.5L0.995972 11.49V11.488L0.992972 11.478L0.988972 11.467V11.465L0.985972 11.455L0.982972 11.444V11.443L0.978972 11.433V11.431L0.975972 11.421L0.972972 11.411V11.41L0.969972 11.4L0.966972 11.389L0.963972 11.378V11.376L0.961972 11.366L0.958972 11.356V11.354L0.955972 11.344L0.953972 11.334L0.950972 11.323V11.321L0.947972 11.311L0.944972 11.3L0.942972 11.29V11.288L0.939972 11.278V11.276L0.937972 11.266L0.934972 11.255V11.254L0.931972 11.244V11.242L0.929972 11.232V11.231L0.926972 11.221L0.924972 11.21V11.209L0.922972 11.198V11.197L0.920972 11.187V11.185L0.917972 11.175V11.174L0.915972 11.163V11.161L0.913972 11.151V11.149L0.910972 11.139V11.138L0.908972 11.128V11.126L0.907972 11.116V11.115L0.905972 11.105V11.103L0.903972 11.093L0.901972 11.083L0.900972 11.072V11.07L0.898972 11.06V11.059L0.896972 11.049V11.035L0.894972 11.025L0.892972 11.013L0.891972 11.002V11L0.889972 10.99V10.988L0.888972 10.978V10.976L0.886972 10.966V10.964L0.885972 10.954V10.952L0.884972 10.942V10.94L0.882972 10.93V10.918L0.880972 10.907L0.878972 10.895V10.883L0.877972 10.882V10.87L0.875972 10.859V10.847L0.874972 10.837V10.835L0.873972 10.825V10.823L0.872972 10.813V10.774L0.871972 10.764V10.762L0.870972 10.752V5.386L0.871972 5.375V5.363L0.872972 5.351V5.34L0.873972 5.328L0.874972 5.316V5.304L0.875972 5.292V5.28L0.876972 5.268L0.877972 5.256V5.244L0.879972 5.232V5.22L0.881972 5.209L0.882972 5.198V5.196L0.884972 5.186V5.184L0.885972 5.174V5.172L0.886972 5.162V5.16L0.888972 5.15V5.148L0.889972 5.138V5.136L0.891972 5.126V5.114L0.893972 5.103L0.894972 5.091L0.896972 5.08V5.078L0.898972 5.068V5.056L0.899972 5.053L0.901972 5.043V5.042L0.903972 5.031L0.905972 5.02V5.018L0.906972 5.008L0.908972 4.997V4.995L0.910972 4.985L0.913972 4.973L0.915972 4.962V4.96L0.917972 4.95L0.919972 4.94L0.921972 4.929V4.927L0.924972 4.917L0.926972 4.906V4.904L0.929972 4.894L0.931972 4.883V4.88L0.933972 4.87L0.935972 4.859V4.858L0.938972 4.848L0.941972 4.837V4.835L0.943972 4.825L0.946972 4.814V4.812L0.949972 4.802L0.951972 4.791L0.954972 4.78V4.778L0.956972 4.768L0.959972 4.757L0.962972 4.746V4.744L0.965972 4.734L0.968972 4.723L0.971972 4.712V4.71L0.974972 4.7V4.698L0.977972 4.688V4.686L0.980972 4.676L0.984972 4.666V4.664L0.987972 4.654L0.990972 4.643L0.994972 4.632L0.997972 4.621L1.00197 4.61L1.00497 4.6V4.598L1.00897 4.588L1.01197 4.578V4.576L1.01597 4.566L1.01897 4.556V4.554L1.02297 4.544L1.02697 4.534V4.532L1.02997 4.522L1.03397 4.511L1.03797 4.501V4.499L1.04197 4.489L1.04597 4.479L1.04997 4.468L1.05397 4.457L1.05797 4.447L1.06197 4.436V4.434L1.06597 4.424L1.06997 4.414V4.412L1.07497 4.402L1.07897 4.392L1.08397 4.382V4.38L1.08797 4.37L1.09297 4.36L1.09697 4.349L1.10197 4.338L1.10597 4.327L1.11097 4.316L1.11597 4.305L1.11997 4.295V4.293L1.12497 4.283L1.12997 4.273L1.13497 4.263V4.26L1.13997 4.251L1.14397 4.241V4.24L1.14897 4.23L1.15397 4.22L1.15897 4.209L1.16397 4.199L1.16897 4.188L1.17397 4.178L1.17897 4.167L1.18397 4.157L1.18997 4.147L1.19497 4.137L1.20097 4.126L1.20597 4.116V4.114L1.21197 4.105L1.21697 4.095L1.22197 4.085L1.22797 4.075L1.23297 4.065L1.23897 4.054L1.24497 4.045L1.24997 4.035L1.25597 4.024L1.26197 4.014L1.26697 4.004L1.27297 3.995L1.27897 3.985L1.28497 3.975L1.29097 3.965L1.29697 3.955L1.30297 3.945L1.30897 3.935L1.31497 3.925L1.32197 3.915L1.32797 3.905L1.33397 3.896H1.33497L1.34097 3.886L1.34697 3.876L1.35297 3.867L1.35997 3.857L1.36597 3.847L1.37197 3.837L1.37897 3.828L1.38497 3.818H1.38597L1.39197 3.809L1.39897 3.799L1.40597 3.79L1.41197 3.78L1.41897 3.771L1.42597 3.761L1.43297 3.752L1.43997 3.743L1.44597 3.733H1.44697L1.45297 3.725L1.45397 3.724L1.45997 3.715L1.46697 3.706H1.46797L1.47397 3.697L1.48097 3.688L1.48797 3.679L1.49597 3.67L1.50297 3.66L1.51097 3.652V3.65L1.51797 3.642L1.51897 3.64L1.52597 3.632L1.53297 3.623L1.53997 3.613L1.54797 3.605L1.55497 3.596L1.56197 3.587L1.56997 3.578L1.57797 3.569L1.58497 3.561L1.58597 3.56L1.59297 3.552L1.60097 3.542L1.60797 3.534L1.61597 3.525L1.62397 3.516L1.63197 3.508L1.63897 3.499L1.64697 3.49L1.65497 3.482V3.481L1.66197 3.473H1.66297L1.66997 3.464L1.67797 3.456L1.67897 3.455L1.68697 3.447L1.69497 3.439L1.69597 3.438L1.70397 3.43L1.71197 3.422L1.71997 3.413L1.72797 3.405L1.73697 3.397V3.396L1.74497 3.389L1.74597 3.388L1.75397 3.38L1.76197 3.372L1.76997 3.364L1.77097 3.363L1.77797 3.356L1.77897 3.355L1.78697 3.347L1.79497 3.339L1.80397 3.331L1.81197 3.323L1.82097 3.315L1.82997 3.307L1.83797 3.299L1.84697 3.292L1.84797 3.291L1.85597 3.284L1.86497 3.276L1.87297 3.268L1.88197 3.261L1.88297 3.26L1.89097 3.253L1.90097 3.245L1.90997 3.238L1.91897 3.23L1.92697 3.223L1.92797 3.222L1.93697 3.215L1.94597 3.208L1.95497 3.201L1.96397 3.193L1.97297 3.186L1.98297 3.179L1.99197 3.171L2.00197 3.164L2.01097 3.156L2.01997 3.149L2.02997 3.142L2.03797 3.134L2.04797 3.127L2.05797 3.12L2.06697 3.114L2.07697 3.107L2.08697 3.1L2.09597 3.093L2.10597 3.086L2.11597 3.079L2.12497 3.072L2.13497 3.066L2.14497 3.059L2.15497 3.053L2.16397 3.046L2.17397 3.039L2.18397 3.033L2.19397 3.026L2.20397 3.019L2.21397 3.012L2.22397 3.006L2.23397 3L2.24397 2.993L2.25397 2.987L2.26397 2.981L2.27397 2.975L6.43397 0.411L6.44297 0.406L6.45297 0.399L6.46297 0.393H6.46397L6.47397 0.387L6.48397 0.381L6.49397 0.375L6.50497 0.369L6.51497 0.363L6.52497 0.358V0.357L6.53497 0.352L6.53597 0.351L6.54597 0.346L6.55597 0.341L6.56597 0.335L6.56697 0.334L6.57697 0.329L6.58697 0.323L6.59697 0.317L6.60697 0.312L6.61797 0.307L6.62797 0.301H6.62897L6.63897 0.296L6.64897 0.291L6.65997 0.286L6.67097 0.281L6.68097 0.276L6.69097 0.271H6.69297L6.70297 0.266L6.71297 0.261H6.71397L6.72397 0.256L6.73397 0.251H6.73597L6.74597 0.247L6.75597 0.242L6.76597 0.237H6.76697L6.77697 0.232L6.78697 0.228H6.78897L6.79897 0.223L6.80897 0.219L6.81997 0.214L6.82997 0.21H6.83197L6.84197 0.205L6.85197 0.201H6.85397L6.86397 0.196L6.87397 0.192L6.88497 0.188L6.89597 0.183L6.90597 0.179H6.90797L6.91797 0.176L6.92897 0.171L6.93997 0.167L6.95097 0.164H6.95297L6.96297 0.16L6.97297 0.156L6.98397 0.152H6.98597L6.99597 0.149L7.00597 0.145L7.01697 0.141L7.02797 0.138H7.02997L7.03997 0.134L7.04997 0.131L7.06097 0.127H7.06297L7.07297 0.124L7.08297 0.121H7.08497L7.09497 0.118L7.10497 0.114L7.11597 0.111H7.11797L7.12797 0.108L7.13797 0.104H7.13997L7.14997 0.102L7.16097 0.099L7.17097 0.095H7.17297L7.18297 0.093L7.19397 0.09H7.19497L7.20497 0.087H7.20697L7.21697 0.084L7.22797 0.081L7.23997 0.08H7.24197L7.25197 0.077L7.26297 0.075L7.27397 0.072H7.27597L7.28597 0.07L7.29597 0.067H7.29797L7.30797 0.065L7.31797 0.063H7.31997L7.32997 0.06L7.34097 0.058L7.35197 0.056H7.35397L7.36397 0.053L7.37497 0.051H7.37697L7.38697 0.05L7.39797 0.047H7.39997L7.40997 0.045L7.42097 0.043L7.43197 0.041H7.43397L7.44397 0.039L7.45397 0.038H7.45597L7.46597 0.036H7.46797L7.47797 0.034L7.48897 0.032H7.49097L7.49997 0.03L7.51097 0.028H7.52497L7.53497 0.026H7.53697L7.54697 0.024L7.55797 0.023L7.56897 0.022H7.57097L7.57997 0.02L7.59097 0.018H7.60397L7.61397 0.016L7.62497 0.015H7.62697L7.63697 0.014L7.64797 0.013H7.64997L7.65997 0.012L7.67097 0.011H7.68297L7.68397 0.01H7.69397H7.69697H7.70797L7.71797 0.009H7.73097L7.74097 0.008H7.75297L7.76297 0.007H7.77697L7.78697 0.006H7.79997L7.80997 0.005H7.82197L7.83197 0.004H7.87997L7.88197 0ZM7.87197 1.117H7.82397L7.81697 1.118H7.80297L7.79597 1.119H7.78997L7.78297 1.12H7.76897L7.76297 1.121L7.75597 1.122H7.74897L7.74197 1.124H7.73497L7.72797 1.125L7.72097 1.126L7.71397 1.127H7.70697L7.70097 1.129H7.69397L7.68697 1.13L7.67997 1.131L7.67397 1.132H7.66697L7.66097 1.134H7.65397L7.64697 1.136H7.63997L7.63297 1.138L7.62697 1.139L7.61997 1.14L7.61297 1.142H7.60697L7.59997 1.144L7.59397 1.145L7.58697 1.146L7.57997 1.147L7.57297 1.149H7.56597L7.55997 1.151L7.55297 1.152L7.54597 1.154L7.53997 1.155L7.53297 1.157L7.52597 1.159H7.51997L7.51297 1.161L7.50697 1.163L7.49997 1.164L7.49297 1.166L7.48697 1.168L7.47997 1.169L7.47297 1.171L7.46697 1.173L7.45997 1.174L7.45397 1.176L7.44697 1.178L7.43997 1.18L7.43397 1.181L7.42697 1.183L7.42097 1.185L7.41397 1.187L7.40797 1.19L7.40097 1.192L7.39397 1.194L7.38797 1.196L7.38197 1.198L7.37497 1.2L7.36797 1.202L7.36197 1.204L7.35497 1.206L7.34897 1.209L7.34197 1.211L7.33497 1.213L7.32897 1.215L7.32197 1.218L7.31597 1.22L7.30897 1.223L7.30297 1.225L7.29597 1.228L7.28997 1.23L7.28397 1.233L7.27697 1.235L7.27097 1.238L7.26397 1.24L7.25697 1.243L7.25097 1.246L7.24497 1.248L7.23797 1.251L7.23197 1.254L7.22597 1.257L7.21997 1.26L7.21297 1.263L7.20697 1.266L7.19997 1.268L7.19397 1.271L7.18797 1.274L7.18197 1.277L7.17497 1.28L7.16897 1.283L7.16297 1.286L7.15697 1.289L7.14997 1.292L7.14397 1.295L7.13797 1.299L7.13197 1.302L7.12497 1.305L7.11897 1.308L7.11297 1.312L7.10697 1.315L7.10097 1.318L7.09397 1.322L7.08897 1.325L7.08197 1.328L7.07697 1.332L7.06997 1.335L7.06397 1.339L7.05797 1.343L7.05197 1.346L7.04597 1.35L7.03997 1.354L7.03397 1.357L7.02797 1.361L7.02097 1.365L2.86597 3.925L2.85897 3.929L2.85297 3.933L2.84697 3.937L2.83997 3.941L2.83397 3.945L2.82797 3.949L2.82197 3.954L2.81497 3.958L2.80897 3.962L2.80297 3.966L2.79697 3.97L2.79097 3.974L2.78397 3.979L2.77897 3.983L2.77297 3.987L2.76697 3.991L2.76097 3.995L2.75497 4L2.74897 4.005L2.74297 4.009L2.73797 4.013L2.73197 4.017L2.72597 4.022L2.71997 4.026L2.71397 4.03L2.70897 4.035L2.70297 4.039L2.69697 4.044L2.69097 4.048L2.68597 4.053L2.67997 4.058L2.67397 4.062L2.66897 4.067L2.66297 4.071L2.65697 4.076L2.65197 4.08L2.64597 4.085L2.63997 4.089L2.63497 4.094L2.62997 4.098L2.62397 4.103L2.61897 4.108L2.61397 4.113L2.60797 4.117L2.60297 4.122L2.59697 4.127L2.59197 4.132L2.58697 4.137L2.58097 4.142L2.57597 4.147L2.56997 4.152L2.56497 4.157L2.55997 4.162L2.55397 4.167L2.54897 4.172L2.54397 4.177L2.53897 4.182L2.53397 4.187L2.52797 4.192L2.52297 4.198L2.51797 4.203L2.51297 4.208L2.50797 4.213L2.50297 4.218L2.49797 4.224L2.49297 4.229L2.48797 4.234L2.48297 4.239L2.47797 4.245L2.47297 4.25L2.46897 4.256L2.46397 4.261L2.45897 4.266L2.45397 4.272L2.44897 4.278L2.44397 4.283L2.43897 4.288L2.43497 4.294L2.42997 4.299L2.42497 4.305L2.41997 4.31L2.41597 4.316L2.41097 4.321L2.40697 4.327L2.40197 4.333L2.39797 4.339L2.39297 4.345L2.38797 4.35L2.38397 4.356L2.37997 4.362L2.37497 4.368L2.37097 4.373L2.36597 4.379L2.36197 4.385L2.35697 4.391L2.35297 4.397L2.34897 4.402L2.34497 4.409L2.34097 4.414L2.33697 4.42L2.33297 4.426L2.32797 4.432L2.32397 4.438L2.31997 4.444L2.31597 4.45L2.31197 4.456L2.30797 4.462L2.30397 4.468L2.29997 4.474L2.29597 4.48L2.29197 4.486L2.28897 4.492L2.28497 4.498L2.28097 4.505L2.27697 4.511L2.27297 4.517L2.26897 4.523L2.26497 4.529L2.26197 4.536L2.25797 4.542L2.25397 4.548L2.25097 4.554L2.24697 4.56L2.24297 4.567L2.23897 4.573L2.23597 4.579L2.23197 4.585L2.22797 4.592L2.22497 4.598L2.22097 4.604L2.21697 4.611L2.21397 4.617L2.20997 4.624L2.20697 4.63L2.20397 4.637L2.20097 4.643L2.19697 4.649L2.19397 4.656L2.19097 4.662L2.18697 4.669L2.18397 4.675L2.18097 4.682L2.17797 4.688L2.17397 4.695L2.17097 4.701L2.16797 4.708L2.16497 4.715L2.16197 4.721L2.15897 4.728L2.15597 4.734L2.15297 4.741L2.14997 4.748L2.14797 4.754L2.14497 4.761L2.14197 4.768L2.13897 4.774L2.13597 4.781L2.13297 4.788L2.13097 4.794L2.12797 4.801L2.12497 4.808L2.12197 4.814L2.11897 4.821L2.11697 4.828L2.11397 4.835L2.11197 4.842L2.10897 4.848L2.10697 4.855L2.10397 4.862L2.10197 4.869L2.09897 4.876L2.09697 4.883L2.09497 4.89L2.09197 4.897L2.08997 4.904L2.08797 4.911L2.08497 4.917L2.08297 4.924L2.08097 4.931L2.07897 4.938L2.07697 4.945L2.07497 4.952L2.07197 4.959L2.06997 4.966L2.06797 4.972L2.06597 4.979L2.06397 4.986L2.06197 4.993L2.05997 5L2.05797 5.007L2.05597 5.014L2.05397 5.021L2.05197 5.028L2.05097 5.036L2.04897 5.043L2.04697 5.05L2.04497 5.057L2.04397 5.064L2.04197 5.071L2.03997 5.078L2.03897 5.085L2.03697 5.092L2.03497 5.099L2.03397 5.106L2.03297 5.113L2.03097 5.12L2.02997 5.127L2.02797 5.135V5.142L2.02597 5.15L2.02497 5.157L2.02297 5.164V5.171L2.02097 5.179L2.01997 5.186L2.01797 5.193V5.2L2.01597 5.207L2.01497 5.215L2.01397 5.222V5.229L2.01197 5.236L2.01097 5.244L2.00997 5.251L2.00897 5.258V5.266L2.00697 5.273V5.281L2.00597 5.288L2.00497 5.296L2.00397 5.303V5.31L2.00197 5.318V5.332L1.99997 5.34V5.355L1.99897 5.362V5.377L1.99797 5.385V5.392L1.99697 5.399V5.422L1.99597 5.429V5.444L1.99497 5.452V10.73L1.99597 10.737V10.752L1.99697 10.76V10.767L1.99797 10.774V10.782L1.99997 10.79V10.798L2.00097 10.805V10.813L2.00197 10.82V10.827L2.00397 10.835V10.842L2.00497 10.849V10.856L2.00697 10.863V10.87L2.00797 10.877L2.00897 10.885V10.892L2.01097 10.899V10.906L2.01197 10.914L2.01297 10.921L2.01397 10.928L2.01497 10.935L2.01697 10.942V10.949L2.01897 10.956L2.01997 10.964L2.02197 10.971V10.978L2.02397 10.985L2.02497 10.992L2.02697 10.999L2.02797 11.006L2.02897 11.013L2.03097 11.02L2.03197 11.027L2.03397 11.034L2.03497 11.041L2.03697 11.048L2.03797 11.055L2.03997 11.062L2.04197 11.069L2.04297 11.076L2.04497 11.083L2.04697 11.09L2.04797 11.097L2.04997 11.104L2.05197 11.111L2.05397 11.117L2.05497 11.125L2.05797 11.132L2.05897 11.138L2.06097 11.145L2.06197 11.152L2.06497 11.159L2.06597 11.165L2.06797 11.173L2.06997 11.18L2.07197 11.186L2.07397 11.193L2.07697 11.2L2.07897 11.207L2.08097 11.214L2.08297 11.22L2.08597 11.227L2.08797 11.234L2.09097 11.24L2.09297 11.247L2.09497 11.254L2.09797 11.261L2.09997 11.267L2.10297 11.274L2.10497 11.281L2.10797 11.287L2.10997 11.294L2.11297 11.3L2.11497 11.307L2.11797 11.314L2.11997 11.32L2.12297 11.327L2.12597 11.333L2.12797 11.34L2.13097 11.347L2.13297 11.353L2.13597 11.36L2.13897 11.367L2.14197 11.373L2.14397 11.38L2.14697 11.386L2.14997 11.393L2.15297 11.4L2.15597 11.406L2.15897 11.413L2.16197 11.419L2.16497 11.426L2.16797 11.433L2.16997 11.439L2.17397 11.445L2.17697 11.452L2.17997 11.458L2.18397 11.464L2.18697 11.471L2.18997 11.477L2.19397 11.483L2.19697 11.489L2.19997 11.495L2.20397 11.502L2.20697 11.508L2.21097 11.514L2.21397 11.52L2.21797 11.527L2.22097 11.533L2.22497 11.539L2.22797 11.545L2.23097 11.551L2.23497 11.557L2.23797 11.564L2.24197 11.569L2.24597 11.576L2.24997 11.581L2.25297 11.588L2.25697 11.594L2.26097 11.6L2.26397 11.605L2.26797 11.611L2.27197 11.617L2.27597 11.623L2.27897 11.63L2.28297 11.635L2.28697 11.641L2.29097 11.647L2.29497 11.653L2.29797 11.659L2.30197 11.665L2.30697 11.67L2.31097 11.677L2.31497 11.682L2.31897 11.688L2.32297 11.694L2.32697 11.7L2.33097 11.706L2.33597 11.711L2.33997 11.717L2.34397 11.723L2.34897 11.729L2.35297 11.735L2.35697 11.74L2.36097 11.746L2.36497 11.752L2.36997 11.757L2.37497 11.763L2.37897 11.768L2.38397 11.774L2.38797 11.78L2.39297 11.785L2.39697 11.79L2.40197 11.796L2.40597 11.801L2.41097 11.806L2.41497 11.812L2.41997 11.817L2.42497 11.823L2.42897 11.828L2.43397 11.833L2.43797 11.839L2.44297 11.844L2.44797 11.85L2.45297 11.855L2.45797 11.86L2.46297 11.865L2.46797 11.87L2.47297 11.876L2.47697 11.881L2.48197 11.886L2.48697 11.891L2.49197 11.896L2.49697 11.901L2.50197 11.906L2.50697 11.911L2.51197 11.916L2.51697 11.921L2.52197 11.926L2.52697 11.931L2.53197 11.936L2.53697 11.941L2.54197 11.946L2.54697 11.951L2.55197 11.956L2.55697 11.961L2.56197 11.966L2.56797 11.971L2.57297 11.976L2.57897 11.98L2.58397 11.985L2.58897 11.99L2.59497 11.995L2.59997 11.999L2.60497 12.004L2.61097 12.009L2.61597 12.014L2.62197 12.018L2.62797 12.023L2.63397 12.027L2.63897 12.032L2.64397 12.036L2.64997 12.041L2.65497 12.046L2.66097 12.05L2.66697 12.054L2.67197 12.059L2.67797 12.063L2.68397 12.068L2.68897 12.072L2.69497 12.077L2.70097 12.081L2.70697 12.085L2.71297 12.09L2.71797 12.094L2.72397 12.098L2.72997 12.102L2.73597 12.106L2.74197 12.11L2.74797 12.115L2.75397 12.119L2.75897 12.123L2.76497 12.127L2.77097 12.131L2.77797 12.135L2.78397 12.139L2.78997 12.143L2.79597 12.147L2.80197 12.151L2.80797 12.155L2.81397 12.159L2.81997 12.162L2.82597 12.166L2.83297 12.17L2.83897 12.174L2.84497 12.177L2.85197 12.181L2.85797 12.185L2.86497 12.189L7.19697 14.719L7.20197 14.723L7.20697 14.726L7.21197 14.728L7.21697 14.73L7.22197 14.733L7.22597 14.736L7.23097 14.738L7.23597 14.741L7.24097 14.743L7.24597 14.746L7.25097 14.749L7.25597 14.751L7.26097 14.754L7.26597 14.756L7.27097 14.759L7.27597 14.761L7.28097 14.764L7.28597 14.766L7.28997 14.769L7.29497 14.771L7.29997 14.774L7.30497 14.776L7.30997 14.778L7.31497 14.78L7.31997 14.782L7.32497 14.784L7.32997 14.787L7.33497 14.789L7.33997 14.791L7.34497 14.794L7.34997 14.796L7.35497 14.798L7.35997 14.8L7.36497 14.802L7.36997 14.804L7.37497 14.806L7.37997 14.808L7.38497 14.81L7.38997 14.812L7.39497 14.814L7.39997 14.816L7.40497 14.818L7.40997 14.82L7.41497 14.822L7.41997 14.824L7.42497 14.826L7.42997 14.828L7.43497 14.83L7.43997 14.831L7.44497 14.833L7.44997 14.835L7.45497 14.836L7.46497 14.84L7.47497 14.843L7.48597 14.846L7.49597 14.849L7.50597 14.852L7.51697 14.855L7.52697 14.857L7.53697 14.86L7.54797 14.863L7.55797 14.866L7.56797 14.868L7.57897 14.871L7.58897 14.873L7.59897 14.875L7.60997 14.877L7.61997 14.879L7.62997 14.882L7.64097 14.883L7.65097 14.885L7.66197 14.887L7.67197 14.889L7.68297 14.89L7.69297 14.892L7.70397 14.893L7.71397 14.894L7.72597 14.896H7.73597L7.74597 14.897L7.75797 14.898H7.76797L7.77797 14.9H7.78897L7.79897 14.901H7.80997L7.81997 14.902H7.92597L7.93697 14.9H7.95897L7.96897 14.898H7.97997L7.98997 14.897L8.00097 14.896L8.01097 14.895L8.02297 14.893H8.03297L8.04297 14.891L8.05397 14.889L8.06397 14.888L8.07497 14.886L8.08597 14.884L8.09597 14.883L8.10597 14.881L8.11697 14.879L8.12697 14.877L8.13797 14.875L8.14797 14.872L8.15797 14.87L8.16897 14.868L8.17897 14.865L8.18897 14.863L8.19997 14.86L8.20997 14.858L8.21997 14.855L8.23097 14.852L8.24097 14.849L8.25197 14.845L8.25697 14.844L8.26197 14.842L8.26697 14.84L8.27297 14.839L8.27797 14.837L8.28297 14.836L8.28797 14.834L8.29297 14.832L8.29797 14.831L8.30297 14.829L8.30797 14.827L8.31397 14.825L8.31897 14.824L8.32397 14.822L8.32897 14.82L8.33397 14.818L8.33897 14.817L8.34397 14.815L8.34897 14.813L8.35397 14.811L8.35897 14.809L8.36397 14.807L8.36897 14.805L8.37397 14.803L8.37897 14.801L8.38397 14.799L8.38897 14.797L8.39397 14.795L8.39897 14.793L8.40397 14.791L8.40897 14.788L8.41397 14.786L8.41897 14.784L8.42397 14.781L8.42897 14.778L8.43397 14.776L8.43897 14.774L8.44397 14.772L8.44797 14.769L8.45297 14.767L8.45797 14.764L8.46297 14.762L8.46797 14.759L8.47297 14.757L8.47797 14.754L8.48297 14.752L8.48797 14.749L8.49297 14.747L8.49697 14.744L8.50197 14.742L8.50697 14.739L8.51297 14.736L13.312 12.064L13.318 12.061L13.323 12.058L13.328 12.055L13.333 12.052L13.338 12.049L13.343 12.046L13.348 12.043L13.353 12.04L13.358 12.037L13.363 12.034L13.368 12.031L13.373 12.028L13.378 12.025L13.383 12.022L13.388 12.019L13.393 12.016L13.398 12.012L13.403 12.009L13.408 12.006L13.413 12.003L13.417 12L13.422 11.997L13.426 11.993L13.431 11.99L13.436 11.987L13.441 11.983L13.445 11.98L13.45 11.977L13.455 11.973L13.459 11.97L13.464 11.967L13.468 11.964L13.473 11.96L13.478 11.957L13.482 11.953L13.487 11.95L13.491 11.946L13.496 11.943L13.501 11.939L13.505 11.935L13.51 11.932L13.514 11.928L13.519 11.925L13.523 11.921L13.527 11.918L13.532 11.914L13.537 11.91L13.541 11.907L13.545 11.903L13.55 11.899L13.554 11.895L13.558 11.892L13.563 11.888L13.567 11.884L13.571 11.88L13.575 11.876L13.58 11.872L13.584 11.868L13.588 11.864L13.592 11.86L13.596 11.857L13.6 11.852L13.604 11.849L13.609 11.844L13.613 11.84L13.617 11.836L13.621 11.832L13.625 11.828L13.629 11.824L13.633 11.82L13.637 11.816L13.641 11.811L13.645 11.807L13.649 11.803L13.652 11.799L13.656 11.795L13.66 11.791L13.664 11.787L13.668 11.782L13.671 11.778L13.675 11.774L13.679 11.77L13.683 11.766L13.686 11.762L13.69 11.758L13.694 11.753L13.697 11.749L13.701 11.744L13.705 11.74L13.709 11.736L13.712 11.732L13.716 11.727L13.72 11.723L13.723 11.718L13.727 11.714L13.73 11.71L13.733 11.705L13.737 11.701L13.741 11.696L13.744 11.692L13.747 11.687L13.75 11.683L13.754 11.678L13.757 11.674L13.76 11.669L13.764 11.665L13.767 11.66L13.77 11.655L13.774 11.651L13.777 11.646L13.78 11.642L13.783 11.637L13.786 11.632L13.789 11.627L13.793 11.623L13.796 11.618L13.798 11.614L13.802 11.609L13.805 11.604L13.808 11.6L13.811 11.595L13.814 11.59L13.817 11.585L13.819 11.58L13.822 11.575L13.825 11.57L13.828 11.565L13.831 11.561L13.834 11.556L13.837 11.551L13.84 11.546L13.842 11.541L13.845 11.536L13.848 11.531L13.851 11.526L13.853 11.521L13.856 11.516L13.859 11.511L13.861 11.506L13.864 11.501L13.866 11.496L13.869 11.491L13.872 11.486L13.875 11.481L13.877 11.476L13.879 11.471L13.882 11.466L13.884 11.461L13.887 11.456L13.889 11.451L13.892 11.445L13.894 11.44L13.897 11.435L13.899 11.43L13.902 11.425L13.904 11.419L13.907 11.414L13.909 11.409L13.911 11.404L13.913 11.399L13.915 11.393L13.917 11.388L13.919 11.383L13.921 11.378L13.923 11.372L13.925 11.367L13.927 11.362L13.93 11.357L13.932 11.351L13.934 11.346L13.936 11.34L13.938 11.335L13.939 11.33L13.941 11.324L13.942 11.319L13.944 11.314L13.947 11.308L13.949 11.303L13.951 11.297L13.952 11.292L13.954 11.287L13.956 11.281L13.958 11.276L13.96 11.271L13.961 11.265L13.963 11.26L13.965 11.254L13.966 11.249L13.968 11.244L13.969 11.238L13.971 11.233L13.973 11.227L13.974 11.222L13.976 11.217V11.211L13.978 11.206L13.98 11.2V11.195L13.983 11.189V11.184L13.985 11.178L13.986 11.173L13.988 11.167V11.162L13.99 11.156V11.151L13.992 11.145L13.993 11.14L13.994 11.134L13.995 11.128L13.997 11.123V11.117L14 11.11L14.001 11.104L14.002 11.099L14.003 11.093L14.004 11.088L14.006 11.082V11.076L14.007 11.071L14.008 11.065V11.059L14.01 11.053V11.048L14.011 11.042V11.036L14.013 11.03V11.019L14.015 11.014V11.002L14.016 10.996V10.99L14.017 10.985V10.979L14.018 10.973V10.967L14.019 10.962V10.956L14.02 10.95V10.938L14.021 10.933V10.927L14.022 10.921V5.137L14.021 5.132V5.127L14.02 5.121V5.11L14.019 5.105V5.1L14.018 5.095V5.09L14.017 5.084V5.08L14.016 5.075L14.015 5.07V5.066L14.014 5.06V5.055L14.012 5.05V5.039L14.011 5.035V5.03L14.008 5.02V5.009L14.006 4.998L14.004 4.988L14.002 4.978L14 4.967L13.998 4.957L13.996 4.947L13.994 4.936L13.991 4.926L13.989 4.916L13.986 4.905L13.984 4.895L13.981 4.885L13.979 4.874L13.976 4.864L13.973 4.854L13.97 4.843L13.967 4.833L13.964 4.823L13.96 4.813L13.957 4.803L13.954 4.793L13.951 4.783L13.947 4.773L13.943 4.763L13.939 4.753L13.936 4.743L13.932 4.733L13.928 4.723L13.924 4.714L13.92 4.704L13.916 4.694L13.912 4.685L13.908 4.675L13.903 4.666L13.899 4.656L13.895 4.647L13.89 4.637L13.885 4.629L13.88 4.619L13.876 4.609L13.871 4.6L13.866 4.59L13.861 4.582L13.856 4.572L13.851 4.564L13.846 4.554L13.841 4.545L13.835 4.536L13.83 4.527L13.824 4.518L13.819 4.509L13.814 4.501L13.808 4.492L13.802 4.483L13.796 4.475L13.79 4.466L13.785 4.457L13.779 4.449L13.772 4.44L13.766 4.432L13.76 4.424L13.754 4.416L13.748 4.407L13.741 4.399L13.734 4.391L13.728 4.382L13.721 4.374L13.715 4.366L13.708 4.358L13.701 4.351L13.694 4.343L13.687 4.335L13.68 4.327L13.673 4.319L13.666 4.311L13.658 4.304L13.651 4.296L13.643 4.289L13.636 4.282L13.628 4.274L13.621 4.267L13.613 4.259L13.605 4.252L13.597 4.245L13.589 4.238L13.581 4.231L13.573 4.224L13.565 4.217L13.557 4.21L13.549 4.204L13.541 4.197L13.532 4.19L13.528 4.187L13.524 4.184L13.52 4.181L13.516 4.177L13.512 4.174L13.508 4.171L13.503 4.168L13.499 4.165L13.495 4.161L13.49 4.158L13.486 4.155L13.482 4.151L13.478 4.148L13.474 4.145L13.47 4.142L13.465 4.138L13.461 4.136L13.457 4.133L13.452 4.129L13.448 4.126L13.443 4.124L13.439 4.121L13.434 4.118L13.43 4.115L13.425 4.112L13.421 4.109L13.416 4.106L13.412 4.103L13.407 4.1L13.403 4.098L13.398 4.095L13.393 4.092L13.389 4.09L13.384 4.087L8.69997 1.34L8.69297 1.336L8.68697 1.333L8.68097 1.329L8.67497 1.326L8.66897 1.322L8.66197 1.319L8.65597 1.316L8.64997 1.312L8.64397 1.309L8.63797 1.306L8.63197 1.302L8.62497 1.299L8.61897 1.296L8.61297 1.292L8.60697 1.289L8.60097 1.286L8.59397 1.282L8.58797 1.28L8.58197 1.276L8.57597 1.273L8.56897 1.27L8.56297 1.267L8.55697 1.264L8.55097 1.261L8.54397 1.258L8.53797 1.256L8.53197 1.253L8.52597 1.25L8.51897 1.247L8.51297 1.244L8.50697 1.242L8.49997 1.239L8.49397 1.237L8.48697 1.234L8.48097 1.231L8.47497 1.229L8.46797 1.226L8.46097 1.223L8.45497 1.221L8.44797 1.218L8.44197 1.216L8.43497 1.213L8.42897 1.211L8.42197 1.208L8.41597 1.206L8.40997 1.204L8.40297 1.202L8.39697 1.2L8.39097 1.198L8.38397 1.196L8.37697 1.194L8.37097 1.192L8.36497 1.189L8.35797 1.187L8.35097 1.185L8.34497 1.183L8.33797 1.181L8.33197 1.179L8.32497 1.177L8.31897 1.175L8.31197 1.173L8.30497 1.172L8.29997 1.17L8.29297 1.168L8.28697 1.166L8.27997 1.165L8.27297 1.163L8.26697 1.161L8.25997 1.159L8.25297 1.158L8.24697 1.156L8.23997 1.155L8.23397 1.153L8.22697 1.152L8.21997 1.15L8.21397 1.149L8.20697 1.148L8.19997 1.146L8.19397 1.145L8.18697 1.144L8.18097 1.142L8.17397 1.141L8.16697 1.14L8.16097 1.139L8.15397 1.137H8.14697L8.13997 1.136L8.13397 1.135L8.12697 1.134L8.12097 1.133L8.11397 1.132L8.10697 1.131L8.09997 1.129H8.09397L8.08697 1.127H8.07997L8.07397 1.126L8.06697 1.125H8.05997L8.05297 1.123H8.04597L8.03897 1.122H8.03297L8.02597 1.12H8.00597L7.99997 1.118H7.99297L7.98597 1.117H7.97197L7.96597 1.116H7.95197L7.94597 1.115H7.93197L7.92497 1.114H7.89997L7.89297 1.113H7.87997L7.87297 1.116L7.87197 1.117Z" fill="#C9177E"/>
<path d="M4.72302 12.25V3.68099H6.51702V6.80299H9.49302V3.67999H11.293V12.25H9.49302V8.50299H6.51702V12.249H4.72302V12.25Z" fill="white"/>
</g>
<defs>
<clipPath id="clip0_5_2295">
<rect width="16" height="16" fill="white"/>
</clipPath>
</defs>
</svg>
