<svg width="16" height="16" viewBox="0 0 16 16" fill="none" xmlns="http://www.w3.org/2000/svg">
<g clip-path="url(#clip0_5_2309)">
<path d="M6.71699 5.811H8.67999C9.88799 5.811 9.88799 7.019 8.67999 7.019H6.71699V5.811ZM2.03699 11.396H8.07599V9.736H6.71699V8.528H8.22699C9.88699 8.528 8.98099 11.396 10.34 11.396H14.113V8.528H13.208V8.83C13.2455 9.02922 13.203 9.23521 13.0896 9.40326C12.9762 9.57131 12.8011 9.68785 12.6023 9.72761C12.4035 9.76737 12.1971 9.72713 12.0278 9.61562C11.8585 9.50411 11.74 9.33033 11.698 9.132C11.548 8.377 10.943 7.774 10.793 7.774C13.057 6.566 11.698 4.151 9.88699 4.151H2.79299V5.811H4.30199V9.736H2.03799V11.396H2.03699Z" fill="white" stroke="white" stroke-width="0.2" stroke-linejoin="round"/>
<path d="M8.00001 14.49C8.85229 14.49 9.69622 14.3221 10.4836 13.996C11.271 13.6698 11.9865 13.1918 12.5891 12.5891C13.1918 11.9865 13.6698 11.271 13.996 10.4836C14.3221 9.69622 14.49 8.85229 14.49 8.00001C14.49 7.14773 14.3221 6.3038 13.996 5.51639C13.6698 4.72899 13.1918 4.01354 12.5891 3.41089C11.9865 2.80823 11.271 2.33018 10.4836 2.00403C9.69622 1.67788 8.85229 1.51001 8.00001 1.51001C6.27875 1.51001 4.628 2.19378 3.41089 3.41089C2.19378 4.628 1.51001 6.27876 1.51001 8.00001C1.51001 9.72126 2.19378 11.372 3.41089 12.5891C4.628 13.8062 6.27875 14.49 8.00001 14.49Z" stroke="white" stroke-width="1.4" stroke-linejoin="round"/>
<path d="M14.944 8.453L15.698 8L14.944 7.547V8.453ZM14.722 9.799L15.55 9.502L14.898 8.91L14.722 9.799ZM14.242 11.075L15.112 10.945L14.588 10.239L14.242 11.075ZM13.522 12.234L14.401 12.277L14.025 11.481L13.522 12.234ZM12.59 13.23L13.443 13.443L13.23 12.589L12.59 13.23ZM11.481 14.025L12.277 14.401L12.234 13.521L11.481 14.025ZM10.239 14.588L10.946 15.112L11.076 14.242L10.239 14.588ZM8.91 14.898L9.502 15.55L9.799 14.722L8.911 14.898H8.91ZM7.547 14.943L8 15.698L8.453 14.943H7.547ZM6.201 14.722L6.498 15.55L7.09 14.898L6.201 14.722ZM4.925 14.242L5.055 15.112L5.761 14.588L4.925 14.242ZM3.766 13.522L3.723 14.401L4.519 14.025L3.766 13.522ZM2.77 12.59L2.557 13.443L3.411 13.23L2.77 12.59ZM1.975 11.481L1.599 12.277L2.479 12.234L1.975 11.481ZM1.412 10.239L0.888002 10.946L1.758 11.076L1.412 10.239ZM1.102 8.91L0.450002 9.502L1.279 9.799L1.102 8.91ZM1.057 7.547L0.302002 8L1.057 8.453V7.547ZM1.278 6.201L0.450002 6.498L1.102 7.09L1.278 6.201ZM1.758 4.925L0.888002 5.055L1.412 5.761L1.758 4.925ZM2.478 3.766L1.6 3.723L1.976 4.519L2.479 3.766H2.478ZM3.41 2.77L2.557 2.557L2.77 3.41L3.41 2.77ZM4.52 1.975L3.722 1.6L3.765 2.48L4.518 1.976L4.52 1.975ZM5.761 1.412L5.054 0.888002L4.924 1.758L5.761 1.412ZM7.09 1.102L6.498 0.450002L6.201 1.278L7.09 1.102ZM8.453 1.057L8 0.302002L7.547 1.057H8.453ZM9.799 1.278L9.502 0.450002L8.911 1.102L9.799 1.278ZM11.075 1.758L10.945 0.888002L10.239 1.412L11.075 1.758ZM12.234 2.478L12.277 1.599L11.481 1.975L12.234 2.478ZM13.23 3.41L13.443 2.557L12.59 2.77L13.23 3.41ZM14.025 4.519L14.401 3.723L13.521 3.766L14.025 4.519ZM14.588 5.761L15.112 5.054L14.242 4.924L14.588 5.761ZM14.898 7.09L15.55 6.498L14.722 6.201L14.898 7.09Z" fill="white" stroke="white" stroke-width="0.5" stroke-linejoin="round"/>
<path d="M6.94298 1.66L7.99998 2.717L9.05698 1.66H6.94298ZM13.703 5.036L13.024 6.367L14.356 7.046L13.703 5.036ZM12.581 12.508L11.105 12.274L10.871 13.75L12.581 12.508ZM5.12798 13.75L4.89498 12.274L3.41898 12.508L5.12898 13.75H5.12798ZM1.64398 7.046L2.97498 6.367L2.29698 5.037L1.64398 7.046Z" fill="white" stroke="white" stroke-width="0.9" stroke-linejoin="round"/>
</g>
<defs>
<clipPath id="clip0_5_2309">
<rect width="16" height="16" fill="white"/>
</clipPath>
</defs>
</svg>
