<svg width="16" height="16" viewBox="0 0 16 16" fill="none" xmlns="http://www.w3.org/2000/svg">
<path d="M8.62001 1C12.222 1 14 2.714 14 5.452C14 7.5 12.74 8.836 11.04 9.058C12.475 9.348 13.315 10.172 13.47 11.797L13.492 12.095L13.512 12.375L13.528 12.636L13.54 12.833L13.553 13.066L13.559 13.198L13.569 13.409L13.576 13.609L13.58 13.723L13.585 13.906L13.589 14.116L13.591 14.216L13.594 14.511V15H9.89301V14.924L9.89401 14.775L9.89701 14.631L9.90301 14.281L9.90501 14.163L9.90601 13.979V13.862L9.90501 13.738L9.90301 13.641L9.90001 13.506L9.89601 13.362L9.89001 13.209L9.88201 13.046L9.87801 12.961L9.87001 12.827L9.86101 12.687L9.84801 12.488L9.83601 12.331C9.83296 12.2833 9.8293 12.2356 9.82501 12.188L9.81501 12.098C9.69201 11.021 9.26501 10.581 8.53501 10.434L8.47301 10.422C8.43048 10.4147 8.38781 10.4084 8.34501 10.403L8.27901 10.395C8.26801 10.3939 8.25701 10.3929 8.24601 10.392L8.17801 10.386L8.10801 10.381L8.03801 10.377L7.96601 10.375L7.89301 10.373L7.81901 10.372H1.98401V7.456H7.95701C8.05601 7.456 8.15101 7.454 8.24301 7.45L8.33501 7.446L8.42401 7.44L8.51101 7.433C8.52535 7.43172 8.53968 7.43039 8.55401 7.429L8.63801 7.419C8.69401 7.413 8.74801 7.406 8.80101 7.397L8.87901 7.384C9.85501 7.207 10.343 6.688 10.343 5.677C10.343 4.542 9.54801 3.854 7.95701 3.854H1.98401V1H8.62001ZM5.86601 12.826C6.35401 12.826 6.55701 13.096 6.63001 13.356L6.64001 13.393L6.64701 13.43L6.65301 13.459L6.65501 13.473L6.65801 13.502L6.66101 13.529L6.66201 13.543L6.66401 13.57V15H1.98401V12.826H5.86601Z" fill="white"/>
</svg>
