<svg width="16" height="16" viewBox="0 0 16 16" fill="none" xmlns="http://www.w3.org/2000/svg">
<g clip-path="url(#clip0_5_2287)">
<path d="M8 0C3.494 0 0 3.302 0 7.76C0 10.092 0.956 12.108 2.512 13.5C2.642 13.616 2.722 13.78 2.726 13.956L2.77 15.38C2.7732 15.4848 2.80209 15.5872 2.85413 15.6782C2.90617 15.7692 2.97976 15.846 3.06844 15.9019C3.15712 15.9578 3.25818 15.991 3.36272 15.9987C3.46726 16.0064 3.57209 15.9883 3.668 15.946L5.256 15.246C5.39079 15.1866 5.54188 15.1753 5.684 15.214C6.414 15.414 7.19 15.522 8 15.522C12.506 15.522 16 12.22 16 7.762C16 3.304 12.506 0 8 0Z" fill="url(#paint0_radial_5_2287)"/>
<path d="M3.19601 10.03L5.54601 6.30199C5.63441 6.16163 5.75095 6.04113 5.88828 5.94808C6.0256 5.85504 6.18072 5.79148 6.34385 5.76141C6.50698 5.73134 6.67457 5.73541 6.83605 5.77338C6.99752 5.81135 7.14937 5.88238 7.28201 5.98199L9.15201 7.38399C9.23549 7.44649 9.33706 7.4801 9.44134 7.47974C9.54563 7.47938 9.64696 7.44507 9.73001 7.38199L12.254 5.46599C12.59 5.20999 13.03 5.61399 12.806 5.97199L10.454 9.69799C10.3656 9.83835 10.2491 9.95885 10.1117 10.0519C9.97441 10.1449 9.81929 10.2085 9.65616 10.2386C9.49303 10.2686 9.32544 10.2646 9.16397 10.2266C9.00249 10.1886 8.85065 10.1176 8.71801 10.018L6.84801 8.61599C6.76453 8.55349 6.66296 8.51988 6.55867 8.52024C6.45439 8.5206 6.35306 8.55491 6.27001 8.61799L3.74601 10.534C3.41001 10.79 2.97001 10.388 3.19601 10.03Z" fill="white"/>
</g>
<defs>
<radialGradient id="paint0_radial_5_2287" cx="0" cy="0" r="1" gradientUnits="userSpaceOnUse" gradientTransform="translate(2.68 16) scale(17.6)">
<stop stop-color="#0099FF"/>
<stop offset="0.6" stop-color="#A033FF"/>
<stop offset="0.9" stop-color="#FF5280"/>
<stop offset="1" stop-color="#FF7061"/>
</radialGradient>
<clipPath id="clip0_5_2287">
<rect width="16" height="16" fill="white"/>
</clipPath>
</defs>
</svg>
