<svg width="16" height="16" viewBox="0 0 16 16" fill="none" xmlns="http://www.w3.org/2000/svg">
<g clip-path="url(#clip0_5_2281)">
<mask id="mask0_5_2281" style="mask-type:luminance" maskUnits="userSpaceOnUse" x="0" y="0" width="16" height="16">
<path d="M0 0H16V16H0V0Z" fill="white"/>
</mask>
<g mask="url(#mask0_5_2281)">
<path d="M16 9.983V3.357C16 2.46684 15.6465 1.61313 15.0171 0.983596C14.3878 0.354065 13.5342 0.000265165 12.644 0L3.35703 0C2.46687 -3.94943e-08 1.61316 0.353546 0.983625 0.982889C0.354094 1.61223 0.000293954 2.46584 2.87895e-05 3.356V9.983C-0.160971 14.96 3.59003 14.738 4.10003 14.738L7.99303 14.996H8.00603L12.216 14.738C12.726 14.738 16.161 14.96 16 9.983Z" fill="#0075FF"/>
<path d="M10.252 7.78798C14.028 5.19098 14.315 7.33798 12.798 10.599C12.328 11.435 13.36 11.775 14.233 11.892C14.233 11.892 13.706 13.51 12.57 14.432L10.622 14.893L9.99303 15.09C9.98803 15.09 9.11203 15.354 8.98003 15.391H7.02003C6.88803 15.354 6.01103 15.09 6.00603 15.09L5.37803 14.893L3.42903 14.432C2.29403 13.51 1.76603 11.892 1.76703 11.891C2.63903 11.774 3.67203 11.434 3.20103 10.599C1.68403 7.33898 1.97103 5.19098 5.74703 7.78898C6.45403 7.49398 7.11303 7.43498 7.98703 7.41598H8.01103C8.88503 7.43598 9.54503 7.49398 10.252 7.78798Z" fill="white"/>
<path d="M3.297 7.37601C3.23737 7.38623 3.1801 7.40724 3.128 7.43801C2.965 7.54301 3.003 7.78501 3.017 7.95001C3.043 8.26501 3.112 8.58101 3.195 8.88901C3.251 9.10401 3.325 9.31501 3.413 9.51901C3.513 9.36501 3.623 9.21901 3.745 9.08201C3.838 8.97701 3.937 8.87701 4.04 8.78201C4.58 8.28201 5.118 8.03301 5.118 8.03301C4.599 7.66001 3.966 7.23101 3.298 7.37501L3.297 7.37601ZM12.701 7.37601C12.76 7.38801 12.819 7.40601 12.869 7.43801C13.033 7.54301 12.995 7.78501 12.981 7.95001C12.9498 8.26769 12.8902 8.58195 12.803 8.88901C12.747 9.10401 12.673 9.31501 12.585 9.51901C12.485 9.36501 12.375 9.21901 12.253 9.08201C12.1597 8.97715 12.0613 8.87703 11.958 8.78201C11.418 8.28201 10.88 8.03301 10.88 8.03301C11.399 7.66001 12.032 7.23101 12.7 7.37501L12.701 7.37601ZM8.977 15.387L8.97 15.37C8.91533 15.2567 8.83862 15.1555 8.74435 15.0722C8.65009 14.9889 8.54016 14.9253 8.421 14.885C8.14347 14.7848 7.83934 14.7866 7.563 14.89C7.32841 14.9733 7.13615 15.1458 7.028 15.37L7.02 15.387C7.01953 15.3883 7.0192 15.3896 7.019 15.391C7.226 15.729 7.587 15.995 7.993 16H8.005C8.412 15.996 8.772 15.73 8.979 15.391C8.97859 15.39 8.97826 15.389 8.978 15.388L8.977 15.387ZM7.5 12.011C7.4072 11.91 7.30125 11.8219 7.185 11.749C7.05972 11.6706 6.92584 11.6069 6.786 11.559C6.48002 11.4539 6.15445 11.4184 5.833 11.455C5.47386 11.4935 5.12937 11.6184 4.829 11.819C4.659 11.932 4.504 12.065 4.367 12.215C4.212 12.385 4.077 12.573 3.964 12.773C3.833 13.007 3.725 13.253 3.643 13.509C3.546 13.81 3.474 14.119 3.429 14.432L3.409 14.572V14.57C3.404 14.6 3.392 14.667 3.388 14.71C4.263 14.812 5.138 14.931 6.006 15.09C5.991 15.087 6.104 14.598 6.118 14.548C6.155 14.419 6.199 14.291 6.261 14.172C6.34528 14.0049 6.47311 13.8636 6.631 13.763C6.781 13.669 6.947 13.606 7.103 13.525C7.28476 13.4352 7.45197 13.3186 7.599 13.179C7.741 13.04 7.787 12.885 7.785 12.689C7.78316 12.5651 7.757 12.4428 7.708 12.329C7.65681 12.2119 7.58652 12.1051 7.5 12.011ZM12.612 14.711C12.607 14.667 12.596 14.6 12.592 14.571C12.586 14.524 12.578 14.479 12.571 14.432C12.5256 14.1189 12.454 13.8102 12.357 13.509C12.2743 13.2536 12.1664 13.0071 12.035 12.773C11.922 12.5725 11.7869 12.3853 11.632 12.215C11.4948 12.0649 11.3401 11.932 11.171 11.819C10.8699 11.6199 10.5258 11.4951 10.167 11.455C9.84548 11.421 9.5204 11.4568 9.214 11.56C9.074 11.608 8.94 11.67 8.814 11.75C8.699 11.822 8.593 11.91 8.5 12.01C8.41332 12.104 8.34301 12.2118 8.292 12.329C8.24276 12.4427 8.21658 12.5651 8.215 12.689C8.213 12.886 8.259 13.04 8.4 13.179C8.545 13.321 8.717 13.433 8.896 13.526C9.053 13.606 9.219 13.669 9.368 13.764C9.528 13.864 9.651 14.004 9.738 14.173C9.8 14.292 9.845 14.419 9.881 14.549C9.895 14.599 10.009 15.088 9.994 15.09C10.8623 14.9351 11.7355 14.8084 12.612 14.71V14.711Z" fill="#002F66"/>
<path d="M6.32201 13.158C6.37482 13.1607 6.42762 13.1526 6.47721 13.1342C6.52679 13.1159 6.57212 13.0876 6.61045 13.0512C6.64877 13.0147 6.67929 12.9709 6.70014 12.9223C6.721 12.8737 6.73175 12.8214 6.73175 12.7685C6.73175 12.7156 6.721 12.6633 6.70014 12.6147C6.67929 12.5661 6.64877 12.5223 6.61045 12.4858C6.57212 12.4494 6.52679 12.4212 6.47721 12.4028C6.42762 12.3844 6.37482 12.3763 6.32201 12.379C6.21857 12.379 6.11937 12.4201 6.04624 12.4932C5.9731 12.5664 5.93201 12.6656 5.93201 12.769C5.93201 12.8724 5.9731 12.9716 6.04624 13.0448C6.11937 13.1179 6.21857 13.159 6.32201 13.159V13.158ZM9.67601 13.158C9.72882 13.1607 9.78162 13.1526 9.83121 13.1342C9.88079 13.1159 9.92612 13.0876 9.96445 13.0512C10.0028 13.0147 10.0333 12.9709 10.0541 12.9223C10.075 12.8737 10.0857 12.8214 10.0857 12.7685C10.0857 12.7156 10.075 12.6633 10.0541 12.6147C10.0333 12.5661 10.0028 12.5223 9.96445 12.4858C9.92612 12.4494 9.88079 12.4212 9.83121 12.4028C9.78162 12.3844 9.72882 12.3763 9.67601 12.379C9.57257 12.379 9.47337 12.4201 9.40024 12.4932C9.3271 12.5664 9.28601 12.6656 9.28601 12.769C9.28601 12.8724 9.3271 12.9716 9.40024 13.0448C9.47337 13.1179 9.57257 13.159 9.67601 13.159V13.158Z" fill="white"/>
</g>
</g>
<defs>
<clipPath id="clip0_5_2281">
<rect width="16" height="16" fill="white"/>
</clipPath>
</defs>
</svg>
