<svg width="16" height="16" viewBox="0 0 16 16" fill="none" xmlns="http://www.w3.org/2000/svg">
<path d="M13.553 3.016C12.5021 2.53466 11.3927 2.19309 10.253 2C10.097 2.27901 9.95577 2.56608 9.83003 2.86C8.61555 2.67697 7.3805 2.67697 6.16603 2.86C6.04054 2.56613 5.89967 2.27907 5.74403 2C4.60303 2.195 3.49203 2.537 2.44003 3.018C0.351026 6.108 -0.214974 9.123 0.0680258 12.094C1.29124 12.9981 2.66041 13.6857 4.11603 14.127C4.44382 13.6859 4.73385 13.2179 4.98303 12.728C4.50977 12.5512 4.053 12.333 3.61803 12.076C3.73303 11.993 3.84503 11.908 3.95303 11.825C5.2191 12.4204 6.60095 12.7291 8.00003 12.7291C9.39911 12.7291 10.781 12.4204 12.047 11.825C12.157 11.915 12.269 12 12.382 12.076C11.9461 12.3337 11.4883 12.5525 11.014 12.73C11.263 13.219 11.5531 13.686 11.881 14.126C13.338 13.6871 14.7083 13.0004 15.932 12.096C16.264 8.65 15.364 5.663 13.553 3.016ZM5.34303 10.266C4.55303 10.266 3.90103 9.551 3.90103 8.67C3.90103 7.789 4.53103 7.067 5.34003 7.067C6.14903 7.067 6.79603 7.789 6.78203 8.67C6.76803 9.55 6.14603 10.267 5.34203 10.267L5.34303 10.266ZM10.658 10.266C9.86803 10.266 9.21803 9.551 9.21803 8.67C9.21803 7.789 9.84803 7.067 10.658 7.067C11.468 7.067 12.11 7.789 12.096 8.67C12.082 9.55 11.462 10.267 10.658 10.267V10.266Z" fill="#5865F2"/>
</svg>
