<svg width="16" height="16" viewBox="0 0 16 16" fill="none" xmlns="http://www.w3.org/2000/svg">
<path d="M15.013 1C15.0837 0.998849 15.1538 1.01383 15.218 1.0438C15.2821 1.07378 15.3385 1.11796 15.383 1.173C15.4294 1.22879 15.4633 1.29394 15.4823 1.364C15.5013 1.43407 15.5049 1.5074 15.493 1.579L13.453 14.434C13.4284 14.59 13.3507 14.7327 13.233 14.838C13.1175 14.9409 12.9686 14.9984 12.814 15H3.02699C2.91116 15.0012 2.79898 14.9595 2.71199 14.883C2.62282 14.805 2.56403 14.6981 2.54599 14.581L0.505987 1.581C0.49499 1.50955 0.499098 1.4366 0.518045 1.36684C0.536992 1.29708 0.570357 1.23207 0.615987 1.176C0.661278 1.12189 0.717877 1.07835 0.781801 1.04847C0.845724 1.01858 0.915421 1.00306 0.985987 1.003L15.014 1H15.013ZM6.42299 10.29H9.54599L10.392 5.704H5.66499L6.42199 10.291L6.42299 10.29Z" fill="#2684FF"/>
<path d="M1.155 5.70401H5.665L6.422 10.291H9.546L13.235 14.835C13.1198 14.9393 12.9704 14.998 12.815 15H3.025C2.90883 15.0014 2.79625 14.9597 2.709 14.883C2.6202 14.8049 2.56178 14.6979 2.544 14.581L1.155 5.70401Z" fill="url(#paint0_linear_5_2280)"/>
<defs>
<linearGradient id="paint0_linear_5_2280" x1="0.0999988" y1="7.00001" x2="7.8" y2="12.8" gradientUnits="userSpaceOnUse">
<stop offset="0.2" stop-color="#0052CC"/>
<stop offset="1" stop-color="#2684FF"/>
</linearGradient>
</defs>
</svg>
