<svg width="16" height="16" viewBox="0 0 16 16" fill="none" xmlns="http://www.w3.org/2000/svg">
<g clip-path="url(#clip0_5_2286)">
<path fill-rule="evenodd" clip-rule="evenodd" d="M9.003 15.938C11.0205 15.6813 12.8646 14.6659 14.1603 13.0982C15.4559 11.5305 16.106 9.52827 15.9783 7.49848C15.8505 5.46869 14.9546 3.56372 13.4726 2.17085C11.9906 0.777986 10.0338 0.00176864 8 3.85862e-06C6.02933 -0.00193063 4.12728 0.723574 2.6585 2.03743C1.18972 3.35129 0.257556 5.16104 0.0407204 7.11975C-0.176115 9.07845 0.337634 11.0483 1.48348 12.6516C2.62932 14.2549 4.32662 15.3789 6.25 15.808V10.43H4.5V8H6.25V6.94C6.25 4.222 7.285 2.964 9.951 2.964C10.456 2.964 11.328 3.063 11.685 3.162V5.372C11.497 5.352 11.168 5.342 10.762 5.342C9.454 5.343 9 5.839 9 7.129V8H11.558L11.111 10.43H9.003V15.938Z" fill="white"/>
</g>
<defs>
<clipPath id="clip0_5_2286">
<rect width="16" height="16" fill="white"/>
</clipPath>
</defs>
</svg>
