<svg width="16" height="16" viewBox="0 0 16 16" fill="none" xmlns="http://www.w3.org/2000/svg">
<g clip-path="url(#clip0_5_2315)">
<mask id="mask0_5_2315" style="mask-type:luminance" maskUnits="userSpaceOnUse" x="0" y="0" width="16" height="16">
<path d="M0 0H16V16H0V0Z" fill="white"/>
</mask>
<g mask="url(#mask0_5_2315)">
<path d="M13.797 2.115C12.32 -0.0140045 9.37699 -0.637005 7.26199 0.704995L3.53299 3.092C3.02963 3.40721 2.59816 3.82471 2.26653 4.31741C1.93491 4.81011 1.71054 5.36701 1.60799 5.952C1.4266 6.93784 1.58414 7.95606 2.05499 8.84099C1.73161 9.32313 1.51448 9.86853 1.41799 10.441C1.31162 11.0376 1.32519 11.6495 1.45791 12.2408C1.59063 12.8321 1.83984 13.3911 2.19099 13.885C3.68199 16.014 6.61099 16.637 8.72599 15.295L12.456 12.922C12.9595 12.6067 13.391 12.189 13.7226 11.6961C14.0543 11.2033 14.2786 10.6462 14.381 10.061C14.5618 9.07536 14.4039 8.05752 13.933 7.173C14.258 6.685 14.475 6.143 14.57 5.573C14.6838 4.97436 14.674 4.35876 14.541 3.76407C14.4081 3.16939 14.1549 2.60819 13.797 2.115Z" fill="#FF3E00"/>
<path d="M6.896 14.088C6.30992 14.2401 5.69128 14.2085 5.12377 13.9974C4.55626 13.7864 4.06728 13.4061 3.723 12.908C3.50983 12.6113 3.35802 12.275 3.27646 11.9189C3.19489 11.5627 3.18522 11.1939 3.248 10.834C3.275 10.712 3.303 10.604 3.33 10.481L3.397 10.264L3.587 10.4C4.035 10.725 4.523 10.97 5.052 11.132L5.18699 11.172L5.17399 11.308C5.15999 11.498 5.214 11.702 5.323 11.864C5.42645 12.0166 5.5744 12.1335 5.74671 12.199C5.91902 12.2645 6.10732 12.2753 6.286 12.23C6.36578 12.2069 6.44288 12.1754 6.516 12.136L10.231 9.76299C10.3227 9.70655 10.4016 9.63144 10.4624 9.54254C10.5232 9.45364 10.5646 9.35295 10.584 9.24699C10.6222 9.02953 10.5734 8.80576 10.448 8.62399C10.3436 8.47319 10.1951 8.35834 10.0229 8.29515C9.85069 8.23197 9.66318 8.22353 9.486 8.27099C9.404 8.29799 9.32299 8.32499 9.25599 8.36599L7.831 9.27499C7.601 9.42399 7.343 9.53199 7.072 9.59999C6.48607 9.75185 5.86764 9.72011 5.30033 9.50907C4.73303 9.29803 4.24422 8.91787 3.9 8.41999C3.68907 8.12235 3.53972 7.78556 3.46073 7.42941C3.38174 7.07325 3.37469 6.70491 3.44 6.34599C3.50341 5.99361 3.63981 5.65838 3.84044 5.36182C4.04107 5.06527 4.30149 4.81395 4.605 4.62399L8.335 2.25099C8.565 2.10099 8.822 1.99299 9.093 1.91099C9.67907 1.75906 10.2977 1.79076 10.8651 2.00179C11.4326 2.21283 11.9216 2.59303 12.266 3.09099C12.7 3.68799 12.863 4.43399 12.741 5.16599C12.7157 5.28527 12.684 5.40311 12.646 5.51899L12.578 5.73599L12.388 5.59999C11.944 5.27636 11.4493 5.02897 10.924 4.86799L10.788 4.82799L10.802 4.69199C10.8136 4.49529 10.761 4.30014 10.652 4.13599C10.5476 3.98519 10.3991 3.87034 10.2269 3.80715C10.0547 3.74397 9.86718 3.73553 9.68999 3.78299C9.60899 3.80999 9.527 3.83699 9.46 3.87799L5.743 6.25099C5.65156 6.30744 5.57299 6.38243 5.51235 6.47115C5.45172 6.55986 5.41038 6.6603 5.391 6.76599C5.35234 6.98365 5.40083 7.20778 5.526 7.38999C5.63062 7.54081 5.77932 7.65559 5.95171 7.7186C6.12411 7.78162 6.31177 7.78979 6.489 7.74199C6.57 7.71499 6.652 7.68799 6.719 7.64699L8.14299 6.73899C8.37299 6.58899 8.631 6.48099 8.903 6.39999C9.48893 6.24828 10.1073 6.28009 10.6746 6.49112C11.2419 6.70215 11.7307 7.08222 12.075 7.57999C12.509 8.17599 12.672 8.92199 12.55 9.65399C12.4865 10.0065 12.3499 10.3417 12.1491 10.6383C11.9483 10.9349 11.6877 11.1861 11.384 11.376L7.655 13.75C7.41901 13.8987 7.16313 14.0132 6.895 14.09L6.896 14.088Z" fill="white"/>
</g>
</g>
<defs>
<clipPath id="clip0_5_2315">
<rect width="16" height="16" fill="white"/>
</clipPath>
</defs>
</svg>
