<svg width="16" height="16" viewBox="0 0 16 16" fill="none" xmlns="http://www.w3.org/2000/svg">
<path fill-rule="evenodd" clip-rule="evenodd" d="M2.5 13.5H6.75V15H2C1.73478 15 1.48043 14.8946 1.29289 14.7071C1.10536 14.5196 1 14.2652 1 14V2C1 1.73478 1.10536 1.48043 1.29289 1.29289C1.48043 1.10536 1.73478 1 2 1H6.75V2.5H2.5V13.5ZM12.44 7.25L10.47 5.28L9.94 4.75L11 3.69L11.53 4.22L14.604 7.293C14.7915 7.48053 14.8968 7.73484 14.8968 8C14.8968 8.26516 14.7915 8.51947 14.604 8.707L11.53 11.78L11 12.31L9.94 11.25L10.47 10.72L12.44 8.75H5V7.25H12.44Z" fill="white"/>
</svg>
