<svg width="16" height="16" viewBox="0 0 16 16" fill="none" xmlns="http://www.w3.org/2000/svg">
<path d="M1.17206 9.61299C1.14006 9.47999 1.29906 9.39699 1.39506 9.49299L6.50706 14.605C6.60306 14.701 6.52006 14.86 6.38706 14.828C5.11943 14.5284 3.96021 13.8819 3.03917 12.9609C2.11813 12.0398 1.47164 10.8806 1.17206 9.61299ZM1.00006 7.56399C0.998763 7.58364 1.00166 7.60334 1.00856 7.62179C1.01545 7.64023 1.02619 7.657 1.04006 7.67099L8.32906 14.959C8.343 14.9729 8.35977 14.9837 8.37822 14.9906C8.39668 14.9975 8.4164 15.0003 8.43606 14.999C8.76706 14.979 9.09306 14.935 9.41006 14.87C9.43409 14.8649 9.45628 14.8533 9.47428 14.8366C9.49228 14.8199 9.50542 14.7986 9.51229 14.775C9.51916 14.7514 9.51951 14.7264 9.51331 14.7026C9.50711 14.6789 9.49458 14.6572 9.47706 14.64L1.36106 6.52199C1.34386 6.50419 1.32214 6.49143 1.29823 6.48506C1.27432 6.4787 1.24913 6.47897 1.22536 6.48587C1.2016 6.49276 1.18017 6.50601 1.16337 6.52418C1.14658 6.54235 1.13506 6.56476 1.13006 6.58899C1.06399 6.91021 1.02055 7.23668 1.00006 7.56399ZM1.59006 5.15899C1.5787 5.18457 1.5754 5.213 1.58058 5.2405C1.58576 5.26801 1.59918 5.29329 1.61906 5.31299L10.6871 14.381C10.7271 14.421 10.7891 14.434 10.8411 14.411C11.0911 14.299 11.3341 14.174 11.5671 14.035C11.5852 14.0243 11.6006 14.0096 11.6121 13.9919C11.6236 13.9743 11.6309 13.9543 11.6334 13.9334C11.6359 13.9125 11.6336 13.8913 11.6266 13.8715C11.6196 13.8516 11.6081 13.8337 11.5931 13.819L2.18006 4.40699C2.16536 4.39193 2.1474 4.38046 2.12755 4.37347C2.10771 4.36647 2.08652 4.36414 2.06564 4.36666C2.04475 4.36917 2.02472 4.37646 2.0071 4.38797C1.98949 4.39947 1.97476 4.41487 1.96406 4.43299C1.825 4.66746 1.69978 4.90988 1.58906 5.15899H1.59006ZM2.77206 3.52999C2.74689 3.50512 2.73224 3.47154 2.73112 3.43619C2.73001 3.40083 2.74251 3.36639 2.76606 3.33999C3.4008 2.62766 4.17433 2.05247 5.03924 1.64966C5.90415 1.24686 6.84221 1.02494 7.79591 0.997497C8.74962 0.970056 9.69889 1.13767 10.5855 1.49008C11.4722 1.84248 12.2775 2.37225 12.9521 3.0469C13.6268 3.72155 14.1566 4.52688 14.509 5.41352C14.8614 6.30015 15.029 7.24942 15.0015 8.20313C14.9741 9.15684 14.7522 10.0949 14.3494 10.9598C13.9466 11.8247 13.3714 12.5982 12.6591 13.233C12.6328 13.2567 12.5984 13.2693 12.5631 13.2684C12.5277 13.2675 12.4941 13.253 12.4691 13.228L2.77206 3.52999Z" fill="#5E6AD2"/>
</svg>
