<svg width="16" height="16" viewBox="0 0 16 16" fill="none" xmlns="http://www.w3.org/2000/svg">
<g clip-path="url(#clip0_5_2293)">
<path d="M8.16003 6.54501V9.64401H12.465C12.3733 10.1328 12.1836 10.598 11.9074 11.0117C11.6313 11.4253 11.2743 11.7789 10.858 12.051L13.454 14.065C14.967 12.669 15.84 10.618 15.84 8.18201C15.84 7.61501 15.789 7.06901 15.694 6.54601L8.16003 6.54501Z" fill="#4285F4"/>
<path d="M3.67594 9.52301L3.09094 9.97101L1.01794 11.585C2.33394 14.197 5.03194 16 8.15994 16C10.3199 16 12.1299 15.287 13.4539 14.066L10.8579 12.051C10.1449 12.531 9.23594 12.821 8.15994 12.821C6.07994 12.821 4.31194 11.418 3.67994 9.52701L3.67594 9.52301Z" fill="#34A853"/>
<path d="M1.01804 4.41501C0.45337 5.52564 0.159369 6.75407 0.160035 8.00001C0.160035 9.29401 0.473035 10.509 1.01804 11.585C1.01804 11.593 3.68004 9.52001 3.68004 9.52001C3.52004 9.04001 3.42504 8.53001 3.42504 8.00001C3.42504 7.46901 3.52004 6.96001 3.68004 6.48001L1.01804 4.41501Z" fill="#FBBC05"/>
<path d="M8.15994 3.185C9.33794 3.185 10.3849 3.593 11.2219 4.378L13.5119 2.088C12.1229 0.792 10.3199 0 8.15994 0C5.03294 0 2.33394 1.796 1.01794 4.415L3.67994 6.48C4.31294 4.59 6.07994 3.185 8.15994 3.185Z" fill="#EA4335"/>
</g>
<defs>
<clipPath id="clip0_5_2293">
<rect width="16" height="16" fill="white"/>
</clipPath>
</defs>
</svg>
