<svg width="16" height="16" viewBox="0 0 16 16" fill="none" xmlns="http://www.w3.org/2000/svg">
<g clip-path="url(#clip0_5_2283)">
<path fill-rule="evenodd" clip-rule="evenodd" d="M13.041 11.36L11.709 10.482L10.599 12.337L9.30702 11.96L8.17002 13.695L8.22802 14.242L14.411 13.102L14.052 9.24L13.041 11.36ZM7.27502 9.695L8.26702 9.558C8.42702 9.63 8.53902 9.658 8.73202 9.707C9.03202 9.785 9.37802 9.86 9.89202 9.601C10.012 9.541 10.261 9.314 10.362 9.184L14.425 8.447L14.84 13.465L7.87702 14.72L7.27502 9.695ZM14.825 7.887L14.423 7.963L13.653 0L0.52002 1.523L2.13802 14.653L3.67502 14.429C3.55302 14.254 3.36102 14.041 3.03502 13.769C2.58202 13.394 2.74202 12.755 3.01002 12.351C3.36302 11.67 5.18402 10.803 5.08002 9.714C5.04302 9.318 4.98002 8.802 4.61202 8.449C4.60457 8.5451 4.60826 8.64175 4.62302 8.737C4.62302 8.737 4.47302 8.544 4.39702 8.281C4.32202 8.181 4.26302 8.149 4.18302 8.014C4.12702 8.169 4.13502 8.35 4.13502 8.35C4.13502 8.35 4.01102 8.058 3.99102 7.812C3.91702 7.922 3.89902 8.132 3.89902 8.132C3.89902 8.132 3.73902 7.672 3.77502 7.423C3.70202 7.208 3.48502 6.78 3.54602 5.807C3.94702 6.088 4.83002 6.021 5.17302 5.515C5.28802 5.346 5.36602 4.889 5.11702 3.986C4.95702 3.408 4.56002 2.546 4.40502 2.218L4.38702 2.232C4.46802 2.495 4.63702 3.047 4.70102 3.315C4.89602 4.128 4.94802 4.41 4.85702 4.785C4.77902 5.11 4.59202 5.323 4.11902 5.561C3.64502 5.801 3.01702 5.219 2.97702 5.187C2.51702 4.821 2.16002 4.222 2.12102 3.932C2.08002 3.614 2.30402 3.422 2.41802 3.163C2.25602 3.21 2.07502 3.292 2.07502 3.292C2.07502 3.292 2.29102 3.068 2.55702 2.876C2.66702 2.803 2.73102 2.756 2.84702 2.66C2.67902 2.658 2.54202 2.662 2.54202 2.662C2.54202 2.662 2.82202 2.51 3.11302 2.4C2.90102 2.391 2.69702 2.399 2.69702 2.399C2.69702 2.399 3.32202 2.119 3.81602 1.914C4.15602 1.775 4.48602 1.816 4.67302 2.086C4.91802 2.438 5.17402 2.63 5.71902 2.749C6.05302 2.601 6.15502 2.525 6.57402 2.411C6.94402 2.004 7.23402 1.951 7.23402 1.951C7.23402 1.951 7.09102 2.083 7.05202 2.291C7.26202 2.126 7.49202 1.988 7.49202 1.988C7.49202 1.988 7.40202 2.098 7.32002 2.272L7.33902 2.3C7.58302 2.153 7.87102 2.038 7.87102 2.038C7.87102 2.038 7.78902 2.142 7.69202 2.277C7.87702 2.275 8.25202 2.284 8.39602 2.301C9.25302 2.32 9.43002 1.385 9.76002 1.269C10.172 1.122 10.355 1.032 11.057 1.722C11.66 2.314 12.13 3.372 11.897 3.61C11.701 3.806 11.314 3.533 10.886 2.999C10.6418 2.69761 10.4775 2.33962 10.408 1.958C10.341 1.599 10.078 1.392 10.078 1.392C10.078 1.392 10.23 1.732 10.23 2.032C10.23 2.196 10.25 2.809 10.513 3.152C10.487 3.202 10.476 3.401 10.446 3.438C10.141 3.069 9.48402 2.805 9.37802 2.726C9.74002 3.023 10.573 3.706 10.892 4.359C11.195 4.977 11.016 5.544 11.169 5.691C11.213 5.732 11.819 6.489 11.937 6.869C12.14 7.531 11.948 8.228 11.682 8.659L10.938 8.775C10.829 8.745 10.756 8.73 10.658 8.674C10.712 8.578 10.818 8.34 10.82 8.292L10.778 8.218C10.546 8.546 10.158 8.865 9.83502 9.048C9.41302 9.288 8.92702 9.251 8.61002 9.153C7.71102 8.876 6.86102 8.268 6.65702 8.108C6.65702 8.108 6.65002 8.235 6.68902 8.265C7.06287 8.65933 7.48174 9.00839 7.93702 9.305L6.86702 9.423L7.37302 13.361C7.14902 13.393 7.11402 13.409 6.86902 13.444C6.65302 12.68 6.23902 12.18 5.78702 11.889C5.38802 11.633 4.83702 11.575 4.31102 11.679L4.27702 11.719C4.64302 11.681 5.07502 11.734 5.51902 12.015C5.95502 12.29 6.30602 13.002 6.43602 13.431C6.60102 13.979 6.71602 14.565 6.27002 15.186C5.95202 15.627 5.02702 15.871 4.27902 15.344C4.47902 15.665 4.74902 15.928 5.11202 15.977C5.65202 16.05 6.16402 15.957 6.51602 15.595C6.81602 15.285 6.97702 14.638 6.93402 13.957L7.41002 13.888L7.58202 15.111L15.467 14.161L14.825 7.887ZM10.027 4.565C10.005 4.615 9.97002 4.648 10.022 4.811L10.026 4.821L10.034 4.842L10.054 4.891C10.149 5.081 10.251 5.263 10.423 5.355C10.467 5.348 10.513 5.342 10.561 5.34C10.6729 5.3282 10.7859 5.34685 10.888 5.394C10.8947 5.34462 10.8961 5.29467 10.892 5.245C10.879 5.003 10.94 4.591 10.474 4.374C10.298 4.293 10.052 4.317 9.97002 4.42C9.98297 4.42107 9.99574 4.42376 10.008 4.428C10.134 4.471 10.049 4.514 10.027 4.565ZM11.333 6.826C11.272 6.793 10.986 6.806 10.786 6.83C10.404 6.875 9.99102 7.007 9.90002 7.077C9.73602 7.205 9.81002 7.427 9.93202 7.517C10.272 7.771 10.571 7.943 10.886 7.901C11.079 7.876 11.25 7.569 11.371 7.291C11.454 7.1 11.454 6.894 11.333 6.826ZM7.94902 4.865C8.05702 4.762 7.41202 4.628 6.91202 4.969C6.54202 5.221 6.53202 5.761 6.88402 6.066C6.91902 6.096 6.94902 6.118 6.97502 6.136C7.26889 5.99687 7.58266 5.90443 7.90502 5.862C7.98102 5.778 8.06802 5.632 8.04502 5.365C8.01702 5.003 7.74302 5.061 7.94902 4.865Z" fill="#632CA6"/>
</g>
<defs>
<clipPath id="clip0_5_2283">
<rect width="16" height="16" fill="white"/>
</clipPath>
</defs>
</svg>
