<svg width="16" height="16" viewBox="0 0 16 16" fill="none" xmlns="http://www.w3.org/2000/svg">
<g clip-path="url(#clip0_5_2328)">
<path fill-rule="evenodd" clip-rule="evenodd" d="M13.638 2.323C12.904 1.5843 12.0308 0.998596 11.0688 0.599839C10.1069 0.201082 9.07534 -0.002803 8.03401 -2.04554e-06C3.66701 -2.04554e-06 0.112006 3.554 0.110006 7.922C0.110006 9.318 0.474006 10.682 1.16801 11.882L0.0440063 15.989L4.24401 14.888C5.40558 15.5208 6.70726 15.8522 8.03001 15.852H8.03401C12.4 15.852 15.954 12.298 15.956 7.929C15.9593 6.88804 15.7561 5.85677 15.3582 4.89485C14.9604 3.93293 14.3757 3.05947 13.638 2.325V2.323ZM8.03401 14.513H8.03001C6.85057 14.5131 5.69282 14.196 4.67801 13.595L4.43801 13.452L1.94501 14.106L2.61101 11.676L2.45401 11.426C1.7944 10.3764 1.44528 9.16162 1.44701 7.922C1.44992 6.17601 2.14507 4.50243 3.38004 3.26821C4.61502 2.03399 6.28902 1.33985 8.03501 1.338C8.90024 1.33587 9.75729 1.50545 10.5565 1.83692C11.3557 2.16838 12.0812 2.65514 12.691 3.269C13.3041 3.87966 13.7901 4.60587 14.1207 5.40558C14.4513 6.2053 14.62 7.06265 14.617 7.928C14.616 11.558 11.662 14.512 8.03301 14.512L8.03401 14.513ZM11.645 9.581C11.448 9.482 10.475 9.003 10.293 8.937C10.111 8.871 9.97901 8.838 9.84801 9.037C9.71601 9.235 9.33601 9.681 9.22101 9.813C9.10501 9.945 8.99001 9.961 8.79101 9.862C8.59401 9.762 7.95601 9.554 7.20001 8.88C6.76723 8.47958 6.39619 8.01722 6.09901 7.508C5.98301 7.31 6.08601 7.203 6.18501 7.104C6.27501 7.016 6.38301 6.874 6.48201 6.758C6.58201 6.642 6.61401 6.559 6.68001 6.428C6.74601 6.295 6.71301 6.18 6.66401 6.081C6.61401 5.981 6.21901 5.007 6.05401 4.611C5.89301 4.225 5.72901 4.277 5.60801 4.271C5.48141 4.26565 5.35471 4.26332 5.22801 4.264C5.12781 4.26677 5.02928 4.29024 4.93859 4.33292C4.84789 4.37559 4.76701 4.43656 4.70101 4.512C4.51901 4.71 4.00801 5.189 4.00801 6.163C4.00801 7.137 4.71701 8.079 4.81601 8.211C4.91601 8.343 6.21201 10.343 8.19801 11.201C8.67001 11.404 9.03801 11.526 9.32601 11.617C9.80001 11.768 10.232 11.747 10.573 11.697C10.953 11.639 11.744 11.217 11.909 10.755C12.074 10.292 12.074 9.895 12.025 9.813C11.975 9.731 11.843 9.681 11.645 9.583V9.58V9.581Z" fill="#25D366"/>
</g>
<defs>
<clipPath id="clip0_5_2328">
<rect width="16" height="16" fill="white"/>
</clipPath>
</defs>
</svg>
