<svg width="16" height="16" viewBox="0 0 16 16" fill="none" xmlns="http://www.w3.org/2000/svg">
<path d="M3.20598 2.05399C3.20598 4.19799 4.53798 5.48399 7.20098 6.16099L10.021 6.81499C12.549 7.40199 14.084 8.84599 14.084 11.193C14.0994 12.2104 13.7734 13.2036 13.158 14.014C13.158 11.667 11.94 10.404 9.02798 9.63599L6.25298 9.00399C4.01898 8.50799 2.30298 7.31199 2.30298 4.76199C2.30298 3.79199 2.61898 2.82099 3.20598 2.05399Z" fill="#F04939"/>
<path d="M11.42 10.607C12.617 11.374 13.158 12.457 13.158 14.014C12.143 15.3 10.405 16 8.35198 16C4.89898 16 2.43898 14.285 1.91998 11.329H5.23698C5.66698 12.683 6.79398 13.315 8.32898 13.315C10.157 13.337 11.398 12.345 11.42 10.607ZM4.94498 5.236C4.3939 4.90705 3.9416 4.43575 3.6356 3.8716C3.3296 3.30746 3.18119 2.67131 3.20598 2.03C4.17598 0.767 5.84598 0 7.87798 0C11.421 0 13.452 1.873 13.971 4.49H10.766C10.406 3.453 9.52598 2.64 7.92298 2.64C6.18498 2.663 5.01198 3.656 4.94398 5.236H4.94498Z" fill="#F37368"/>
</svg>
