<svg width="16" height="16" viewBox="0 0 16 16" fill="none" xmlns="http://www.w3.org/2000/svg">
<path d="M7.402 13.878C9.458 13.468 11.155 13.128 11.175 13.123L11.21 13.115L9.27 10.507C8.61909 9.63657 7.97209 8.76323 7.329 7.887C7.329 7.874 9.333 1.64 9.344 1.617C9.348 1.61 10.712 4.27 12.65 8.065C14.465 11.618 15.96 14.548 15.975 14.575L16 14.625H9.832L3.664 14.623L7.402 13.878ZM0 13.082C0 13.079 0.914 11.286 2.032 9.097L4.064 5.12L6.432 2.875C7.22267 2.1236 8.01468 1.3736 8.808 0.625C8.7995 0.662654 8.78675 0.699222 8.77 0.734L6.2 6.964L3.674 13.084L1.838 13.086C0.828 13.088 0.001 13.086 0.001 13.082H0Z" fill="#0089D6"/>
</svg>
