<svg width="16" height="16" viewBox="0 0 16 16" fill="none" xmlns="http://www.w3.org/2000/svg">
<g clip-path="url(#clip0_5_2331)">
<path fill-rule="evenodd" clip-rule="evenodd" d="M1.49995 6.5C1.49995 5.17392 2.02673 3.90215 2.96441 2.96447C3.90209 2.02678 5.17386 1.5 6.49995 1.5C7.82603 1.5 9.0978 2.02678 10.0355 2.96447C10.9732 3.90215 11.4999 5.17392 11.4999 6.5C11.4999 7.82608 10.9732 9.09785 10.0355 10.0355C9.0978 10.9732 7.82603 11.5 6.49995 11.5C5.17386 11.5 3.90209 10.9732 2.96441 10.0355C2.02673 9.09785 1.49995 7.82608 1.49995 6.5ZM6.49995 1.44073e-10C5.46281 8.71966e-06 4.44073 0.248195 3.51909 0.723826C2.59745 1.19946 1.803 1.88872 1.20211 2.73405C0.60122 3.57938 0.21133 4.55622 0.0650121 5.58298C-0.0813062 6.60975 0.0201947 7.65662 0.361036 8.63614C0.701878 9.61567 1.27216 10.4994 2.02426 11.2136C2.77635 11.9277 3.68841 12.4515 4.68426 12.7412C5.68011 13.031 6.73083 13.0782 7.74865 12.8789C8.76646 12.6797 9.72183 12.2398 10.5349 11.596L13.9699 15.03L14.4999 15.56L15.5599 14.5L15.0299 13.97L11.5959 10.535C12.3543 9.57726 12.8274 8.42521 12.961 7.21092C13.0946 5.99664 12.8833 4.76928 12.3514 3.66957C11.8194 2.56985 10.9883 1.64231 9.95339 0.993273C8.91845 0.344239 7.72156 -8.13196e-06 6.49995 1.44073e-10ZM4.12495 5.875H5.87495V4.125H7.12495V5.875H8.87495V7.125H7.12495V8.875H5.87495V7.125H4.12495V5.875Z" fill="white"/>
</g>
<defs>
<clipPath id="clip0_5_2331">
<rect width="16" height="16" fill="white"/>
</clipPath>
</defs>
</svg>
