<svg width="16" height="16" viewBox="0 0 16 16" fill="none" xmlns="http://www.w3.org/2000/svg">
<path fill-rule="evenodd" clip-rule="evenodd" d="M3.49998 7.00001C3.49992 6.43402 3.63713 5.87645 3.89984 5.37511C4.16255 4.87378 4.54293 4.44364 5.00836 4.12156C5.47379 3.79949 6.01038 3.5951 6.57213 3.52591C7.13389 3.45672 7.70404 3.5248 8.23371 3.72431C8.76338 3.92383 9.23676 4.24882 9.61327 4.67142C9.98978 5.09403 10.2582 5.60164 10.3955 6.15073C10.5327 6.69983 10.5348 7.27403 10.4015 7.8241C10.2682 8.37417 10.0034 8.88371 9.62998 9.30901L9.30898 9.63101C8.80325 10.075 8.18026 10.3637 7.51463 10.4627C6.84901 10.5616 6.16897 10.4666 5.55597 10.1889C4.94297 9.9113 4.423 9.46283 4.05836 8.89725C3.69371 8.33167 3.49984 7.67296 3.49998 7.00001ZM9.96498 11.026C8.9497 11.7739 7.68931 12.1106 6.43631 11.9686C5.18331 11.8266 4.03024 11.2164 3.20811 10.2602C2.38598 9.30403 1.9555 8.07251 2.00293 6.81238C2.05036 5.55225 2.57218 4.35658 3.46386 3.4649C4.35554 2.57322 5.55121 2.05139 6.81134 2.00397C8.07148 1.95654 9.30299 2.38701 10.2592 3.20915C11.2154 4.03128 11.8256 5.18435 11.9676 6.43735C12.1096 7.69035 11.7729 8.95074 11.025 9.96601L14.03 12.97L14.56 13.5L13.5 14.56L12.97 14.03L9.96498 11.026Z" fill="white"/>
</svg>
