<svg width="16" height="16" viewBox="0 0 16 16" fill="none" xmlns="http://www.w3.org/2000/svg">
<g clip-path="url(#clip0_5_2330)">
<path fill-rule="evenodd" clip-rule="evenodd" d="M6.5 1.49995C5.17392 1.49995 3.90215 2.02673 2.96447 2.96441C2.02678 3.90209 1.5 5.17386 1.5 6.49995C1.5 7.82603 2.02678 9.0978 2.96447 10.0355C3.90215 10.9732 5.17392 11.4999 6.5 11.4999C7.82608 11.4999 9.09785 10.9732 10.0355 10.0355C10.9732 9.0978 11.5 7.82603 11.5 6.49995C11.5 5.17386 10.9732 3.90209 10.0355 2.96441C9.09785 2.02673 7.82608 1.49995 6.5 1.49995ZM1.44074e-10 6.49995C8.71966e-06 5.46281 0.248195 4.44073 0.723826 3.51909C1.19946 2.59745 1.88872 1.803 2.73405 1.20211C3.57938 0.60122 4.55622 0.21133 5.58298 0.0650121C6.60975 -0.0813062 7.65662 0.0201947 8.63614 0.361036C9.61567 0.701878 10.4994 1.27216 11.2136 2.02426C11.9277 2.77635 12.4515 3.68841 12.7412 4.68426C13.031 5.68011 13.0782 6.73083 12.8789 7.74865C12.6797 8.76646 12.2398 9.72183 11.596 10.5349L15.03 13.9699L15.56 14.4999L14.5 15.5599L13.97 15.0299L10.535 11.5959C9.57726 12.3543 8.42521 12.8274 7.21092 12.961C5.99664 13.0946 4.76928 12.8833 3.66957 12.3514C2.56985 11.8194 1.64231 10.9883 0.993273 9.95339C0.344239 8.91845 -8.13196e-06 7.72156 1.44074e-10 6.49995ZM4.75 5.87495H4.125V7.12495H8.875V5.87495H4.75Z" fill="white"/>
</g>
<defs>
<clipPath id="clip0_5_2330">
<rect width="16" height="16" fill="white"/>
</clipPath>
</defs>
</svg>
