<svg width="16" height="16" viewBox="0 0 16 16" fill="none" xmlns="http://www.w3.org/2000/svg">
<g clip-path="url(#clip0_5_2338)">
<path fill-rule="evenodd" clip-rule="evenodd" d="M2.891 10.403L2.983 10.632C3.229 11.245 3.5 12.105 3.5 13C3.5 13.359 3.456 13.713 3.388 14.05C4.23619 13.7664 5.02377 13.3265 5.71 12.753L6.225 12.323L6.888 12.42C7.248 12.472 7.62 12.5 8 12.5C11.784 12.5 14.5 9.856 14.5 7C14.5 4.144 11.784 1.5 8 1.5C4.216 1.5 1.5 4.144 1.5 7C1.5 8.182 1.942 9.293 2.731 10.215L2.891 10.403ZM2.813 15.765C1.761 16 1 16 1 16C1 16 1.433 15.31 1.73 14.437C1.882 13.983 2 13.48 2 13C2 12.383 1.807 11.73 1.591 11.19C0.591 10.022 0 8.572 0 7C0 3.134 3.582 0 8 0C12.418 0 16 3.134 16 7C16 10.866 12.418 14 8 14C7.547 14 7.103 13.967 6.67 13.904C6.15749 14.3326 5.5971 14.7003 5 15C4.30467 15.3426 3.57029 15.5995 2.813 15.765Z" fill="white"/>
</g>
<defs>
<clipPath id="clip0_5_2338">
<rect width="16" height="16" fill="white"/>
</clipPath>
</defs>
</svg>
