<svg width="16" height="16" viewBox="0 0 16 16" fill="none" xmlns="http://www.w3.org/2000/svg">
<path fill-rule="evenodd" clip-rule="evenodd" d="M8.50098 1.5H7.50098C7.10315 1.5 6.72162 1.65804 6.44032 1.93934C6.15901 2.22064 6.00098 2.60218 6.00098 3V7C6.00098 7.39782 6.15901 7.77936 6.44032 8.06066C6.72162 8.34196 7.10315 8.5 7.50098 8.5H8.50098C8.8988 8.5 9.28033 8.34196 9.56164 8.06066C9.84294 7.77936 10.001 7.39782 10.001 7V3C10.001 2.60218 9.84294 2.22064 9.56164 1.93934C9.28033 1.65804 8.8988 1.5 8.50098 1.5ZM7.50098 0C6.70533 0 5.94227 0.31607 5.37966 0.87868C4.81705 1.44129 4.50098 2.20435 4.50098 3V7C4.50098 7.79565 4.81705 8.55871 5.37966 9.12132C5.94227 9.68393 6.70533 10 7.50098 10H8.50098C9.29663 10 10.0597 9.68393 10.6223 9.12132C11.1849 8.55871 11.501 7.79565 11.501 7V3C11.501 2.20435 11.1849 1.44129 10.6223 0.87868C10.0597 0.31607 9.29663 0 8.50098 0L7.50098 0ZM7.25098 13.209V16H8.75098V13.209C10.1106 13.0564 11.3919 12.4945 12.4253 11.5977C13.4586 10.701 14.1954 9.51161 14.538 8.187L14.725 7.461L13.273 7.087L13.086 7.813C12.7947 8.94017 12.1372 9.93863 11.2168 10.6515C10.2964 11.3643 9.16517 11.7511 8.00098 11.7511C6.83679 11.7511 5.70559 11.3643 4.78516 10.6515C3.86472 9.93863 3.20722 8.94017 2.91598 7.813L2.72898 7.087L1.27698 7.461L1.46398 8.187C1.8066 9.51161 2.54333 10.701 3.57668 11.5977C4.61004 12.4945 5.89131 13.0564 7.25098 13.209Z" fill="white"/>
</svg>
