<svg width="16" height="16" viewBox="0 0 16 16" fill="none" xmlns="http://www.w3.org/2000/svg">
<g clip-path="url(#clip0_5_2340)">
<path fill-rule="evenodd" clip-rule="evenodd" d="M15.557 15.081L15.069 14.511L12.509 11.524C13.4991 10.6358 14.2046 9.47488 14.537 8.18699L14.724 7.46099L13.272 7.08699L13.085 7.81299C12.8291 8.80335 12.2893 9.69732 11.532 10.385L10.392 9.05499C10.7422 8.72797 11.0213 8.33236 11.2119 7.89279C11.4025 7.45322 11.5006 6.97911 11.5 6.49999V3.49999C11.5005 2.66884 11.2052 1.86465 10.6669 1.23134C10.1287 0.598025 9.3826 0.176929 8.56225 0.0434113C7.7419 -0.0901061 6.90081 0.0726705 6.1895 0.502609C5.4782 0.932548 4.94311 1.60159 4.68 2.38999L3.07 0.511986L2.581 -0.0580139L1.442 0.919986L1.931 1.48999L13.931 15.49L14.419 16.059L15.557 15.081ZM6 3.93099V3.49999C6 2.96955 6.21071 2.46085 6.58579 2.08577C6.96086 1.7107 7.46957 1.49999 8 1.49999C8.53043 1.49999 9.03914 1.7107 9.41421 2.08577C9.78929 2.46085 10 2.96955 10 3.49999V6.49999C10 7.05099 9.778 7.55099 9.414 7.91399L6 3.93099ZM1.463 8.18699L1.276 7.46099L2.728 7.08699L2.915 7.81299C3.20661 8.93987 3.86424 9.93797 4.78462 10.6506C5.70501 11.3632 6.836 11.7499 8 11.75H8.75V16H7.25V13.209C5.89034 13.0563 4.60906 12.4945 3.57571 11.5977C2.54235 10.701 1.80562 9.5116 1.463 8.18699Z" fill="white"/>
</g>
<defs>
<clipPath id="clip0_5_2340">
<rect width="16" height="16" fill="white"/>
</clipPath>
</defs>
</svg>
