<svg width="16" height="16" viewBox="0 0 16 16" fill="none" xmlns="http://www.w3.org/2000/svg">
<g clip-path="url(#clip0_5_2341)">
<path fill-rule="evenodd" clip-rule="evenodd" d="M2.46994 3.53L2.54794 3.609C1.97693 4.31649 1.5496 5.1287 1.28994 6H2.87494C3.15236 5.29188 3.57315 4.64875 4.11092 4.11099C4.64869 3.57322 5.29182 3.15242 5.99994 2.875V1.29C5.12864 1.54966 4.31643 1.97699 3.60894 2.548L3.52994 2.47L2.02994 0.970002L1.49994 0.440002L0.439941 1.5L0.969941 2.03L2.46994 3.53ZM13.4519 12.391C14.0229 11.6835 14.4503 10.8713 14.7099 10H13.1249C12.8476 10.7082 12.4268 11.3513 11.889 11.8891C11.3512 12.4269 10.7081 12.8476 9.99994 13.125V14.71C10.8713 14.4504 11.6835 14.023 12.3909 13.452L12.4699 13.53L13.9699 15.03L14.4999 15.56L15.5599 14.5L15.0299 13.97L13.5299 12.47L13.4519 12.391ZM13.4519 3.609C14.023 4.31647 14.4503 5.12868 14.7099 6H13.1249C12.8475 5.29188 12.4267 4.64875 11.889 4.11099C11.3512 3.57322 10.7081 3.15242 9.99994 2.875V1.29C10.8712 1.54966 11.6834 1.97699 12.3909 2.548L12.4699 2.47L13.9699 0.970002L14.4999 0.440002L15.5599 1.5L15.0299 2.03L13.5299 3.53L13.4519 3.609ZM1.28994 10H2.87494C3.15236 10.7081 3.57315 11.3513 4.11092 11.889C4.64869 12.4268 5.29182 12.8476 5.99994 13.125V14.71C5.12862 14.4504 4.3164 14.0231 3.60894 13.452L3.52994 13.53L2.02994 15.03L1.49994 15.56L0.439941 14.5L0.969941 13.97L2.46994 12.47L2.54794 12.391C1.97693 11.6835 1.5496 10.8713 1.28994 10ZM7.99994 10C8.53037 10 9.03908 9.78929 9.41416 9.41422C9.78923 9.03914 9.99994 8.53044 9.99994 8C9.99994 7.46957 9.78923 6.96086 9.41416 6.58579C9.03908 6.21072 8.53037 6 7.99994 6C7.46951 6 6.9608 6.21072 6.58573 6.58579C6.21065 6.96086 5.99994 7.46957 5.99994 8C5.99994 8.53044 6.21065 9.03914 6.58573 9.41422C6.9608 9.78929 7.46951 10 7.99994 10Z" fill="white"/>
</g>
<defs>
<clipPath id="clip0_5_2341">
<rect width="16" height="16" fill="white"/>
</clipPath>
</defs>
</svg>
