<svg width="16" height="16" viewBox="0 0 16 16" fill="none" xmlns="http://www.w3.org/2000/svg">
<g clip-path="url(#clip0_5_2346)">
<path fill-rule="evenodd" clip-rule="evenodd" d="M3.24998 3.25C3.24998 3.51522 3.14463 3.76957 2.95709 3.95711C2.76956 4.14465 2.5152 4.25 2.24998 4.25C1.98477 4.25 1.73041 4.14465 1.54288 3.95711C1.35534 3.76957 1.24998 3.51522 1.24998 3.25C1.24998 2.98479 1.35534 2.73043 1.54288 2.5429C1.73041 2.35536 1.98477 2.25 2.24998 2.25C2.5152 2.25 2.76956 2.35536 2.95709 2.5429C3.14463 2.73043 3.24998 2.98479 3.24998 3.25ZM2.24998 5.5C2.66098 5.5 3.04698 5.39 3.37799 5.197L7.61598 8.493L7.99998 8.792L8.38398 8.493L12.622 5.197C13.0908 5.46856 13.6419 5.56183 14.1739 5.4597C14.706 5.35756 15.1833 5.06687 15.5183 4.64102C15.8532 4.21517 16.0232 3.68277 15.9971 3.14162C15.971 2.60047 15.7505 2.08691 15.3762 1.69528C15.0018 1.30365 14.4987 1.06026 13.9592 1.00982C13.4198 0.959371 12.8803 1.10526 12.4398 1.42069C11.9993 1.73611 11.6874 2.19988 11.5614 2.72681C11.4354 3.25374 11.5038 3.80844 11.754 4.289L7.99998 7.209L4.24598 4.289C4.47276 3.85341 4.55079 3.35557 4.46818 2.87148C4.38556 2.38739 4.14683 1.94362 3.78842 1.60789C3.43 1.27216 2.97159 1.06292 2.48314 1.01209C1.99468 0.961257 1.50301 1.07163 1.08315 1.32636C0.663288 1.5811 0.338299 1.96621 0.157776 2.42291C-0.0227473 2.87962 -0.0488905 3.38286 0.0833356 3.85581C0.215562 4.32877 0.498895 4.74548 0.890099 5.04235C1.2813 5.33922 1.75889 5.49995 2.24998 5.5ZM3.24998 12.75C3.24998 13.0152 3.14463 13.2696 2.95709 13.4571C2.76956 13.6446 2.5152 13.75 2.24998 13.75C1.98477 13.75 1.73041 13.6446 1.54288 13.4571C1.35534 13.2696 1.24998 13.0152 1.24998 12.75C1.24998 12.4848 1.35534 12.2304 1.54288 12.0429C1.73041 11.8554 1.98477 11.75 2.24998 11.75C2.5152 11.75 2.76956 11.8554 2.95709 12.0429C3.14463 12.2304 3.24998 12.4848 3.24998 12.75ZM2.24998 15C2.79238 15.0005 3.31668 14.805 3.72637 14.4495C4.13606 14.0941 4.40357 13.6026 4.47964 13.0656C4.55572 12.5286 4.43524 11.9821 4.14039 11.5269C3.84554 11.0716 3.39616 10.7382 2.87498 10.588V7H1.62498V10.588C1.10521 10.7396 0.657472 11.0734 0.363856 11.5283C0.0702407 11.9832 -0.0495802 12.5287 0.0263591 13.0647C0.102298 13.6008 0.36891 14.0915 0.777317 14.447C1.18572 14.8024 1.70856 14.9988 2.24998 15ZM13.75 4.25C14.0152 4.25 14.2696 4.14465 14.4571 3.95711C14.6446 3.76957 14.75 3.51522 14.75 3.25C14.75 2.98479 14.6446 2.73043 14.4571 2.5429C14.2696 2.35536 14.0152 2.25 13.75 2.25C13.4848 2.25 13.2304 2.35536 13.0429 2.5429C12.8553 2.73043 12.75 2.98479 12.75 3.25C12.75 3.51522 12.8553 3.76957 13.0429 3.95711C13.2304 4.14465 13.4848 4.25 13.75 4.25ZM14.75 12.75C14.75 13.0152 14.6446 13.2696 14.4571 13.4571C14.2696 13.6446 14.0152 13.75 13.75 13.75C13.4848 13.75 13.2304 13.6446 13.0429 13.4571C12.8553 13.2696 12.75 13.0152 12.75 12.75C12.75 12.4848 12.8553 12.2304 13.0429 12.0429C13.2304 11.8554 13.4848 11.75 13.75 11.75C14.0152 11.75 14.2696 11.8554 14.4571 12.0429C14.6446 12.2304 14.75 12.4848 14.75 12.75ZM13.75 15C14.2924 15.0005 14.8167 14.805 15.2264 14.4495C15.6361 14.0941 15.9036 13.6026 15.9796 13.0656C16.0557 12.5286 15.9352 11.9821 15.6404 11.5269C15.3455 11.0716 14.8962 10.7382 14.375 10.588V7H13.125V10.588C12.6052 10.7396 12.1575 11.0734 11.8639 11.5283C11.5702 11.9832 11.4504 12.5287 11.5264 13.0647C11.6023 13.6008 11.8689 14.0915 12.2773 14.447C12.6857 14.8024 13.2086 14.9988 13.75 15Z" fill="white"/>
</g>
<defs>
<clipPath id="clip0_5_2346">
<rect width="16" height="16" fill="white"/>
</clipPath>
</defs>
</svg>
