<svg width="16" height="16" viewBox="0 0 16 16" fill="none" xmlns="http://www.w3.org/2000/svg">
<path fill-rule="evenodd" clip-rule="evenodd" d="M1.50002 8C1.50002 5.53 2.99202 3.41 5.12302 2.489C4.75111 3.57855 4.65367 4.743 4.83933 5.8792C5.025 7.0154 5.48803 8.08827 6.18742 9.00275C6.88681 9.91723 7.80095 10.6451 8.84886 11.1219C9.89677 11.5986 11.0461 11.8096 12.195 11.736C11.42 12.7099 10.3614 13.4188 9.16564 13.7643C7.96992 14.1098 6.69635 14.0749 5.52133 13.6644C4.34632 13.254 3.32804 12.4883 2.60754 11.4734C1.88704 10.4585 1.5 9.24464 1.50002 8ZM6.41702 0.578003C4.54599 0.856873 2.84939 1.83229 1.66699 3.30892C0.484596 4.78555 -0.0963056 6.65436 0.0406283 8.54109C0.177562 10.4278 1.02222 12.1932 2.40545 13.4836C3.78867 14.774 5.60833 15.4942 7.50002 15.5C8.96122 15.5003 10.3907 15.0738 11.6129 14.273C12.8351 13.4721 13.7969 12.3318 14.38 10.992L13.459 9.98C12.375 10.3354 11.2073 10.3449 10.1176 10.0072C9.02788 9.66955 8.07016 9.00137 7.37706 8.09525C6.68396 7.18913 6.28977 6.08991 6.24909 4.94982C6.20841 3.80974 6.52325 2.68522 7.15002 1.732L6.41702 0.578003ZM13.25 1V2.75H15V4.25H13.25V6H11.75V4.25H10V2.75H11.75V1H13.25Z" fill="white"/>
</svg>
