<svg width="16" height="16" viewBox="0 0 16 16" fill="none" xmlns="http://www.w3.org/2000/svg">
<g clip-path="url(#clip0_5_2348)">
<mask id="mask0_5_2348" style="mask-type:luminance" maskUnits="userSpaceOnUse" x="0" y="0" width="16" height="16">
<path d="M0 0H16V16H0V0Z" fill="white"/>
</mask>
<g mask="url(#mask0_5_2348)">
<path fill-rule="evenodd" clip-rule="evenodd" d="M14.5 8C14.5017 9.60563 13.909 11.1551 12.8362 12.3497C11.7634 13.5443 10.2864 14.2996 8.68982 14.47C7.09326 14.6404 5.49012 14.2139 4.18935 13.2726C2.88858 12.3313 1.98225 10.9418 1.645 9.372C1.812 9.776 2.052 10.144 2.368 10.46C4.046 12.138 7.219 11.686 9.456 9.45C11.692 7.213 12.144 4.04 10.466 2.361C10.1643 2.06003 9.80748 1.81999 9.415 1.654C10.8577 1.97616 12.1476 2.78034 13.072 3.93395C13.9964 5.08756 14.5001 6.52173 14.5 8ZM16 8C16 10.1217 15.1571 12.1566 13.6569 13.6569C12.1566 15.1571 10.1217 16 8 16C5.87827 16 3.84344 15.1571 2.34315 13.6569C0.842855 12.1566 0 10.1217 0 8C0 5.87827 0.842855 3.84344 2.34315 2.34315C3.84344 0.842855 5.87827 0 8 0C10.1217 0 12.1566 0.842855 13.6569 2.34315C15.1571 3.84344 16 5.87827 16 8Z" fill="white"/>
</g>
</g>
<defs>
<clipPath id="clip0_5_2348">
<rect width="16" height="16" fill="white"/>
</clipPath>
</defs>
</svg>
