<svg width="16" height="16" viewBox="0 0 16 16" fill="none" xmlns="http://www.w3.org/2000/svg">
<path fill-rule="evenodd" clip-rule="evenodd" d="M4 8C4 8.39782 3.84196 8.77936 3.56066 9.06066C3.27936 9.34196 2.89782 9.5 2.5 9.5C2.10218 9.5 1.72064 9.34196 1.43934 9.06066C1.15804 8.77936 1 8.39782 1 8C1 7.60218 1.15804 7.22064 1.43934 6.93934C1.72064 6.65804 2.10218 6.5 2.5 6.5C2.89782 6.5 3.27936 6.65804 3.56066 6.93934C3.84196 7.22064 4 7.60218 4 8ZM9.5 8C9.5 8.39782 9.34196 8.77936 9.06066 9.06066C8.77936 9.34196 8.39782 9.5 8 9.5C7.60218 9.5 7.22064 9.34196 6.93934 9.06066C6.65804 8.77936 6.5 8.39782 6.5 8C6.5 7.60218 6.65804 7.22064 6.93934 6.93934C7.22064 6.65804 7.60218 6.5 8 6.5C8.39782 6.5 8.77936 6.65804 9.06066 6.93934C9.34196 7.22064 9.5 7.60218 9.5 8ZM13.5 9.5C13.8978 9.5 14.2794 9.34196 14.5607 9.06066C14.842 8.77936 15 8.39782 15 8C15 7.60218 14.842 7.22064 14.5607 6.93934C14.2794 6.65804 13.8978 6.5 13.5 6.5C13.1022 6.5 12.7206 6.65804 12.4393 6.93934C12.158 7.22064 12 7.60218 12 8C12 8.39782 12.158 8.77936 12.4393 9.06066C12.7206 9.34196 13.1022 9.5 13.5 9.5Z" fill="white"/>
</svg>
