<svg width="16" height="16" viewBox="0 0 16 16" fill="none" xmlns="http://www.w3.org/2000/svg">
<path fill-rule="evenodd" clip-rule="evenodd" d="M8 4C7.60218 4 7.22064 3.84196 6.93934 3.56066C6.65804 3.27936 6.5 2.89782 6.5 2.5C6.5 2.10218 6.65804 1.72064 6.93934 1.43934C7.22064 1.15804 7.60218 1 8 1C8.39782 1 8.77936 1.15804 9.06066 1.43934C9.34196 1.72064 9.5 2.10218 9.5 2.5C9.5 2.89782 9.34196 3.27936 9.06066 3.56066C8.77936 3.84196 8.39782 4 8 4ZM8 9.5C7.60218 9.5 7.22064 9.34196 6.93934 9.06066C6.65804 8.77936 6.5 8.39782 6.5 8C6.5 7.60218 6.65804 7.22064 6.93934 6.93934C7.22064 6.65804 7.60218 6.5 8 6.5C8.39782 6.5 8.77936 6.65804 9.06066 6.93934C9.34196 7.22064 9.5 7.60218 9.5 8C9.5 8.39782 9.34196 8.77936 9.06066 9.06066C8.77936 9.34196 8.39782 9.5 8 9.5ZM6.5 13.5C6.5 13.8978 6.65804 14.2794 6.93934 14.5607C7.22064 14.842 7.60218 15 8 15C8.39782 15 8.77936 14.842 9.06066 14.5607C9.34196 14.2794 9.5 13.8978 9.5 13.5C9.5 13.1022 9.34196 12.7206 9.06066 12.4393C8.77936 12.158 8.39782 12 8 12C7.60218 12 7.22064 12.158 6.93934 12.4393C6.65804 12.7206 6.5 13.1022 6.5 13.5Z" fill="white"/>
</svg>
