<svg width="16" height="16" viewBox="0 0 16 16" fill="none" xmlns="http://www.w3.org/2000/svg">
<path fill-rule="evenodd" clip-rule="evenodd" d="M13.5 1.5H2.5V13.5C2.5 13.7652 2.60536 14.0196 2.79289 14.2071C2.98043 14.3946 3.23478 14.5 3.5 14.5H12.5C12.7652 14.5 13.0196 14.3946 13.2071 14.2071C13.3946 14.0196 13.5 13.7652 13.5 13.5V1.5ZM2.5 0H1V13.5C1 14.163 1.26339 14.7989 1.73223 15.2678C2.20107 15.7366 2.83696 16 3.5 16H12.5C13.163 16 13.7989 15.7366 14.2678 15.2678C14.7366 14.7989 15 14.163 15 13.5V0H2.5ZM5.25 10.5C5.25 10.8315 5.3817 11.1495 5.61612 11.3839C5.85054 11.6183 6.16848 11.75 6.5 11.75C6.83152 11.75 7.14946 11.6183 7.38388 11.3839C7.6183 11.1495 7.75 10.8315 7.75 10.5C7.75 10.1685 7.6183 9.85054 7.38388 9.61612C7.14946 9.3817 6.83152 9.25 6.5 9.25C6.16848 9.25 5.85054 9.3817 5.61612 9.61612C5.3817 9.85054 5.25 10.1685 5.25 10.5ZM6.5 13C6.11678 13 5.7387 12.9119 5.39496 12.7425C5.05122 12.5731 4.75102 12.3269 4.51757 12.023C4.28411 11.7191 4.12364 11.3656 4.04856 10.9898C3.97347 10.614 3.98578 10.226 4.08454 9.85575C4.18329 9.48547 4.36585 9.14286 4.6181 8.85437C4.87035 8.56589 5.18555 8.33926 5.53934 8.19198C5.89313 8.04471 6.27603 7.98074 6.65848 8.00502C7.04093 8.0293 7.41267 8.14117 7.745 8.332V3.5L8.868 3.124L8.87 3.125L8.88 3.138L8.924 3.193C9.16887 3.49362 9.4374 3.77419 9.727 4.032C10.276 4.518 10.877 4.875 11.38 4.875H12.005V6.125H11.38C10.437 6.125 9.577 5.55 8.995 5.052V10.34C9.01687 10.6811 8.96858 11.023 8.85309 11.3447C8.7376 11.6664 8.55737 11.961 8.32354 12.2103C8.08971 12.4596 7.80725 12.6583 7.4936 12.7941C7.17996 12.9299 6.84179 13 6.5 13Z" fill="white"/>
</svg>
