<svg width="16" height="16" viewBox="0 0 16 16" fill="none" xmlns="http://www.w3.org/2000/svg">
<path fill-rule="evenodd" clip-rule="evenodd" d="M6.24999 1H5.49999V9.401C4.91878 9.06555 4.24188 8.93465 3.57751 9.02925C2.91314 9.12384 2.29966 9.43845 1.83517 9.92278C1.37067 10.4071 1.08198 11.0332 1.01524 11.701C0.948506 12.3687 1.10758 13.0395 1.46703 13.6062C1.82649 14.1729 2.36556 14.6027 2.99807 14.8269C3.63058 15.0511 4.32 15.0568 4.95611 14.843C5.59222 14.6292 6.13827 14.2083 6.50698 13.6476C6.87569 13.0869 7.04576 12.4188 6.98999 11.75H6.99999V2.5H13.5V6.901C12.9188 6.56555 12.2419 6.43465 11.5775 6.52924C10.9131 6.62384 10.2997 6.93845 9.83517 7.42278C9.37067 7.90712 9.08198 8.53321 9.01524 9.20095C8.94851 9.8687 9.10758 10.5395 9.46703 11.1062C9.82649 11.6729 10.3656 12.1027 10.9981 12.3269C11.6306 12.5511 12.32 12.5568 12.9561 12.343C13.5922 12.1292 14.1383 11.7083 14.507 11.1476C14.8757 10.5869 15.0458 9.91875 14.99 9.25H15V1H6.24999ZM10.5 9.5C10.5 9.89782 10.658 10.2794 10.9393 10.5607C11.2206 10.842 11.6022 11 12 11C12.3978 11 12.7794 10.842 13.0607 10.5607C13.342 10.2794 13.5 9.89782 13.5 9.5C13.5 9.10218 13.342 8.72064 13.0607 8.43934C12.7794 8.15804 12.3978 8 12 8C11.6022 8 11.2206 8.15804 10.9393 8.43934C10.658 8.72064 10.5 9.10218 10.5 9.5ZM2.49999 12C2.49999 12.3978 2.65803 12.7794 2.93933 13.0607C3.22064 13.342 3.60217 13.5 3.99999 13.5C4.39782 13.5 4.77935 13.342 5.06065 13.0607C5.34196 12.7794 5.49999 12.3978 5.49999 12C5.49999 11.6022 5.34196 11.2206 5.06065 10.9393C4.77935 10.658 4.39782 10.5 3.99999 10.5C3.60217 10.5 3.22064 10.658 2.93933 10.9393C2.65803 11.2206 2.49999 11.6022 2.49999 12Z" fill="white"/>
</svg>
