<svg width="16" height="16" viewBox="0 0 16 16" fill="none" xmlns="http://www.w3.org/2000/svg">
<g clip-path="url(#clip0_5_2353)">
<path fill-rule="evenodd" clip-rule="evenodd" d="M0 5.25099V4.24999L0.463 4.05799L7.713 1.05799L8 0.937988L8.287 1.05699L15.537 4.05699L16 4.24899V5.24999L15.537 5.44199L8.287 8.44199L8 8.56199L7.713 8.44299L0.463 5.44299L0 5.25099ZM0 8.45799V6.83499L0.537 7.05699L8 10.145L15.463 7.05699L16 6.83499V8.45799L8.287 11.65L8 11.769L7.713 11.649L0 8.45999V8.45799ZM0 11.708V10.085L0.537 10.307L8 13.395L15.463 10.307L16 10.085V11.708L8.287 14.9L8 15.019L7.713 14.899L0 11.71V11.708ZM8 6.93799L2.712 4.74999L8 2.56199L13.289 4.74999L8 6.93799Z" fill="white"/>
</g>
<defs>
<clipPath id="clip0_5_2353">
<rect width="16" height="16" fill="white"/>
</clipPath>
</defs>
</svg>
