<svg width="16" height="16" viewBox="0 0 16 16" fill="none" xmlns="http://www.w3.org/2000/svg">
<path fill-rule="evenodd" clip-rule="evenodd" d="M6.285 1.5H13V12C13 12.2652 12.8946 12.5196 12.7071 12.7071C12.5196 12.8946 12.2652 13 12 13H6.285V1.5ZM5.035 1.5H3V12C3 12.2652 3.10536 12.5196 3.29289 12.7071C3.48043 12.8946 3.73478 13 4 13H5.035V1.5ZM5.035 14.5H4C3.33696 14.5 2.70107 14.2366 2.23223 13.7678C1.76339 13.2989 1.5 12.663 1.5 12V0H14.5V12C14.5 12.663 14.2366 13.2989 13.7678 13.7678C13.2989 14.2366 12.663 14.5 12 14.5H6.285V15.625H5.035V14.5ZM8.505 3.375H10.755V4.625H8.505V3.375ZM9.13 6.375H8.505V7.625H10.755V6.375H9.13Z" fill="white"/>
</svg>
