<svg width="16" height="16" viewBox="0 0 16 16" fill="none" xmlns="http://www.w3.org/2000/svg">
<path fill-rule="evenodd" clip-rule="evenodd" d="M13 2.5H3V4.5H13V2.5ZM3 7.5V5.75H4.75V7.5H3ZM4.75 8.75H3V10.5H4.75V8.75ZM6 10.5V8.75H13V10.5H6ZM4.75 11.75H3V12.5C3 12.7652 3.10536 13.0196 3.29289 13.2071C3.48043 13.3946 3.73478 13.5 4 13.5H4.75V11.75ZM6 13.5V11.75H13V12.5C13 12.7652 12.8946 13.0196 12.7071 13.2071C12.5196 13.3946 12.2652 13.5 12 13.5H6ZM6 7.5V5.75H13V7.5H6ZM3 1H1.5V12.5C1.5 13.163 1.76339 13.7989 2.23223 14.2678C2.70107 14.7366 3.33696 15 4 15H12C12.663 15 13.2989 14.7366 13.7678 14.2678C14.2366 13.7989 14.5 13.163 14.5 12.5V1H3Z" fill="white"/>
</svg>
