<svg width="16" height="16" viewBox="0 0 16 16" fill="none" xmlns="http://www.w3.org/2000/svg">
<g clip-path="url(#clip0_5_2356)">
<path fill-rule="evenodd" clip-rule="evenodd" d="M14.5 3C14.5 3.39783 14.342 3.77936 14.0607 4.06066C13.7794 4.34197 13.3978 4.5 13 4.5C12.6022 4.5 12.2206 4.34197 11.9393 4.06066C11.658 3.77936 11.5 3.39783 11.5 3C11.5 2.60218 11.658 2.22065 11.9393 1.93934C12.2206 1.65804 12.6022 1.5 13 1.5C13.3978 1.5 13.7794 1.65804 14.0607 1.93934C14.342 2.22065 14.5 2.60218 14.5 3ZM13.5 5.959C13.0278 6.039 12.5434 6.0048 12.0872 5.85927C11.6309 5.71374 11.2161 5.4611 10.8775 5.12248C10.5389 4.78385 10.2863 4.36908 10.1407 3.91285C9.9952 3.45661 9.961 2.97216 10.041 2.5H4.75C4.15326 2.5 3.58097 2.73705 3.15901 3.15901C2.73705 3.58097 2.5 4.15326 2.5 4.75V11.25C2.5 11.8467 2.73705 12.419 3.15901 12.841C3.58097 13.2629 4.15326 13.5 4.75 13.5H11.25C11.8467 13.5 12.419 13.2629 12.841 12.841C13.2629 12.419 13.5 11.8467 13.5 11.25V5.959ZM15 5.236V11.25C15 12.2446 14.6049 13.1984 13.9017 13.9017C13.1984 14.6049 12.2446 15 11.25 15H4.75C3.75544 15 2.80161 14.6049 2.09835 13.9017C1.39509 13.1984 1 12.2446 1 11.25V4.75C1 3.75544 1.39509 2.80161 2.09835 2.09835C2.80161 1.39509 3.75544 1 4.75 1H10.764C11.036 0.695747 11.3672 0.450181 11.7373 0.278329C12.1075 0.106476 12.5088 0.0119499 12.9167 0.00053336C13.3247 -0.0108832 13.7306 0.0610499 14.1098 0.211932C14.489 0.362814 14.8334 0.589472 15.122 0.878039C15.4105 1.16661 15.6372 1.51101 15.7881 1.89019C15.939 2.26937 16.0109 2.67535 15.9995 3.08328C15.9881 3.49122 15.8935 3.89254 15.7217 4.26269C15.5498 4.63283 15.3043 4.96403 15 5.236Z" fill="white"/>
</g>
<defs>
<clipPath id="clip0_5_2356">
<rect width="16" height="16" fill="white"/>
</clipPath>
</defs>
</svg>
