<svg width="16" height="16" viewBox="0 0 16 16" fill="none" xmlns="http://www.w3.org/2000/svg">
<path fill-rule="evenodd" clip-rule="evenodd" d="M0.75 3.5H0V5H4.365C4.49911 4.99988 4.6308 5.03571 4.74635 5.10378C4.8619 5.17184 4.95709 5.26965 5.022 5.387L9.416 13.338C9.61043 13.69 9.89563 13.9834 10.2419 14.1877C10.5882 14.3921 10.9829 14.4999 11.385 14.5H16V13H11.385C11.2509 13.0001 11.1192 12.9643 11.0036 12.8962C10.8881 12.8282 10.7929 12.7304 10.728 12.613L6.334 4.662C6.13957 4.31005 5.85437 4.01663 5.50809 3.81227C5.16181 3.60791 4.76709 3.50008 4.365 3.5H0.75ZM11.75 3.5H11V5H16V3.5H11.75Z" fill="white"/>
</svg>
