<svg width="16" height="16" viewBox="0 0 16 16" fill="none" xmlns="http://www.w3.org/2000/svg">
<g clip-path="url(#clip0_5_2359)">
<path fill-rule="evenodd" clip-rule="evenodd" d="M10.8599 1.707C10.3259 1.707 9.81395 1.919 9.43695 2.297L3.19495 8.538C2.5628 9.17001 2.20762 10.0273 2.20752 10.9211C2.20743 11.815 2.56244 12.6724 3.19445 13.3045C3.82646 13.9366 4.6837 14.2918 5.57759 14.2919C6.47149 14.292 7.3288 13.937 7.96095 13.305L14.2039 7.062L14.7039 6.562L15.7039 7.562L15.2039 8.062L8.96195 14.305C8.51762 14.7494 7.99011 15.1019 7.40955 15.3424C6.82898 15.583 6.20672 15.7068 5.5783 15.7068C4.30915 15.7069 3.09194 15.2029 2.19445 14.3055C1.29696 13.4081 0.792696 12.191 0.792603 10.9219C0.792509 9.6527 1.29659 8.43549 2.19395 7.538L8.43695 1.295C8.75435 0.973583 9.13218 0.718109 9.54869 0.543279C9.96521 0.368448 10.4122 0.277712 10.8639 0.276293C11.3156 0.274873 11.7632 0.362799 12.1808 0.535009C12.5984 0.707219 12.9778 0.960313 13.2972 1.27973C13.6166 1.59914 13.8697 1.97857 14.0419 2.39618C14.2141 2.81378 14.3021 3.26132 14.3007 3.71304C14.2992 4.16476 14.2085 4.61174 14.0337 5.02825C13.8588 5.44477 13.6034 5.8226 13.2819 6.14L7.03195 12.382C6.6399 12.7451 6.12245 12.9423 5.58816 12.9322C5.05387 12.922 4.54426 12.7054 4.16627 12.3276C3.78827 11.9499 3.57125 11.4405 3.56075 10.9062C3.55025 10.3719 3.74708 9.8543 4.10995 9.462L9.87695 3.7L10.3769 3.2L11.3769 4.2L10.8769 4.7L5.10995 10.46C5.0482 10.5203 4.99904 10.5922 4.96529 10.6716C4.93155 10.751 4.91391 10.8363 4.91339 10.9226C4.91287 11.0089 4.92948 11.0944 4.96226 11.1743C4.99504 11.2541 5.04333 11.3266 5.10435 11.3876C5.16536 11.4486 5.23787 11.4969 5.31769 11.5297C5.39751 11.5625 5.48303 11.5791 5.56932 11.5786C5.6556 11.578 5.74092 11.5604 5.82034 11.5267C5.89975 11.4929 5.97168 11.4437 6.03195 11.382L12.2819 5.14C12.5636 4.85875 12.7555 4.50024 12.8332 4.10988C12.911 3.71952 12.8711 3.31486 12.7188 2.94715C12.5664 2.57944 12.3083 2.26521 11.9773 2.04427C11.6462 1.82333 11.257 1.7056 10.8589 1.706L10.8599 1.707Z" fill="white"/>
</g>
<defs>
<clipPath id="clip0_5_2359">
<rect width="16" height="16" fill="white"/>
</clipPath>
</defs>
</svg>
