<svg width="16" height="16" viewBox="0 0 16 16" fill="none" xmlns="http://www.w3.org/2000/svg">
<g clip-path="url(#clip0_5_2363)">
<path fill-rule="evenodd" clip-rule="evenodd" d="M11.75 0.190002L12.28 0.720002L15.28 3.72L15.81 4.25L15.28 4.78L5.16 14.902C4.81159 15.2503 4.39796 15.5266 3.94275 15.715C3.48754 15.9034 2.99966 16.0002 2.507 16H6.51756e-08V13.493C-9.17513e-05 13.0005 0.0968275 12.5128 0.285223 12.0578C0.473619 11.6028 0.749802 11.1893 1.098 10.841L11.22 0.720002L11.75 0.190002ZM11.75 2.31L9.81 4.25L11.75 6.19L13.69 4.25L11.75 2.31ZM2.159 11.902L8.75 5.31L10.69 7.249L4.098 13.84C3.67628 14.2617 3.10439 14.4987 2.508 14.499H1.5V13.492C1.5 12.895 1.737 12.322 2.159 11.901V11.902ZM9 16H16V14.5H9V16Z" fill="white"/>
</g>
<defs>
<clipPath id="clip0_5_2363">
<rect width="16" height="16" fill="white"/>
</clipPath>
</defs>
</svg>
