<svg width="16" height="16" viewBox="0 0 16 16" fill="none" xmlns="http://www.w3.org/2000/svg">
<g clip-path="url(#clip0_5_2362)">
<path fill-rule="evenodd" clip-rule="evenodd" d="M12.28 0.720002L11.75 0.190002L11.22 0.720002L1.098 10.84C0.749683 11.1884 0.473432 11.602 0.285032 12.0573C0.0966327 12.5125 -0.000222797 13.0003 3.84826e-07 13.493V16H2.507C2.99949 16.0001 3.48718 15.9032 3.94221 15.7148C4.39724 15.5264 4.81071 15.2502 5.159 14.902L15.28 4.78L15.81 4.25L15.28 3.72L12.28 0.720002ZM9.81 4.25L11.75 2.31L13.69 4.25L11.75 6.19L9.81 4.25ZM8.75 5.31L2.159 11.902C1.73729 12.3237 1.50026 12.8956 1.5 13.492V14.5H2.507C2.80248 14.5 3.09506 14.4418 3.36804 14.3287C3.64103 14.2157 3.88907 14.0499 4.098 13.841L10.69 7.25L8.75 5.31Z" fill="white"/>
</g>
<defs>
<clipPath id="clip0_5_2362">
<rect width="16" height="16" fill="white"/>
</clipPath>
</defs>
</svg>
