<svg width="16" height="16" viewBox="0 0 16 16" fill="none" xmlns="http://www.w3.org/2000/svg">
<path fill-rule="evenodd" clip-rule="evenodd" d="M11.475 1.33199L11.196 2.02899L6.196 14.529L5.918 15.225L4.525 14.668L4.804 13.971L9.804 1.47099L10.082 0.774994L11.475 1.33199ZM4 5.49999C4.39782 5.49999 4.77936 5.34196 5.06066 5.06065C5.34196 4.77935 5.5 4.39782 5.5 3.99999C5.5 3.60217 5.34196 3.22064 5.06066 2.93933C4.77936 2.65803 4.39782 2.49999 4 2.49999C3.60218 2.49999 3.22064 2.65803 2.93934 2.93933C2.65804 3.22064 2.5 3.60217 2.5 3.99999C2.5 4.39782 2.65804 4.77935 2.93934 5.06065C3.22064 5.34196 3.60218 5.49999 4 5.49999ZM7 3.99999C7 4.39396 6.9224 4.78407 6.77164 5.14804C6.62087 5.51202 6.3999 5.84274 6.12132 6.12131C5.84274 6.39989 5.51203 6.62087 5.14805 6.77163C4.78407 6.9224 4.39397 6.99999 4 6.99999C3.60603 6.99999 3.21593 6.9224 2.85195 6.77163C2.48797 6.62087 2.15726 6.39989 1.87868 6.12131C1.6001 5.84274 1.37913 5.51202 1.22836 5.14804C1.0776 4.78407 1 4.39396 1 3.99999C1 3.20434 1.31607 2.44128 1.87868 1.87867C2.44129 1.31606 3.20435 0.999994 4 0.999994C4.79565 0.999994 5.55871 1.31606 6.12132 1.87867C6.68393 2.44128 7 3.20434 7 3.99999ZM13.5 12C13.5 12.3978 13.342 12.7794 13.0607 13.0607C12.7794 13.342 12.3978 13.5 12 13.5C11.6022 13.5 11.2206 13.342 10.9393 13.0607C10.658 12.7794 10.5 12.3978 10.5 12C10.5 11.6022 10.658 11.2206 10.9393 10.9393C11.2206 10.658 11.6022 10.5 12 10.5C12.3978 10.5 12.7794 10.658 13.0607 10.9393C13.342 11.2206 13.5 11.6022 13.5 12ZM12 15C12.7956 15 13.5587 14.6839 14.1213 14.1213C14.6839 13.5587 15 12.7956 15 12C15 11.2043 14.6839 10.4413 14.1213 9.87867C13.5587 9.31606 12.7956 8.99999 12 8.99999C11.2044 8.99999 10.4413 9.31606 9.87868 9.87867C9.31607 10.4413 9 11.2043 9 12C9 12.7956 9.31607 13.5587 9.87868 14.1213C10.4413 14.6839 11.2044 15 12 15Z" fill="white"/>
</svg>
