<svg width="16" height="16" viewBox="0 0 16 16" fill="none" xmlns="http://www.w3.org/2000/svg">
<g clip-path="url(#clip0_5_2365)">
<path d="M5.49999 1H2.87799C2.58634 1.00005 2.29823 1.06389 2.03386 1.18704C1.76948 1.31019 1.53524 1.48967 1.34755 1.7129C1.15986 1.93612 1.02326 2.1977 0.947331 2.47929C0.871399 2.76088 0.857971 3.05567 0.907989 3.343L1.14799 4.728C1.54937 7.03621 2.61764 9.17643 4.22104 10.8847C5.82443 12.5929 7.89279 13.7944 10.171 14.341L12.533 14.908C12.827 14.9786 13.1332 14.9816 13.4286 14.9168C13.724 14.852 14.0008 14.7211 14.2382 14.5339C14.4757 14.3466 14.6676 14.108 14.7996 13.8359C14.9315 13.5639 15 13.2654 15 12.963V10.5L11.75 8.25L9.24999 10.75L5.24999 6.75L7.74999 4.25L5.49999 1Z" stroke="white" stroke-width="1.5" stroke-linecap="round" stroke-linejoin="round"/>
</g>
<defs>
<clipPath id="clip0_5_2365">
<rect width="16" height="16" fill="white"/>
</clipPath>
</defs>
</svg>
