<svg width="16" height="16" viewBox="0 0 16 16" fill="none" xmlns="http://www.w3.org/2000/svg">
<path fill-rule="evenodd" clip-rule="evenodd" d="M5.25 0C4.52065 0 3.82118 0.289731 3.30546 0.805456C2.78973 1.32118 2.5 2.02065 2.5 2.75V13.25C2.5 13.9793 2.78973 14.6788 3.30546 15.1945C3.82118 15.7103 4.52065 16 5.25 16H10.75C11.4793 16 12.1788 15.7103 12.6945 15.1945C13.2103 14.6788 13.5 13.9793 13.5 13.25V2.75C13.5 2.02065 13.2103 1.32118 12.6945 0.805456C12.1788 0.289731 11.4793 0 10.75 0L5.25 0ZM4 2.75C4 2.06 4.56 1.5 5.25 1.5H10.75C11.44 1.5 12 2.06 12 2.75V13.25C12 13.94 11.44 14.5 10.75 14.5H5.25C4.56 14.5 4 13.94 4 13.25V2.75ZM6.25 4.75C6.51522 4.75 6.76957 4.64464 6.95711 4.45711C7.14464 4.26957 7.25 4.01522 7.25 3.75C7.25 3.48478 7.14464 3.23043 6.95711 3.04289C6.76957 2.85536 6.51522 2.75 6.25 2.75C5.98478 2.75 5.73043 2.85536 5.54289 3.04289C5.35536 3.23043 5.25 3.48478 5.25 3.75C5.25 4.01522 5.35536 4.26957 5.54289 4.45711C5.73043 4.64464 5.98478 4.75 6.25 4.75Z" fill="white"/>
</svg>
