<svg width="16" height="16" viewBox="0 0 16 16" fill="none" xmlns="http://www.w3.org/2000/svg">
<g clip-path="url(#clip0_5_2367)">
<path fill-rule="evenodd" clip-rule="evenodd" d="M6.75 13.5H1.5V2.5H14.5V7.5H16V2C16 1.73478 15.8946 1.48043 15.7071 1.29289C15.5196 1.10536 15.2652 1 15 1H1C0.734784 1 0.48043 1.10536 0.292893 1.29289C0.105357 1.48043 0 1.73478 0 2L0 14C0 14.2652 0.105357 14.5196 0.292893 14.7071C0.48043 14.8946 0.734784 15 1 15H7.5V13.5H6.75ZM10.5 10.5H14.5V13.5H10.5V10.5ZM9 9H16V15H9V9Z" fill="white"/>
</g>
<defs>
<clipPath id="clip0_5_2367">
<rect width="16" height="16" fill="white"/>
</clipPath>
</defs>
</svg>
