<svg width="16" height="16" viewBox="0 0 16 16" fill="none" xmlns="http://www.w3.org/2000/svg">
<g clip-path="url(#clip0_5_2368)">
<path fill-rule="evenodd" clip-rule="evenodd" d="M6.81 1.25L6.28 1.78L5.785 2.276L13.182 5.756L13.72 5.22L14.25 4.69L15.31 5.75L14.78 6.28L11.06 10L15.28 14.22L15.81 14.75L14.75 15.81L14.22 15.28L10 11.06L6.28 14.78L5.75 15.31L4.69 14.25L5.22 13.72L5.757 13.182L2.276 5.785L1.78 6.28L1.25 6.81L0.190002 5.75L0.720002 5.22L1.957 3.982C1.96514 3.97347 1.97347 3.96514 1.982 3.957L3.957 1.982C3.96514 1.97347 3.97347 1.96514 3.982 1.957L5.22 0.720002L5.75 0.190002L6.81 1.25ZM4.659 3.403L3.403 4.658L6.884 12.055L8.94 10L10 8.94L12.055 6.884L4.659 3.403Z" fill="white"/>
</g>
<defs>
<clipPath id="clip0_5_2368">
<rect width="16" height="16" fill="white"/>
</clipPath>
</defs>
</svg>
