<svg width="16" height="16" viewBox="0 0 16 16" fill="none" xmlns="http://www.w3.org/2000/svg">
<path fill-rule="evenodd" clip-rule="evenodd" d="M14.553 7.776C14.5947 7.79669 14.6299 7.82862 14.6544 7.86819C14.679 7.90777 14.692 7.95342 14.692 8C14.692 8.04658 14.679 8.09223 14.6544 8.13181C14.6299 8.17139 14.5947 8.20332 14.553 8.224L1.362 14.819C1.32385 14.8381 1.28144 14.8472 1.23881 14.8452C1.19617 14.8433 1.15474 14.8305 1.11845 14.8081C1.08216 14.7856 1.05223 14.7543 1.03149 14.717C1.01076 14.6797 0.999917 14.6377 1 14.595V1.405C0.999917 1.36233 1.01076 1.32034 1.03149 1.28304C1.05223 1.24574 1.08216 1.21437 1.11845 1.19192C1.15474 1.16946 1.19617 1.15667 1.23881 1.15476C1.28144 1.15285 1.32385 1.16188 1.362 1.181L14.552 7.776H14.553Z" fill="white"/>
</svg>
