<svg width="16" height="16" viewBox="0 0 16 16" fill="none" xmlns="http://www.w3.org/2000/svg">
<path fill-rule="evenodd" clip-rule="evenodd" d="M13.455 7.227L13.323 7.161L2.5 1.75L2.458 1.73L1.809 1.405L1.362 1.181C1.32385 1.16188 1.28144 1.15285 1.23881 1.15476C1.19617 1.15667 1.15474 1.16946 1.11845 1.19192C1.08216 1.21437 1.05223 1.24574 1.03149 1.28304C1.01076 1.32034 0.999917 1.36233 1 1.405V14.596C1.00009 14.6386 1.01105 14.6805 1.03186 14.7176C1.05266 14.7548 1.08262 14.786 1.11888 14.8083C1.15514 14.8307 1.19651 14.8434 1.23905 14.8453C1.2816 14.8471 1.32392 14.8381 1.362 14.819L1.809 14.595L2.459 14.271L2.5 14.25L13.323 8.839L13.455 8.773L14.255 8.373L14.553 8.223C14.5945 8.20222 14.6293 8.17031 14.6537 8.13083C14.6781 8.09136 14.691 8.04589 14.691 7.9995C14.691 7.95311 14.6781 7.90764 14.6537 7.86817C14.6293 7.8287 14.5945 7.79679 14.553 7.776L14.255 7.627L13.455 7.227ZM11.645 8L2.5 3.427V12.573L11.645 8Z" fill="white"/>
</svg>
