<svg width="16" height="16" viewBox="0 0 16 16" fill="none" xmlns="http://www.w3.org/2000/svg">
<path fill-rule="evenodd" clip-rule="evenodd" d="M5 4.25H11C11.1989 4.25 11.3897 4.32902 11.5303 4.46967C11.671 4.61032 11.75 4.80109 11.75 5V11C11.75 11.1989 11.671 11.3897 11.5303 11.5303C11.3897 11.671 11.1989 11.75 11 11.75H5C4.80109 11.75 4.61032 11.671 4.46967 11.5303C4.32902 11.3897 4.25 11.1989 4.25 11V5C4.25 4.80109 4.32902 4.61032 4.46967 4.46967C4.61032 4.32902 4.80109 4.25 5 4.25ZM3 5C3 4.46957 3.21071 3.96086 3.58579 3.58579C3.96086 3.21071 4.46957 3 5 3H11C11.5304 3 12.0391 3.21071 12.4142 3.58579C12.7893 3.96086 13 4.46957 13 5V11C13 11.5304 12.7893 12.0391 12.4142 12.4142C12.0391 12.7893 11.5304 13 11 13H5C4.46957 13 3.96086 12.7893 3.58579 12.4142C3.21071 12.0391 3 11.5304 3 11V5ZM7.375 10.375V8.625H5.625V7.375H7.375V5.625H8.625V7.375H10.375V8.625H8.625V10.375H7.375Z" fill="white"/>
</svg>
