<svg width="16" height="16" viewBox="0 0 16 16" fill="none" xmlns="http://www.w3.org/2000/svg">
<path fill-rule="evenodd" clip-rule="evenodd" d="M8.80703 0C6.05203 0 4.07803 1.005 2.80403 2.508C1.55003 3.989 1.03003 5.888 1.03003 7.609V11.703C1.03003 12.678 1.20703 13.473 1.54803 14.108C1.89303 14.751 2.38203 15.187 2.92803 15.472C3.94003 16 5.15403 16 5.93903 16H6.75003V15.25C6.75003 14.971 6.75103 14.523 6.84003 14.068C6.93003 13.597 7.09203 13.238 7.32003 13.038L7.42203 12.948C7.65203 12.748 7.94803 12.49 8.18703 12.203C8.34103 12.017 8.49303 11.795 8.60003 11.535C10.36 11.483 11.938 11.18 13.092 10.175C14.401 9.035 14.98 7.169 14.98 4.425V0.75V0H8.80703ZM6.44703 11.808C6.60503 11.67 6.74403 11.548 6.86503 11.428C6.46531 11.3489 6.07193 11.2406 5.68803 11.104C5.34258 10.9817 5.00465 10.8392 4.67603 10.677L4.65803 10.667L4.65303 10.665L4.65103 10.664L5.00003 10L4.65003 10.663L3.98603 10.313L4.68703 8.986L5.34903 9.336L5.35903 9.341C5.42712 9.37685 5.4965 9.41021 5.56703 9.441C5.71603 9.508 5.93003 9.598 6.18703 9.689C6.71103 9.874 7.37003 10.043 8.00003 10.043C9.95803 10.043 11.267 9.776 12.107 9.043C12.925 8.332 13.48 7.015 13.48 4.426V1.5H8.80703C6.45103 1.5 4.91103 2.342 3.94903 3.478C2.96903 4.635 2.52903 6.166 2.52903 7.609V11.703C2.52903 12.501 2.67503 13.037 2.86903 13.399C3.05903 13.753 3.31603 13.983 3.62103 14.142C4.09303 14.388 4.66903 14.465 5.27403 14.489C5.29159 14.2521 5.32264 14.0164 5.36703 13.783C5.48203 13.188 5.73203 12.438 6.32803 11.913L6.44803 11.808H6.44703ZM6.00003 7C6.26525 7 6.5196 6.89464 6.70714 6.70711C6.89467 6.51957 7.00003 6.26522 7.00003 6C7.00003 5.73478 6.89467 5.48043 6.70714 5.29289C6.5196 5.10536 6.26525 5 6.00003 5C5.73481 5 5.48046 5.10536 5.29292 5.29289C5.10539 5.48043 5.00003 5.73478 5.00003 6C5.00003 6.26522 5.10539 6.51957 5.29292 6.70711C5.48046 6.89464 5.73481 7 6.00003 7Z" fill="white"/>
</svg>
