<svg width="16" height="16" viewBox="0 0 16 16" fill="none" xmlns="http://www.w3.org/2000/svg">
<path fill-rule="evenodd" clip-rule="evenodd" d="M7.25 8V8.75H8.75V0H7.25V8ZM2.5 8C2.49922 7.14602 2.69768 6.30362 3.07959 5.5398C3.46151 4.77597 4.01635 4.11177 4.7 3.6L3.799 2.4C2.6239 3.28165 1.75597 4.51067 1.31813 5.91297C0.880284 7.31528 0.894729 8.8198 1.35941 10.2134C1.8241 11.6071 2.71547 12.8192 3.90728 13.6781C5.09909 14.5371 6.53093 14.9992 8 14.9992C9.46907 14.9992 10.9009 14.5371 12.0927 13.6781C13.2845 12.8192 14.1759 11.6071 14.6406 10.2134C15.1053 8.8198 15.1197 7.31528 14.6819 5.91297C14.244 4.51067 13.3761 3.28165 12.201 2.4L11.301 3.6C12.0508 4.16263 12.6444 4.90757 13.0253 5.76409C13.4063 6.62062 13.562 7.5603 13.4777 8.49393C13.3934 9.42756 13.0718 10.3241 12.5436 11.0986C12.0154 11.873 11.2979 12.4995 10.4595 12.9187C9.62097 13.3379 8.68926 13.5358 7.75278 13.4937C6.81631 13.4516 5.90614 13.1708 5.10869 12.678C4.31125 12.1852 3.65299 11.4967 3.19642 10.678C2.73986 9.85926 2.50013 8.93743 2.5 8Z" fill="white"/>
</svg>
