<svg width="16" height="16" viewBox="0 0 16 16" fill="none" xmlns="http://www.w3.org/2000/svg">
<g clip-path="url(#clip0_5_2376)">
<path fill-rule="evenodd" clip-rule="evenodd" d="M13.5 4.674V9.09L15 10.706V4.449C14.9999 4.30782 14.9699 4.16827 14.912 4.03952C14.8541 3.91077 14.7696 3.79574 14.664 3.702L10.784 0.252C10.601 0.0895854 10.3647 -7.36671e-05 10.12 4.54155e-08H1V13.5C1 14.163 1.26339 14.7989 1.73223 15.2678C2.20107 15.7366 2.83696 16 3.5 16H11.727L11.302 15.541L10.335 14.5H3.5C3.23478 14.5 2.98043 14.3946 2.79289 14.2071C2.60536 14.0196 2.5 13.7652 2.5 13.5V1.5H9.93L13.5 4.674ZM8 6C7.46957 6 6.96086 6.21071 6.58579 6.58579C6.21071 6.96086 6 7.46957 6 8C6 8.53043 6.21071 9.03914 6.58579 9.41421C6.96086 9.78929 7.46957 10 8 10C8.53043 10 9.03914 9.78929 9.41421 9.41421C9.78929 9.03914 10 8.53043 10 8C10 7.46957 9.78929 6.96086 9.41421 6.58579C9.03914 6.21071 8.53043 6 8 6ZM4.5 8C4.50012 7.46351 4.62357 6.93422 4.86082 6.45304C5.09806 5.97185 5.44275 5.55165 5.86825 5.22489C6.29375 4.89813 6.78868 4.67355 7.31479 4.56852C7.8409 4.46349 8.38411 4.48081 8.90246 4.61914C9.42081 4.75747 9.90043 5.01312 10.3042 5.36632C10.7081 5.71952 11.0253 6.16083 11.2314 6.65615C11.4375 7.15147 11.527 7.68755 11.4929 8.22296C11.4589 8.75837 11.3022 9.27878 11.035 9.744L14.05 12.99L14.56 13.54L13.46 14.56L12.95 14.01L10.022 10.857C9.49813 11.2278 8.88239 11.4474 8.24212 11.4918C7.60185 11.5362 6.9617 11.4037 6.39167 11.1087C5.82163 10.8138 5.34367 10.3678 5.01004 9.81955C4.67642 9.27127 4.49997 8.64181 4.5 8Z" fill="white"/>
</g>
<defs>
<clipPath id="clip0_5_2376">
<rect width="16" height="16" fill="white"/>
</clipPath>
</defs>
</svg>
