<svg width="16" height="16" viewBox="0 0 16 16" fill="none" xmlns="http://www.w3.org/2000/svg">
<g clip-path="url(#clip0_5_2377)">
<path fill-rule="evenodd" clip-rule="evenodd" d="M4.02201 4.77001C4.51486 4.19776 5.12539 3.73857 5.8119 3.4238C6.49842 3.10903 7.24477 2.94609 8.00001 2.94609C8.75525 2.94609 9.50159 3.10903 10.1881 3.4238C10.8746 3.73857 11.4851 4.19776 11.978 4.77001L14.76 8.00001L13.666 9.27001L14.693 10.376L16.318 8.48901V7.51101L13.115 3.79101C10.422 0.66301 5.57801 0.66301 2.88501 3.79001L-0.317993 7.51001V8.48801L2.88501 12.208C3.75206 13.2165 4.89778 13.9462 6.17825 14.3056C7.45872 14.665 8.81683 14.638 10.082 14.228L8.91801 12.974C8.02073 13.1342 7.09717 13.0576 6.23855 12.7518C5.37992 12.4459 4.61592 11.9214 4.02201 11.23L1.24001 8.00001L4.02201 4.77001ZM8.00001 6.00001C7.46957 6.00001 6.96087 6.21072 6.58579 6.5858C6.21072 6.96087 6.00001 7.46958 6.00001 8.00001C6.00001 8.53044 6.21072 9.03915 6.58579 9.41422C6.96087 9.7893 7.46957 10 8.00001 10C8.53044 10 9.03915 9.7893 9.41422 9.41422C9.78929 9.03915 10 8.53044 10 8.00001C10 7.46958 9.78929 6.96087 9.41422 6.5858C9.03915 6.21072 8.53044 6.00001 8.00001 6.00001ZM4.50001 8.00001C4.50013 7.46352 4.62358 6.93423 4.86083 6.45305C5.09807 5.97186 5.44276 5.55166 5.86826 5.2249C6.29376 4.89814 6.78868 4.67356 7.31479 4.56853C7.8409 4.4635 8.38412 4.48082 8.90247 4.61915C9.42082 4.75748 9.90043 5.01313 10.3043 5.36633C10.7081 5.71953 11.0253 6.16084 11.2314 6.65616C11.4375 7.15148 11.527 7.68756 11.4929 8.22297C11.4589 8.75838 11.3022 9.2788 11.035 9.74401L14.05 12.99L14.56 13.54L13.46 14.56L12.95 14.01L10.022 10.857C9.49814 11.2278 8.8824 11.4474 8.24213 11.4918C7.60186 11.5362 6.96171 11.4037 6.39167 11.1088C5.82164 10.8138 5.34368 10.3678 5.01005 9.81956C4.67642 9.27128 4.49998 8.64182 4.50001 8.00001Z" fill="white"/>
</g>
<defs>
<clipPath id="clip0_5_2377">
<rect width="16" height="16" fill="white"/>
</clipPath>
</defs>
</svg>
