<svg width="16" height="16" viewBox="0 0 16 16" fill="none" xmlns="http://www.w3.org/2000/svg">
<path d="M12.25 14.25V10L12.921 10.112C13.2075 10.1598 13.5011 10.1446 13.7811 10.0674C14.0612 9.99028 14.3211 9.85305 14.5428 9.66527C14.7644 9.4775 14.9425 9.24369 15.0646 8.98011C15.1868 8.71653 15.25 8.4295 15.25 8.139V7.861C15.25 7.5705 15.1868 7.28347 15.0646 7.01989C14.9425 6.75631 14.7644 6.5225 14.5428 6.33473C14.3211 6.14695 14.0612 6.00972 13.7811 5.93257C13.5011 5.85542 13.2075 5.84021 12.921 5.888L12.25 6V1.75H8.235L8.308 2.504C8.33163 2.75594 8.30248 3.01005 8.22243 3.2501C8.14238 3.49015 8.01317 3.71089 7.84306 3.89822C7.67294 4.08556 7.46565 4.23538 7.2344 4.33814C7.00315 4.44089 6.75302 4.49432 6.49998 4.49502C6.24693 4.49572 5.99651 4.44367 5.7647 4.34219C5.53289 4.24071 5.32477 4.09203 5.15362 3.90564C4.98248 3.71925 4.85206 3.49923 4.77068 3.25962C4.68931 3.02001 4.65876 2.76607 4.681 2.514L4.75 1.75H0.75V14.25H12.25Z" stroke="white" stroke-width="1.5" stroke-linejoin="round"/>
</svg>
