<svg width="16" height="16" viewBox="0 0 16 16" fill="none" xmlns="http://www.w3.org/2000/svg">
<g clip-path="url(#clip0_5_2381)">
<path fill-rule="evenodd" clip-rule="evenodd" d="M8 14.5C9.72391 14.5 11.3772 13.8152 12.5962 12.5962C13.8152 11.3772 14.5 9.72391 14.5 8C14.5 6.27609 13.8152 4.62279 12.5962 3.40381C11.3772 2.18482 9.72391 1.5 8 1.5C6.27609 1.5 4.62279 2.18482 3.40381 3.40381C2.18482 4.62279 1.5 6.27609 1.5 8C1.5 9.72391 2.18482 11.3772 3.40381 12.5962C4.62279 13.8152 6.27609 14.5 8 14.5ZM8 16C10.1217 16 12.1566 15.1571 13.6569 13.6569C15.1571 12.1566 16 10.1217 16 8C16 5.87827 15.1571 3.84344 13.6569 2.34315C12.1566 0.842855 10.1217 0 8 0C5.87827 0 3.84344 0.842855 2.34315 2.34315C0.842855 3.84344 0 5.87827 0 8C0 10.1217 0.842855 12.1566 2.34315 13.6569C3.84344 15.1571 5.87827 16 8 16ZM9 11C9 11.2652 8.89464 11.5196 8.70711 11.7071C8.51957 11.8946 8.26522 12 8 12C7.73478 12 7.48043 11.8946 7.29289 11.7071C7.10536 11.5196 7 11.2652 7 11C7 10.7348 7.10536 10.4804 7.29289 10.2929C7.48043 10.1054 7.73478 10 8 10C8.26522 10 8.51957 10.1054 8.70711 10.2929C8.89464 10.4804 9 10.7348 9 11ZM7.096 5.822C7.17005 5.66579 7.28332 5.53144 7.42477 5.43207C7.56623 5.3327 7.73103 5.27169 7.90309 5.255C8.07515 5.23831 8.2486 5.26652 8.40652 5.33686C8.56443 5.4072 8.70141 5.51727 8.80409 5.65634C8.90678 5.79541 8.97165 5.95872 8.9924 6.13034C9.01314 6.30196 8.98904 6.47603 8.92244 6.63556C8.85585 6.79509 8.74904 6.93463 8.61243 7.04056C8.47582 7.1465 8.31408 7.21521 8.143 7.24C7.703 7.303 7.25 7.675 7.25 8.25V9.25H8.75V8.635C9.14577 8.5102 9.50425 8.28884 9.7931 7.99089C10.082 7.69294 10.2921 7.32778 10.4046 6.92833C10.517 6.52888 10.5283 6.10771 10.4374 5.70282C10.3464 5.29793 10.1561 4.92205 9.88361 4.60907C9.6111 4.2961 9.26498 4.05589 8.87645 3.9101C8.48792 3.7643 8.06921 3.71752 7.65808 3.77397C7.24696 3.83042 6.85635 3.98832 6.5215 4.23344C6.18664 4.47855 5.91807 4.80316 5.74 5.178L5.42 5.856L6.774 6.499L7.096 5.822Z" fill="white"/>
</g>
<defs>
<clipPath id="clip0_5_2381">
<rect width="16" height="16" fill="white"/>
</clipPath>
</defs>
</svg>
