<svg width="16" height="16" viewBox="0 0 16 16" fill="none" xmlns="http://www.w3.org/2000/svg">
<g clip-path="url(#clip0_5_2382)">
<path fill-rule="evenodd" clip-rule="evenodd" d="M16 8C16 10.1217 15.1571 12.1566 13.6569 13.6569C12.1566 15.1571 10.1217 16 8 16C5.87827 16 3.84344 15.1571 2.34315 13.6569C0.842855 12.1566 0 10.1217 0 8C0 5.87827 0.842855 3.84344 2.34315 2.34315C3.84344 0.842855 5.87827 0 8 0C10.1217 0 12.1566 0.842855 13.6569 2.34315C15.1571 3.84344 16 5.87827 16 8ZM9 11C9 11.2652 8.89464 11.5196 8.70711 11.7071C8.51957 11.8946 8.26522 12 8 12C7.73478 12 7.48043 11.8946 7.29289 11.7071C7.10536 11.5196 7 11.2652 7 11C7 10.7348 7.10536 10.4804 7.29289 10.2929C7.48043 10.1054 7.73478 10 8 10C8.26522 10 8.51957 10.1054 8.70711 10.2929C8.89464 10.4804 9 10.7348 9 11ZM7.096 5.822C7.17005 5.66579 7.28332 5.53144 7.42477 5.43207C7.56623 5.3327 7.73103 5.27169 7.90309 5.255C8.07515 5.23831 8.2486 5.26652 8.40652 5.33686C8.56443 5.4072 8.70141 5.51727 8.80409 5.65634C8.90678 5.79541 8.97165 5.95872 8.9924 6.13034C9.01314 6.30196 8.98904 6.47603 8.92244 6.63556C8.85585 6.79509 8.74904 6.93463 8.61243 7.04056C8.47582 7.1465 8.31408 7.21521 8.143 7.24C7.703 7.303 7.25 7.675 7.25 8.25V9.25H8.75V8.635C9.1459 8.51037 9.50454 8.28914 9.79356 7.99126C10.0826 7.69338 10.2929 7.32823 10.4055 6.92875C10.5182 6.52927 10.5295 6.10804 10.4387 5.70305C10.3478 5.29807 10.1576 4.92208 9.88505 4.60901C9.61255 4.29594 9.2664 4.05564 8.87782 3.9098C8.48923 3.76395 8.07045 3.71714 7.65926 3.7736C7.24807 3.83006 6.8574 3.988 6.52251 4.23319C6.18761 4.47837 5.91903 4.80307 5.741 5.178L5.419 5.856L6.774 6.499L7.096 5.822Z" fill="white"/>
</g>
<defs>
<clipPath id="clip0_5_2382">
<rect width="16" height="16" fill="white"/>
</clipPath>
</defs>
</svg>
