<svg width="16" height="16" viewBox="0 0 16 16" fill="none" xmlns="http://www.w3.org/2000/svg">
<path fill-rule="evenodd" clip-rule="evenodd" d="M7.99998 1.25C6.73748 1.24958 5.49838 1.59066 4.41394 2.2371C3.3295 2.88354 2.44011 3.81126 1.83998 4.922L1.48298 5.582L2.80298 6.295L3.15998 5.635C3.67744 4.67825 4.46684 3.8963 5.42847 3.38794C6.39009 2.87958 7.4808 2.6676 8.56283 2.77877C9.64486 2.88995 10.6697 3.3193 11.5078 4.01259C12.346 4.70588 12.9599 5.63201 13.272 6.674H11.074V8.174H15.249C15.4479 8.174 15.6387 8.09498 15.7793 7.95433C15.92 7.81368 15.999 7.62291 15.999 7.424V3.25H14.499V5.645C13.9784 4.34725 13.0811 3.23509 11.9228 2.45179C10.7645 1.66848 9.39826 1.24992 7.99998 1.25ZM1.50098 10.855V13.25H0.000976562V9.075C0.000976563 8.87609 0.0799942 8.68532 0.220646 8.54467C0.361299 8.40402 0.552064 8.325 0.750977 8.325H4.92598V9.825H2.72898C3.04032 10.8646 3.65211 11.789 4.48741 12.4818C5.3227 13.1747 6.34421 13.6051 7.42346 13.7189C8.50272 13.8327 9.59153 13.6249 10.553 13.1215C11.5144 12.6182 12.3056 11.8418 12.827 10.89L13.187 10.232L14.503 10.952L14.142 11.611C13.5047 12.7749 12.5498 13.7338 11.3885 14.3759C10.2272 15.0181 8.90741 15.317 7.58279 15.2379C6.25817 15.1587 4.9833 14.7048 3.90672 13.9291C2.83014 13.1533 1.99617 12.0875 1.50198 10.856L1.50098 10.855Z" fill="white"/>
</svg>
