<svg width="16" height="16" viewBox="0 0 16 16" fill="none" xmlns="http://www.w3.org/2000/svg">
<path fill-rule="evenodd" clip-rule="evenodd" d="M4.25 0C3.65326 0 3.08097 0.237053 2.65901 0.65901C2.23705 1.08097 2 1.65326 2 2.25V11.5C1.99986 11.9866 2.14171 12.4626 2.40816 12.8697C2.6746 13.2768 3.05406 13.5974 3.5 13.792V11C3.5 10.7348 3.60536 10.4804 3.79289 10.2929C3.98043 10.1054 4.23478 10 4.5 10H12.5V12.5H10.5V14H14V0H4.25ZM12.5 8.5V1.5H4.25C4.05109 1.5 3.86032 1.57902 3.71967 1.71967C3.57902 1.86032 3.5 2.05109 3.5 2.25V8.708C3.8154 8.57037 4.15588 8.49955 4.5 8.5H12.5ZM5.5 11.5C5.36739 11.5 5.24021 11.5527 5.14645 11.6464C5.05268 11.7402 5 11.8674 5 12V16L7 14.75L9 16V12C9 11.8674 8.94732 11.7402 8.85355 11.6464C8.75979 11.5527 8.63261 11.5 8.5 11.5H5.5Z" fill="white"/>
</svg>
