<svg width="16" height="16" viewBox="0 0 16 16" fill="none" xmlns="http://www.w3.org/2000/svg">
<g clip-path="url(#clip0_5_2386)">
<path fill-rule="evenodd" clip-rule="evenodd" d="M16 7.94498C16.0002 6.57119 15.5962 5.22769 14.8384 4.08185C14.0805 2.936 13.0023 2.03844 11.738 1.50098H15V0.000976562H10.075C9.80977 0.000976563 9.55542 0.106333 9.36788 0.29387C9.18035 0.481406 9.07499 0.73576 9.07499 1.00098V5.92598H10.575V2.67398C11.8415 3.05135 12.9299 3.87217 13.6408 4.98622C14.3518 6.10028 14.6378 7.43308 14.4466 8.74076C14.2554 10.0484 13.5997 11.2435 12.5995 12.1074C11.5994 12.9712 10.3216 13.4461 8.99999 13.445H8.24999V14.945H8.99999C10.8565 14.945 12.637 14.2075 13.9497 12.8947C15.2625 11.582 16 9.80149 16 7.94498ZM5.36999 5.62798C4.47399 5.62798 3.74699 6.35398 3.74699 7.24998V9.37998C3.74699 9.81029 3.91793 10.223 4.22221 10.5273C4.52649 10.8315 4.93918 11.0025 5.36949 11.0025C5.7998 11.0025 6.21249 10.8315 6.51677 10.5273C6.82105 10.223 6.99199 9.81029 6.99199 9.37998V7.24998C6.99199 6.35398 6.26599 5.62798 5.36999 5.62798ZM4.99199 7.24998C4.99697 7.15322 5.03892 7.06207 5.10917 6.99534C5.17941 6.92862 5.2726 6.89141 5.36949 6.89141C5.46638 6.89141 5.55957 6.92862 5.62981 6.99534C5.70006 7.06207 5.74201 7.15322 5.74699 7.24998V9.37998C5.74699 9.4801 5.70722 9.57611 5.63642 9.64691C5.56563 9.7177 5.46961 9.75748 5.36949 9.75748C5.26937 9.75748 5.17335 9.7177 5.10256 9.64691C5.03176 9.57611 4.99199 9.4801 4.99199 9.37998V7.24998ZM2.24199 6.37298C2.24189 6.27845 2.22028 6.18519 2.1788 6.10026C2.13732 6.01532 2.07706 5.94094 2.00257 5.88274C1.92809 5.82454 1.84134 5.78405 1.7489 5.76434C1.65645 5.74463 1.56073 5.74622 1.46899 5.76898L0.46899 6.01898L-0.13501 6.16998L0.16699 7.37798L0.77099 7.22698L0.99799 7.16998V9.74998H-0.00200976V10.995H3.24299V9.74998H2.24299L2.24199 6.37298Z" fill="white"/>
</g>
<defs>
<clipPath id="clip0_5_2386">
<rect width="16" height="16" fill="white"/>
</clipPath>
</defs>
</svg>
