<svg width="16" height="16" viewBox="0 0 16 16" fill="none" xmlns="http://www.w3.org/2000/svg">
<g clip-path="url(#clip0_5_2387)">
<path fill-rule="evenodd" clip-rule="evenodd" d="M8.75 2.80001C9.03596 2.63491 9.25946 2.38007 9.38582 2.075C9.51218 1.76994 9.53435 1.4317 9.44889 1.11275C9.36343 0.793798 9.17511 0.51196 8.91314 0.310947C8.65118 0.109933 8.3302 0.000976563 8 0.000976562C7.6698 0.000976563 7.34882 0.109933 7.08686 0.310947C6.82489 0.51196 6.63657 0.793798 6.55111 1.11275C6.46565 1.4317 6.48782 1.76994 6.61418 2.075C6.74054 2.38007 6.96404 2.63491 7.25 2.80001V5.00001H7C5.58203 5.0002 4.20991 5.5024 3.12685 6.41761C2.04378 7.33283 1.31972 8.60194 1.083 10H0V13H1V16H15V13H16V10H14.917C14.6803 8.60194 13.9562 7.33283 12.8732 6.41761C11.7901 5.5024 10.418 5.0002 9 5.00001H8.75V2.80001ZM7 6.50001C5.80653 6.50001 4.66193 6.97412 3.81802 7.81803C2.97411 8.66195 2.5 9.80654 2.5 11V14.5H13.5V11C13.5 9.80654 13.0259 8.66195 12.182 7.81803C11.3381 6.97412 10.1935 6.50001 9 6.50001H7ZM7.25 11.25C7.25 11.4798 7.20474 11.7074 7.11679 11.9197C7.02884 12.132 6.89994 12.3249 6.73744 12.4875C6.57493 12.65 6.38202 12.7789 6.1697 12.8668C5.95738 12.9547 5.72981 13 5.5 13C5.27019 13 5.04262 12.9547 4.8303 12.8668C4.61798 12.7789 4.42507 12.65 4.26256 12.4875C4.10006 12.3249 3.97116 12.132 3.88321 11.9197C3.79527 11.7074 3.75 11.4798 3.75 11.25C3.75 10.7859 3.93437 10.3408 4.26256 10.0126C4.59075 9.68439 5.03587 9.50001 5.5 9.50001C5.96413 9.50001 6.40925 9.68439 6.73744 10.0126C7.06563 10.3408 7.25 10.7859 7.25 11.25ZM10.5 13C10.9641 13 11.4092 12.8156 11.7374 12.4875C12.0656 12.1593 12.25 11.7141 12.25 11.25C12.25 10.7859 12.0656 10.3408 11.7374 10.0126C11.4092 9.68439 10.9641 9.50001 10.5 9.50001C10.0359 9.50001 9.59075 9.68439 9.26256 10.0126C8.93437 10.3408 8.75 10.7859 8.75 11.25C8.75 11.7141 8.93437 12.1593 9.26256 12.4875C9.59075 12.8156 10.0359 13 10.5 13Z" fill="white"/>
</g>
<defs>
<clipPath id="clip0_5_2387">
<rect width="16" height="16" fill="white"/>
</clipPath>
</defs>
</svg>
