<svg width="16" height="16" viewBox="0 0 16 16" fill="none" xmlns="http://www.w3.org/2000/svg">
<path fill-rule="evenodd" clip-rule="evenodd" d="M2.5 8.00001C2.5 4.96601 4.974 2.50001 8.035 2.50001C9.23705 2.49749 10.4072 2.88649 11.3685 3.60819C12.3298 4.32989 13.03 5.34501 13.363 6.50001H10V8.00001H15.25C15.4489 8.00001 15.6397 7.92099 15.7803 7.78034C15.921 7.63969 16 7.44892 16 7.25001V2.00001H14.5V5.23301C13.9528 3.97372 13.0491 2.902 11.9004 2.14986C10.7517 1.39773 9.40805 0.998033 8.035 1.00001C4.154 1.00001 1 4.13001 1 8.00001C1 11.87 4.154 15 8.035 15C9.14456 15.0015 10.2388 14.7407 11.2283 14.2388C12.2179 13.7369 13.0747 13.0082 13.729 12.112L14.172 11.507L12.961 10.622L12.518 11.227C12.003 11.9326 11.3284 12.5064 10.5492 12.9014C9.77009 13.2964 8.90856 13.5016 8.035 13.5C4.975 13.5 2.5 11.034 2.5 8.00001Z" fill="white"/>
</svg>
