<svg width="16" height="16" viewBox="0 0 16 16" fill="none" xmlns="http://www.w3.org/2000/svg">
<path fill-rule="evenodd" clip-rule="evenodd" d="M13.5 8.00001C13.5 4.96601 11.026 2.50001 7.965 2.50001C6.76295 2.49749 5.59277 2.88649 4.63147 3.60819C3.67017 4.32989 2.97005 5.34501 2.637 6.50001H6V8.00001H0.75C0.551088 8.00001 0.360322 7.92099 0.21967 7.78034C0.0790176 7.63969 0 7.44892 0 7.25001L0 2.00001H1.5V5.23301C2.04723 3.97372 2.95086 2.902 4.09958 2.14986C5.24831 1.39773 6.59195 0.998033 7.965 1.00001C11.846 1.00001 15 4.13001 15 8.00001C15 11.87 11.846 15 7.965 15C6.85527 15.0017 5.76087 14.7409 4.77113 14.239C3.78139 13.7371 2.92436 13.0083 2.27 12.112L1.828 11.507L3.039 10.622L3.482 11.227C3.99702 11.9326 4.67165 12.5064 5.45078 12.9014C6.22991 13.2964 7.09144 13.5016 7.965 13.5C11.025 13.5 13.5 11.034 13.5 8.00001Z" fill="white"/>
</svg>
