<svg width="16" height="16" viewBox="0 0 16 16" fill="none" xmlns="http://www.w3.org/2000/svg">
<g clip-path="url(#clip0_5_2391)">
<path fill-rule="evenodd" clip-rule="evenodd" d="M5.71 1.74201L6.336 1.32701C7.64442 0.45938 9.18005 -0.00228166 10.75 8.47922e-06C12.38 8.47922e-06 13.899 0.488008 15.164 1.32701L15.79 1.74201L14.96 2.99201L14.336 2.57801C13.2732 1.87285 12.0255 1.49779 10.75 1.50001C9.47451 1.49779 8.22685 1.87285 7.164 2.57801L6.539 2.99201L5.71 1.74201ZM11.25 8.00001V6.00001H9.75V8.00001H0V13.5C0 14.163 0.263392 14.7989 0.732233 15.2678C1.20107 15.7366 1.83696 16 2.5 16H13.5C14.163 16 14.7989 15.7366 15.2678 15.2678C15.7366 14.7989 16 14.163 16 13.5V8.00001H11.25ZM1.5 9.50001H14.5V13.5C14.5 13.7652 14.3946 14.0196 14.2071 14.2071C14.0196 14.3947 13.7652 14.5 13.5 14.5H2.5C2.23478 14.5 1.98043 14.3947 1.79289 14.2071C1.60536 14.0196 1.5 13.7652 1.5 13.5V9.50001ZM3.75 12.5C3.84849 12.5 3.94602 12.4806 4.03701 12.4429C4.12801 12.4052 4.21069 12.35 4.28033 12.2803C4.34997 12.2107 4.40522 12.128 4.44291 12.037C4.4806 11.946 4.5 11.8485 4.5 11.75C4.5 11.6515 4.4806 11.554 4.44291 11.463C4.40522 11.372 4.34997 11.2893 4.28033 11.2197C4.21069 11.15 4.12801 11.0948 4.03701 11.0571C3.94602 11.0194 3.84849 11 3.75 11C3.55109 11 3.36032 11.079 3.21967 11.2197C3.07902 11.3603 3 11.5511 3 11.75C3 11.9489 3.07902 12.1397 3.21967 12.2803C3.36032 12.421 3.55109 12.5 3.75 12.5ZM7 11.75C7 11.8485 6.9806 11.946 6.94291 12.037C6.90522 12.128 6.84997 12.2107 6.78033 12.2803C6.71069 12.35 6.62801 12.4052 6.53701 12.4429C6.44602 12.4806 6.34849 12.5 6.25 12.5C6.15151 12.5 6.05398 12.4806 5.96299 12.4429C5.87199 12.4052 5.78931 12.35 5.71967 12.2803C5.65003 12.2107 5.59478 12.128 5.55709 12.037C5.5194 11.946 5.5 11.8485 5.5 11.75C5.5 11.5511 5.57902 11.3603 5.71967 11.2197C5.86032 11.079 6.05109 11 6.25 11C6.44891 11 6.63968 11.079 6.78033 11.2197C6.92098 11.3603 7 11.5511 7 11.75ZM8.397 3.58701L7.735 3.94101L8.442 5.26401L9.103 4.91001C9.593 4.64901 10.153 4.50001 10.75 4.50001C11.347 4.50001 11.907 4.64901 12.397 4.91001L13.058 5.26401L13.765 3.94101L13.103 3.58701C12.379 3.20048 11.5707 2.99884 10.75 3.00001C9.9 3.00001 9.099 3.21201 8.397 3.58701Z" fill="white"/>
</g>
<defs>
<clipPath id="clip0_5_2391">
<rect width="16" height="16" fill="white"/>
</clipPath>
</defs>
</svg>
