<svg width="16" height="16" viewBox="0 0 16 16" fill="none" xmlns="http://www.w3.org/2000/svg">
<g clip-path="url(#clip0_5_2390)">
<path fill-rule="evenodd" clip-rule="evenodd" d="M7.53003 0.720002L7.00003 0.190002L5.94003 1.25L6.47003 1.78L6.69003 2H3.37403C2.47892 2 1.62048 2.35558 0.987542 2.98852C0.354607 3.62145 -0.000972385 4.4799 -0.000972385 5.375C-0.000972385 6.27011 0.354607 7.12855 0.987542 7.76149C1.62048 8.39442 2.47892 8.75 3.37403 8.75H12.624C13.1213 8.75 13.5982 8.94755 13.9499 9.29918C14.3015 9.65081 14.499 10.1277 14.499 10.625C14.499 11.1223 14.3015 11.5992 13.9499 11.9508C13.5982 12.3025 13.1213 12.5 12.624 12.5H4.88403C4.70483 11.9299 4.32745 11.4429 3.82021 11.127C3.31296 10.8111 2.70938 10.6873 2.11874 10.7779C1.5281 10.8686 0.989429 11.1677 0.600257 11.6212C0.211084 12.0746 -0.00286865 12.6524 -0.00286865 13.25C-0.00286865 13.8476 0.211084 14.4254 0.600257 14.8788C0.989429 15.3323 1.5281 15.6314 2.11874 15.7221C2.70938 15.8127 3.31296 15.6889 3.82021 15.373C4.32745 15.0571 4.70483 14.5701 4.88403 14H12.624C13.5191 14 14.3776 13.6444 15.0105 13.0115C15.6434 12.3786 15.999 11.5201 15.999 10.625C15.999 9.7299 15.6434 8.87145 15.0105 8.23852C14.3776 7.60558 13.5191 7.25 12.624 7.25H3.37403C2.87675 7.25 2.39983 7.05246 2.0482 6.70083C1.69657 6.3492 1.49903 5.87228 1.49903 5.375C1.49903 4.87772 1.69657 4.40081 2.0482 4.04918C2.39983 3.69755 2.87675 3.5 3.37403 3.5H6.68803L6.46803 3.72L5.93803 4.25L7.00003 5.31L7.53003 4.78L8.85403 3.457C9.0415 3.26947 9.14681 3.01517 9.14681 2.75C9.14681 2.48484 9.0415 2.23053 8.85403 2.043L7.53003 0.720002ZM2.50003 14.25C2.76524 14.25 3.0196 14.1446 3.20713 13.9571C3.39467 13.7696 3.50003 13.5152 3.50003 13.25C3.50003 12.9848 3.39467 12.7304 3.20713 12.5429C3.0196 12.3554 2.76524 12.25 2.50003 12.25C2.23481 12.25 1.98046 12.3554 1.79292 12.5429C1.60538 12.7304 1.50003 12.9848 1.50003 13.25C1.50003 13.5152 1.60538 13.7696 1.79292 13.9571C1.98046 14.1446 2.23481 14.25 2.50003 14.25ZM14.5 2.75C14.5 3.01522 14.3947 3.26957 14.2071 3.45711C14.0196 3.64465 13.7652 3.75 13.5 3.75C13.2348 3.75 12.9805 3.64465 12.7929 3.45711C12.6054 3.26957 12.5 3.01522 12.5 2.75C12.5 2.48479 12.6054 2.23043 12.7929 2.0429C12.9805 1.85536 13.2348 1.75 13.5 1.75C13.7652 1.75 14.0196 1.85536 14.2071 2.0429C14.3947 2.23043 14.5 2.48479 14.5 2.75ZM16 2.75C16 3.41304 15.7366 4.04893 15.2678 4.51777C14.799 4.98661 14.1631 5.25 13.5 5.25C12.837 5.25 12.2011 4.98661 11.7323 4.51777C11.2634 4.04893 11 3.41304 11 2.75C11 2.08696 11.2634 1.45108 11.7323 0.982235C12.2011 0.513395 12.837 0.250002 13.5 0.250002C14.1631 0.250002 14.799 0.513395 15.2678 0.982235C15.7366 1.45108 16 2.08696 16 2.75Z" fill="white"/>
</g>
<defs>
<clipPath id="clip0_5_2390">
<rect width="16" height="16" fill="white"/>
</clipPath>
</defs>
</svg>
