<svg width="16" height="16" viewBox="0 0 16 16" fill="none" xmlns="http://www.w3.org/2000/svg">
<path fill-rule="evenodd" clip-rule="evenodd" d="M1 2.5C7.904 2.5 13.5 8.096 13.5 15H15C15 7.268 8.732 1 1 1V2.5ZM8 15C8 13.1435 7.2625 11.363 5.94975 10.0503C4.63699 8.7375 2.85652 8 1 8V6.5C2.11624 6.5 3.22154 6.71986 4.25281 7.14702C5.28408 7.57419 6.22111 8.20029 7.01041 8.98959C7.79971 9.77889 8.42581 10.7159 8.85298 11.7472C9.28014 12.7785 9.5 13.8838 9.5 15H8ZM2.5 15C2.5 14.6022 2.34196 14.2206 2.06066 13.9393C1.77936 13.658 1.39782 13.5 1 13.5V12C1.79565 12 2.55871 12.3161 3.12132 12.8787C3.68393 13.4413 4 14.2044 4 15H2.5Z" fill="white"/>
</svg>
