<svg width="16" height="16" viewBox="0 0 16 16" fill="none" xmlns="http://www.w3.org/2000/svg">
<path fill-rule="evenodd" clip-rule="evenodd" d="M11 3.75001C11 4.08153 11.1317 4.39947 11.3661 4.63389C11.6005 4.86831 11.9185 5.00001 12.25 5.00001C12.5815 5.00001 12.8995 4.86831 13.1339 4.63389C13.3683 4.39947 13.5 4.08153 13.5 3.75001C13.5 3.41849 13.3683 3.10055 13.1339 2.86613C12.8995 2.63171 12.5815 2.50001 12.25 2.50001C11.9185 2.50001 11.6005 2.63171 11.3661 2.86613C11.1317 3.10055 11 3.41849 11 3.75001ZM9.848 5.09001C9.52433 4.51047 9.4212 3.83342 9.55765 3.18379C9.6941 2.53417 10.0609 1.95583 10.5904 1.55549C11.1199 1.15516 11.7763 0.95986 12.4386 1.00563C13.1008 1.05141 13.7241 1.33517 14.1935 1.80454C14.6628 2.27392 14.9466 2.89724 14.9924 3.55945C15.0382 4.22167 14.8428 4.8781 14.4425 5.40759C14.0422 5.93709 13.4638 6.30391 12.8142 6.44036C12.1646 6.57681 11.4875 6.47368 10.908 6.15001L6.152 10.91C6.47567 11.4895 6.5788 12.1666 6.44235 12.8162C6.3059 13.4659 5.93908 14.0442 5.40958 14.4445C4.88009 14.8449 4.22366 15.0402 3.56144 14.9944C2.89922 14.9486 2.27591 14.6649 1.80653 14.1955C1.33716 13.7261 1.0534 13.1028 1.00762 12.4406C0.96185 11.7783 1.15715 11.1219 1.55748 10.5924C1.95782 10.0629 2.53616 9.69611 3.18578 9.55966C3.83541 9.42321 4.51246 9.52634 5.092 9.85001L9.848 5.09001ZM2.5 12.25C2.5 12.5815 2.6317 12.8995 2.86612 13.1339C3.10054 13.3683 3.41848 13.5 3.75 13.5C4.08152 13.5 4.39946 13.3683 4.63388 13.1339C4.8683 12.8995 5 12.5815 5 12.25C5 11.9185 4.8683 11.6005 4.63388 11.3661C4.39946 11.1317 4.08152 11 3.75 11C3.41848 11 3.10054 11.1317 2.86612 11.3661C2.6317 11.6005 2.5 11.9185 2.5 12.25ZM3.75 5.00001C3.41848 5.00001 3.10054 4.86831 2.86612 4.63389C2.6317 4.39947 2.5 4.08153 2.5 3.75001C2.5 3.41849 2.6317 3.10055 2.86612 2.86613C3.10054 2.63171 3.41848 2.50001 3.75 2.50001C4.08152 2.50001 4.39946 2.63171 4.63388 2.86613C4.8683 3.10055 5 3.41849 5 3.75001C5 4.08153 4.8683 4.39947 4.63388 4.63389C4.39946 4.86831 4.08152 5.00001 3.75 5.00001ZM1 3.75001C1 4.47936 1.28973 5.17883 1.80546 5.69455C2.32118 6.21028 3.02065 6.50001 3.75 6.50001C4.47935 6.50001 5.17882 6.21028 5.69454 5.69455C6.21027 5.17883 6.5 4.47936 6.5 3.75001C6.5 3.02066 6.21027 2.32119 5.69454 1.80547C5.17882 1.28974 4.47935 1.00001 3.75 1.00001C3.02065 1.00001 2.32118 1.28974 1.80546 1.80547C1.28973 2.32119 1 3.02066 1 3.75001ZM11 12.25C11 12.5815 11.1317 12.8995 11.3661 13.1339C11.6005 13.3683 11.9185 13.5 12.25 13.5C12.5815 13.5 12.8995 13.3683 13.1339 13.1339C13.3683 12.8995 13.5 12.5815 13.5 12.25C13.5 11.9185 13.3683 11.6005 13.1339 11.3661C12.8995 11.1317 12.5815 11 12.25 11C11.9185 11 11.6005 11.1317 11.3661 11.3661C11.1317 11.6005 11 11.9185 11 12.25ZM12.25 15C11.5207 15 10.8212 14.7103 10.3055 14.1946C9.78973 13.6788 9.5 12.9794 9.5 12.25C9.5 11.5207 9.78973 10.8212 10.3055 10.3055C10.8212 9.78974 11.5207 9.50001 12.25 9.50001C12.9793 9.50001 13.6788 9.78974 14.1945 10.3055C14.7103 10.8212 15 11.5207 15 12.25C15 12.9794 14.7103 13.6788 14.1945 14.1946C13.6788 14.7103 12.9793 15 12.25 15Z" fill="white"/>
</svg>
