<svg width="16" height="16" viewBox="0 0 16 16" fill="none" xmlns="http://www.w3.org/2000/svg">
<path fill-rule="evenodd" clip-rule="evenodd" d="M8.084 1.97402C8.0455 1.94721 8.00023 1.93177 7.95337 1.92947C7.9065 1.92717 7.85994 1.93811 7.819 1.96102L2.884 4.72502C2.76765 4.79008 2.67074 4.88496 2.60324 4.99991C2.53575 5.11486 2.50011 5.24572 2.5 5.37902V9.39202L9.37 6.64402L9.371 6.64802L14.049 4.77802C14.1604 4.74705 14.2774 4.74223 14.3909 4.76395C14.5045 4.78567 14.6114 4.83334 14.7035 4.90324C14.7956 4.97314 14.8702 5.06337 14.9217 5.16689C14.9731 5.27042 14.9999 5.38443 15 5.50002V10.62C15.0002 11.0201 14.8938 11.4129 14.6916 11.7582C14.4895 12.1034 14.199 12.3884 13.85 12.584L8.914 15.348C8.62679 15.5086 8.30012 15.585 7.97147 15.5684C7.64283 15.5517 7.32553 15.4428 7.056 15.254L3.492 12.76L5.157 12.094L7.916 14.025C7.9544 14.052 7.99963 14.0676 8.04649 14.0701C8.09335 14.0726 8.13997 14.0618 8.181 14.039L13.117 11.275C13.2332 11.2098 13.3299 11.1149 13.3972 11C13.4645 10.885 13.5 10.7542 13.5 10.621V6.60802L7.88 8.85602L7.879 8.85203L1.951 11.222C1.83963 11.253 1.72261 11.2578 1.60907 11.2361C1.49554 11.2144 1.38856 11.1667 1.29649 11.0968C1.20442 11.0269 1.12976 10.9367 1.07832 10.8332C1.02689 10.7296 1.00009 10.6156 1 10.5V5.38002C1 4.56502 1.44 3.81402 2.15 3.41602L7.087 0.652025C7.37421 0.491423 7.70088 0.415052 8.02953 0.431679C8.35817 0.448306 8.67547 0.557256 8.945 0.746025L12.509 3.24002L10.844 3.90602L8.085 1.97402H8.084Z" fill="white"/>
</svg>
