<svg width="16" height="16" viewBox="0 0 16 16" fill="none" xmlns="http://www.w3.org/2000/svg">
<path fill-rule="evenodd" clip-rule="evenodd" d="M13.5 1.5H2.5V4.5C2.5 4.76522 2.60536 5.01957 2.79289 5.20711C2.98043 5.39464 3.23478 5.5 3.5 5.5H12.5C12.7652 5.5 13.0196 5.39464 13.2071 5.20711C13.3946 5.01957 13.5 4.76522 13.5 4.5V1.5ZM15 0H1V4.5C1 5.16304 1.26339 5.79893 1.73223 6.26777C2.20107 6.73661 2.83696 7 3.5 7H12.5C12.8283 7 13.1534 6.93534 13.4567 6.8097C13.76 6.68406 14.0356 6.49991 14.2678 6.26777C14.4999 6.03562 14.6841 5.76002 14.8097 5.45671C14.9353 5.15339 15 4.8283 15 4.5V0ZM2.5 13.5V10.5H13.5V13.5C13.5 13.7652 13.3946 14.0196 13.2071 14.2071C13.0196 14.3946 12.7652 14.5 12.5 14.5H3.5C3.23478 14.5 2.98043 14.3946 2.79289 14.2071C2.60536 14.0196 2.5 13.7652 2.5 13.5ZM1 9H15V13.5C15 14.163 14.7366 14.7989 14.2678 15.2678C13.7989 15.7366 13.163 16 12.5 16H3.5C2.83696 16 2.20107 15.7366 1.73223 15.2678C1.26339 14.7989 1 14.163 1 13.5V9ZM4.75 13.25C4.84849 13.25 4.94602 13.2306 5.03701 13.1929C5.12801 13.1552 5.21069 13.1 5.28033 13.0303C5.34997 12.9607 5.40522 12.878 5.44291 12.787C5.4806 12.696 5.5 12.5985 5.5 12.5C5.5 12.4015 5.4806 12.304 5.44291 12.213C5.40522 12.122 5.34997 12.0393 5.28033 11.9697C5.21069 11.9 5.12801 11.8448 5.03701 11.8071C4.94602 11.7694 4.84849 11.75 4.75 11.75C4.55109 11.75 4.36032 11.829 4.21967 11.9697C4.07902 12.1103 4 12.3011 4 12.5C4 12.6989 4.07902 12.8897 4.21967 13.0303C4.36032 13.171 4.55109 13.25 4.75 13.25ZM8 12.5C8 12.6989 7.92098 12.8897 7.78033 13.0303C7.63968 13.171 7.44891 13.25 7.25 13.25C7.05109 13.25 6.86032 13.171 6.71967 13.0303C6.57902 12.8897 6.5 12.6989 6.5 12.5C6.5 12.3011 6.57902 12.1103 6.71967 11.9697C6.86032 11.829 7.05109 11.75 7.25 11.75C7.44891 11.75 7.63968 11.829 7.78033 11.9697C7.92098 12.1103 8 12.3011 8 12.5ZM10.5 3.5C10.5 3.69891 10.579 3.88968 10.7197 4.03033C10.8603 4.17098 11.0511 4.25 11.25 4.25C11.4489 4.25 11.6397 4.17098 11.7803 4.03033C11.921 3.88968 12 3.69891 12 3.5C12 3.30109 11.921 3.11032 11.7803 2.96967C11.6397 2.82902 11.4489 2.75 11.25 2.75C11.0511 2.75 10.8603 2.82902 10.7197 2.96967C10.579 3.11032 10.5 3.30109 10.5 3.5ZM8.75 4.25C8.65151 4.25 8.55398 4.2306 8.46299 4.19291C8.37199 4.15522 8.28931 4.09997 8.21967 4.03033C8.15003 3.96069 8.09478 3.87801 8.05709 3.78701C8.0194 3.69602 8 3.59849 8 3.5C8 3.40151 8.0194 3.30398 8.05709 3.21299C8.09478 3.12199 8.15003 3.03931 8.21967 2.96967C8.28931 2.90003 8.37199 2.84478 8.46299 2.80709C8.55398 2.7694 8.65151 2.75 8.75 2.75C8.94891 2.75 9.13968 2.82902 9.28033 2.96967C9.42098 3.11032 9.5 3.30109 9.5 3.5C9.5 3.69891 9.42098 3.88968 9.28033 4.03033C9.13968 4.17098 8.94891 4.25 8.75 4.25Z" fill="white"/>
</svg>
