<svg width="16" height="16" viewBox="0 0 16 16" fill="none" xmlns="http://www.w3.org/2000/svg">
<g clip-path="url(#clip0_5_2397)">
<path fill-rule="evenodd" clip-rule="evenodd" d="M9.5 0H6.5L6.226 1.46C6.20784 1.55051 6.16609 1.63461 6.10498 1.7038C6.04387 1.77298 5.96557 1.8248 5.878 1.854C5.6315 1.93933 5.39039 2.03951 5.156 2.154C5.07322 2.19545 4.98094 2.21424 4.88855 2.20844C4.79615 2.20265 4.70695 2.17247 4.63 2.121L3.404 1.282L1.282 3.404L2.122 4.63C2.17332 4.70704 2.20331 4.79629 2.20893 4.88868C2.21455 4.98108 2.1956 5.07331 2.154 5.156C2.03951 5.39039 1.93933 5.6315 1.854 5.878C1.8248 5.96557 1.77298 6.04387 1.7038 6.10498C1.63461 6.16609 1.55051 6.20784 1.46 6.226L0 6.5V9.5L1.46 9.774C1.645 9.808 1.793 9.944 1.854 10.122C1.94 10.37 2.04 10.612 2.154 10.844C2.236 11.014 2.228 11.214 2.121 11.37L1.282 12.596L3.404 14.717L4.63 13.879C4.70695 13.8275 4.79615 13.7974 4.88855 13.7916C4.98094 13.7858 5.07322 13.8045 5.156 13.846C5.389 13.96 5.63 14.06 5.878 14.146C6.055 14.207 6.192 14.356 6.226 14.54L6.5 16H9.5L9.774 14.54C9.79216 14.4495 9.83391 14.3654 9.89502 14.2962C9.95613 14.227 10.0344 14.1752 10.122 14.146C10.37 14.06 10.612 13.96 10.844 13.846C10.9268 13.8045 11.0191 13.7858 11.1115 13.7916C11.2038 13.7974 11.2931 13.8275 11.37 13.879L12.596 14.717L14.717 12.597L13.879 11.37C13.8275 11.2931 13.7974 11.2038 13.7916 11.1115C13.7858 11.0191 13.8045 10.9268 13.846 10.844C13.9605 10.6096 14.0606 10.3685 14.146 10.122C14.1752 10.0344 14.227 9.95613 14.2962 9.89502C14.3654 9.83391 14.4495 9.79216 14.54 9.774L16 9.5V6.5L14.54 6.226C14.4495 6.20784 14.3654 6.16609 14.2962 6.10498C14.227 6.04387 14.1752 5.96557 14.146 5.878C14.0606 5.63151 13.9604 5.39041 13.846 5.156C13.8045 5.07322 13.7858 4.98094 13.7916 4.88855C13.7974 4.79615 13.8275 4.70695 13.879 4.63L14.717 3.404L12.597 1.282L11.37 2.122C11.293 2.17332 11.2037 2.20331 11.1113 2.20893C11.0189 2.21455 10.9267 2.1956 10.844 2.154C10.6096 2.03951 10.3685 1.93933 10.122 1.854C10.0344 1.8248 9.95613 1.77298 9.89502 1.7038C9.83391 1.63461 9.79216 1.55051 9.774 1.46L9.5 0ZM8 11C8.79565 11 9.55871 10.6839 10.1213 10.1213C10.6839 9.55871 11 8.79565 11 8C11 7.20435 10.6839 6.44129 10.1213 5.87868C9.55871 5.31607 8.79565 5 8 5C7.20435 5 6.44129 5.31607 5.87868 5.87868C5.31607 6.44129 5 7.20435 5 8C5 8.79565 5.31607 9.55871 5.87868 10.1213C6.44129 10.6839 7.20435 11 8 11Z" fill="white"/>
</g>
<defs>
<clipPath id="clip0_5_2397">
<rect width="16" height="16" fill="white"/>
</clipPath>
</defs>
</svg>
