<svg width="16" height="16" viewBox="0 0 16 16" fill="none" xmlns="http://www.w3.org/2000/svg">
<g clip-path="url(#clip0_5_2396)">
<path fill-rule="evenodd" clip-rule="evenodd" d="M7.7 1.736L7.745 1.5H8.255L8.299 1.736C8.36598 2.08699 8.52468 2.414 8.75899 2.68379C8.9933 2.95357 9.29485 3.15652 9.633 3.272C9.823 3.338 10.008 3.415 10.187 3.502C10.805 3.803 11.585 3.792 12.217 3.359L12.416 3.223L12.776 3.584L12.641 3.783C12.44 4.0786 12.3209 4.42216 12.2958 4.77872C12.2707 5.13529 12.3405 5.49214 12.498 5.813C12.585 5.992 12.662 6.177 12.728 6.367C12.952 7.017 13.511 7.559 14.264 7.701L14.5 7.745V8.255L14.264 8.299C13.913 8.36598 13.586 8.52468 13.3162 8.75899C13.0464 8.9933 12.8435 9.29485 12.728 9.633C12.6626 9.82215 12.5858 10.0072 12.498 10.187C12.3405 10.5079 12.2707 10.8647 12.2958 11.2213C12.3209 11.5778 12.44 11.9214 12.641 12.217L12.777 12.416L12.416 12.776L12.217 12.641C11.9214 12.44 11.5778 12.3209 11.2213 12.2958C10.8647 12.2707 10.5079 12.3405 10.187 12.498C10.0072 12.5858 9.82215 12.6626 9.633 12.728C9.29485 12.8435 8.9933 13.0464 8.75899 13.3162C8.52468 13.586 8.36598 13.913 8.299 14.264L8.255 14.5H7.745L7.701 14.264C7.63402 13.913 7.47532 13.586 7.24101 13.3162C7.0067 13.0464 6.70515 12.8435 6.367 12.728C6.17786 12.6626 5.99285 12.5858 5.813 12.498C5.49214 12.3405 5.13529 12.2707 4.77872 12.2958C4.42216 12.3209 4.0786 12.44 3.783 12.641L3.584 12.777L3.224 12.416L3.359 12.217C3.55997 11.9214 3.67906 11.5778 3.70418 11.2213C3.7293 10.8647 3.65954 10.5079 3.502 10.187C3.41422 10.0071 3.33741 9.82214 3.272 9.633C3.15652 9.29485 2.95357 8.9933 2.68379 8.75899C2.414 8.52468 2.08699 8.36598 1.736 8.299L1.5 8.255V7.745L1.736 7.701C2.08699 7.63402 2.414 7.47532 2.68379 7.24101C2.95357 7.0067 3.15652 6.70515 3.272 6.367C3.33742 6.17786 3.41423 5.99286 3.502 5.813C3.65954 5.49214 3.7293 5.13529 3.70418 4.77872C3.67906 4.42216 3.55997 4.0786 3.359 3.783L3.223 3.584L3.584 3.224L3.783 3.359C4.0786 3.55997 4.42216 3.67906 4.77872 3.70418C5.13529 3.7293 5.49214 3.65954 5.813 3.502C5.992 3.415 6.177 3.338 6.367 3.272C6.70515 3.15652 7.0067 2.95357 7.24101 2.68379C7.47532 2.414 7.63402 2.08699 7.701 1.736H7.7ZM6.5 0H9.5L9.774 1.46C9.808 1.645 9.944 1.793 10.122 1.854C10.37 1.94 10.612 2.04 10.844 2.154C11.014 2.236 11.214 2.228 11.37 2.121L12.596 1.282L14.717 3.404L13.879 4.63C13.8275 4.70695 13.7974 4.79615 13.7916 4.88855C13.7858 4.98094 13.8045 5.07322 13.846 5.156C13.96 5.389 14.06 5.63 14.146 5.878C14.207 6.055 14.356 6.192 14.54 6.226L16 6.5V9.5L14.54 9.774C14.4495 9.79216 14.3654 9.83391 14.2962 9.89502C14.227 9.95613 14.1752 10.0344 14.146 10.122C14.0606 10.3685 13.9605 10.6096 13.846 10.844C13.8045 10.9268 13.7858 11.0191 13.7916 11.1115C13.7974 11.2038 13.8275 11.2931 13.879 11.37L14.717 12.596L12.597 14.717L11.37 13.879C11.2931 13.8275 11.2038 13.7974 11.1115 13.7916C11.0191 13.7858 10.9268 13.8045 10.844 13.846C10.6096 13.9604 10.3685 14.0606 10.122 14.146C10.0344 14.1752 9.95613 14.227 9.89502 14.2962C9.83391 14.3654 9.79216 14.4495 9.774 14.54L9.5 16H6.5L6.226 14.54C6.20784 14.4495 6.16609 14.3654 6.10498 14.2962C6.04387 14.227 5.96557 14.1752 5.878 14.146C5.63151 14.0606 5.39041 13.9604 5.156 13.846C5.07322 13.8045 4.98094 13.7858 4.88855 13.7916C4.79615 13.7974 4.70695 13.8275 4.63 13.879L3.404 14.717L1.282 12.597L2.122 11.37C2.17332 11.293 2.20331 11.2037 2.20893 11.1113C2.21455 11.0189 2.1956 10.9267 2.154 10.844C2.0395 10.6096 1.93932 10.3685 1.854 10.122C1.8248 10.0344 1.77298 9.95613 1.7038 9.89502C1.63461 9.83391 1.55051 9.79216 1.46 9.774L0 9.5V6.5L1.46 6.226C1.55051 6.20784 1.63461 6.16609 1.7038 6.10498C1.77298 6.04387 1.8248 5.96557 1.854 5.878C1.94 5.63 2.04 5.388 2.154 5.156C2.19545 5.07322 2.21424 4.98094 2.20844 4.88855C2.20265 4.79615 2.17247 4.70695 2.121 4.63L1.282 3.404L3.404 1.282L4.63 2.122C4.70704 2.17332 4.79629 2.20331 4.88868 2.20893C4.98108 2.21455 5.07331 2.1956 5.156 2.154C5.39039 2.03951 5.6315 1.93933 5.878 1.854C5.96557 1.8248 6.04387 1.77298 6.10498 1.7038C6.16609 1.63461 6.20784 1.55051 6.226 1.46L6.5 0ZM9.5 8C9.5 8.39782 9.34196 8.77936 9.06066 9.06066C8.77936 9.34196 8.39782 9.5 8 9.5C7.60218 9.5 7.22064 9.34196 6.93934 9.06066C6.65804 8.77936 6.5 8.39782 6.5 8C6.5 7.60218 6.65804 7.22064 6.93934 6.93934C7.22064 6.65804 7.60218 6.5 8 6.5C8.39782 6.5 8.77936 6.65804 9.06066 6.93934C9.34196 7.22064 9.5 7.60218 9.5 8ZM11 8C11 8.79565 10.6839 9.55871 10.1213 10.1213C9.55871 10.6839 8.79565 11 8 11C7.20435 11 6.44129 10.6839 5.87868 10.1213C5.31607 9.55871 5 8.79565 5 8C5 7.20435 5.31607 6.44129 5.87868 5.87868C6.44129 5.31607 7.20435 5 8 5C8.79565 5 9.55871 5.31607 10.1213 5.87868C10.6839 6.44129 11 7.20435 11 8Z" fill="white"/>
</g>
<defs>
<clipPath id="clip0_5_2396">
<rect width="16" height="16" fill="white"/>
</clipPath>
</defs>
</svg>
