<svg width="16" height="16" viewBox="0 0 16 16" fill="none" xmlns="http://www.w3.org/2000/svg">
<g clip-path="url(#clip0_5_2399)">
<path fill-rule="evenodd" clip-rule="evenodd" d="M10.75 5.5C11.2141 5.5 11.6592 5.31563 11.9874 4.98744C12.3156 4.65925 12.5 4.21413 12.5 3.75C12.5 3.28587 12.3156 2.84075 11.9874 2.51256C11.6592 2.18437 11.2141 2 10.75 2C10.2859 2 9.84075 2.18437 9.51256 2.51256C9.18437 2.84075 9 3.28587 9 3.75C9 4.21413 9.18437 4.65925 9.51256 4.98744C9.84075 5.31563 10.2859 5.5 10.75 5.5ZM10.75 0.75C12.148 0.75 13.322 1.706 13.655 3H16V4.5H13.655C13.4882 5.14356 13.1124 5.71351 12.5866 6.12038C12.0608 6.52726 11.4148 6.74802 10.75 6.74802C10.0852 6.74802 9.43917 6.52726 8.91338 6.12038C8.3876 5.71351 8.01181 5.14356 7.845 4.5H0V3H7.845C8.01144 2.35607 8.38707 1.78568 8.91289 1.37842C9.4387 0.971162 10.0849 0.750113 10.75 0.75ZM15.25 13H16V11.5H8.155C7.98819 10.8564 7.6124 10.2865 7.08662 9.87962C6.56083 9.47274 5.91483 9.25198 5.25 9.25198C4.58517 9.25198 3.93917 9.47274 3.41338 9.87962C2.8876 10.2865 2.51181 10.8564 2.345 11.5H0V13H2.345C2.51181 13.6436 2.8876 14.2135 3.41338 14.6204C3.93917 15.0273 4.58517 15.248 5.25 15.248C5.91483 15.248 6.56083 15.0273 7.08662 14.6204C7.6124 14.2135 7.98819 13.6436 8.155 13H15.25ZM7 12.251V12.25V12.249C6.99973 11.785 6.81517 11.34 6.48691 11.012C6.15864 10.684 5.71354 10.4999 5.2495 10.5C4.78546 10.5001 4.34047 10.6846 4.01239 11.0127C3.68431 11.3409 3.5 11.786 3.5 12.25C3.5 12.714 3.68431 13.1591 4.01239 13.4873C4.34047 13.8154 4.78546 13.9999 5.2495 14C5.71354 14.0001 6.15864 13.816 6.48691 13.488C6.81517 13.16 6.99973 12.715 7 12.251Z" fill="white"/>
</g>
<defs>
<clipPath id="clip0_5_2399">
<rect width="16" height="16" fill="white"/>
</clipPath>
</defs>
</svg>
