<svg width="16" height="16" viewBox="0 0 16 16" fill="none" xmlns="http://www.w3.org/2000/svg">
<g clip-path="url(#clip0_5_2401)">
<path fill-rule="evenodd" clip-rule="evenodd" d="M3.5 11.5H1.5V3.5H14.5V11.5H11.75V13H15C15.2652 13 15.5196 12.8946 15.7071 12.7071C15.8946 12.5196 16 12.2652 16 12V3C16 2.73478 15.8946 2.48043 15.7071 2.29289C15.5196 2.10536 15.2652 2 15 2H1C0.734784 2 0.48043 2.10536 0.292893 2.29289C0.105357 2.48043 0 2.73478 0 3L0 12C0 12.2652 0.105357 12.5196 0.292893 12.7071C0.48043 12.8946 0.734784 13 1 13H4.25V11.5H3.5ZM8.208 10.312C8.18517 10.2778 8.15424 10.2497 8.11795 10.2303C8.08167 10.2109 8.04115 10.2007 8 10.2007C7.95885 10.2007 7.91833 10.2109 7.88205 10.2303C7.84576 10.2497 7.81483 10.2778 7.792 10.312L4.259 15.612C4.23408 15.6496 4.21982 15.6933 4.21773 15.7384C4.21564 15.7835 4.2258 15.8283 4.24712 15.8681C4.26845 15.9079 4.30016 15.9412 4.33887 15.9644C4.37758 15.9876 4.42186 15.9999 4.467 16H11.533C11.5783 16 11.6228 15.9878 11.6616 15.9645C11.7005 15.9412 11.7323 15.9078 11.7537 15.8679C11.775 15.8279 11.7851 15.7829 11.7829 15.7377C11.7807 15.6924 11.7662 15.6487 11.741 15.611L8.208 10.312Z" fill="white"/>
</g>
<defs>
<clipPath id="clip0_5_2401">
<rect width="16" height="16" fill="white"/>
</clipPath>
</defs>
</svg>
