<svg width="16" height="16" viewBox="0 0 16 16" fill="none" xmlns="http://www.w3.org/2000/svg">
<g clip-path="url(#clip0_5_2404)">
<path d="M11.25 4.25V3.5C9.35 2.867 6 2.59 6 0C6 2.59 2.65 2.867 0.75 3.5V9.527C0.750047 10.3482 0.974833 11.1538 1.4 11.8564C1.82517 12.5591 2.43451 13.1319 3.162 13.513L4.5 14.214" stroke="white" stroke-width="1.5" stroke-linecap="square" stroke-linejoin="round"/>
<path d="M11.5 15.4C13.6539 15.4 15.4 13.6539 15.4 11.5C15.4 9.34607 13.6539 7.59998 11.5 7.59998C9.34607 7.59998 7.59998 9.34607 7.59998 11.5C7.59998 13.6539 9.34607 15.4 11.5 15.4Z" stroke="white" stroke-width="1.3" stroke-linecap="round" stroke-linejoin="round"/>
<path d="M8 11.5H15.25H8ZM10.75 15C10.0964 12.7124 10.0964 10.2876 10.75 8V15ZM12.25 15C12.9036 12.7124 12.9036 10.2876 12.25 8V15Z" fill="black"/>
<path d="M8 11.5H15.25M10.75 15C10.0964 12.7124 10.0964 10.2876 10.75 8M12.25 15C12.9036 12.7124 12.9036 10.2876 12.25 8" stroke="white" stroke-linejoin="bevel"/>
</g>
<defs>
<clipPath id="clip0_5_2404">
<rect width="16" height="16" fill="white"/>
</clipPath>
</defs>
</svg>
