<svg width="16" height="16" viewBox="0 0 16 16" fill="none" xmlns="http://www.w3.org/2000/svg">
<g clip-path="url(#clip0_5_2405)">
<path fill-rule="evenodd" clip-rule="evenodd" d="M3.55 2.49L3.577 2.483L3.715 2.447C4.643 2.205 5.533 1.972 6.217 1.582C6.887 1.2 7.25 0.734 7.25 0H8.75C8.75 0.467 8.895 0.797 9.122 1.061C9.364 1.343 9.73 1.584 10.214 1.797C10.696 2.009 11.246 2.172 11.822 2.326L12.231 2.433C12.663 2.546 13.105 2.661 13.487 2.788L14 2.96V9.527C14 10.487 13.738 11.409 13.266 12.205L15.28 14.22L15.81 14.75L14.75 15.81L14.22 15.28L0.720002 1.78L0.190002 1.25L1.25 0.19L1.78 0.72L3.55 2.49ZM12.156 11.096C12.3828 10.604 12.5001 10.0687 12.5 9.527V4.057C12.31 4.004 12.107 3.951 11.893 3.895C11.7399 3.85548 11.5869 3.81548 11.434 3.775C10.848 3.618 10.204 3.431 9.611 3.17C9.026 2.913 8.443 2.565 8 2.057C7.70191 2.38904 7.35039 2.66889 6.96 2.885C6.295 3.265 5.505 3.517 4.778 3.717L12.156 11.096ZM3.5 7.25V6.5H2V9.527C2.00012 10.4851 2.2624 11.4248 2.75842 12.2445C3.25445 13.0642 3.96532 13.7325 4.814 14.177L7.652 15.664L8 15.847L8.348 15.664L9.508 15.056L10.173 14.708L9.477 13.38L8.813 13.728L8 14.153L5.51 12.849C4.90371 12.5314 4.3959 12.054 4.04158 11.4684C3.68727 10.8828 3.49998 10.2114 3.5 9.527V7.25Z" fill="white"/>
</g>
<defs>
<clipPath id="clip0_5_2405">
<rect width="16" height="16" fill="white"/>
</clipPath>
</defs>
</svg>
