<svg width="16" height="16" viewBox="0 0 16 16" fill="none" xmlns="http://www.w3.org/2000/svg">
<path fill-rule="evenodd" clip-rule="evenodd" d="M3.5 9.527V4.057C3.69 4.004 3.893 3.951 4.107 3.895L4.566 3.775C5.152 3.618 5.796 3.431 6.389 3.17C6.973 2.914 7.557 2.565 8 2.057C8.443 2.565 9.027 2.914 9.611 3.17C10.204 3.43 10.848 3.618 11.434 3.775L11.894 3.895L12.5 4.057V9.527C12.5 10.2114 12.3127 10.8828 11.9584 11.4684C11.6041 12.054 11.0963 12.5314 10.49 12.849L8 14.153L5.51 12.85C4.90356 12.5323 4.39564 12.0547 4.04132 11.469C3.687 10.8832 3.4998 10.2116 3.5 9.527ZM6.878 1.061C7.105 0.797 7.25 0.467 7.25 0H8.75C8.75 0.467 8.895 0.797 9.122 1.061C9.364 1.343 9.73 1.584 10.214 1.797C10.696 2.009 11.246 2.172 11.822 2.326L12.231 2.433C12.663 2.546 13.105 2.661 13.487 2.788L14 2.96V9.527C13.9999 10.4851 13.7376 11.4248 13.2416 12.2445C12.7456 13.0642 12.0347 13.7325 11.186 14.177L8.348 15.664L8 15.847L7.652 15.664L4.814 14.178C3.96531 13.7335 3.25445 13.0652 2.75842 12.2455C2.26239 11.4258 2.00012 10.4861 2 9.528V2.96L2.513 2.788C2.895 2.661 3.337 2.546 3.769 2.433L4.178 2.326C4.754 2.172 5.304 2.009 5.786 1.796C6.27 1.584 6.636 1.343 6.878 1.061ZM10.53 7.531L11.06 7L10 5.94L9.47 6.47L7 8.94L6.53 8.47L6 7.94L4.94 9L5.47 9.53L6.47 10.53C6.61063 10.6705 6.80125 10.7493 7 10.7493C7.19875 10.7493 7.38937 10.6705 7.53 10.53L10.53 7.531Z" fill="white"/>
</svg>
