<svg width="16" height="16" viewBox="0 0 16 16" fill="none" xmlns="http://www.w3.org/2000/svg">
<path fill-rule="evenodd" clip-rule="evenodd" d="M3.5 4.057V9.527C3.49998 10.2114 3.68727 10.8828 4.04158 11.4684C4.39589 12.054 4.90371 12.5314 5.51 12.849L8 14.153L10.49 12.849C11.0963 12.5314 11.6041 12.054 11.9584 11.4684C12.3127 10.8828 12.5 10.2114 12.5 9.527V4.057C12.31 4.004 12.107 3.951 11.893 3.895C11.7399 3.85548 11.5869 3.81548 11.434 3.775C10.848 3.618 10.204 3.431 9.611 3.17C9.027 2.914 8.443 2.565 8 2.057C7.557 2.565 6.973 2.914 6.389 3.17C5.796 3.43 5.152 3.618 4.566 3.775L4.106 3.895L3.5 4.057ZM7.25 0C7.25 0.467 7.105 0.797 6.878 1.061C6.636 1.343 6.27 1.584 5.786 1.797C5.304 2.009 4.754 2.172 4.178 2.326L3.769 2.433C3.337 2.546 2.895 2.661 2.513 2.788L2 2.96V9.527C2.00012 10.4851 2.26239 11.4248 2.75842 12.2445C3.25445 13.0642 3.96531 13.7325 4.814 14.177L7.652 15.664L8 15.847L8.348 15.664L11.186 14.178C12.0347 13.7335 12.7456 13.0652 13.2416 12.2455C13.7376 11.4258 13.9999 10.4861 14 9.528V2.96L13.487 2.788C13.105 2.661 12.663 2.546 12.231 2.433C12.0946 2.39776 11.9582 2.36209 11.822 2.326C11.247 2.172 10.696 2.009 10.214 1.796C9.73 1.584 9.364 1.343 9.122 1.061C8.895 0.797 8.75 0.467 8.75 0H7.25Z" fill="white"/>
</svg>
