<svg width="16" height="16" viewBox="0 0 16 16" fill="none" xmlns="http://www.w3.org/2000/svg">
<path fill-rule="evenodd" clip-rule="evenodd" d="M6.75 2.75C6.75 2.41848 6.8817 2.10054 7.11612 1.86612C7.35054 1.6317 7.66848 1.5 8 1.5C8.33152 1.5 8.64946 1.6317 8.88388 1.86612C9.1183 2.10054 9.25 2.41848 9.25 2.75V3H6.75V2.75ZM5.25 3V2.75C5.25 2.02065 5.53973 1.32118 6.05546 0.805456C6.57118 0.289731 7.27065 0 8 0C8.72935 0 9.42882 0.289731 9.94454 0.805456C10.4603 1.32118 10.75 2.02065 10.75 2.75V3H15V4.5H13.885L13.178 13.692C13.1296 14.32 12.846 14.9066 12.3838 15.3345C11.9216 15.7624 11.3149 16.0001 10.685 16H5.315C4.68513 16.0001 4.07843 15.7624 3.61623 15.3345C3.15402 14.9066 2.87037 14.32 2.822 13.692L2.115 4.5H1V3H5.25ZM4.318 13.577L3.62 4.5H12.38L11.682 13.577C11.6626 13.8281 11.5492 14.0627 11.3643 14.2338C11.1795 14.4049 10.9369 14.5 10.685 14.5H5.315C5.06312 14.5 4.82052 14.4049 4.63568 14.2338C4.45085 14.0627 4.33739 13.8281 4.318 13.577Z" fill="white"/>
</svg>
