<svg width="16" height="16" viewBox="0 0 16 16" fill="none" xmlns="http://www.w3.org/2000/svg">
<path fill-rule="evenodd" clip-rule="evenodd" d="M13.5 2.5H9.25V1H14C14.2652 1 14.5196 1.10536 14.7071 1.29289C14.8946 1.48043 15 1.73478 15 2V14C15 14.2652 14.8946 14.5196 14.7071 14.7071C14.5196 14.8946 14.2652 15 14 15H9.25V13.5H13.5V2.5ZM8.44 7.25L6.47 5.28L5.94 4.75L7 3.69L7.53 4.22L10.604 7.293C10.7915 7.48053 10.8968 7.73484 10.8968 8C10.8968 8.26516 10.7915 8.51947 10.604 8.707L7.53 11.78L7 12.31L5.94 11.25L6.47 10.72L8.44 8.75H1V7.25H8.44Z" fill="white"/>
</svg>
