<svg width="16" height="16" viewBox="0 0 16 16" fill="none" xmlns="http://www.w3.org/2000/svg">
<path fill-rule="evenodd" clip-rule="evenodd" d="M11.669 8.21003C11.7041 8.18736 11.7329 8.15627 11.7529 8.11958C11.7729 8.0829 11.7834 8.0418 11.7834 8.00003C11.7834 7.95826 11.7729 7.91715 11.7529 7.88047C11.7329 7.84378 11.7041 7.81269 11.669 7.79003L1.384 1.24403C1.34627 1.22007 1.30282 1.20667 1.25815 1.20521C1.21349 1.20375 1.16925 1.21429 1.13004 1.23574C1.09084 1.25718 1.05809 1.28874 1.03522 1.32713C1.01235 1.36552 1.00019 1.40934 1 1.45403V14.544C1.00019 14.5887 1.01235 14.6325 1.03522 14.6709C1.05809 14.7093 1.09084 14.7409 1.13004 14.7623C1.16925 14.7838 1.21349 14.7943 1.25815 14.7928C1.30282 14.7914 1.34627 14.778 1.384 14.754L11.67 8.21203L11.669 8.21003ZM15 2.00003V1.25003H13.5V14.75H15V2.00003Z" fill="white"/>
</svg>
