<svg width="16" height="16" viewBox="0 0 16 16" fill="none" xmlns="http://www.w3.org/2000/svg">
<path fill-rule="evenodd" clip-rule="evenodd" d="M5.147 7.111L5.116 7.131L4.533 7.502L4.081 7.789C4.04548 7.81157 4.01624 7.84275 3.99597 7.87963C3.97571 7.91651 3.96509 7.95792 3.96509 8C3.96509 8.04209 3.97571 8.08349 3.99597 8.12037C4.01624 8.15726 4.04548 8.18843 4.081 8.211L4.533 8.498L5.116 8.869L5.147 8.889L13.25 14.046L13.33 14.096L14.034 14.545L14.366 14.755C14.4037 14.779 14.4472 14.7924 14.4918 14.7938C14.5365 14.7953 14.5807 14.7847 14.62 14.7633C14.6592 14.7418 14.6919 14.7103 14.7148 14.6719C14.7376 14.6335 14.7498 14.5897 14.75 14.545V1.455C14.7498 1.41031 14.7376 1.36649 14.7148 1.3281C14.6919 1.28971 14.6592 1.25815 14.62 1.23671C14.5807 1.21527 14.5365 1.20473 14.4918 1.20619C14.4472 1.20765 14.4037 1.22105 14.366 1.245L14.034 1.455L13.331 1.903L13.25 1.955L5.147 7.111ZM13.25 3.733L6.544 8L13.25 12.268V3.733ZM0.75 2V1.25H2.25V14.75H0.75V2Z" fill="white"/>
</svg>
