<svg width="16" height="16" viewBox="0 0 16 16" fill="none" xmlns="http://www.w3.org/2000/svg">
<path fill-rule="evenodd" clip-rule="evenodd" d="M10.603 7.111L10.634 7.131L11.217 7.502L11.669 7.789C11.7045 7.81157 11.7338 7.84275 11.754 7.87963C11.7743 7.91651 11.7849 7.95792 11.7849 8C11.7849 8.04209 11.7743 8.08349 11.754 8.12037C11.7338 8.15726 11.7045 8.18843 11.669 8.211L11.217 8.498L10.634 8.869L10.603 8.889L2.5 14.046L2.42 14.096L1.716 14.545L1.384 14.755C1.34627 14.779 1.30282 14.7924 1.25815 14.7938C1.21349 14.7953 1.16925 14.7847 1.13004 14.7633C1.09084 14.7418 1.05809 14.7103 1.03522 14.6719C1.01235 14.6335 1.00019 14.5897 1 14.545V1.455C1.00019 1.41031 1.01235 1.36649 1.03522 1.3281C1.05809 1.28971 1.09084 1.25815 1.13004 1.23671C1.16925 1.21527 1.21349 1.20473 1.25815 1.20619C1.30282 1.20765 1.34627 1.22105 1.384 1.245L1.716 1.455L2.419 1.903L2.5 1.955L10.603 7.111ZM2.5 3.733L9.206 8L2.5 12.268V3.733ZM15 2V1.25H13.5V14.75H15V2Z" fill="white"/>
</svg>
