<svg width="16" height="16" viewBox="0 0 16 16" fill="none" xmlns="http://www.w3.org/2000/svg">
<path fill-rule="evenodd" clip-rule="evenodd" d="M4.081 8.21C4.04591 8.18734 4.01706 8.15624 3.99709 8.11956C3.97711 8.08288 3.96665 8.04177 3.96665 8C3.96665 7.95823 3.97711 7.91713 3.99709 7.88044C4.01706 7.84376 4.04591 7.81267 4.081 7.79L14.366 1.245C14.4037 1.22105 14.4472 1.20765 14.4918 1.20619C14.5365 1.20473 14.5807 1.21527 14.62 1.23671C14.6592 1.25815 14.6919 1.28971 14.7148 1.3281C14.7376 1.36649 14.7498 1.41031 14.75 1.455V14.545C14.7498 14.5897 14.7376 14.6335 14.7148 14.6719C14.6919 14.7103 14.6592 14.7418 14.62 14.7633C14.5807 14.7847 14.5365 14.7953 14.4918 14.7938C14.4472 14.7924 14.4037 14.779 14.366 14.755L4.08 8.212L4.081 8.21ZM0.75 2V1.25H2.25V14.75H0.75V2Z" fill="white"/>
</svg>
