<svg width="16" height="16" viewBox="0 0 16 16" fill="none" xmlns="http://www.w3.org/2000/svg">
<path fill-rule="evenodd" clip-rule="evenodd" d="M12.53 1.22001C12.3894 1.07956 12.1988 1.00067 12 1.00067C11.8012 1.00067 11.6106 1.07956 11.47 1.22001L9.22 3.47001L8.69 4.00001L9.75 5.06001L10.28 4.53001L11.25 3.56001V14H12.75V3.56001L13.72 4.53001L14.25 5.06001L15.31 4.00001L14.78 3.47001L12.53 1.22001ZM1.75 4.00001H1V5.50001H6V4.00001H1.75ZM1.75 8.25001H1V9.75001H5V8.25001H1.75ZM1.75 12.5H1V14H8V12.5H1.75Z" fill="white"/>
</svg>
