<svg width="16" height="16" viewBox="0 0 16 16" fill="none" xmlns="http://www.w3.org/2000/svg">
<g clip-path="url(#clip0_5_2420)">
<path d="M12.742 5.77598C12.8024 4.73262 12.5171 3.69846 11.9301 2.83373C11.3432 1.96901 10.4875 1.32199 9.4955 0.99293C8.50355 0.663873 7.43077 0.671147 6.44337 1.01363C5.45597 1.3561 4.60909 2.01467 4.03394 2.88728C3.45879 3.75988 3.18747 4.79782 3.26204 5.84026C3.33661 6.8827 3.7529 7.87145 4.4464 8.65331C5.1399 9.43516 6.0719 9.96648 7.09799 10.1649C8.12408 10.3634 9.18698 10.2179 10.122 9.75098M3.26199 6.30998C2.33936 6.80303 1.60529 7.58686 1.17374 8.53982C0.742194 9.49277 0.637303 10.5615 0.875351 11.5802C1.1134 12.5989 1.68107 13.5105 2.49025 14.1735C3.29942 14.8365 4.30484 15.2138 5.35043 15.2469C6.39602 15.28 7.42329 14.967 8.27279 14.3565C9.12228 13.746 9.74648 12.8722 10.0485 11.8706C10.3505 10.869 10.3134 9.79578 9.94301 8.81744C9.57261 7.8391 8.88959 7.0104 7.99999 6.45998" stroke="white" stroke-width="1.5" stroke-linecap="round" stroke-linejoin="round"/>
<path d="M5.85498 9.50001C6.10437 8.35569 6.76756 7.34378 7.71728 6.65844C8.667 5.97311 9.83636 5.66263 11.001 5.78659C12.1656 5.91055 13.2434 6.46021 14.0275 7.33011C14.8117 8.2 15.2471 9.32884 15.25 10.5C15.2502 11.3463 15.0243 12.1772 14.5957 12.9069C14.1671 13.6366 13.5513 14.2385 12.8121 14.6504C12.0729 15.0623 11.2371 15.2693 10.391 15.2499C9.54501 15.2305 8.71953 14.9854 7.99998 14.54" stroke="white" stroke-width="1.5" stroke-linecap="round" stroke-linejoin="round"/>
</g>
<defs>
<clipPath id="clip0_5_2420">
<rect width="16" height="16" fill="white"/>
</clipPath>
</defs>
</svg>
