<svg width="16" height="16" viewBox="0 0 16 16" fill="none" xmlns="http://www.w3.org/2000/svg">
<g clip-path="url(#clip0_5_2421)">
<path d="M2.5 0.5V0H3.5V0.5C3.5 1.03043 3.71071 1.53914 4.08579 1.91421C4.46086 2.28929 4.96957 2.5 5.5 2.5H6V3.5H5.5C4.96957 3.5 4.46086 3.71071 4.08579 4.08579C3.71071 4.46086 3.5 4.96957 3.5 5.5V6H2.5V5.5C2.5 4.96957 2.28929 4.46086 1.91421 4.08579C1.53914 3.71071 1.03043 3.5 0.5 3.5H0V2.5H0.5C1.03043 2.5 1.53914 2.28929 1.91421 1.91421C2.28929 1.53914 2.5 1.03043 2.5 0.5ZM14.5 4.5V5H13.5V4.5C13.5 4.23478 13.3946 3.98043 13.2071 3.79289C13.0196 3.60536 12.7652 3.5 12.5 3.5H12V2.5H12.5C12.7652 2.5 13.0196 2.39464 13.2071 2.20711C13.3946 2.01957 13.5 1.76522 13.5 1.5V1H14.5V1.5C14.5 1.76522 14.6054 2.01957 14.7929 2.20711C14.9804 2.39464 15.2348 2.5 15.5 2.5H16V3.5H15.5C15.2348 3.5 14.9804 3.60536 14.7929 3.79289C14.6054 3.98043 14.5 4.23478 14.5 4.5ZM8.407 4.93L8.5 4H9.5L9.593 4.93C9.70801 6.07841 10.2168 7.15168 11.033 7.9677C11.8492 8.78372 12.9226 9.29225 14.071 9.407L15 9.5V10.5L14.07 10.593C12.9216 10.708 11.8483 11.2168 11.0323 12.033C10.2163 12.8492 9.70775 13.9226 9.593 15.071L9.5 16H8.5L8.407 15.07C8.29199 13.9216 7.78323 12.8483 6.96702 12.0323C6.15082 11.2163 5.07744 10.7078 3.929 10.593L3 10.5V9.5L3.93 9.407C5.07808 9.29181 6.15099 8.7831 6.96679 7.96711C7.78259 7.15113 8.29207 6.07811 8.407 4.93Z" fill="white"/>
</g>
<defs>
<clipPath id="clip0_5_2421">
<rect width="16" height="16" fill="white"/>
</clipPath>
</defs>
</svg>
