<svg width="16" height="16" viewBox="0 0 16 16" fill="none" xmlns="http://www.w3.org/2000/svg">
<g clip-path="url(#clip0_5_2427)">
<path fill-rule="evenodd" clip-rule="evenodd" d="M0 5V11C0 11.2652 0.105357 11.5196 0.292893 11.7071C0.48043 11.8946 0.734784 12 1 12H3L10 16V0L3 4H1C0.734784 4 0.48043 4.10536 0.292893 4.29289C0.105357 4.48043 0 4.73478 0 5ZM14.258 2.96L14.673 3.586C15.5406 4.89442 16.0023 6.43005 16 8C16 9.63 15.512 11.149 14.673 12.414L14.258 13.04L13.008 12.21L13.423 11.586C14.1278 10.523 14.5025 9.27538 14.5 8C14.5022 6.72451 14.1272 5.47685 13.422 4.414L13.008 3.789L14.258 2.96ZM12.06 4.986L12.414 5.648C12.787 6.349 13 7.15 13 8C13 8.85 12.788 9.651 12.412 10.353L12.059 11.015L10.736 10.308L11.089 9.647C11.351 9.157 11.5 8.597 11.5 8C11.5 7.403 11.351 6.843 11.09 6.353L10.736 5.692L12.059 4.985L12.06 4.986Z" fill="white"/>
</g>
<defs>
<clipPath id="clip0_5_2427">
<rect width="16" height="16" fill="white"/>
</clipPath>
</defs>
</svg>
