<svg width="16" height="16" viewBox="0 0 16 16" fill="none" xmlns="http://www.w3.org/2000/svg">
<g clip-path="url(#clip0_5_2424)">
<path fill-rule="evenodd" clip-rule="evenodd" d="M14 1.24999V0.0549927L12.924 0.574993L5.82802 3.99999H2.67702L1.33502 3.32999L0.665019 2.99399L-0.00598145 4.33499L0.664019 4.67099L14.664 11.671L15.335 12.006L16.006 10.665L15.336 10.329L14 9.66099V1.24999ZM12.5 8.91099V2.44499L6.37802 5.39999C6.24232 5.46533 6.09362 5.49917 5.94302 5.49899H5.67702L12.5 8.91099ZM3.50002 7.99999V7.24999H2.00002V11C2.00002 11.2652 2.10538 11.5196 2.29291 11.7071C2.48045 11.8946 2.7348 12 3.00002 12H5.82802L12.924 15.425L14 15.945V12.75H12.5V13.555L6.37802 10.6C6.2424 10.5343 6.0937 10.5001 5.94302 10.5H3.50002V7.99999Z" fill="white"/>
</g>
<defs>
<clipPath id="clip0_5_2424">
<rect width="16" height="16" fill="white"/>
</clipPath>
</defs>
</svg>
