<svg width="16" height="16" viewBox="0 0 16 16" fill="none" xmlns="http://www.w3.org/2000/svg">
<path fill-rule="evenodd" clip-rule="evenodd" d="M3.744 10.698L3 10.5H1.5V5.5H3L3.744 5.302L8.5 2.585V13.415L3.744 10.698ZM3 4L8.5 0.857L10 0V16L8.5 15.143L3 12H1C0.734784 12 0.48043 11.8946 0.292893 11.7071C0.105357 11.5196 0 11.2652 0 11V5C0 4.73478 0.105357 4.48043 0.292893 4.29289C0.48043 4.10536 0.734784 4 1 4H3ZM13.912 5.647L13.558 4.985L12.235 5.692L12.589 6.353C12.85 6.843 12.999 7.403 12.999 8C12.999 8.597 12.85 9.157 12.589 9.647L12.235 10.308L13.558 11.015L13.912 10.353C14.2982 9.62893 14.4995 8.82064 14.498 8C14.498 7.15 14.286 6.349 13.91 5.647H13.912Z" fill="white"/>
</svg>
