<svg width="16" height="16" viewBox="0 0 16 16" fill="none" xmlns="http://www.w3.org/2000/svg">
<g clip-path="url(#clip0_5_2425)">
<path fill-rule="evenodd" clip-rule="evenodd" d="M13.25 1.25L6.05102 4.725C6.01734 4.74131 5.98044 4.74985 5.94302 4.75H4.17702L1.33502 3.33L0.665019 2.994L-0.00598145 4.335L0.664019 4.671L14.664 11.671L15.335 12.006L16.006 10.665L15.336 10.329L13.25 9.286V1.25ZM3.00002 11.25H5.94302C5.98077 11.25 6.01804 11.2585 6.05202 11.275L13.25 14.75V13.25L2.76002 8H2.75002V11C2.75002 11.138 2.86202 11.25 3.00002 11.25Z" fill="white"/>
<path d="M13.25 1.24999H14V0.0549927L12.924 0.574993L13.25 1.24999ZM4.17704 4.74999L3.84204 5.41999L4.00004 5.49999H4.17704V4.74999ZM0.665037 2.99399L1.00004 2.32299L0.330037 1.98799L-0.00596297 2.65799L0.664037 2.99399H0.665037ZM-0.00596297 4.33499L-0.676963 3.99999L-1.01196 4.66999L-0.341963 5.00599L-0.00596297 4.33499ZM0.664037 4.67099L1.00004 3.99999L0.665037 4.66999L0.664037 4.67099ZM14.664 11.671L15 11L14.665 11.67L14.664 11.671ZM15.335 12.006L15 12.677L15.67 13.012L16.006 12.342L15.335 12.006ZM16.006 10.665L16.677 11L17.012 10.33L16.342 9.99399L16.006 10.664V10.665ZM13.25 9.28599H12.5V9.74999L12.915 9.95699L13.25 9.28599ZM13.25 14.75L12.924 15.425L14 15.945V14.75H13.25ZM13.25 13.25H14V12.787L13.586 12.579L13.25 13.25ZM2.76004 7.99999L3.09604 7.32999L2.93704 7.24999H2.76004V7.99999ZM2.75004 7.99999V7.24999H2.00004V7.99999H2.75004ZM6.37804 5.39999L13.576 1.92499L12.924 0.574993L5.72504 4.04999L6.37804 5.39999ZM5.94304 5.49999C6.09372 5.49986 6.24242 5.46567 6.37804 5.39999L5.72504 4.04999C5.793 4.01708 5.86753 3.99998 5.94304 3.99999V5.49999ZM4.17704 5.49999H5.94304V3.99999H4.17704V5.49999ZM4.51204 4.07999L1.67104 2.65799L1.00004 3.99999L3.84204 5.41999L4.51204 4.07999ZM1.67104 2.65799L1.00004 2.32299L0.330037 3.66499L1.00004 3.99999L1.67004 2.65799H1.67104ZM-0.00596297 2.65799L-0.676963 3.99999L0.665037 4.66999L1.33504 3.32999L-0.00596297 2.65799ZM-0.341963 5.00599L0.329037 5.34099L1.00004 3.99999L0.330037 3.66499L-0.341963 5.00599ZM0.329037 5.34099L14.329 12.341L15 11L1.00004 3.99999L0.330037 5.34199L0.329037 5.34099ZM14.329 12.341L15 12.676L15.67 11.334L15 11L14.33 12.342L14.329 12.341ZM16.006 12.341L16.677 11L15.335 10.33L14.665 11.67L16.006 12.342V12.341ZM16.342 9.99299L15.671 9.65699L15 11L15.67 11.335L16.342 9.99399V9.99299ZM15.671 9.65699L13.585 8.61499L12.915 9.95699L15 11L15.67 9.65799L15.671 9.65699ZM12.5 1.24999V9.28599H14V1.24999H12.5ZM5.94304 10.5H3.00004V12H5.94304V10.5ZM6.37804 10.6C6.24242 10.5343 6.09372 10.5001 5.94304 10.5V12C5.86753 12 5.793 11.9829 5.72504 11.95L6.37804 10.6ZM13.576 14.075L6.37804 10.599L5.72504 11.95L12.924 15.425L13.576 14.075ZM12.5 13.25V14.75H14V13.25H12.5ZM2.42404 8.66999L12.914 13.92L13.586 12.579L3.09604 7.32999L2.42404 8.66999ZM2.75004 8.74999H2.76004V7.24999H2.75004V8.74999ZM3.50004 11V7.99999H2.00004V11H3.50004ZM3.00004 10.5C3.13265 10.5 3.25982 10.5527 3.35359 10.6464C3.44736 10.7402 3.50004 10.8674 3.50004 11H2.00004C2.00004 11.2652 2.10539 11.5196 2.29293 11.7071C2.48047 11.8946 2.73482 12 3.00004 12V10.5Z" fill="white"/>
</g>
<defs>
<clipPath id="clip0_5_2425">
<rect width="16" height="16" fill="white"/>
</clipPath>
</defs>
</svg>
