<svg width="16" height="16" viewBox="0 0 16 16" fill="none" xmlns="http://www.w3.org/2000/svg">
<g clip-path="url(#clip0_5_2430)">
<path fill-rule="evenodd" clip-rule="evenodd" d="M8 0.434021L8.658 1.64102L10.591 5.18402L14.558 5.92702L15.909 6.18002L14.965 7.18002L12.192 10.112L12.712 14.114L12.888 15.478L11.646 14.888L8 13.158L4.354 14.888L3.112 15.478L3.289 14.114L3.808 10.112L1.035 7.18002L0.0910034 6.18002L1.442 5.92702L5.409 5.18402L7.342 1.64102L8 0.434021ZM8 3.56602L6.556 6.21502L6.386 6.52702L6.036 6.59302L3.07 7.14802L5.143 9.34002L5.387 9.59902L5.341 9.95202L4.953 12.944L7.678 11.65L8 11.497L8.322 11.65L11.047 12.944L10.659 9.95202L10.613 9.59902L10.857 9.34002L12.93 7.14802L9.965 6.59302L9.615 6.52702L9.445 6.21502L8 3.56602Z" fill="white"/>
</g>
<defs>
<clipPath id="clip0_5_2430">
<rect width="16" height="16" fill="white"/>
</clipPath>
</defs>
</svg>
