<svg width="16" height="16" viewBox="0 0 16 16" fill="none" xmlns="http://www.w3.org/2000/svg">
<g clip-path="url(#clip0_5_2437)">
<path fill-rule="evenodd" clip-rule="evenodd" d="M7.25 1.25V2.04C5.9165 2.18178 4.65225 2.7054 3.609 3.548L3.03 2.97L2.5 2.44L1.44 3.5L1.97 4.03L2.548 4.609C1.7198 5.63746 1.19939 6.87921 1.04686 8.19085C0.894332 9.50249 1.11591 10.8305 1.68602 12.0216C2.25612 13.2127 3.15149 14.2182 4.26873 14.922C5.38598 15.6259 6.67953 15.9994 8 15.9994C9.32048 15.9994 10.614 15.6259 11.7313 14.922C12.8485 14.2182 13.7439 13.2127 14.314 12.0216C14.8841 10.8305 15.1057 9.50249 14.9531 8.19085C14.8006 6.87921 14.2802 5.63746 13.452 4.609L14.03 4.03L14.56 3.5L13.5 2.44L12.97 2.97L12.391 3.548C11.3478 2.7054 10.0835 2.18178 8.75 2.04V1.25H10V-0.25H6V1.25H7.25ZM2.5 9C2.5 7.54131 3.07947 6.14236 4.11092 5.11091C5.14237 4.07946 6.54131 3.5 8 3.5C9.45869 3.5 10.8576 4.07946 11.8891 5.11091C12.9205 6.14236 13.5 7.54131 13.5 9C13.5 10.4587 12.9205 11.8576 11.8891 12.8891C10.8576 13.9205 9.45869 14.5 8 14.5C6.54131 14.5 5.14237 13.9205 4.11092 12.8891C3.07947 11.8576 2.5 10.4587 2.5 9ZM8.75 6.75V6H7.25V9.75H8.75V6.75Z" fill="white"/>
</g>
<defs>
<clipPath id="clip0_5_2437">
<rect width="16" height="16" fill="white"/>
</clipPath>
</defs>
</svg>
