<svg width="16" height="16" viewBox="0 0 16 16" fill="none" xmlns="http://www.w3.org/2000/svg">
<g clip-path="url(#clip0_5_2438)">
<path fill-rule="evenodd" clip-rule="evenodd" d="M7 -0.25H11V1.25H9.75V2.04C11.0835 2.18178 12.3478 2.7054 13.391 3.548L13.97 2.97L14.5 2.44L15.56 3.5L15.03 4.03L14.452 4.609C15.5275 5.9427 16.0765 7.62451 15.995 9.33588C15.9136 11.0473 15.2073 12.6693 14.01 13.8948C12.8127 15.1204 11.2076 15.8642 9.49854 15.9855C7.78954 16.1068 6.09539 15.5971 4.737 14.553H2V13.053H5C5.1753 13.0528 5.34514 13.114 5.48 13.226C6.31981 13.9253 7.34891 14.3586 8.43601 14.4705C9.52311 14.5825 10.6189 14.3681 11.5836 13.8546C12.5483 13.3411 13.3382 12.5519 13.8525 11.5876C14.3667 10.6233 14.582 9.52765 14.471 8.44046C14.3599 7.35327 13.9274 6.32381 13.2288 5.48344C12.5302 4.64307 11.597 4.02987 10.5484 3.7221C9.49979 3.41432 8.38326 3.42591 7.34126 3.75539C6.29926 4.08487 5.37904 4.7173 4.698 5.572L3.526 4.636C4.10247 3.91224 4.81687 3.3101 5.62778 2.86447C6.43869 2.41885 7.32998 2.13861 8.25 2.04V1.25H7V-0.25ZM11.652 7.409L11.122 7.939L9.53 9.53L9 10.06L7.94 9L8.47 8.47L10.06 6.879L10.591 6.349L11.651 7.409H11.652ZM2 7H5V8.5H2V7ZM0.75 10H0V11.5H5V10H0.75Z" fill="white"/>
</g>
<defs>
<clipPath id="clip0_5_2438">
<rect width="16" height="16" fill="white"/>
</clipPath>
</defs>
</svg>
