<svg width="16" height="16" viewBox="0 0 16 16" fill="none" xmlns="http://www.w3.org/2000/svg">
<g clip-path="url(#clip0_5_2439)">
<mask id="mask0_5_2439" style="mask-type:luminance" maskUnits="userSpaceOnUse" x="0" y="0" width="16" height="16">
<path d="M0 0H16V16H0V0Z" fill="white"/>
</mask>
<g mask="url(#mask0_5_2439)">
<path d="M13.5 5C14.8807 5 16 3.88071 16 2.5C16 1.11929 14.8807 0 13.5 0C12.1193 0 11 1.11929 11 2.5C11 3.88071 12.1193 5 13.5 5Z" fill="#52A8FF"/>
<path fill-rule="evenodd" clip-rule="evenodd" d="M9.99995 0.562V-0.25H5.99995V1.25H7.24995V2.04C5.91644 2.18178 4.65219 2.7054 3.60895 3.548L3.02995 2.97L2.49995 2.44L1.43995 3.5L1.96995 4.03L2.54795 4.609C1.77473 5.56953 1.26896 6.71727 1.08182 7.93607C0.894679 9.15487 1.03281 10.4015 1.48224 11.5497C1.93166 12.698 2.67643 13.7072 3.64118 14.4751C4.60593 15.2431 5.75641 15.7426 6.97622 15.9231C8.19602 16.1035 9.44185 15.9586 10.5876 15.5029C11.7334 15.0472 12.7385 14.2969 13.5012 13.328C14.2639 12.359 14.757 11.2058 14.9309 9.98508C15.1047 8.7643 14.9529 7.51928 14.4909 6.376C13.963 6.51061 13.4131 6.53613 12.8749 6.451C13.4655 7.58112 13.645 8.88131 13.3828 10.1292C13.1206 11.377 12.4329 12.495 11.4375 13.2919C10.4421 14.0887 9.20067 14.515 7.92568 14.4977C6.65069 14.4804 5.42133 14.0206 4.44788 13.197C3.47444 12.3734 2.8174 11.2372 2.58916 9.98267C2.36092 8.72815 2.57565 7.43331 3.19664 6.31963C3.81763 5.20596 4.80628 4.34265 5.99347 3.87738C7.18066 3.41212 8.49263 3.37381 9.70495 3.769C9.53261 3.2526 9.46762 2.70643 9.51395 2.164C9.26177 2.10857 9.00671 2.06718 8.74995 2.04V1.25H9.69995C9.77795 1.01 9.87995 0.78 9.99995 0.562ZM8.74995 6V9.75H7.24995V6H8.74995Z" fill="white"/>
</g>
</g>
<defs>
<clipPath id="clip0_5_2439">
<rect width="16" height="16" fill="white"/>
</clipPath>
</defs>
</svg>
