<svg width="16" height="16" viewBox="0 0 16 16" fill="none" xmlns="http://www.w3.org/2000/svg">
<g clip-path="url(#clip0_5_2436)">
<path fill-rule="evenodd" clip-rule="evenodd" d="M4.393 0.293C4.48596 0.200016 4.59634 0.126276 4.71782 0.0759991C4.83931 0.0257225 4.96952 -0.000103053 5.101 3.0904e-07H10.899C11.0305 -0.000103053 11.1607 0.0257225 11.2822 0.0759991C11.4037 0.126276 11.514 0.200016 11.607 0.293L15.707 4.393C15.8 4.48596 15.8737 4.59634 15.924 4.71782C15.9743 4.83931 16.0001 4.96952 16 5.101V10.899C16.0001 11.0305 15.9743 11.1607 15.924 11.2822C15.8737 11.4037 15.8 11.514 15.707 11.607L11.607 15.707C11.4195 15.8945 11.1652 15.9999 10.9 16H5.1C4.83481 15.9999 4.58049 15.8945 4.393 15.707L0.293 11.607C0.105451 11.4195 5.66374e-05 11.1652 0 10.9L0 5.1C5.66374e-05 4.83481 0.105451 4.58049 0.293 4.393L4.393 0.293ZM8.75 3.75V8.75H7.25V3.75H8.75ZM8 12C8.26522 12 8.51957 11.8946 8.70711 11.7071C8.89464 11.5196 9 11.2652 9 11C9 10.7348 8.89464 10.4804 8.70711 10.2929C8.51957 10.1054 8.26522 10 8 10C7.73478 10 7.48043 10.1054 7.29289 10.2929C7.10536 10.4804 7 10.7348 7 11C7 11.2652 7.10536 11.5196 7.29289 11.7071C7.48043 11.8946 7.73478 12 8 12Z" fill="white"/>
</g>
<defs>
<clipPath id="clip0_5_2436">
<rect width="16" height="16" fill="white"/>
</clipPath>
</defs>
</svg>
