<svg width="16" height="16" viewBox="0 0 16 16" fill="none" xmlns="http://www.w3.org/2000/svg">
<g clip-path="url(#clip0_5_2434)">
<path fill-rule="evenodd" clip-rule="evenodd" d="M5.308 1.5L1.5 5.308V10.692L5.308 14.5H10.692L14.5 10.692V5.308L10.692 1.5H5.308ZM5.1 3.0904e-07C4.96852 -0.000103053 4.83831 0.0257225 4.71683 0.0759991C4.59534 0.126276 4.48496 0.200016 4.392 0.293L0.292002 4.393C0.199198 4.48604 0.125642 4.59646 0.0755384 4.71794C0.025435 4.83942 -0.000233099 4.96959 1.59499e-06 5.101V10.899C-0.000101767 11.0305 0.0257238 11.1607 0.0760004 11.2822C0.126277 11.4037 0.200017 11.514 0.293002 11.607L4.393 15.707C4.48596 15.8 4.59634 15.8737 4.71782 15.924C4.83931 15.9743 4.96952 16.0001 5.101 16H10.899C11.0305 16.0001 11.1607 15.9743 11.2822 15.924C11.4037 15.8737 11.514 15.8 11.607 15.707L15.707 11.607C15.8946 11.4195 15.9999 11.1652 16 10.9V5.1C15.9999 4.83481 15.8946 4.58049 15.707 4.393L11.607 0.293C11.4195 0.105451 11.1652 5.69464e-05 10.9 3.0904e-07H5.1ZM8.75 3.75V8.75H7.25V3.75H8.75ZM8 12C8.26522 12 8.51957 11.8946 8.70711 11.7071C8.89464 11.5196 9 11.2652 9 11C9 10.7348 8.89464 10.4804 8.70711 10.2929C8.51957 10.1054 8.26522 10 8 10C7.73479 10 7.48043 10.1054 7.29289 10.2929C7.10536 10.4804 7 10.7348 7 11C7 11.2652 7.10536 11.5196 7.29289 11.7071C7.48043 11.8946 7.73479 12 8 12Z" fill="white"/>
</g>
<defs>
<clipPath id="clip0_5_2434">
<rect width="16" height="16" fill="white"/>
</clipPath>
</defs>
</svg>
