<svg width="16" height="16" viewBox="0 0 16 16" fill="none" xmlns="http://www.w3.org/2000/svg">
<path fill-rule="evenodd" clip-rule="evenodd" d="M13.75 1.9C13.5155 1.61844 13.2219 1.39188 12.8901 1.23635C12.5584 1.08083 12.1964 1.00014 11.83 1H4.17C3.80357 1.00014 3.44164 1.08083 3.10985 1.23635C2.77806 1.39188 2.48452 1.61844 2.25 1.9L1.08 3.305C0.705496 3.75409 0.500263 4.32025 0.5 4.905V15H15.5V4.905C15.4997 4.32025 15.2945 3.75409 14.92 3.305L13.75 1.9ZM14 5V4.905C13.9999 4.6711 13.9178 4.44464 13.768 4.265L12.598 2.86C12.5041 2.74725 12.3865 2.65654 12.2536 2.59433C12.1207 2.53211 11.9757 2.49991 11.829 2.5H4.171C4.02443 2.50005 3.87966 2.53233 3.74694 2.59454C3.61422 2.65675 3.49681 2.74738 3.403 2.86L2.232 4.265C2.0822 4.44464 2.00011 4.6711 2 4.905V5C2 5.19698 2.0388 5.39204 2.11418 5.57403C2.18956 5.75601 2.30005 5.92137 2.43934 6.06066C2.57863 6.19995 2.74399 6.31044 2.92597 6.38582C3.10796 6.4612 3.30302 6.5 3.5 6.5C3.69698 6.5 3.89204 6.4612 4.07403 6.38582C4.25601 6.31044 4.42137 6.19995 4.56066 6.06066C4.69995 5.92137 4.81044 5.75601 4.88582 5.57403C4.9612 5.39204 5 5.19698 5 5H6.5C6.5 5.39782 6.65804 5.77936 6.93934 6.06066C7.22064 6.34196 7.60218 6.5 8 6.5C8.39782 6.5 8.77936 6.34196 9.06066 6.06066C9.34196 5.77936 9.5 5.39782 9.5 5H11C11 5.39782 11.158 5.77936 11.4393 6.06066C11.7206 6.34196 12.1022 6.5 12.5 6.5C12.8978 6.5 13.2794 6.34196 13.5607 6.06066C13.842 5.77936 14 5.39782 14 5ZM14 7.599C13.5441 7.8626 13.0266 8.00094 12.5 8C11.604 8 10.8 7.607 10.25 6.984C9.96879 7.30363 9.62263 7.55959 9.23463 7.73479C8.84663 7.91 8.42572 8.00041 8 8C7.104 8 6.3 7.607 5.75 6.984C5.46879 7.30363 5.12263 7.55959 4.73463 7.73479C4.34663 7.91 3.92572 8.00041 3.5 8C2.97339 8.00094 2.45589 7.8626 2 7.599V13.5H6V12C6 11.4696 6.21071 10.9609 6.58579 10.5858C6.96086 10.2107 7.46957 10 8 10C8.53043 10 9.03914 10.2107 9.41421 10.5858C9.78929 10.9609 10 11.4696 10 12V13.5H14V7.599ZM8.5 12V13.5H7.5V12C7.5 11.8674 7.55268 11.7402 7.64645 11.6464C7.74021 11.5527 7.86739 11.5 8 11.5C8.13261 11.5 8.25979 11.5527 8.35355 11.6464C8.44732 11.7402 8.5 11.8674 8.5 12Z" fill="white"/>
</svg>
