<svg width="16" height="16" viewBox="0 0 16 16" fill="none" xmlns="http://www.w3.org/2000/svg">
<g clip-path="url(#clip0_5_2441)">
<path fill-rule="evenodd" clip-rule="evenodd" d="M8.75 0.75V0H7.25V2.75H8.75V0.75ZM11.182 3.757L11.712 3.227L12.066 2.873L12.596 2.343L13.656 3.403L13.126 3.934L12.773 4.288L12.243 4.818L11.182 3.757ZM8 10.5C8.66304 10.5 9.29893 10.2366 9.76777 9.76777C10.2366 9.29893 10.5 8.66304 10.5 8C10.5 7.33696 10.2366 6.70107 9.76777 6.23223C9.29893 5.76339 8.66304 5.5 8 5.5C7.33696 5.5 6.70107 5.76339 6.23223 6.23223C5.76339 6.70107 5.5 7.33696 5.5 8C5.5 8.66304 5.76339 9.29893 6.23223 9.76777C6.70107 10.2366 7.33696 10.5 8 10.5ZM8 12C9.06087 12 10.0783 11.5786 10.8284 10.8284C11.5786 10.0783 12 9.06087 12 8C12 6.93913 11.5786 5.92172 10.8284 5.17157C10.0783 4.42143 9.06087 4 8 4C6.93913 4 5.92172 4.42143 5.17157 5.17157C4.42143 5.92172 4 6.93913 4 8C4 9.06087 4.42143 10.0783 5.17157 10.8284C5.92172 11.5786 6.93913 12 8 12ZM13.25 7.25H16V8.75H13.25V7.25ZM0.75 7.25H0V8.75H2.75V7.25H0.75ZM2.873 12.066L2.343 12.596L3.403 13.656L3.934 13.126L4.288 12.773L4.818 12.243L3.758 11.182L3.227 11.712L2.873 12.066ZM3.757 4.818L3.227 4.288L2.873 3.934L2.343 3.404L3.403 2.344L3.934 2.874L4.288 3.227L4.818 3.757L3.757 4.818ZM12.066 13.127L12.596 13.657L13.656 12.597L13.126 12.066L12.773 11.712L12.243 11.182L11.182 12.242L11.712 12.773L12.066 13.127ZM8.75 13.25V16H7.25V13.25H8.75Z" fill="white"/>
</g>
<defs>
<clipPath id="clip0_5_2441">
<rect width="16" height="16" fill="white"/>
</clipPath>
</defs>
</svg>
