<svg width="16" height="16" viewBox="0 0 16 16" fill="none" xmlns="http://www.w3.org/2000/svg">
<path fill-rule="evenodd" clip-rule="evenodd" d="M2.75 0C2.28587 0 1.84075 0.184374 1.51256 0.512563C1.18437 0.840752 1 1.28587 1 1.75V14.25C1 15.216 1.784 16 2.75 16H13.25C13.7141 16 14.1592 15.8156 14.4874 15.4874C14.8156 15.1592 15 14.7141 15 14.25V1.75C15 1.28587 14.8156 0.840752 14.4874 0.512563C14.1592 0.184374 13.7141 0 13.25 0H2.75ZM2.5 1.75C2.5 1.6837 2.52634 1.62011 2.57322 1.57322C2.62011 1.52634 2.6837 1.5 2.75 1.5H13.25C13.3163 1.5 13.3799 1.52634 13.4268 1.57322C13.4737 1.62011 13.5 1.6837 13.5 1.75V14.25C13.5 14.3163 13.4737 14.3799 13.4268 14.4268C13.3799 14.4737 13.3163 14.5 13.25 14.5H2.75C2.6837 14.5 2.62011 14.4737 2.57322 14.4268C2.52634 14.3799 2.5 14.3163 2.5 14.25V1.75ZM4.75 4.75C5.01522 4.75 5.26957 4.64464 5.45711 4.45711C5.64464 4.26957 5.75 4.01522 5.75 3.75C5.75 3.48478 5.64464 3.23043 5.45711 3.04289C5.26957 2.85536 5.01522 2.75 4.75 2.75C4.48478 2.75 4.23043 2.85536 4.04289 3.04289C3.85536 3.23043 3.75 3.48478 3.75 3.75C3.75 4.01522 3.85536 4.26957 4.04289 4.45711C4.23043 4.64464 4.48478 4.75 4.75 4.75Z" fill="white"/>
</svg>
