<svg width="16" height="16" viewBox="0 0 16 16" fill="none" xmlns="http://www.w3.org/2000/svg">
<g clip-path="url(#clip0_5_2446)">
<path fill-rule="evenodd" clip-rule="evenodd" d="M1.5 1.5H6.343C6.67133 1.49994 6.99645 1.56455 7.29981 1.69015C7.60316 1.81575 7.87881 1.99987 8.111 2.232L13.879 8L8 13.879L2.232 8.11C1.76343 7.64131 1.50014 7.00574 1.5 6.343V1.5ZM16 8L14.94 6.94L9.172 1.172C8.80053 0.80042 8.3595 0.505664 7.87409 0.30457C7.38868 0.103475 6.86841 -1.91503e-05 6.343 2.6579e-09H2.6579e-09V6.343C-1.91503e-05 6.86841 0.103475 7.38868 0.30457 7.87409C0.505664 8.3595 0.80042 8.80053 1.172 9.172L6.939 14.939L8 16L9.06 14.94L14.94 9.06L16 8ZM4.5 5.25C4.69891 5.25 4.88968 5.17098 5.03033 5.03033C5.17098 4.88968 5.25 4.69891 5.25 4.5C5.25 4.30109 5.17098 4.11032 5.03033 3.96967C4.88968 3.82902 4.69891 3.75 4.5 3.75C4.30109 3.75 4.11032 3.82902 3.96967 3.96967C3.82902 4.11032 3.75 4.30109 3.75 4.5C3.75 4.69891 3.82902 4.88968 3.96967 5.03033C4.11032 5.17098 4.30109 5.25 4.5 5.25Z" fill="white"/>
</g>
<defs>
<clipPath id="clip0_5_2446">
<rect width="16" height="16" fill="white"/>
</clipPath>
</defs>
</svg>
