<svg width="16" height="16" viewBox="0 0 16 16" fill="none" xmlns="http://www.w3.org/2000/svg">
<g clip-path="url(#clip0_5_2449)">
<path fill-rule="evenodd" clip-rule="evenodd" d="M1.5 2.5H14.5V12.5C14.5 12.7652 14.3946 13.0196 14.2071 13.2071C14.0196 13.3946 13.7652 13.5 13.5 13.5H2.5C2.23478 13.5 1.98043 13.3946 1.79289 13.2071C1.60536 13.0196 1.5 12.7652 1.5 12.5V2.5ZM0 1H16V12.5C16 13.163 15.7366 13.7989 15.2678 14.2678C14.7989 14.7366 14.163 15 13.5 15H2.5C1.83696 15 1.20107 14.7366 0.732233 14.2678C0.263392 13.7989 0 13.163 0 12.5L0 1ZM4 11.134L4.442 10.692L6.515 8.619C6.59634 8.53774 6.66086 8.44124 6.70488 8.33503C6.7489 8.22882 6.77156 8.11497 6.77156 8C6.77156 7.88503 6.7489 7.77118 6.70488 7.66497C6.66086 7.55876 6.59634 7.46226 6.515 7.381L4.442 5.308L4 4.866L3.116 5.75L3.558 6.192L5.366 8L3.558 9.808L3.116 10.25L4 11.134ZM8 9.754H12.373V11H8V9.755V9.754Z" fill="white"/>
</g>
<defs>
<clipPath id="clip0_5_2449">
<rect width="16" height="16" fill="white"/>
</clipPath>
</defs>
</svg>
