<svg width="16" height="16" viewBox="0 0 16 16" fill="none" xmlns="http://www.w3.org/2000/svg">
<path fill-rule="evenodd" clip-rule="evenodd" d="M2.72002 11.504L2.22002 13.214L2.13502 13.504H0.572021L0.780021 12.794L3.78002 2.539H5.22002L8.22002 12.794L8.42802 13.504H6.86502L6.78002 13.214L6.28002 11.504H2.72002ZM3.21802 9.804H5.78202L4.50002 5.421L3.21802 9.804ZM10.759 6.04C11.241 5.695 11.862 5.504 12.667 5.504C13.745 5.504 14.544 5.846 15.069 6.411C15.578 6.959 15.75 7.634 15.75 8.171V13.504H14.25V13.111C13.793 13.345 13.216 13.504 12.5 13.504C11.78 13.504 11.099 13.286 10.584 12.846C10.3182 12.6191 10.1057 12.3364 9.96159 12.018C9.81744 11.6997 9.74521 11.3534 9.75002 11.004C9.75002 9.554 10.922 8.254 12.5 8.254H14.25V8.171C14.25 7.931 14.17 7.647 13.97 7.431C13.784 7.231 13.416 7.004 12.667 7.004C12.107 7.004 11.81 7.133 11.632 7.26C11.443 7.395 11.309 7.585 11.16 7.861L9.84002 7.148C10.022 6.811 10.288 6.377 10.759 6.04ZM14.25 9.754H12.5C11.792 9.754 11.25 10.34 11.25 11.004C11.25 11.314 11.369 11.544 11.559 11.706C11.759 11.876 12.077 12.004 12.5 12.004C13.293 12.004 13.732 11.721 13.975 11.483C14.103 11.357 14.187 11.232 14.238 11.143L14.25 11.121V9.754Z" fill="white"/>
</svg>
