<svg width="16" height="16" viewBox="0 0 16 16" fill="none" xmlns="http://www.w3.org/2000/svg">
<path fill-rule="evenodd" clip-rule="evenodd" d="M3 1H2V15H10C10.8746 15.0004 11.7252 14.7141 12.4216 14.185C13.118 13.6559 13.6218 12.9131 13.8559 12.0704C14.0899 11.2277 14.0413 10.3315 13.7175 9.51908C13.3937 8.70663 12.8125 8.0227 12.063 7.572C12.5526 6.98881 12.8656 6.27798 12.9652 5.52304C13.0648 4.76811 12.9468 4.00043 12.6251 3.31024C12.3034 2.62005 11.7914 2.03601 11.1493 1.62677C10.5071 1.21753 9.76148 1.00009 9 1H3ZM9 7C9.53043 7 10.0391 6.78929 10.4142 6.41421C10.7893 6.03914 11 5.53043 11 5C11 4.46957 10.7893 3.96086 10.4142 3.58579C10.0391 3.21071 9.53043 3 9 3H4V7H9ZM4 9V13H10C10.5304 13 11.0391 12.7893 11.4142 12.4142C11.7893 12.0391 12 11.5304 12 11C12 10.4696 11.7893 9.96086 11.4142 9.58579C11.0391 9.21071 10.5304 9 10 9H4Z" fill="white"/>
</svg>
