<svg width="16" height="16" viewBox="0 0 16 16" fill="none" xmlns="http://www.w3.org/2000/svg">
<path fill-rule="evenodd" clip-rule="evenodd" d="M8 0.583008C6.152 0.583008 4.896 1.20701 4.11 2.08201C3.344 2.93201 3.083 3.95201 3.083 4.66701C3.083 5.30201 3.254 5.98701 3.73 6.62501C3.827 6.75501 3.934 6.87901 4.053 7.00001H1V8.50001H15V7.00001H7.018L6.518 6.80201C5.668 6.46701 5.195 6.08001 4.932 5.72801C4.70081 5.42305 4.57799 5.04966 4.583 4.66701C4.583 4.27101 4.739 3.62401 5.224 3.08501C5.687 2.57001 6.514 2.08301 8 2.08301C9.99 2.08301 10.83 2.95601 11.178 3.68901L11.501 4.36701L12.855 3.72301L12.533 3.04501C11.924 1.76501 10.543 0.583008 8 0.583008ZM12.917 11.25V10.5H11.417V11.25C11.417 11.65 11.259 12.32 10.769 12.882C10.302 13.416 9.476 13.917 8 13.917C6.14 13.917 5.273 13.04 4.878 12.3L4.526 11.638L3.202 12.343L3.555 13.005C4.189 14.195 5.543 15.417 8 15.417C9.857 15.417 11.115 14.765 11.898 13.868C12.658 12.998 12.917 11.962 12.917 11.25Z" fill="white"/>
</svg>
