<svg width="16" height="16" viewBox="0 0 16 16" fill="none" xmlns="http://www.w3.org/2000/svg">
<path fill-rule="evenodd" clip-rule="evenodd" d="M6.895 13.76C6.85765 13.7866 6.81371 13.8024 6.76798 13.8057C6.72226 13.809 6.6765 13.7997 6.63573 13.7787C6.59495 13.7577 6.56072 13.726 6.53678 13.6869C6.51284 13.6478 6.50012 13.6028 6.5 13.557V10.75C6.5 10.2859 6.31563 9.84075 5.98744 9.51256C5.65925 9.18437 5.21413 9 4.75 9H2.5V2.5H12.188C12.762 2.5 13.262 2.89 13.401 3.447L14.401 7.447C14.447 7.6313 14.4505 7.82368 14.411 8.00951C14.3716 8.19534 14.2903 8.36973 14.1734 8.51944C14.0565 8.66916 13.9069 8.79025 13.7362 8.87352C13.5654 8.95679 13.378 9.00004 13.188 9H8.5V12.485C8.50006 12.5249 8.49055 12.5643 8.47228 12.5998C8.45402 12.6352 8.42752 12.6658 8.395 12.689L6.895 13.76ZM5 13.557C5 14.98 6.609 15.808 7.767 14.981L9.267 13.909C9.49356 13.7472 9.67825 13.5337 9.80573 13.2862C9.93322 13.0387 9.99982 12.7644 10 12.486V10.5H13.188C13.6059 10.5 14.0184 10.4048 14.394 10.2215C14.7696 10.0383 15.0985 9.77182 15.3557 9.44242C15.6129 9.11301 15.7916 8.72932 15.8783 8.32049C15.965 7.91166 15.9574 7.48844 15.856 7.083L14.856 3.083C14.7072 2.48801 14.3639 1.95981 13.8804 1.58239C13.397 1.20497 12.8013 0.999974 12.188 1H1V10.5H4.75C4.8163 10.5 4.87989 10.5263 4.92678 10.5732C4.97366 10.6201 5 10.6837 5 10.75V13.557Z" fill="white"/>
</svg>
