<svg width="16" height="16" viewBox="0 0 16 16" fill="none" xmlns="http://www.w3.org/2000/svg">
<path fill-rule="evenodd" clip-rule="evenodd" d="M6.895 2.24002C6.85765 2.21342 6.81371 2.19762 6.76798 2.19432C6.72226 2.19102 6.6765 2.20036 6.63573 2.22131C6.59495 2.24227 6.56072 2.27404 6.53678 2.31314C6.51284 2.35224 6.50012 2.39717 6.5 2.44302V5.25002C6.5 5.71414 6.31563 6.15926 5.98744 6.48745C5.65925 6.81564 5.21413 7.00002 4.75 7.00002H2.5V13.5H12.188C12.4668 13.5001 12.7377 13.4069 12.9575 13.2353C13.1773 13.0637 13.3334 12.8235 13.401 12.553L14.401 8.55302C14.447 8.36871 14.4505 8.17634 14.411 7.99051C14.3716 7.80468 14.2903 7.63028 14.1734 7.48057C14.0565 7.33086 13.9069 7.20977 13.7362 7.1265C13.5654 7.04323 13.378 6.99997 13.188 7.00002H8.5V3.51502C8.50006 3.4751 8.49055 3.43575 8.47228 3.40026C8.45402 3.36477 8.42752 3.33417 8.395 3.31102L6.895 2.24002ZM5 2.44302C5 1.02002 6.609 0.192016 7.767 1.02002L9.267 2.09202C9.727 2.42002 10 2.95002 10 3.51602V5.50002H13.188C13.6059 5.5 14.0184 5.59523 14.394 5.77849C14.7696 5.96174 15.0985 6.22819 15.3557 6.5576C15.6129 6.887 15.7916 7.2707 15.8783 7.67953C15.965 8.08836 15.9574 8.51157 15.856 8.91702L14.856 12.917C14.7072 13.512 14.3639 14.0402 13.8804 14.4176C13.397 14.795 12.8013 15 12.188 15H1V5.50002H4.75C4.8163 5.50002 4.87989 5.47368 4.92678 5.42679C4.97366 5.37991 5 5.31632 5 5.25002V2.44302Z" fill="white"/>
</svg>
