<svg width="16" height="16" viewBox="0 0 16 16" fill="none" xmlns="http://www.w3.org/2000/svg">
<path fill-rule="evenodd" clip-rule="evenodd" d="M6 3.5H10C11.1935 3.5 12.3381 3.97411 13.182 4.81802C14.0259 5.66193 14.5 6.80653 14.5 8C14.5 9.19347 14.0259 10.3381 13.182 11.182C12.3381 12.0259 11.1935 12.5 10 12.5H6C4.80653 12.5 3.66193 12.0259 2.81802 11.182C1.97411 10.3381 1.5 9.19347 1.5 8C1.5 6.80653 1.97411 5.66193 2.81802 4.81802C3.66193 3.97411 4.80653 3.5 6 3.5ZM0 8C0 6.4087 0.632141 4.88258 1.75736 3.75736C2.88258 2.63214 4.4087 2 6 2H10C11.5913 2 13.1174 2.63214 14.2426 3.75736C15.3679 4.88258 16 6.4087 16 8C16 9.5913 15.3679 11.1174 14.2426 12.2426C13.1174 13.3679 11.5913 14 10 14H6C4.4087 14 2.88258 13.3679 1.75736 12.2426C0.632141 11.1174 0 9.5913 0 8ZM10 11C10.7956 11 11.5587 10.6839 12.1213 10.1213C12.6839 9.55871 13 8.79565 13 8C13 7.20435 12.6839 6.44129 12.1213 5.87868C11.5587 5.31607 10.7956 5 10 5C9.20435 5 8.44129 5.31607 7.87868 5.87868C7.31607 6.44129 7 7.20435 7 8C7 8.79565 7.31607 9.55871 7.87868 10.1213C8.44129 10.6839 9.20435 11 10 11Z" fill="white"/>
</svg>
