<svg width="16" height="16" viewBox="0 0 16 16" fill="none" xmlns="http://www.w3.org/2000/svg">
<g clip-path="url(#clip0_5_2461)">
<path fill-rule="evenodd" clip-rule="evenodd" d="M15.62 5.893C15.9605 6.80093 16.0759 7.77787 15.9563 8.74016C15.8367 9.70244 15.4856 10.6214 14.9332 11.4183C14.3807 12.2153 13.6433 12.8664 12.7842 13.316C11.925 13.7657 10.9697 14.0003 10 14H6C4.4087 14 2.88258 13.3679 1.75736 12.2426C0.632141 11.1174 0 9.5913 0 8C0 6.4087 0.632141 4.88258 1.75736 3.75736C2.88258 2.63214 4.4087 2 6 2H9.531C9.46854 2.50154 9.50076 3.01035 9.626 3.5H6C4.80653 3.5 3.66193 3.97411 2.81802 4.81802C1.97411 5.66193 1.5 6.80653 1.5 8C1.5 9.19347 1.97411 10.3381 2.81802 11.182C3.66193 12.0259 4.80653 12.5 6 12.5H10C10.7258 12.5001 11.4409 12.3247 12.0843 11.9887C12.7276 11.6526 13.2802 11.1659 13.6947 10.5701C14.1093 9.97435 14.3736 9.28711 14.465 8.56706C14.5565 7.84701 14.4724 7.11553 14.22 6.435C14.726 6.343 15.2 6.156 15.62 5.893ZM6 9.5C6.39782 9.5 6.77936 9.34196 7.06066 9.06066C7.34196 8.77936 7.5 8.39782 7.5 8C7.5 7.60218 7.34196 7.22064 7.06066 6.93934C6.77936 6.65804 6.39782 6.5 6 6.5C5.60218 6.5 5.22064 6.65804 4.93934 6.93934C4.65804 7.22064 4.5 7.60218 4.5 8C4.5 8.39782 4.65804 8.77936 4.93934 9.06066C5.22064 9.34196 5.60218 9.5 6 9.5ZM6 11C6.79565 11 7.55871 10.6839 8.12132 10.1213C8.68393 9.55871 9 8.79565 9 8C9 7.20435 8.68393 6.44129 8.12132 5.87868C7.55871 5.31607 6.79565 5 6 5C5.20435 5 4.44129 5.31607 3.87868 5.87868C3.31607 6.44129 3 7.20435 3 8C3 8.79565 3.31607 9.55871 3.87868 10.1213C4.44129 10.6839 5.20435 11 6 11Z" fill="white"/>
<path d="M13.5 5C14.8807 5 16 3.88071 16 2.5C16 1.11929 14.8807 0 13.5 0C12.1193 0 11 1.11929 11 2.5C11 3.88071 12.1193 5 13.5 5Z" fill="#52A8FF"/>
</g>
<defs>
<clipPath id="clip0_5_2461">
<rect width="16" height="16" fill="white"/>
</clipPath>
</defs>
</svg>
