<svg width="16" height="16" viewBox="0 0 16 16" fill="none" xmlns="http://www.w3.org/2000/svg">
<path fill-rule="evenodd" clip-rule="evenodd" d="M6 3.5H10C11.1935 3.5 12.3381 3.97411 13.182 4.81802C14.0259 5.66193 14.5 6.80653 14.5 8C14.5 9.19347 14.0259 10.3381 13.182 11.182C12.3381 12.0259 11.1935 12.5 10 12.5H6C4.80653 12.5 3.66193 12.0259 2.81802 11.182C1.97411 10.3381 1.5 9.19347 1.5 8C1.5 6.80653 1.97411 5.66193 2.81802 4.81802C3.66193 3.97411 4.80653 3.5 6 3.5ZM0 8C0 6.4087 0.632141 4.88258 1.75736 3.75736C2.88258 2.63214 4.4087 2 6 2H10C11.5913 2 13.1174 2.63214 14.2426 3.75736C15.3679 4.88258 16 6.4087 16 8C16 9.5913 15.3679 11.1174 14.2426 12.2426C13.1174 13.3679 11.5913 14 10 14H6C4.4087 14 2.88258 13.3679 1.75736 12.2426C0.632141 11.1174 0 9.5913 0 8ZM7.5 8C7.5 8.39782 7.34196 8.77936 7.06066 9.06066C6.77936 9.34196 6.39782 9.5 6 9.5C5.60218 9.5 5.22064 9.34196 4.93934 9.06066C4.65804 8.77936 4.5 8.39782 4.5 8C4.5 7.60218 4.65804 7.22064 4.93934 6.93934C5.22064 6.65804 5.60218 6.5 6 6.5C6.39782 6.5 6.77936 6.65804 7.06066 6.93934C7.34196 7.22064 7.5 7.60218 7.5 8ZM9 8C9 8.79565 8.68393 9.55871 8.12132 10.1213C7.55871 10.6839 6.79565 11 6 11C5.20435 11 4.44129 10.6839 3.87868 10.1213C3.31607 9.55871 3 8.79565 3 8C3 7.20435 3.31607 6.44129 3.87868 5.87868C4.44129 5.31607 5.20435 5 6 5C6.79565 5 7.55871 5.31607 8.12132 5.87868C8.68393 6.44129 9 7.20435 9 8Z" fill="white"/>
</svg>
