<svg width="16" height="16" viewBox="0 0 16 16" fill="none" xmlns="http://www.w3.org/2000/svg">
<g clip-path="url(#clip0_5_2459)">
<path fill-rule="evenodd" clip-rule="evenodd" d="M8.57 4.5H11C11.9283 4.5 12.8185 4.86875 13.4749 5.52513C14.1313 6.1815 14.5 7.07174 14.5 8C14.5 8.92826 14.1313 9.8185 13.4749 10.4749C12.8185 11.1313 11.9283 11.5 11 11.5H8.57C9.48786 10.5664 10.0015 9.3092 10 8C10.0015 6.6908 9.48786 5.43357 8.57 4.5ZM5 4.5C4.07174 4.5 3.1815 4.86875 2.52513 5.52513C1.86875 6.1815 1.5 7.07174 1.5 8C1.5 8.92826 1.86875 9.8185 2.52513 10.4749C3.1815 11.1313 4.07174 11.5 5 11.5C5.92826 11.5 6.8185 11.1313 7.47487 10.4749C8.13125 9.8185 8.5 8.92826 8.5 8C8.5 7.07174 8.13125 6.1815 7.47487 5.52513C6.8185 4.86875 5.92826 4.5 5 4.5ZM0 8C0 6.67392 0.526784 5.40215 1.46447 4.46447C2.40215 3.52678 3.67392 3 5 3H11C12.3261 3 13.5979 3.52678 14.5355 4.46447C15.4732 5.40215 16 6.67392 16 8C16 9.32608 15.4732 10.5979 14.5355 11.5355C13.5979 12.4732 12.3261 13 11 13H5C3.67392 13 2.40215 12.4732 1.46447 11.5355C0.526784 10.5979 0 9.32608 0 8Z" fill="white"/>
</g>
<defs>
<clipPath id="clip0_5_2459">
<rect width="16" height="16" fill="white"/>
</clipPath>
</defs>
</svg>
