<svg width="16" height="16" viewBox="0 0 16 16" fill="none" xmlns="http://www.w3.org/2000/svg">
<g clip-path="url(#clip0_5_2464)">
<path d="M13.5 5C14.8807 5 16 3.88071 16 2.5C16 1.11929 14.8807 0 13.5 0C12.1193 0 11 1.11929 11 2.5C11 3.88071 12.1193 5 13.5 5Z" fill="#52A8FF"/>
<path fill-rule="evenodd" clip-rule="evenodd" d="M6 2H9.531C9.46854 2.50154 9.50076 3.01035 9.626 3.5H6C4.80653 3.5 3.66193 3.97411 2.81802 4.81802C1.97411 5.66193 1.5 6.80653 1.5 8C1.5 9.19347 1.97411 10.3381 2.81802 11.182C3.66193 12.0259 4.80653 12.5 6 12.5H10C10.7258 12.5001 11.4409 12.3247 12.0843 11.9887C12.7276 11.6526 13.2802 11.1659 13.6947 10.5701C14.1093 9.97435 14.3736 9.28711 14.465 8.56706C14.5565 7.84701 14.4724 7.11553 14.22 6.435C14.726 6.343 15.2 6.156 15.62 5.893C15.9605 6.80093 16.0759 7.77787 15.9563 8.74016C15.8367 9.70244 15.4856 10.6214 14.9332 11.4183C14.3807 12.2153 13.6433 12.8664 12.7842 13.316C11.925 13.7657 10.9697 14.0003 10 14H6C4.4087 14 2.88258 13.3679 1.75736 12.2426C0.632141 11.1174 0 9.5913 0 8C0 6.4087 0.632141 4.88258 1.75736 3.75736C2.88258 2.63214 4.4087 2 6 2ZM10 11C10.7956 11 11.5587 10.6839 12.1213 10.1213C12.6839 9.55871 13 8.79565 13 8C13 7.20435 12.6839 6.44129 12.1213 5.87868C11.5587 5.31607 10.7956 5 10 5C9.20435 5 8.44129 5.31607 7.87868 5.87868C7.31607 6.44129 7 7.20435 7 8C7 8.79565 7.31607 9.55871 7.87868 10.1213C8.44129 10.6839 9.20435 11 10 11Z" fill="white"/>
</g>
<defs>
<clipPath id="clip0_5_2464">
<rect width="16" height="16" fill="white"/>
</clipPath>
</defs>
</svg>
