<svg width="16" height="16" viewBox="0 0 16 16" fill="none" xmlns="http://www.w3.org/2000/svg">
<g clip-path="url(#clip0_5_2465)">
<path fill-rule="evenodd" clip-rule="evenodd" d="M1.5 2.5H14.5V12.5C14.5 12.7652 14.3946 13.0196 14.2071 13.2071C14.0196 13.3946 13.7652 13.5 13.5 13.5H2.5C2.23478 13.5 1.98043 13.3946 1.79289 13.2071C1.60536 13.0196 1.5 12.7652 1.5 12.5V2.5ZM0 1H16V12.5C16 13.163 15.7366 13.7989 15.2678 14.2678C14.7989 14.7366 14.163 15 13.5 15H2.5C1.83696 15 1.20107 14.7366 0.732233 14.2678C0.263392 13.7989 0 13.163 0 12.5L0 1ZM9.634 10.5H5.5C5.36739 10.5 5.24021 10.4473 5.14645 10.3536C5.05268 10.2598 5 10.1326 5 10C5 9.86739 5.05268 9.74021 5.14645 9.64645C5.24021 9.55268 5.36739 9.5 5.5 9.5H10.5C10.6326 9.5 10.7598 9.55268 10.8536 9.64645C10.9473 9.74021 11 9.86739 11 10C11 10.1326 10.9473 10.2598 10.8536 10.3536C10.7598 10.4473 10.6326 10.5 10.5 10.5H9.634ZM10.5 8H5.5C4.96957 8 4.46086 8.21071 4.08579 8.58579C3.71071 8.96086 3.5 9.46957 3.5 10C3.5 10.5304 3.71071 11.0391 4.08579 11.4142C4.46086 11.7893 4.96957 12 5.5 12H10.5C11.0304 12 11.5391 11.7893 11.9142 11.4142C12.2893 11.0391 12.5 10.5304 12.5 10C12.5 9.46957 12.2893 8.96086 11.9142 8.58579C11.5391 8.21071 11.0304 8 10.5 8Z" fill="white"/>
</g>
<defs>
<clipPath id="clip0_5_2465">
<rect width="16" height="16" fill="white"/>
</clipPath>
</defs>
</svg>
