<svg width="16" height="16" viewBox="0 0 16 16" fill="none" xmlns="http://www.w3.org/2000/svg">
<g clip-path="url(#clip0_5_2472)">
<path fill-rule="evenodd" clip-rule="evenodd" d="M2.5 3.25C2.5 2.38805 2.84241 1.5614 3.4519 0.951903C4.0614 0.34241 4.88805 0 5.75 0L6.25 0C6.6768 0 7.09941 0.0840637 7.49372 0.247392C7.88803 0.410719 8.24631 0.650113 8.5481 0.951903C8.84989 1.25369 9.08928 1.61197 9.25261 2.00628C9.41594 2.40059 9.5 2.8232 9.5 3.25V3.75C9.5 4.1768 9.41594 4.59941 9.25261 4.99372C9.08928 5.38803 8.84989 5.74631 8.5481 6.0481C8.24631 6.34989 7.88803 6.58928 7.49372 6.75261C7.09941 6.91594 6.6768 7 6.25 7H5.75C4.88805 7 4.0614 6.65759 3.4519 6.0481C2.84241 5.4386 2.5 4.61195 2.5 3.75V3.25ZM5.75 1.5C5.28587 1.5 4.84075 1.68437 4.51256 2.01256C4.18437 2.34075 4 2.78587 4 3.25V3.75C4 4.716 4.784 5.5 5.75 5.5H6.25C6.71413 5.5 7.15925 5.31563 7.48744 4.98744C7.81563 4.65925 8 4.21413 8 3.75V3.25C8 2.78587 7.81563 2.34075 7.48744 2.01256C7.15925 1.68437 6.71413 1.5 6.25 1.5H5.75ZM1.5 14.5V13.17C1.90318 12.3672 2.52165 11.6924 3.2863 11.2209C4.05096 10.7494 4.93166 10.4998 5.83 10.5H6.17C7.06834 10.4998 7.94904 10.7494 8.7137 11.2209C9.47835 11.6924 10.0968 12.3672 10.5 13.17V14.5H1.5ZM5.83 9C4.61794 8.99987 3.43122 9.34696 2.41026 10.0002C1.38929 10.6534 0.576825 11.5855 0.069 12.686L0 12.836V16H12V12.835L11.931 12.685C11.4231 11.5848 10.6107 10.6531 9.58997 10C8.56921 9.347 7.38278 8.99997 6.171 9H5.83ZM15.931 12.686C15.3823 11.4964 14.4785 10.506 13.344 9.851L12.594 11.149C13.4133 11.6222 14.076 12.3252 14.5 13.171V14.5H13.5V16H16V12.835L15.931 12.686ZM11.25 0H10.5V1.5H11.25C12.216 1.5 13 2.284 13 3.25V3.75C13 4.21413 12.8156 4.65925 12.4874 4.98744C12.1592 5.31563 11.7141 5.5 11.25 5.5H10.5V7H11.25C11.6768 7 12.0994 6.91594 12.4937 6.75261C12.888 6.58928 13.2463 6.34989 13.5481 6.0481C13.8499 5.74631 14.0893 5.38803 14.2526 4.99372C14.4159 4.59941 14.5 4.1768 14.5 3.75V3.25C14.5 2.38805 14.1576 1.5614 13.5481 0.951903C12.9386 0.34241 12.112 0 11.25 0Z" fill="white"/>
</g>
<defs>
<clipPath id="clip0_5_2472">
<rect width="16" height="16" fill="white"/>
</clipPath>
</defs>
</svg>
