<svg width="16" height="16" viewBox="0 0 16 16" fill="none" xmlns="http://www.w3.org/2000/svg">
<path fill-rule="evenodd" clip-rule="evenodd" d="M2.5 3.25C2.5 2.38805 2.84241 1.5614 3.4519 0.951903C4.0614 0.34241 4.88805 0 5.75 0L6.25 0C6.6768 0 7.09941 0.0840637 7.49372 0.247392C7.88803 0.410719 8.24631 0.650113 8.5481 0.951903C8.84989 1.25369 9.08928 1.61197 9.25261 2.00628C9.41594 2.40059 9.5 2.8232 9.5 3.25V3.75C9.5 4.1768 9.41594 4.59941 9.25261 4.99372C9.08928 5.38803 8.84989 5.74631 8.5481 6.0481C8.24631 6.34989 7.88803 6.58928 7.49372 6.75261C7.09941 6.91594 6.6768 7 6.25 7H5.75C4.88805 7 4.0614 6.65759 3.4519 6.0481C2.84241 5.4386 2.5 4.61195 2.5 3.75V3.25ZM5.75 1.5C5.28587 1.5 4.84075 1.68437 4.51256 2.01256C4.18437 2.34075 4 2.78587 4 3.25V3.75C4 4.716 4.784 5.5 5.75 5.5H6.25C6.71413 5.5 7.15925 5.31563 7.48744 4.98744C7.81563 4.65925 8 4.21413 8 3.75V3.25C8 2.78587 7.81563 2.34075 7.48744 2.01256C7.15925 1.68437 6.71413 1.5 6.25 1.5H5.75ZM1.5 13.17C2.325 11.49 3.713 10.5 5.5 10.5V9C2.973 9 1.083 10.49 0.069 12.686L0 12.836V16H5.5V14.5H1.5V13.17ZM10.091 10.217C10.4919 10.0142 10.8031 9.66952 10.964 9.25H11.036C11.206 9.703 11.544 10.03 11.909 10.217C11.969 10.249 12.029 10.283 12.087 10.321C12.4639 10.5677 12.9192 10.6651 13.364 10.594L13.399 10.656C13.1156 11.0051 12.9723 11.4471 12.997 11.896C13.0006 11.9653 13.0006 12.0347 12.997 12.104C12.977 12.514 13.092 12.971 13.399 13.344L13.364 13.406C12.9192 13.3349 12.4639 13.4323 12.087 13.679C12.0295 13.7167 11.9701 13.7514 11.909 13.783C11.5081 13.9858 11.1969 14.3305 11.036 14.75H10.964C10.8031 14.3305 10.4919 13.9858 10.091 13.783C10.0299 13.7515 9.97048 13.7167 9.913 13.679C9.53613 13.4323 9.08081 13.3349 8.636 13.406L8.601 13.344C8.908 12.971 9.024 12.514 9.003 12.104C8.99949 12.0347 8.99949 11.9653 9.003 11.896C9.023 11.486 8.908 11.029 8.601 10.656L8.636 10.594C9.114 10.674 9.568 10.544 9.913 10.321C9.971 10.283 10.03 10.249 10.091 10.217ZM14.404 11.407L14.964 10.866L13.964 9.134L13.215 9.348C13.1394 9.36796 13.0604 9.37151 12.9833 9.3584C12.9062 9.34529 12.8328 9.31583 12.768 9.272C12.6743 9.21105 12.5775 9.15498 12.478 9.104C12.4075 9.06991 12.3452 9.02113 12.2952 8.96093C12.2452 8.90073 12.2086 8.83051 12.188 8.755L12 8H10L9.811 8.755C9.79063 8.8306 9.75429 8.90095 9.70444 8.96133C9.65459 9.0217 9.59238 9.07069 9.522 9.105C9.422 9.155 9.326 9.212 9.232 9.272C9.16726 9.31589 9.09386 9.34539 9.01675 9.3585C8.93964 9.37161 8.86061 9.36803 8.785 9.348L8.035 9.134L7.035 10.866L7.596 11.408C7.71 11.518 7.762 11.674 7.754 11.832C7.74829 11.9439 7.74829 12.0561 7.754 12.168C7.75944 12.2459 7.74815 12.324 7.7209 12.3971C7.69365 12.4702 7.65106 12.5367 7.596 12.592L7.036 13.134L8.036 14.866L8.785 14.652C8.86055 14.6319 8.93952 14.6282 9.01662 14.6411C9.09372 14.6541 9.16715 14.6833 9.232 14.727C9.326 14.788 9.422 14.844 9.522 14.895C9.663 14.967 9.772 15.091 9.812 15.245L10 16H12L12.189 15.245C12.2093 15.1695 12.2454 15.0992 12.2951 15.0388C12.3448 14.9785 12.4068 14.9294 12.477 14.895C12.577 14.845 12.674 14.788 12.767 14.727C12.832 14.6832 12.9056 14.6538 12.9829 14.6409C13.0601 14.628 13.1393 14.6317 13.215 14.652L13.965 14.866L14.965 13.134L14.404 12.592C14.3489 12.5367 14.3064 12.4702 14.2791 12.3971C14.2519 12.324 14.2406 12.2459 14.246 12.168C14.2518 12.0561 14.2518 11.9439 14.246 11.832C14.2406 11.7541 14.2519 11.676 14.2791 11.6029C14.3064 11.5298 14.3489 11.4633 14.404 11.408V11.407Z" fill="white"/>
</svg>
