<svg width="16" height="16" viewBox="0 0 16 16" fill="none" xmlns="http://www.w3.org/2000/svg">
<path fill-rule="evenodd" clip-rule="evenodd" d="M7.75 0C6.88805 0 6.0614 0.34241 5.4519 0.951903C4.84241 1.5614 4.5 2.38805 4.5 3.25V3.75C4.5 4.61195 4.84241 5.4386 5.4519 6.0481C6.0614 6.65759 6.88805 7 7.75 7H8.25C8.6768 7 9.09941 6.91594 9.49372 6.75261C9.88803 6.58928 10.2463 6.34989 10.5481 6.0481C10.8499 5.74631 11.0893 5.38803 11.2526 4.99372C11.4159 4.59941 11.5 4.1768 11.5 3.75V3.25C11.5 2.38805 11.1576 1.5614 10.5481 0.951903C9.9386 0.34241 9.11195 0 8.25 0H7.75ZM6 3.25C6 2.284 6.784 1.5 7.75 1.5H8.25C9.216 1.5 10 2.284 10 3.25V3.75C10 4.21413 9.81563 4.65925 9.48744 4.98744C9.15925 5.31563 8.71413 5.5 8.25 5.5H7.75C7.28587 5.5 6.84075 5.31563 6.51256 4.98744C6.18437 4.65925 6 4.21413 6 3.75V3.25ZM2.5 14.5V13.17C2.90318 12.3672 3.52165 11.6924 4.2863 11.2209C5.05095 10.7494 5.93166 10.4998 6.83 10.5H9.17C10.0683 10.4998 10.949 10.7494 11.7137 11.2209C12.4784 11.6924 13.0968 12.3672 13.5 13.17V14.5H2.5ZM6.83 9C5.61794 8.99987 4.43122 9.34696 3.41026 10.0002C2.38929 10.6534 1.57683 11.5855 1.069 12.686L1 12.836V16H15V12.835L14.931 12.685C14.4231 11.5848 13.6107 10.6531 12.59 10C11.5692 9.347 10.3828 8.99997 9.171 9H6.83Z" fill="white"/>
</svg>
