<svg width="16" height="16" viewBox="0 0 16 16" fill="none" xmlns="http://www.w3.org/2000/svg">
<g clip-path="url(#clip0_5_2470)">
<path fill-rule="evenodd" clip-rule="evenodd" d="M5.75 0C4.88805 0 4.0614 0.34241 3.4519 0.951903C2.84241 1.5614 2.5 2.38805 2.5 3.25V3.75C2.5 4.61195 2.84241 5.4386 3.4519 6.0481C4.0614 6.65759 4.88805 7 5.75 7H6.25C6.6768 7 7.09941 6.91594 7.49372 6.75261C7.88803 6.58928 8.24631 6.34989 8.5481 6.0481C8.84989 5.74631 9.08928 5.38803 9.25261 4.99372C9.41594 4.59941 9.5 4.1768 9.5 3.75V3.25C9.5 2.8232 9.41594 2.40059 9.25261 2.00628C9.08928 1.61197 8.84989 1.25369 8.5481 0.951903C8.24631 0.650113 7.88803 0.410719 7.49372 0.247392C7.09941 0.0840637 6.6768 0 6.25 0L5.75 0ZM4 3.25C4 2.284 4.784 1.5 5.75 1.5H6.25C7.216 1.5 8 2.284 8 3.25V3.75C8 4.21413 7.81563 4.65925 7.48744 4.98744C7.15925 5.31563 6.71413 5.5 6.25 5.5H5.75C5.28587 5.5 4.84075 5.31563 4.51256 4.98744C4.18437 4.65925 4 4.21413 4 3.75V3.25ZM10.5 5.75H15.5V7.25H10.5V5.75ZM1.5 13.17V14.5H10.5V13.17C10.0968 12.3672 9.47835 11.6924 8.7137 11.2209C7.94904 10.7494 7.06834 10.4998 6.17 10.5H5.83C4.93166 10.4998 4.05096 10.7494 3.2863 11.2209C2.52165 11.6924 1.90318 12.3672 1.5 13.17ZM0.069 12.686C0.576754 11.5856 1.38907 10.6537 2.40983 10.0005C3.4306 9.34724 4.61711 9.00006 5.829 9H6.171C7.38289 9.00006 8.5694 9.34724 9.59017 10.0005C10.6109 10.6537 11.4232 11.5856 11.931 12.686L12 12.836V16H0V12.835L0.069 12.686Z" fill="white"/>
</g>
<defs>
<clipPath id="clip0_5_2470">
<rect width="16" height="16" fill="white"/>
</clipPath>
</defs>
</svg>
