<svg width="16" height="16" viewBox="0 0 16 16" fill="none" xmlns="http://www.w3.org/2000/svg">
<g clip-path="url(#clip0_5_2473)">
<path fill-rule="evenodd" clip-rule="evenodd" d="M0 1C0 0.734784 0.105357 0.48043 0.292893 0.292893C0.48043 0.105357 0.734784 0 1 0L15 0C15.2652 0 15.5196 0.105357 15.7071 0.292893C15.8946 0.48043 16 0.734784 16 1V10C16 10.2652 15.8946 10.5196 15.7071 10.7071C15.5196 10.8946 15.2652 11 15 11H12.5V9.5H14.5V1.5H1.5V9.5H3.5V11H1C0.734784 11 0.48043 10.8946 0.292893 10.7071C0.105357 10.5196 0 10.2652 0 10V1ZM8 14C7.43136 14 6.87152 14.1403 6.37016 14.4086C5.8688 14.6769 5.44143 15.0649 5.126 15.538L5 15.728V16H3.5V15.273L3.626 15.084L3.878 14.706C4.33039 14.0274 4.94333 13.471 5.6624 13.0861C6.38147 12.7013 7.18443 12.5 8 12.5C8.81557 12.5 9.61853 12.7013 10.3376 13.0861C11.0567 13.471 11.6696 14.0274 12.122 14.706L12.374 15.084L12.5 15.273V16H11V15.727L10.874 15.538C10.5586 15.0649 10.1312 14.6769 9.62984 14.4086C9.12848 14.1403 8.56864 14 8 14ZM7.75 6C7.15326 6 6.58097 6.23705 6.15901 6.65901C5.73705 7.08097 5.5 7.65326 5.5 8.25V8.75C5.5 9.34674 5.73705 9.91903 6.15901 10.341C6.58097 10.7629 7.15326 11 7.75 11H8.25C8.84674 11 9.41903 10.7629 9.84099 10.341C10.2629 9.91903 10.5 9.34674 10.5 8.75V8.25C10.5 7.65326 10.2629 7.08097 9.84099 6.65901C9.41903 6.23705 8.84674 6 8.25 6H7.75ZM7 8.25C7 8.05109 7.07902 7.86032 7.21967 7.71967C7.36032 7.57902 7.55109 7.5 7.75 7.5H8.25C8.44891 7.5 8.63968 7.57902 8.78033 7.71967C8.92098 7.86032 9 8.05109 9 8.25V8.75C9 8.94891 8.92098 9.13968 8.78033 9.28033C8.63968 9.42098 8.44891 9.5 8.25 9.5H7.75C7.55109 9.5 7.36032 9.42098 7.21967 9.28033C7.07902 9.13968 7 8.94891 7 8.75V8.25Z" fill="white"/>
</g>
<defs>
<clipPath id="clip0_5_2473">
<rect width="16" height="16" fill="white"/>
</clipPath>
</defs>
</svg>
