<svg width="16" height="16" viewBox="0 0 16 16" fill="none" xmlns="http://www.w3.org/2000/svg">
<path fill-rule="evenodd" clip-rule="evenodd" d="M13.5 4.5C13.748 4.49964 13.992 4.4378 14.2102 4.32002C14.4284 4.20223 14.6141 4.03219 14.7505 3.82509C14.8869 3.61799 14.9698 3.38031 14.9918 3.1333C15.0139 2.8863 14.9743 2.63769 14.8767 2.40971C14.7792 2.18174 14.6266 1.98151 14.4326 1.82696C14.2387 1.67241 14.0095 1.56834 13.7655 1.52408C13.5215 1.47983 13.2703 1.49675 13.0345 1.57335C12.7986 1.64995 12.5854 1.78382 12.414 1.963L8.29597 6.55L7.64397 4.684C7.31912 3.75375 6.71302 2.94755 5.90962 2.37708C5.10623 1.8066 4.14531 1.50009 3.15997 1.5H1.99997V3H3.15997C3.8342 3.0001 4.49172 3.20988 5.04142 3.6003C5.59112 3.99071 6.00578 4.54243 6.22797 5.179L7.15197 7.825L4.24197 11.067C3.85197 11.502 3.16397 11.501 2.57197 11.5H2.49997C2.258 11.5001 2.01963 11.5587 1.80521 11.6708C1.5908 11.783 1.4067 11.9453 1.26862 12.1441C1.13054 12.3428 1.04258 12.5719 1.01226 12.812C0.981928 13.0521 1.01013 13.2959 1.09445 13.5227C1.17877 13.7495 1.31671 13.9526 1.4965 14.1145C1.67629 14.2765 1.89259 14.3925 2.12694 14.4528C2.36129 14.513 2.60674 14.5157 2.84235 14.4605C3.07795 14.4054 3.29672 14.294 3.47997 14.136C3.52332 14.1047 3.56321 14.0688 3.59897 14.029L7.71697 9.44L8.87597 12.759C9.01721 13.1629 9.25862 13.5244 9.57761 13.8096C9.89659 14.0947 10.2827 14.2943 10.6999 14.3897C11.117 14.485 11.5515 14.4729 11.9627 14.3546C12.3739 14.2362 12.7483 14.0155 13.051 13.713L14.531 12.234L13.47 11.174L11.99 12.652C11.8668 12.7749 11.7145 12.8646 11.5473 12.9126C11.3801 12.9607 11.2035 12.9656 11.0338 12.9268C10.8642 12.8881 10.7072 12.8069 10.5775 12.691C10.4477 12.5751 10.3495 12.4282 10.292 12.264L8.85997 8.167L11.763 4.933C12.153 4.499 12.839 4.499 13.431 4.5H13.499H13.5Z" fill="white"/>
</svg>
