<svg width="16" height="16" viewBox="0 0 16 16" fill="none" xmlns="http://www.w3.org/2000/svg">
<g clip-path="url(#clip0_5_2476)">
<path fill-rule="evenodd" clip-rule="evenodd" d="M1.5 2.5H14.5V12.5C14.5 12.7652 14.3946 13.0196 14.2071 13.2071C14.0196 13.3946 13.7652 13.5 13.5 13.5H2.5C2.23478 13.5 1.98043 13.3946 1.79289 13.2071C1.60536 13.0196 1.5 12.7652 1.5 12.5V2.5ZM0 1H16V12.5C16 13.163 15.7366 13.7989 15.2678 14.2678C14.7989 14.7366 14.163 15 13.5 15H2.5C1.83696 15 1.20107 14.7366 0.732233 14.2678C0.263392 13.7989 0 13.163 0 12.5L0 1ZM6.745 6.764L9.216 8L6.745 9.236V6.764ZM11.105 7.553C11.1879 7.59457 11.2577 7.6584 11.3064 7.73734C11.3552 7.81628 11.381 7.90723 11.381 8C11.381 8.09277 11.3552 8.18372 11.3064 8.26266C11.2577 8.34161 11.1879 8.40543 11.105 8.447L6.224 10.888C6.14777 10.9262 6.06304 10.9443 5.97786 10.9405C5.89268 10.9367 5.80988 10.9112 5.73733 10.8664C5.66478 10.8216 5.60489 10.759 5.56335 10.6846C5.52181 10.6101 5.5 10.5263 5.5 10.441V5.559C5.5 5.47374 5.52181 5.38989 5.56335 5.31543C5.60489 5.24097 5.66478 5.17836 5.73733 5.13357C5.80988 5.08878 5.89268 5.06328 5.97786 5.05951C6.06304 5.05573 6.14777 5.0738 6.224 5.112L11.106 7.552L11.105 7.553Z" fill="white"/>
</g>
<defs>
<clipPath id="clip0_5_2476">
<rect width="16" height="16" fill="white"/>
</clipPath>
</defs>
</svg>
