<svg width="16" height="16" viewBox="0 0 16 16" fill="none" xmlns="http://www.w3.org/2000/svg">
<path fill-rule="evenodd" clip-rule="evenodd" d="M8.55801 2H7.44101L1.89001 13.5H14.11L8.55801 2ZM9.90901 1.348C9.78652 1.0942 9.59501 0.880047 9.35642 0.730068C9.11784 0.580089 8.84183 0.500355 8.56001 0.5H7.44001C7.15803 0.500167 6.88181 0.579813 6.64303 0.729803C6.40425 0.879792 6.21258 1.09405 6.09001 1.348L0.193015 13.565C0.119383 13.7174 0.085645 13.886 0.0949606 14.055C0.104276 14.224 0.156341 14.3879 0.246277 14.5313C0.336213 14.6747 0.461077 14.7929 0.609173 14.8749C0.757268 14.9569 0.923747 14.9999 1.09301 15H14.907C15.0763 14.9999 15.2428 14.9569 15.3909 14.8749C15.539 14.7929 15.6638 14.6747 15.7538 14.5313C15.8437 14.3879 15.8958 14.224 15.9051 14.055C15.9144 13.886 15.8806 13.7174 15.807 13.565L9.90901 1.348ZM8.75001 4.75V8.75H7.25001V4.75H8.75001ZM8.00001 12C8.26523 12 8.51958 11.8946 8.70712 11.7071C8.89466 11.5196 9.00001 11.2652 9.00001 11C9.00001 10.7348 8.89466 10.4804 8.70712 10.2929C8.51958 10.1054 8.26523 10 8.00001 10C7.7348 10 7.48044 10.1054 7.29291 10.2929C7.10537 10.4804 7.00001 10.7348 7.00001 11C7.00001 11.2652 7.10537 11.5196 7.29291 11.7071C7.48044 11.8946 7.7348 12 8.00001 12Z" fill="white"/>
</svg>
