<svg width="16" height="16" viewBox="0 0 16 16" fill="none" xmlns="http://www.w3.org/2000/svg">
<path fill-rule="evenodd" clip-rule="evenodd" d="M0 11.75V2H1.71L10.332 12.777L11.639 14.362L12.116 14.94L10.959 15.895L10.482 15.316L9.396 14H2.25C1.65326 14 1.08097 13.7629 0.65901 13.341C0.237053 12.919 0 12.3467 0 11.75ZM8.19 12.5L1.5 4.138V11.75C1.5 12.164 1.836 12.5 2.25 12.5H8.19ZM4.75 2H11.5V4.625L14.5 2.875L16 2V14L14.5 13.125L10.992 11.079C10.6899 10.9027 10.4393 10.6503 10.2652 10.3469C10.0912 10.0435 9.99972 9.69978 10 9.35V3.5H4.75V2ZM11.5 9.25V6.362L14.5 4.612V11.388L11.748 9.783C11.6725 9.73895 11.6099 9.67588 11.5664 9.60008C11.5229 9.52428 11.5 9.4384 11.5 9.351V9.25Z" fill="white"/>
</svg>
