<svg width="16" height="16" viewBox="0 0 16 16" fill="none" xmlns="http://www.w3.org/2000/svg">
<g clip-path="url(#clip0_5_2479)">
<path fill-rule="evenodd" clip-rule="evenodd" d="M2.25 2C1.65326 2 1.08097 2.23705 0.65901 2.65901C0.237053 3.08097 0 3.65326 0 4.25L0 11.75C0 12.3467 0.237053 12.919 0.65901 13.341C1.08097 13.7629 1.65326 14 2.25 14H11.5V11.375L14.5 13.125L16 14V2L14.5 2.875L11.5 4.625V2H2.25ZM11.5 6.362V9.638L14.5 11.388V4.612L11.5 6.362ZM10 5.5V3.5H2.25C2.05109 3.5 1.86032 3.57902 1.71967 3.71967C1.57902 3.86032 1.5 4.05109 1.5 4.25V11.75C1.5 12.164 1.836 12.5 2.25 12.5H10V5.5Z" fill="white"/>
</g>
<defs>
<clipPath id="clip0_5_2479">
<rect width="16" height="16" fill="white"/>
</clipPath>
</defs>
</svg>
