<svg width="16" height="16" viewBox="0 0 16 16" fill="none" xmlns="http://www.w3.org/2000/svg">
<g clip-path="url(#clip0_5_2481)">
<path fill-rule="evenodd" clip-rule="evenodd" d="M5.83501 3.25003C5.5035 3.82422 5.41367 4.50659 5.58526 5.14702C5.75686 5.78746 6.17583 6.3335 6.75001 6.66503L7.39501 7.03703L7.02701 7.68503L5.14601 11C5.25091 11.2405 5.27749 11.5079 5.222 11.7643C5.1665 12.0207 5.03174 12.2531 4.8368 12.4287C4.64187 12.6042 4.39663 12.714 4.13584 12.7425C3.87504 12.7709 3.61191 12.7166 3.3837 12.5872C3.1555 12.4578 2.97379 12.2599 2.86432 12.0215C2.75484 11.783 2.72316 11.5162 2.77374 11.2588C2.82433 11.0014 2.95462 10.7664 3.14617 10.5872C3.33771 10.4079 3.58081 10.2935 3.84101 10.26L5.39001 7.53203C4.82294 7.04394 4.40409 6.40663 4.18102 5.69246C3.95795 4.97829 3.93961 4.21588 4.12807 3.4918C4.31652 2.76773 4.70424 2.11101 5.24718 1.59621C5.79012 1.08142 6.46653 0.729175 7.1996 0.579487C7.93267 0.429799 8.69303 0.488662 9.39432 0.749393C10.0956 1.01012 10.7098 1.46227 11.167 2.0545C11.6242 2.64672 11.9063 3.35529 11.981 4.09974C12.0558 4.8442 11.9203 5.5947 11.59 6.26603L10.496 4.33803C10.4613 3.80263 10.2553 3.2926 9.90838 2.88331C9.56149 2.47402 9.09212 2.18719 8.56965 2.0652C8.04718 1.94322 7.49932 1.99255 7.00705 2.20592C6.51478 2.41928 6.10321 2.78535 5.83501 3.25003ZM9.14601 5.00003C9.25091 4.75957 9.27749 4.4922 9.222 4.2358C9.1665 3.97939 9.03174 3.74695 8.8368 3.57138C8.64187 3.39582 8.39663 3.28604 8.13584 3.25759C7.87504 3.22914 7.61191 3.28346 7.3837 3.41287C7.1555 3.54227 6.97379 3.74019 6.86432 3.9786C6.75484 4.21701 6.72316 4.48382 6.77374 4.74124C6.82433 4.99866 6.95462 5.23364 7.14617 5.4129C7.33771 5.59215 7.58081 5.7066 7.84101 5.74003L9.72301 9.05603L10.096 9.71303L10.75 9.33503C11.1234 9.11946 11.5462 9.00412 11.9774 9.00023C12.4085 8.99634 12.8333 9.10401 13.2106 9.3128C13.5878 9.52159 13.9046 9.82439 14.1303 10.1918C14.3559 10.5592 14.4827 10.9787 14.4983 11.4096C14.5139 11.8405 14.4178 12.2681 14.2194 12.6508C14.0209 13.0336 13.7268 13.3585 13.3657 13.5941C13.0046 13.8296 12.5887 13.9678 12.1584 13.9951C11.7281 14.0224 11.298 13.938 10.91 13.75H8.69301C9.11286 14.3669 9.6969 14.8541 10.3791 15.1564C11.0613 15.4588 11.8145 15.5643 12.5536 15.461C13.2926 15.3577 13.988 15.0497 14.5612 14.5719C15.1343 14.094 15.5624 13.4654 15.797 12.757C16.0316 12.0487 16.0634 11.2888 15.8887 10.5633C15.7141 9.83779 15.34 9.17562 14.8087 8.65161C14.2774 8.12761 13.6101 7.76267 12.8823 7.59805C12.1545 7.43342 11.3951 7.47567 10.69 7.72003L9.14601 5.00003ZM13.25 11.5C13.25 11.7624 13.1675 12.0181 13.0141 12.2309C12.8607 12.4437 12.6442 12.6029 12.3953 12.6859C12.1464 12.7688 11.8777 12.7714 11.6273 12.6932C11.3769 12.6149 11.1574 12.4599 11 12.25H7.93001C7.79042 12.9823 7.44904 13.661 6.94436 14.2096C6.43968 14.7582 5.79177 15.1549 5.07368 15.355C4.35559 15.5551 3.59589 15.5506 2.88023 15.342C2.16456 15.1334 1.52141 14.729 1.02327 14.1745C0.525132 13.6199 0.191829 12.9372 0.0609399 12.2033C-0.0699491 11.4695 0.00678158 10.7137 0.282481 10.0211C0.558179 9.32848 1.02188 8.72669 1.6213 8.28355C2.22073 7.84041 2.93203 7.57354 3.67501 7.51303L2.58101 9.44103C2.22671 9.68529 1.94146 10.0169 1.75287 10.4037C1.56428 10.7905 1.47873 11.2194 1.5045 11.649C1.53027 12.0786 1.66648 12.4942 1.89997 12.8557C2.13345 13.2172 2.45629 13.5123 2.83725 13.7124C3.21821 13.9126 3.64438 14.011 4.07453 13.9982C4.50467 13.9853 4.92422 13.8617 5.29258 13.6392C5.66093 13.4167 5.96562 13.1029 6.17715 12.7281C6.38867 12.3534 6.49988 11.9304 6.50001 11.5V10.75H11C11.1574 10.5401 11.3769 10.3851 11.6273 10.3069C11.8777 10.2287 12.1464 10.2312 12.3953 10.3142C12.6442 10.3971 12.8607 10.5563 13.0141 10.7691C13.1675 10.982 13.25 11.2377 13.25 11.5Z" fill="white"/>
</g>
<defs>
<clipPath id="clip0_5_2481">
<rect width="16" height="16" fill="white"/>
</clipPath>
</defs>
</svg>
