<svg width="16" height="16" viewBox="0 0 16 16" fill="none" xmlns="http://www.w3.org/2000/svg">
<path fill-rule="evenodd" clip-rule="evenodd" d="M0.75 1H0V11.5C0 12.163 0.263392 12.7989 0.732233 13.2678C1.20107 13.7366 1.83696 14 2.5 14H6V12.5H2.5C2.23478 12.5 1.98043 12.3946 1.79289 12.2071C1.60536 12.0196 1.5 11.7652 1.5 11.5V2.5H14.5V7H16V1H0.75ZM3.75 5.5C3.94891 5.5 4.13968 5.42098 4.28033 5.28033C4.42098 5.13968 4.5 4.94891 4.5 4.75C4.5 4.55109 4.42098 4.36032 4.28033 4.21967C4.13968 4.07902 3.94891 4 3.75 4C3.55109 4 3.36032 4.07902 3.21967 4.21967C3.07902 4.36032 3 4.55109 3 4.75C3 4.94891 3.07902 5.13968 3.21967 5.28033C3.36032 5.42098 3.55109 5.5 3.75 5.5ZM7 4.75C7 4.84849 6.9806 4.94602 6.94291 5.03701C6.90522 5.12801 6.84997 5.21069 6.78033 5.28033C6.71069 5.34997 6.62801 5.40522 6.53701 5.44291C6.44602 5.4806 6.34849 5.5 6.25 5.5C6.15151 5.5 6.05398 5.4806 5.96299 5.44291C5.87199 5.40522 5.78931 5.34997 5.71967 5.28033C5.65003 5.21069 5.59478 5.12801 5.55709 5.03701C5.5194 4.94602 5.5 4.84849 5.5 4.75C5.5 4.55109 5.57902 4.36032 5.71967 4.21967C5.86032 4.07902 6.05109 4 6.25 4C6.44891 4 6.63968 4.07902 6.78033 4.21967C6.92098 4.36032 7 4.55109 7 4.75ZM8.75 5.5C8.94891 5.5 9.13968 5.42098 9.28033 5.28033C9.42098 5.13968 9.5 4.94891 9.5 4.75C9.5 4.55109 9.42098 4.36032 9.28033 4.21967C9.13968 4.07902 8.94891 4 8.75 4C8.55109 4 8.36032 4.07902 8.21967 4.21967C8.07902 4.36032 8 4.55109 8 4.75C8 4.94891 8.07902 5.13968 8.21967 5.28033C8.36032 5.42098 8.55109 5.5 8.75 5.5Z" fill="white"/>
<mask id="mask0_5_2483" style="mask-type:luminance" maskUnits="userSpaceOnUse" x="7" y="7" width="9" height="9">
<path d="M7 7H16V16H7V7Z" fill="white"/>
</mask>
<g mask="url(#mask0_5_2483)">
<path d="M9 12.5L12.5 7V10.5H15L11.5 16V12.5H9Z" fill="white" stroke="white" stroke-linejoin="round"/>
</g>
</svg>
