<svg width="16" height="16" viewBox="0 0 16 16" fill="none" xmlns="http://www.w3.org/2000/svg">
<g clip-path="url(#clip0_5_2486)">
<path fill-rule="evenodd" clip-rule="evenodd" d="M0.75 0H0V10.5C0 11.163 0.263392 11.7989 0.732233 12.2678C1.20107 12.7366 1.83696 13 2.5 13H5.25V11.5H2.5C2.23478 11.5 1.98043 11.3946 1.79289 11.2071C1.60536 11.0196 1.5 10.7652 1.5 10.5V1.5H14.5V6H16V0H0.75ZM3.75 4.5C3.94891 4.5 4.13968 4.42098 4.28033 4.28033C4.42098 4.13968 4.5 3.94891 4.5 3.75C4.5 3.55109 4.42098 3.36032 4.28033 3.21967C4.13968 3.07902 3.94891 3 3.75 3C3.55109 3 3.36032 3.07902 3.21967 3.21967C3.07902 3.36032 3 3.55109 3 3.75C3 3.94891 3.07902 4.13968 3.21967 4.28033C3.36032 4.42098 3.55109 4.5 3.75 4.5ZM7 3.75C7 3.84849 6.9806 3.94602 6.94291 4.03701C6.90522 4.12801 6.84997 4.21069 6.78033 4.28033C6.71069 4.34997 6.62801 4.40522 6.53701 4.44291C6.44602 4.4806 6.34849 4.5 6.25 4.5C6.15151 4.5 6.05398 4.4806 5.96299 4.44291C5.87199 4.40522 5.78931 4.34997 5.71967 4.28033C5.65003 4.21069 5.59478 4.12801 5.55709 4.03701C5.5194 3.94602 5.5 3.84849 5.5 3.75C5.5 3.55109 5.57902 3.36032 5.71967 3.21967C5.86032 3.07902 6.05109 3 6.25 3C6.44891 3 6.63968 3.07902 6.78033 3.21967C6.92098 3.36032 7 3.55109 7 3.75ZM8.75 4.5C8.94891 4.5 9.13968 4.42098 9.28033 4.28033C9.42098 4.13968 9.5 3.94891 9.5 3.75C9.5 3.55109 9.42098 3.36032 9.28033 3.21967C9.13968 3.07902 8.94891 3 8.75 3C8.55109 3 8.36032 3.07902 8.21967 3.21967C8.07902 3.36032 8 3.55109 8 3.75C8 3.94891 8.07902 4.13968 8.21967 4.28033C8.36032 4.42098 8.55109 4.5 8.75 4.5ZM9.45 10.5H8.5V9H9.45C9.91176 9.0001 10.3623 9.14228 10.7405 9.40722C11.1187 9.67216 11.4062 10.047 11.564 10.481L11.872 11.327L13.627 9.332C13.7058 9.21469 13.8162 9.12204 13.9454 9.06472C14.0745 9.0074 14.2173 8.98775 14.3571 9.00803C14.497 9.02831 14.6283 9.08769 14.7359 9.17933C14.8435 9.27098 14.923 9.39116 14.9652 9.52602C15.0075 9.66088 15.0108 9.80493 14.9747 9.94158C14.9387 10.0782 14.8647 10.2019 14.7615 10.2984C14.6582 10.3948 14.5297 10.4602 14.391 10.4868C14.2522 10.5135 14.1087 10.5004 13.977 10.449L12.261 12.399L12.846 14.006C12.8986 14.1508 12.9944 14.2758 13.1206 14.3642C13.2467 14.4526 13.397 14.5 13.551 14.5H14.5V16H13.55C13.0882 15.9999 12.6377 15.8577 12.2595 15.5928C11.8813 15.3278 11.5938 14.953 11.436 14.519L11.132 13.682L9.317 15.744C9.2464 15.8249 9.15921 15.8896 9.06138 15.9337C8.96354 15.9779 8.85734 16.0005 8.75 16C8.63934 16 8.53005 15.9755 8.42997 15.9283C8.3299 15.881 8.24152 15.8122 8.17116 15.7268C8.10081 15.6414 8.05023 15.5415 8.02306 15.4342C7.99588 15.3269 7.99278 15.215 8.01397 15.1063C8.03517 14.9977 8.08014 14.8952 8.14565 14.806C8.21117 14.7168 8.29561 14.6432 8.39292 14.5905C8.49023 14.5378 8.59799 14.5073 8.70848 14.5012C8.81897 14.495 8.92945 14.5134 9.032 14.555L10.742 12.611L10.154 10.994C10.1014 10.8492 10.0056 10.7242 9.87943 10.6358C9.7533 10.5474 9.60402 10.5 9.45 10.5Z" fill="white"/>
</g>
<defs>
<clipPath id="clip0_5_2486">
<rect width="16" height="16" fill="white"/>
</clipPath>
</defs>
</svg>
