<svg width="16" height="16" viewBox="0 0 16 16" fill="none" xmlns="http://www.w3.org/2000/svg">
<g clip-path="url(#clip0_5_2487)">
<path d="M12.798 1.24201L13.328 1.77201L14.057 1.04401L13.14 0.574006L12.798 1.24201ZM9.95804 4.08201L9.42704 3.55201L9.95704 4.08201H9.95804ZM6.58304 6.95701L7.11304 7.48701L7.46704 7.13401L7.27704 6.67201L6.58304 6.95701ZM9.10104 9.43801L9.37604 8.74101L8.91904 8.56101L8.57104 8.90801L9.10104 9.43801ZM14.785 3.25501L15.457 2.92201L14.993 1.98601L14.254 2.72501L14.785 3.25501ZM12.267 0.712006L9.42704 3.55201L10.487 4.61301L13.328 1.77301L12.267 0.712006ZM10.75 1.50001C11.366 1.50001 11.945 1.64801 12.456 1.91001L13.14 0.574006C12.4003 0.195561 11.581 -0.00120393 10.75 5.54219e-06V1.50001ZM7.00004 5.25001C7.00004 4.25544 7.39513 3.30162 8.09839 2.59836C8.80165 1.89509 9.75548 1.50001 10.75 1.50001V5.54219e-06C9.35766 5.54219e-06 8.0223 0.553129 7.03773 1.53769C6.05317 2.52226 5.50004 3.85762 5.50004 5.25001H7.00004ZM7.27804 6.67101C7.09362 6.21999 6.99918 5.73727 7.00004 5.25001H5.50004C5.50004 5.95301 5.63804 6.62501 5.89004 7.24001L7.27804 6.67101ZM6.05404 6.42501L0.970043 11.51L2.03004 12.57L7.11504 7.48601L6.05504 6.42601L6.05404 6.42501ZM0.970043 11.51C0.498129 11.9822 0.233032 12.6224 0.233032 13.29C0.233032 13.9576 0.498129 14.5978 0.970043 15.07L2.03004 14.01C1.93546 13.9155 1.86044 13.8032 1.80925 13.6797C1.75806 13.5561 1.73171 13.4237 1.73171 13.29C1.73171 13.1563 1.75806 13.0239 1.80925 12.9003C1.86044 12.7768 1.93546 12.6645 2.03004 12.57L0.970043 11.51ZM0.970043 15.07C1.44222 15.5419 2.08247 15.807 2.75004 15.807C3.41762 15.807 4.05787 15.5419 4.53004 15.07L3.47004 14.01C3.37551 14.1046 3.26326 14.1796 3.13972 14.2308C3.01618 14.282 2.88377 14.3083 2.75004 14.3083C2.61632 14.3083 2.4839 14.282 2.36036 14.2308C2.23682 14.1796 2.12458 14.1046 2.03004 14.01L0.970043 15.07ZM4.53004 15.07L9.63204 9.97001L8.57204 8.91001L3.47004 14.01L4.53004 15.071V15.07ZM10.75 9.00001C10.264 9.00001 9.80004 8.90801 9.37604 8.74001L8.82604 10.136C9.43879 10.3772 10.0915 10.5007 10.75 10.5V9.00001ZM14.5 5.25001C14.5 6.24457 14.105 7.19839 13.4017 7.90166C12.6984 8.60492 11.7446 9.00001 10.75 9.00001V10.5C13.65 10.5 16 8.15001 16 5.25001H14.5ZM14.113 3.58801C14.36 4.08801 14.5 4.65201 14.5 5.25001H16C16 4.41601 15.805 3.62501 15.457 2.92201L14.113 3.58801ZM12.487 6.61301L15.315 3.78601L14.255 2.72501L11.427 5.55301L12.487 6.61301ZM10.012 6.61301C10.1745 6.77553 10.3675 6.90445 10.5798 6.9924C10.7921 7.08036 11.0197 7.12563 11.2495 7.12563C11.4794 7.12563 11.7069 7.08036 11.9193 6.9924C12.1316 6.90445 12.3245 6.77553 12.487 6.61301L11.427 5.55301C11.4038 5.57629 11.3762 5.59476 11.3459 5.60736C11.3155 5.61997 11.2829 5.62645 11.25 5.62645C11.2172 5.62645 11.1846 5.61997 11.1542 5.60736C11.1239 5.59476 11.0963 5.57629 11.073 5.55301L10.012 6.61301ZM9.42704 6.02701L10.012 6.61301L11.073 5.55301L10.487 4.96701L9.42704 6.02701ZM9.42704 3.55201C9.09912 3.88016 8.91492 4.32609 8.91492 4.79001C8.91492 5.25392 9.09912 5.69885 9.42704 6.02701L10.487 4.96701C10.4638 4.94378 10.4453 4.91619 10.4327 4.88582C10.4201 4.85545 10.4136 4.82289 10.4136 4.79001C10.4136 4.75712 10.4201 4.72456 10.4327 4.69419C10.4453 4.66382 10.4638 4.63623 10.487 4.61301L9.42704 3.55201Z" fill="white"/>
</g>
<defs>
<clipPath id="clip0_5_2487">
<rect width="16" height="16" fill="white"/>
</clipPath>
</defs>
</svg>
