<svg width="16" height="16" viewBox="0 0 16 16" fill="none" xmlns="http://www.w3.org/2000/svg">
<g clip-path="url(#clip0_5_2027)">
<path fill-rule="evenodd" clip-rule="evenodd" d="M15.53 1.53L16.06 1L15 -0.0599976L14.47 0.470002L12.391 2.548C11.0464 1.46394 9.34838 0.915284 7.62363 1.00755C5.89888 1.09981 4.26913 1.82648 3.04781 3.04781C1.82648 4.26913 1.09981 5.89888 1.00755 7.62363C0.915284 9.34838 1.46394 11.0464 2.548 12.391L0.470002 14.47L-0.0599976 15L1 16.06L1.53 15.53L3.609 13.452C4.95365 14.5361 6.65162 15.0847 8.37637 14.9925C10.1011 14.9002 11.7309 14.1735 12.9522 12.9522C14.1735 11.7309 14.9002 10.1011 14.9925 8.37637C15.0847 6.65162 14.5361 4.95365 13.452 3.609L15.53 1.53ZM11.323 3.617C10.2641 2.81358 8.95006 2.42081 7.62395 2.51135C6.29784 2.60189 5.04938 3.1696 4.10949 4.10949C3.1696 5.04938 2.60189 6.29784 2.51135 7.62395C2.42081 8.95006 2.81358 10.2641 3.617 11.323L11.323 3.617ZM4.677 12.383L12.383 4.677C13.1864 5.73591 13.5792 7.04994 13.4887 8.37606C13.3981 9.70217 12.8304 10.9506 11.8905 11.8905C10.9506 12.8304 9.70217 13.3981 8.37606 13.4887C7.04994 13.5792 5.73591 13.1864 4.677 12.383Z" fill="white"/>
</g>
<defs>
<clipPath id="clip0_5_2027">
<rect width="16" height="16" fill="white"/>
</clipPath>
</defs>
</svg>
